<?xml version="1.0" standalone="no"?>
<!DOCTYPE svg PUBLIC "-//W3C//DTD SVG 1.1//EN" "http://www.w3.org/Graphics/SVG/1.1/DTD/svg11.dtd" >
<svg xmlns="http://www.w3.org/2000/svg" xmlns:xlink="http://www.w3.org/1999/xlink" version="1.1">
<metadata>
Created by FontForge 20160407 at Thu Nov 24 06:02:36 2016
 By Jimmy Wärting
(c) 2016 Aditya Bayu Perdana

&#60;DISCLAIMER&#62; 
The opentype attributes and coding of Pustaka is derived from { Prada Sunawa } by Team Prada with modifications by Aditya Bayu Perdana

----------------------------------------------------------------------------------------------
(c) 2016 Aditya Bayu Perdana

&#60;PERHATIAN&#62; 
Atribut opentype dan koding Pustaka diturunkan dari { Prada Sunawa } oleh Team Prada dengan modifikasi oleh Aditya Bayu Perdana
</metadata>
<defs>
<font id="Makaraa" horiz-adv-x="0" >
  <font-face 
    font-family="Makara a"
    font-weight="400"
    font-stretch="normal"
    units-per-em="2048"
    panose-1="2 0 5 0 0 0 0 0 0 0"
    ascent="1638"
    descent="-410"
    x-height="852"
    cap-height="1353"
    bbox="-3258.15 -2421 4512.98 2309"
    underline-thickness="150"
    underline-position="-292"
    unicode-range="U+001D-FB06"
  />
<missing-glyph horiz-adv-x="617" 
d="M719 -17v1202h-813v-1202h813zM317 481l232 -401h-464zM317 687l-232 401h464zM376 584l241 417v-834zM8 151v866l250 -433z" />
    <glyph glyph-name=".notdef" horiz-adv-x="617" 
d="M719 -17v1202h-813v-1202h813zM317 481l232 -401h-464zM317 687l-232 401h464zM376 584l241 417v-834zM8 151v866l250 -433z" />
    <glyph glyph-name=".null" 
 />
    <glyph glyph-name=".null" 
 />
    <glyph glyph-name="nonmarkingreturn" horiz-adv-x="530" 
 />
    <glyph glyph-name="space" unicode=" " horiz-adv-x="530" 
 />
    <glyph glyph-name="A" unicode="A" horiz-adv-x="1313" 
d="M403 432l-179 -432h-173l570 1353h123l570 -1353h-173l-179 432h-559zM913 552l-230 586l-230 -586h460z" />
    <glyph glyph-name="B" unicode="B" horiz-adv-x="1101" 
d="M304 1353v-1353h-163v1353h163zM587 741q195 5 204 229v27q-9 224 -274 229h-253v127h252q429 -7 438 -366v-7q-8 -197 -181 -283q273 -54 281 -312v-29q-9 -349 -468 -356h-338l5 127h324q305 5 314 219v49q-9 214 -274 219h-369l5 127h334z" />
    <glyph glyph-name="C" unicode="C" horiz-adv-x="1294" 
d="M780.5 -6q-255.5 -17 -443.5 128t-211 472t138.5 541t470 229.5t472.5 -142.5l-53 -128q-111 130 -362.5 137t-382.5 -177.5t-106.5 -452t174.5 -378t344.5 -98t376.5 112.5l11 -106q-173 -121 -428.5 -138z" />
    <glyph glyph-name="D" unicode="D" horiz-adv-x="1248" 
d="M304 1226v-1099h223q475 5 484 523v27q-9 544 -484 549h-223zM526 1353q639 -7 648 -686v-7q-9 -653 -648 -660h-385v1353h385z" />
    <glyph glyph-name="E" unicode="E" horiz-adv-x="988" 
d="M304 753h550v-121h-550v-511h600v-121h-763v1353h763v-121h-600v-479z" />
    <glyph glyph-name="F" unicode="F" horiz-adv-x="988" 
d="M304 753h550v-121h-550v-632h-163v1353h763v-121h-600v-479z" />
    <glyph glyph-name="G" unicode="G" horiz-adv-x="1294" 
d="M781 -6q-256 -17 -444 128t-206 467t138.5 531t465 224.5t472.5 -142.5l-53 -128q-111 130 -362.5 137t-377.5 -172.5t-106.5 -442t169.5 -373t345 -97.5q133 8 261 88v347h-300v121h463v-513q-213 -158 -465 -175z" />
    <glyph glyph-name="H" unicode="H" horiz-adv-x="1235" 
d="M284 632v-632h-163v1353h163v-600h687v600h163v-1353h-163v632h-687z" />
    <glyph glyph-name="I" unicode="I" horiz-adv-x="435" 
d="M304 1353v-1353h-163v1353h163z" />
    <glyph glyph-name="J" unicode="J" horiz-adv-x="657" 
d="M401 1353h163v-1093q-9 -249 -170 -291.5t-325 35.5l13 108q156 -55 233 -30.5t86 168.5v1103z" />
    <glyph glyph-name="K" unicode="K" horiz-adv-x="1097" 
d="M304 1353v-1353h-163v1353h163zM811 1353h183l-504 -643l554 -710h-203l-540 700z" />
    <glyph glyph-name="L" unicode="L" horiz-adv-x="988" 
d="M141 0v1353h163v-1232h630v-121h-793z" />
    <glyph glyph-name="M" unicode="M" horiz-adv-x="1486" 
d="M264 956v-956h-163v1353h133l509 -1138l508 1138h133v-1353h-163v966l-407 -966h-143zM264 956v-956h-163v1353h133l509 -1138l508 1138h133v-1353h-163v966l-407 -966h-143z" />
    <glyph glyph-name="N" unicode="N" horiz-adv-x="1324" 
d="M294 1054v-1054h-163v1353h133l787 -1084v1084h163v-1353h-143z" />
    <glyph glyph-name="O" unicode="O" horiz-adv-x="1454" 
d="M247 195.5q-181 197.5 -181 494.5q0 287 181 489.5t472 202.5t472 -202.5t181 -489.5q0 -297 -181 -494.5t-472 -197.5t-472 197.5zM719 136q216 0 344.5 157t128.5 397q0 229 -128.5 391.5t-344.5 162.5t-344.5 -162.5t-128.5 -391.5q0 -240 128.5 -397t344.5 -157z" />
    <glyph glyph-name="P" unicode="P" horiz-adv-x="1002" 
d="M486 1353q479 -7 488 -386v-7q-9 -379 -488 -386h-182v-574h-163v1353h345zM304 1226v-525h183q315 5 324 249v27q-9 244 -324 249h-183z" />
    <glyph glyph-name="Q" unicode="Q" horiz-adv-x="1429" 
d="M695 65q327 -286 813 -264l-36 -128q-466 -72 -913 342zM247 195.5q-181 197.5 -181 494.5q0 287 181 489.5t472 202.5t472 -202.5t181 -489.5q0 -297 -181 -494.5t-472 -197.5t-472 197.5zM719 136q216 0 344.5 157t128.5 397q0 229 -128.5 391.5t-344.5 162.5
t-344.5 -162.5t-128.5 -391.5q0 -240 128.5 -397t344.5 -157z" />
    <glyph glyph-name="R" unicode="R" horiz-adv-x="1126" 
d="M486 1353q479 -7 488 -386v-7q-8 -318 -364 -378q68 -24 147 -131l347 -451h-213l-305 410q-129 163 -211 164h-71v-574h-163v1353h345zM304 1226v-525h183q315 5 324 249v27q-9 244 -324 249h-183z" />
    <glyph glyph-name="S" unicode="S" horiz-adv-x="885" 
d="M835.5 399q21.5 -186 -91.5 -294t-324 -109.5t-384 173.5l51 134q151 -163 322.5 -164.5t231.5 83t14.5 190t-311.5 252t-283.5 337.5t92 281t305 87.5t319.5 -97.5l-30 -124q-86 63 -220 87.5t-226.5 -27t-79.5 -174.5t303 -286t311.5 -349z" />
    <glyph glyph-name="T" unicode="T" horiz-adv-x="1314" 
d="M734 1232v-1232h-163v1232h-500v121h1163v-121h-500z" />
    <glyph glyph-name="U" unicode="U" horiz-adv-x="1203" 
d="M961 510v843h163v-833q-9 -529 -518 -536q-508 7 -517 536v833h163v-843q9 -394 355 -399q345 5 354 399z" />
    <glyph glyph-name="V" unicode="V" horiz-adv-x="1299" 
d="M643 215l458 1138h183l-570 -1353h-143l-570 1353h183z" />
    <glyph glyph-name="W" unicode="W" horiz-adv-x="2013" 
d="M1003 1136l-379 -1136h-143l-470 1353h183l359 -1108l348 1108h203l349 -1108l358 1108h183l-470 -1353h-143z" />
    <glyph glyph-name="X" unicode="X" horiz-adv-x="1113" 
d="M573 836l318 517h183l-410 -653l440 -700h-183l-348 565l-349 -565h-183l440 700l-410 653h183z" />
    <glyph glyph-name="Y" unicode="Y" horiz-adv-x="1149" 
d="M583 732l2 4l379 617h190l-490 -744v-609h-163v609l-490 744h190l379 -617z" />
    <glyph glyph-name="Z" unicode="Z" horiz-adv-x="1097" 
d="M805 1232h-694v121h932l4 -12l-757 -1220h744v-121h-976l-11 12z" />
    <glyph glyph-name="Agrave" unicode="&#xc0;" horiz-adv-x="1313" 
d="M403 432l-179 -432h-173l570 1353h123l570 -1353h-173l-179 432h-559zM913 552l-230 586l-230 -586h460zM351 1881h215l137 -325l-49 -36z" />
    <glyph glyph-name="Aacute" unicode="&#xc1;" horiz-adv-x="1313" 
d="M403 432l-179 -432h-173l570 1353h123l570 -1353h-173l-179 432h-559zM913 552l-230 586l-230 -586h460zM690 1520l-49 36l137 325h215z" />
    <glyph glyph-name="Acircumflex" unicode="&#xc2;" horiz-adv-x="1313" 
d="M403 432l-179 -432h-173l570 1353h123l570 -1353h-173l-179 432h-559zM913 552l-230 586l-230 -586h460zM677 1723l-241 -203l-45 40l243 321h86l243 -321l-45 -40z" />
    <glyph glyph-name="Atilde" unicode="&#xc3;" horiz-adv-x="1313" 
d="M403 432l-179 -432h-173l570 1353h123l570 -1353h-173l-179 432h-559zM913 552l-230 586l-230 -586h460zM1005 1771q-9 -125 -54.5 -179t-126.5 -54q-48 0 -147 68.5t-154 52.5t-82 -123l-39 2q-7 124 43 186t128 60t171 -71t149 -42t73 112z" />
    <glyph glyph-name="Adieresis" unicode="&#xc4;" horiz-adv-x="1313" 
d="M403 432l-179 -432h-173l570 1353h123l570 -1353h-173l-179 432h-559zM913 552l-230 586l-230 -586h460zM524 1546q-44 0 -75 31t-31 74q0 44 31 75t75 31t75 -31t31 -75q0 -43 -31 -74t-75 -31zM864 1546q-44 0 -75 31t-31 74q0 44 31 75t75 31t75 -31t31 -75
q0 -43 -31 -74t-75 -31z" />
    <glyph glyph-name="Aring" unicode="&#xc5;" horiz-adv-x="1313" 
d="M403 432l-179 -432h-173l570 1353h123l570 -1353h-173l-179 432h-559zM913 552l-230 586l-230 -586h460zM464 1486q0 39 15 74t43 61t69 41.5t94 15.5q51 0 90.5 -15t66 -40.5t40.5 -59t14 -71.5q0 -39 -15 -73.5t-43 -61t-69 -41.5t-94 -15q-51 0 -90.5 15t-66 40
t-40.5 58.5t-14 71.5zM576 1488q0 -57 29 -79.5t74 -22.5q22 0 41.5 5.5t34 17.5t22 32t7.5 50q0 57 -29 79.5t-74 22.5q-22 0 -41.5 -5.5t-34 -18t-22 -32.5t-7.5 -49z" />
    <glyph glyph-name="Amacron" unicode="&#x100;" horiz-adv-x="1313" 
d="M403 432l-179 -432h-173l570 1353h123l570 -1353h-173l-179 432h-559zM913 552l-230 586l-230 -586h460zM411 1698h538v-85h-538v85z" />
    <glyph glyph-name="AE" unicode="&#xc6;" horiz-adv-x="1637" 
d="M640 753h201v402zM1004 753h550v-121h-550v-511h600v-121h-763v632h-266l-341 -632h-183l750 1353h803v-121h-600v-479z" />
    <glyph glyph-name="Ccedilla" unicode="&#xc7;" horiz-adv-x="1294" 
d="M780.5 -6q-255.5 -17 -443.5 128t-211 472t138.5 541t470 229.5t472.5 -142.5l-53 -128q-111 130 -362.5 137t-382.5 -177.5t-106.5 -452t174.5 -378t344.5 -98t376.5 112.5l11 -106q-173 -121 -428.5 -138zM804.5 -462q-128.5 -37 -295.5 40l24 62q131 -51 206 -28
t73.5 93.5t-74.5 91.5t-171 -31l-58 43l166 264l85 -48l-106 -155q106 45 205 -6t86.5 -170t-141 -156z" />
    <glyph glyph-name="uni1E0C" unicode="&#x1e0c;" horiz-adv-x="1248" 
d="M304 1226v-1099h223q475 5 484 523v27q-9 544 -484 549h-223zM526 1353q639 -7 648 -686v-7q-9 -653 -648 -660h-385v1353h385zM614 -399q-46 0 -78 32.5t-32 77.5q0 46 32 78.5t78 32.5t78 -32.5t32 -78.5q0 -45 -32 -77.5t-78 -32.5z" />
    <glyph glyph-name="Egrave" unicode="&#xc8;" horiz-adv-x="988" 
d="M304 753h550v-121h-550v-511h600v-121h-763v1353h763v-121h-600v-479zM261 1881h215l137 -325l-49 -36z" />
    <glyph glyph-name="Eacute" unicode="&#xc9;" horiz-adv-x="988" 
d="M304 753h550v-121h-550v-511h600v-121h-763v1353h763v-121h-600v-479zM470 1520l-49 36l137 325h215z" />
    <glyph glyph-name="Ecircumflex" unicode="&#xca;" horiz-adv-x="988" 
d="M304 753h550v-121h-550v-511h600v-121h-763v1353h763v-121h-600v-479zM507 1723l-241 -203l-45 40l243 321h86l243 -321l-45 -40z" />
    <glyph glyph-name="Edieresis" unicode="&#xcb;" horiz-adv-x="988" 
d="M304 753h550v-121h-550v-511h600v-121h-763v1353h763v-121h-600v-479zM354 1546q-44 0 -75 31t-31 74q0 44 31 75t75 31t75 -31t31 -75q0 -43 -31 -74t-75 -31zM694 1546q-44 0 -75 31t-31 74q0 44 31 75t75 31t75 -31t31 -75q0 -43 -31 -74t-75 -31z" />
    <glyph glyph-name="Ebreve" unicode="&#x114;" horiz-adv-x="988" 
d="M304 753h550v-121h-550v-511h600v-121h-763v1353h763v-121h-600v-479zM774 1841q-3 -48 -23.5 -109.5t-56 -101.5t-85 -59.5t-89.5 -19.5t-89.5 19.5t-85 59.5t-56 101.5t-23.5 109.5l61 6q17 -61 68.5 -111t124.5 -50t124.5 50t68.5 111z" />
    <glyph glyph-name="uni018F" unicode="&#x18f;" horiz-adv-x="988" 
d="M741 1232h-600v121h763v-1353h-763v121h600v511h-550v121h550v479z" />
    <glyph glyph-name="uni1E24" unicode="&#x1e24;" horiz-adv-x="1235" 
d="M284 632v-632h-163v1353h163v-600h687v600h163v-1353h-163v632h-687zM614 -399q-46 0 -78 32.5t-32 77.5q0 46 32 78.5t78 32.5t78 -32.5t32 -78.5q0 -45 -32 -77.5t-78 -32.5z" />
    <glyph glyph-name="Igrave" unicode="&#xcc;" horiz-adv-x="435" 
d="M304 1353v-1353h-163v1353h163zM-89 1881h215l137 -325l-49 -36z" />
    <glyph glyph-name="Iacute" unicode="&#xcd;" horiz-adv-x="435" 
d="M304 1353v-1353h-163v1353h163zM220 1520l-49 36l137 325h215z" />
    <glyph glyph-name="Icircumflex" unicode="&#xce;" horiz-adv-x="435" 
d="M304 1353v-1353h-163v1353h163zM217 1723l-241 -203l-45 40l243 321h86l243 -321l-45 -40z" />
    <glyph glyph-name="Idieresis" unicode="&#xcf;" horiz-adv-x="435" 
d="M304 1353v-1353h-163v1353h163zM44 1546q-44 0 -75 31t-31 74q0 44 31 75t75 31t75 -31t31 -75q0 -43 -31 -74t-75 -31zM384 1546q-44 0 -75 31t-31 74q0 44 31 75t75 31t75 -31t31 -75q0 -43 -31 -74t-75 -31z" />
    <glyph glyph-name="Imacron" unicode="&#x12a;" horiz-adv-x="435" 
d="M304 1353v-1353h-163v1353h163zM-39 1698h538v-85h-538v85z" />
    <glyph glyph-name="uni1E36" unicode="&#x1e36;" horiz-adv-x="988" 
d="M141 0v1353h163v-1232h630v-121h-793zM514 -399q-46 0 -78 32.5t-32 77.5q0 46 32 78.5t78 32.5t78 -32.5t32 -78.5q0 -45 -32 -77.5t-78 -32.5z" />
    <glyph glyph-name="uni1E38" unicode="&#x1e38;" horiz-adv-x="988" 
d="M141 0v1353h163v-1232h630v-121h-793zM514 -399q-46 0 -78 32.5t-32 77.5q0 46 32 78.5t78 32.5t78 -32.5t32 -78.5q0 -45 -32 -77.5t-78 -32.5zM251 1698h538v-85h-538v85z" />
    <glyph glyph-name="uni1E40" unicode="&#x1e40;" horiz-adv-x="1486" 
d="M264 956v-956h-163v1353h133l509 -1138l508 1138h133v-1353h-163v966l-407 -966h-143zM264 956v-956h-163v1353h133l509 -1138l508 1138h133v-1353h-163v966l-407 -966h-143zM734 1551q-46 0 -78 32.5t-32 77.5q0 46 32 78.5t78 32.5t78 -32.5t32 -78.5q0 -45 -32 -77.5
t-78 -32.5z" />
    <glyph glyph-name="uni1E42" unicode="&#x1e42;" horiz-adv-x="1486" 
d="M264 956v-956h-163v1353h133l509 -1138l508 1138h133v-1353h-163v966l-407 -966h-143zM264 956v-956h-163v1353h133l509 -1138l508 1138h133v-1353h-163v966l-407 -966h-143zM744 -399q-46 0 -78 32.5t-32 77.5q0 46 32 78.5t78 32.5t78 -32.5t32 -78.5q0 -45 -32 -77.5
t-78 -32.5z" />
    <glyph glyph-name="Ntilde" unicode="&#xd1;" horiz-adv-x="1324" 
d="M294 1054v-1054h-163v1353h133l787 -1084v1084h163v-1353h-143zM985 1771q-9 -125 -54.5 -179t-126.5 -54q-48 0 -147 68.5t-154 52.5t-82 -123l-39 2q-7 124 43 186t128 60t171 -71t149 -42t73 112z" />
    <glyph glyph-name="uni1E44" unicode="&#x1e44;" horiz-adv-x="1324" 
d="M294 1054v-1054h-163v1353h133l787 -1084v1084h163v-1353h-143zM664 1551q-46 0 -78 32.5t-32 77.5q0 46 32 78.5t78 32.5t78 -32.5t32 -78.5q0 -45 -32 -77.5t-78 -32.5z" />
    <glyph glyph-name="uni1E46" unicode="&#x1e46;" horiz-adv-x="1324" 
d="M294 1054v-1054h-163v1353h133l787 -1084v1084h163v-1353h-143zM654 -399q-46 0 -78 32.5t-32 77.5q0 46 32 78.5t78 32.5t78 -32.5t32 -78.5q0 -45 -32 -77.5t-78 -32.5z" />
    <glyph glyph-name="Eng" unicode="&#x14a;" horiz-adv-x="1310" 
d="M1214 -40q-9 -249 -170 -291.5t-325 35.5l13 108q156 -55 233 -30.5t86 168.5v77l-757 1027v-1054h-163v1353h133l787 -1084v1084h163v-1393z" />
    <glyph glyph-name="Ograve" unicode="&#xd2;" horiz-adv-x="1454" 
d="M247 195.5q-181 197.5 -181 494.5q0 287 181 489.5t472 202.5t472 -202.5t181 -489.5q0 -297 -181 -494.5t-472 -197.5t-472 197.5zM719 136q216 0 344.5 157t128.5 397q0 229 -128.5 391.5t-344.5 162.5t-344.5 -162.5t-128.5 -391.5q0 -240 128.5 -397t344.5 -157z
M410 1881h215l137 -325l-49 -36z" />
    <glyph glyph-name="Oacute" unicode="&#xd3;" horiz-adv-x="1454" 
d="M247 195.5q-181 197.5 -181 494.5q0 287 181 489.5t472 202.5t472 -202.5t181 -489.5q0 -297 -181 -494.5t-472 -197.5t-472 197.5zM719 136q216 0 344.5 157t128.5 397q0 229 -128.5 391.5t-344.5 162.5t-344.5 -162.5t-128.5 -391.5q0 -240 128.5 -397t344.5 -157z
M669 1520l-49 36l137 325h215z" />
    <glyph glyph-name="Ocircumflex" unicode="&#xd4;" horiz-adv-x="1454" 
d="M247 195.5q-181 197.5 -181 494.5q0 287 181 489.5t472 202.5t472 -202.5t181 -489.5q0 -297 -181 -494.5t-472 -197.5t-472 197.5zM719 136q216 0 344.5 157t128.5 397q0 229 -128.5 391.5t-344.5 162.5t-344.5 -162.5t-128.5 -391.5q0 -240 128.5 -397t344.5 -157z
M716 1723l-241 -203l-45 40l243 321h86l243 -321l-45 -40z" />
    <glyph glyph-name="Otilde" unicode="&#xd5;" horiz-adv-x="1454" 
d="M247 195.5q-181 197.5 -181 494.5q0 287 181 489.5t472 202.5t472 -202.5t181 -489.5q0 -297 -181 -494.5t-472 -197.5t-472 197.5zM719 136q216 0 344.5 157t128.5 397q0 229 -128.5 391.5t-344.5 162.5t-344.5 -162.5t-128.5 -391.5q0 -240 128.5 -397t344.5 -157z
M1064 1771q-9 -125 -54.5 -179t-126.5 -54q-48 0 -147 68.5t-154 52.5t-82 -123l-39 2q-7 124 43 186t128 60t171 -71t149 -42t73 112z" />
    <glyph glyph-name="Odieresis" unicode="&#xd6;" horiz-adv-x="1454" 
d="M247 195.5q-181 197.5 -181 494.5q0 287 181 489.5t472 202.5t472 -202.5t181 -489.5q0 -297 -181 -494.5t-472 -197.5t-472 197.5zM719 136q216 0 344.5 157t128.5 397q0 229 -128.5 391.5t-344.5 162.5t-344.5 -162.5t-128.5 -391.5q0 -240 128.5 -397t344.5 -157z
M563 1546q-44 0 -75 31t-31 74q0 44 31 75t75 31t75 -31t31 -75q0 -43 -31 -74t-75 -31zM903 1546q-44 0 -75 31t-31 74q0 44 31 75t75 31t75 -31t31 -75q0 -43 -31 -74t-75 -31z" />
    <glyph glyph-name="Oslash" unicode="&#xd8;" horiz-adv-x="1429" 
d="M1302 1346l-1132 -1361l-77 53l1132 1361zM247 195.5q-181 197.5 -181 494.5q0 287 181 489.5t472 202.5t472 -202.5t181 -489.5q0 -297 -181 -494.5t-472 -197.5t-472 197.5zM719 136q216 0 344.5 157t128.5 397q0 229 -128.5 391.5t-344.5 162.5t-344.5 -162.5
t-128.5 -391.5q0 -240 128.5 -397t344.5 -157z" />
    <glyph glyph-name="OE" unicode="&#x152;" horiz-adv-x="1639" 
d="M1574 753v-121h-613v121h613zM861 1128q-62 121 -267.5 114.5t-292.5 -198t-70.5 -427.5t116.5 -358.5t256 -130t258 68.5v931zM868 1287v66h756v-121h-600v-1111h600v-121h-763v67q-109 -78 -312 -72.5t-342 158t-157.5 460t107 519t377.5 234t334 -78.5z" />
    <glyph glyph-name="uni1E5A" unicode="&#x1e5a;" horiz-adv-x="1126" 
d="M486 1353q479 -7 488 -386v-7q-8 -318 -364 -378q68 -24 147 -131l347 -451h-213l-305 410q-129 163 -211 164h-71v-574h-163v1353h345zM304 1226v-525h183q315 5 324 249v27q-9 244 -324 249h-183zM544 -399q-46 0 -78 32.5t-32 77.5q0 46 32 78.5t78 32.5t78 -32.5
t32 -78.5q0 -45 -32 -77.5t-78 -32.5z" />
    <glyph glyph-name="uni1E5C" unicode="&#x1e5c;" horiz-adv-x="1126" 
d="M486 1353q479 -7 488 -386v-7q-8 -318 -364 -378q68 -24 147 -131l347 -451h-213l-305 410q-129 163 -211 164h-71v-574h-163v1353h345zM304 1226v-525h183q315 5 324 249v27q-9 244 -324 249h-183zM544 -399q-46 0 -78 32.5t-32 77.5q0 46 32 78.5t78 32.5t78 -32.5
t32 -78.5q0 -45 -32 -77.5t-78 -32.5zM281 1698h538v-85h-538v85z" />
    <glyph glyph-name="Sacute" unicode="&#x15a;" horiz-adv-x="885" 
d="M835.5 399q21.5 -186 -91.5 -294t-324 -109.5t-384 173.5l51 134q151 -163 322.5 -164.5t231.5 83t14.5 190t-311.5 252t-283.5 337.5t92 281t305 87.5t319.5 -97.5l-30 -124q-86 63 -220 87.5t-226.5 -27t-79.5 -174.5t303 -286t311.5 -349zM370 1520l-49 36l137 325
h215z" />
    <glyph glyph-name="uni1E62" unicode="&#x1e62;" horiz-adv-x="885" 
d="M835.5 399q21.5 -186 -91.5 -294t-324 -109.5t-384 173.5l51 134q151 -163 322.5 -164.5t231.5 83t14.5 190t-311.5 252t-283.5 337.5t92 281t305 87.5t319.5 -97.5l-30 -124q-86 63 -220 87.5t-226.5 -27t-79.5 -174.5t303 -286t311.5 -349zM434 -399q-46 0 -78 32.5
t-32 77.5q0 46 32 78.5t78 32.5t78 -32.5t32 -78.5q0 -45 -32 -77.5t-78 -32.5z" />
    <glyph glyph-name="uni1E6C" unicode="&#x1e6c;" horiz-adv-x="1314" 
d="M734 1232v-1232h-163v1232h-500v121h1163v-121h-500zM654 -399q-46 0 -78 32.5t-32 77.5q0 46 32 78.5t78 32.5t78 -32.5t32 -78.5q0 -45 -32 -77.5t-78 -32.5z" />
    <glyph glyph-name="Ugrave" unicode="&#xd9;" horiz-adv-x="1203" 
d="M311 1881h215l137 -325l-49 -36zM961 510v843h163v-833q-9 -529 -518 -536q-508 7 -517 536v833h163v-843q9 -394 355 -399q345 5 354 399z" />
    <glyph glyph-name="Uacute" unicode="&#xda;" horiz-adv-x="1203" 
d="M961 510v843h163v-833q-9 -529 -518 -536q-508 7 -517 536v833h163v-843q9 -394 355 -399q345 5 354 399zM961 510v843h163v-833q-9 -529 -518 -536q-508 7 -517 536v833h163v-843q9 -394 355 -399q345 5 354 399zM961 510v843h163v-833q-9 -529 -518 -536
q-508 7 -517 536v833h163v-843q9 -394 355 -399q345 5 354 399zM570 1520l-49 36l137 325h215z" />
    <glyph glyph-name="Ucircumflex" unicode="&#xdb;" horiz-adv-x="1203" 
d="M961 510v843h163v-833q-9 -529 -518 -536q-508 7 -517 536v833h163v-843q9 -394 355 -399q345 5 354 399zM597 1723l-241 -203l-45 40l243 321h86l243 -321l-45 -40z" />
    <glyph glyph-name="Udieresis" unicode="&#xdc;" horiz-adv-x="1203" 
d="M961 510v843h163v-833q-9 -529 -518 -536q-508 7 -517 536v833h163v-843q9 -394 355 -399q345 5 354 399zM444 1546q-44 0 -75 31t-31 74q0 44 31 75t75 31t75 -31t31 -75q0 -43 -31 -74t-75 -31zM784 1546q-44 0 -75 31t-31 74q0 44 31 75t75 31t75 -31t31 -75
q0 -43 -31 -74t-75 -31z" />
    <glyph glyph-name="Umacron" unicode="&#x16a;" horiz-adv-x="1203" 
d="M961 510v843h163v-833q-9 -529 -518 -536q-508 7 -517 536v833h163v-843q9 -394 355 -399q345 5 354 399zM331 1698h538v-85h-538v85z" />
    <glyph glyph-name="Yacute" unicode="&#xdd;" horiz-adv-x="1149" 
d="M583 732l2 4l379 617h190l-490 -744v-609h-163v609l-490 744h190l379 -617zM570 1520l-49 36l137 325h215z" />
    <glyph glyph-name="Ydieresis" unicode="&#x178;" horiz-adv-x="1149" 
d="M583 732l2 4l379 617h190l-490 -744v-609h-163v609l-490 744h190l379 -617zM424 1546q-44 0 -75 31t-31 74q0 44 31 75t75 31t75 -31t31 -75q0 -43 -31 -74t-75 -31zM764 1546q-44 0 -75 31t-31 74q0 44 31 75t75 31t75 -31t31 -75q0 -43 -31 -74t-75 -31z" />
    <glyph glyph-name="Eth" unicode="&#xd0;" horiz-adv-x="1248" 
d="M304 1353v-1353h-163v1353h163zM1174 660q-9 -653 -648 -660h-258l5 127h254q475 5 484 523v27q-9 544 -484 549h-243v127h242q639 -7 648 -686v-7zM644 753v-121h-613v121h613z" />
    <glyph glyph-name="Thorn" unicode="&#xde;" horiz-adv-x="1002" 
d="M304 1353v-1353h-163v1353h163zM974 700q-9 -379 -488 -386h-218l5 127h214q315 5 324 249v27q-9 244 -324 249h-203v127h202q479 -7 488 -386v-7z" />
    <glyph glyph-name="a" unicode="a" horiz-adv-x="869" 
d="M592 421q-66 9 -158 -3t-145 -63.5t-49 -130.5t68 -104t149.5 11t134.5 109v181zM755 611v-459q0 -76 10 -152h-86q-50 18 -71 121q-82 -104 -191 -123q-159 -24 -240.5 33.5t-90 176.5t62 197t190.5 104.5t253 9.5v68q0 44 -8 76q-9 34 -47.5 57.5t-125.5 21.5
q-133 -4 -210 -83l-11 1l-28 125q106 82 291 77q91 -3 141.5 -20.5t91.5 -53.5q65 -60 69 -177z" />
    <glyph glyph-name="b" unicode="b" horiz-adv-x="980" 
d="M289 83l-51 -83h-77v1353h163v-571q95 82 257 68t255.5 -138.5t70.5 -375t-243 -322.5q-241 -55 -375 69zM324 183q61 -65 137.5 -73.5t146.5 14.5q119 47 137.5 224.5t-37 271t-141 108.5t-149.5 -9.5t-94 -54.5v-481z" />
    <glyph glyph-name="c" unicode="c" horiz-adv-x="859" 
d="M526.5 0.5q-179.5 -10.5 -305 90.5t-129.5 311.5t107.5 327t296.5 122t291 -76.5l-28 -125l-14 2q-74 76 -207 79.5t-211 -91t-71 -246.5t96 -216t211.5 -52t204.5 53l7 -112q-69 -56 -248.5 -66.5z" />
    <glyph glyph-name="d" unicode="d" horiz-adv-x="999" 
d="M556.5 -6.5q-179.5 -10.5 -303.5 88t-128 310.5t101 331t285 129q116 7 210 -29v530h163v-1280q-148 -69 -327.5 -79.5zM568 737q-133 4 -209 -88.5t-69 -250.5t76 -225t175 -68t180 32v573q-67 25 -153 27z" />
    <glyph glyph-name="e" unicode="e" horiz-adv-x="858" 
d="M243 509h398q-6 202 -159 216q-123 3 -186 -85q-40 -54 -53 -131zM237 395q8 -152 97 -215q102 -64 219 -53t199 52l7 -112q-69 -56 -248.5 -66.5t-303.5 88t-128 310.5t101 326t265 125q170 10 267 -93.5t84 -361.5h-559z" />
    <glyph glyph-name="f" unicode="f" horiz-adv-x="638" 
d="M334 852h288v-121h-288v-731h-163v731h-132v121h132v219q9 249 170 296.5t325 -10.5l-13 -108q-156 35 -233 5.5t-86 -173.5v-229z" />
    <glyph glyph-name="g" unicode="g" horiz-adv-x="960" 
d="M651 535q-14 202 -196 203q-183 -1 -196 -202q13 -202 196 -202q182 0 196 201zM285 -36q-131 -117 -84 -222q49 -112 264 -108q233 12 235.5 169t-293.5 156q-68 -1 -122 5zM164 354q-19 34 -30 76q-12 41 -15 105q3 66 15 107q59 218 321 218q50 0 92 -8h388v-121h-199
q25 -39 38 -91q14 -39 17 -104q-3 -65 -17 -105q-57 -219 -319 -219q-145 0 -227 66q-68 -79 -32 -137q35 -59 291.5 -49.5t332.5 -128t1.5 -287t-356.5 -164.5q-375 -4 -421 192q-42 178 145 279q-100 31 -126 99q-45 143 101 272z" />
    <glyph glyph-name="h" unicode="h" horiz-adv-x="930" 
d="M121 1353h163v-642q68 96 149 133q116 47 260 0q147 -55 152 -281v-563h-163v569q-2 141 -97.5 168.5t-173.5 -20t-127 -120.5v-597h-163v1353z" />
    <glyph glyph-name="i" unicode="i" horiz-adv-x="435" 
d="M304 853v-853h-163v853h163zM224 1041q-46 0 -78 32.5t-32 77.5q0 46 32 78.5t78 32.5t78 -32.5t32 -78.5q0 -45 -32 -77.5t-78 -32.5z" />
    <glyph glyph-name="j" unicode="j" horiz-adv-x="435" 
d="M224 1041q-46 0 -78 32.5t-32 77.5q0 46 32 78.5t78 32.5t78 -32.5t32 -78.5q0 -45 -32 -77.5t-78 -32.5zM141 853h163v-893q-9 -249 -170 -291.5t-325 35.5l13 108q156 -55 233 -30.5t86 168.5v903z" />
    <glyph glyph-name="k" unicode="k" horiz-adv-x="900" 
d="M304 457l15 16l362 380h183l-392 -401l422 -452h-203l-375 420l-12 14v-434h-163v1353h163v-896z" />
    <glyph glyph-name="l" unicode="l" horiz-adv-x="435" 
d="M304 1353v-1353h-163v1353h163z" />
    <glyph glyph-name="m" unicode="m" horiz-adv-x="1402" 
d="M811 621q3 -27 4 -58v-563h-163v569q-2 141 -82.5 168.5t-158.5 -20t-127 -120.5v-597h-163v853h163v-142q68 96 149 133q116 47 247 -4q79 -31 112 -127q76 97 151 131q116 47 246.5 -4t135.5 -277v-563h-163v569q-2 141 -82.5 168.5t-158.5 -19.5q-65 -40 -110 -97z
" />
    <glyph glyph-name="n" unicode="n" horiz-adv-x="930" 
d="M284 597v-597h-163v853h163v-142q68 96 149 133q116 47 260 0q147 -55 152 -281v-563h-163v569q-2 141 -97.5 168.5t-173.5 -20t-127 -120.5z" />
    <glyph glyph-name="o" unicode="o" horiz-adv-x="904" 
d="M466 -4q-183 0 -283.5 121t-100.5 308q0 188 100.5 308.5t283.5 120.5t283 -120.5t100 -308.5q0 -187 -100 -308t-283 -121zM627 198q63 75 63 230t-63 230t-159 75q-95 0 -158 -75t-63 -230t63 -230t158 -75q96 0 159 75z" />
    <glyph glyph-name="p" unicode="p" horiz-adv-x="920" 
d="M222 772q125 80 275 77t251 -89t115 -297t-102 -339.5t-285 -124.5q-116 2 -212 41v-549h-163v1353h77zM264 148q80 -37 170 -36q129 1 198.5 95t63 238t-76.5 209.5t-159.5 69.5t-195.5 -43v-533z" />
    <glyph glyph-name="q" unicode="q" horiz-adv-x="950" 
d="M834 782v-1283h-163v533q-94 -36 -210 -29q-180 10 -285 124t-101 306t128 305.5t317 107t314 -63.5zM671 145v565q-66 26 -167.5 27t-180 -71.5t-84.5 -218.5t70 -239.5t209 -89.5q86 2 153 27z" />
    <glyph glyph-name="r" unicode="r" horiz-adv-x="697" 
d="M284 535v-535h-163v853h163v-163q39 85 86 120q109 82 303 5l-43 -128q-155 69 -233 18q-73 -48 -113 -170z" />
    <glyph glyph-name="s" unicode="s" horiz-adv-x="733" 
d="M670.5 296.5q30.5 -130.5 -38.5 -213.5t-240 -88t-297 87l29 125q94 -81 204 -86.5t159 27t32.5 102.5t-206 138.5t-211 185.5t52 198.5t230 89.5t282.5 -84l-28 -125q-87 62 -193.5 80.5t-155 -14.5t-31.5 -100.5t199 -129.5t212.5 -192.5z" />
    <glyph glyph-name="t" unicode="t" horiz-adv-x="726" 
d="M354 852h288v-121h-288v-432q9 -144 86 -168.5t233 30.5l13 -108q-164 -78 -325 -35.5t-170 291.5v422h-132v121h132v235h163v-235z" />
    <glyph glyph-name="u" unicode="u" horiz-adv-x="930" 
d="M691 266v587h163v-853h-163v142q-61 -91 -142 -128q-138 -52 -277 -5q-147 55 -152 281v563h163v-569q1 -147 99 -173.5t179 22.5t130 133z" />
    <glyph glyph-name="v" unicode="v" horiz-adv-x="937" 
d="M468 219l273 634h163l-390 -853h-93l-390 853h163z" />
    <glyph glyph-name="w" unicode="w" horiz-adv-x="1366" 
d="M734 823l219 -583l228 613h163l-340 -853h-93l-223 562h-1l-223 -562h-93l-340 853h163l228 -613l219 583h93z" />
    <glyph glyph-name="x" unicode="x" horiz-adv-x="914" 
d="M455 550l-2 -210l-249 -340h-173l320 440l-300 413h183zM443 566l208 287h173l-295 -406l325 -447h-183l-233 321l-87 119z" />
    <glyph glyph-name="y" unicode="y" horiz-adv-x="920" 
d="M282 -490h-163l271 578l-359 765h173l269 -603l268 603h163z" />
    <glyph glyph-name="z" unicode="z" horiz-adv-x="838" 
d="M296 122h494v-122h-709l-10 40l488 691h-450v121h667l17 -30z" />
    <glyph glyph-name="agrave" unicode="&#xe0;" horiz-adv-x="869" 
d="M592 421q-66 9 -158 -3t-145 -63.5t-49 -130.5t68 -104t149.5 11t134.5 109v181zM755 611v-459q0 -76 10 -152h-86q-50 18 -71 121q-82 -104 -191 -123q-159 -24 -240.5 33.5t-90 176.5t62 197t190.5 104.5t253 9.5v68q0 44 -8 76q-9 34 -47.5 57.5t-125.5 21.5
q-133 -4 -210 -83l-11 1l-28 125q106 82 291 77q91 -3 141.5 -20.5t91.5 -53.5q65 -60 69 -177zM211 1381h215l137 -325l-49 -36z" />
    <glyph glyph-name="aacute" unicode="&#xe1;" horiz-adv-x="869" 
d="M592 421q-66 9 -158 -3t-145 -63.5t-49 -130.5t68 -104t149.5 11t134.5 109v181zM755 611v-459q0 -76 10 -152h-86q-50 18 -71 121q-82 -104 -191 -123q-159 -24 -240.5 33.5t-90 176.5t62 197t190.5 104.5t253 9.5v68q0 44 -8 76q-9 34 -47.5 57.5t-125.5 21.5
q-133 -4 -210 -83l-11 1l-28 125q106 82 291 77q91 -3 141.5 -20.5t91.5 -53.5q65 -60 69 -177zM370 1020l-49 36l137 325h215z" />
    <glyph glyph-name="acircumflex" unicode="&#xe2;" horiz-adv-x="869" 
d="M592 421q-66 9 -158 -3t-145 -63.5t-49 -130.5t68 -104t149.5 11t134.5 109v181zM755 611v-459q0 -76 10 -152h-86q-50 18 -71 121q-82 -104 -191 -123q-159 -24 -240.5 33.5t-90 176.5t62 197t190.5 104.5t253 9.5v68q0 44 -8 76q-9 34 -47.5 57.5t-125.5 21.5
q-133 -4 -210 -83l-11 1l-28 125q106 82 291 77q91 -3 141.5 -20.5t91.5 -53.5q65 -60 69 -177zM447 1223l-241 -203l-45 40l243 321h86l243 -321l-45 -40z" />
    <glyph glyph-name="atilde" unicode="&#xe3;" horiz-adv-x="869" 
d="M592 421q-66 9 -158 -3t-145 -63.5t-49 -130.5t68 -104t149.5 11t134.5 109v181zM755 611v-459q0 -76 10 -152h-86q-50 18 -71 121q-82 -104 -191 -123q-159 -24 -240.5 33.5t-90 176.5t62 197t190.5 104.5t253 9.5v68q0 44 -8 76q-9 34 -47.5 57.5t-125.5 21.5
q-133 -4 -210 -83l-11 1l-28 125q106 82 291 77q91 -3 141.5 -20.5t91.5 -53.5q65 -60 69 -177zM745 1271q-9 -125 -54.5 -179t-126.5 -54q-48 0 -147 68.5t-154 52.5t-82 -123l-39 2q-7 124 43 186t128 60t171 -71t149 -42t73 112z" />
    <glyph glyph-name="adieresis" unicode="&#xe4;" horiz-adv-x="869" 
d="M592 421q-66 9 -158 -3t-145 -63.5t-49 -130.5t68 -104t149.5 11t134.5 109v181zM755 611v-459q0 -76 10 -152h-86q-50 18 -71 121q-82 -104 -191 -123q-159 -24 -240.5 33.5t-90 176.5t62 197t190.5 104.5t253 9.5v68q0 44 -8 76q-9 34 -47.5 57.5t-125.5 21.5
q-133 -4 -210 -83l-11 1l-28 125q106 82 291 77q91 -3 141.5 -20.5t91.5 -53.5q65 -60 69 -177zM284 1046q-44 0 -75 31t-31 74q0 44 31 75t75 31t75 -31t31 -75q0 -43 -31 -74t-75 -31zM624 1046q-44 0 -75 31t-31 74q0 44 31 75t75 31t75 -31t31 -75q0 -43 -31 -74
t-75 -31z" />
    <glyph glyph-name="aring" unicode="&#xe5;" horiz-adv-x="869" 
d="M592 421q-66 9 -158 -3t-145 -63.5t-49 -130.5t68 -104t149.5 11t134.5 109v181zM755 611v-459q0 -76 10 -152h-86q-50 18 -71 121q-82 -104 -191 -123q-159 -24 -240.5 33.5t-90 176.5t62 197t190.5 104.5t253 9.5v68q0 44 -8 76q-9 34 -47.5 57.5t-125.5 21.5
q-133 -4 -210 -83l-11 1l-28 125q106 82 291 77q91 -3 141.5 -20.5t91.5 -53.5q65 -60 69 -177zM234 1136q0 39 15 74t43 61t69 41.5t94 15.5q51 0 90.5 -15t66 -40.5t40.5 -59t14 -71.5q0 -39 -15 -73.5t-43 -61t-69 -41.5t-94 -15q-51 0 -90.5 15t-66 40t-40.5 58.5
t-14 71.5zM346 1138q0 -57 29 -79.5t74 -22.5q22 0 41.5 5.5t34 17.5t22 32t7.5 50q0 57 -29 79.5t-74 22.5q-22 0 -41.5 -5.5t-34 -18t-22 -32.5t-7.5 -49z" />
    <glyph glyph-name="amacron" unicode="&#x101;" horiz-adv-x="869" 
d="M592 421q-66 9 -158 -3t-145 -63.5t-49 -130.5t68 -104t149.5 11t134.5 109v181zM755 611v-459q0 -76 10 -152h-86q-50 18 -71 121q-82 -104 -191 -123q-159 -24 -240.5 33.5t-90 176.5t62 197t190.5 104.5t253 9.5v68q0 44 -8 76q-9 34 -47.5 57.5t-125.5 21.5
q-133 -4 -210 -83l-11 1l-28 125q106 82 291 77q91 -3 141.5 -20.5t91.5 -53.5q65 -60 69 -177zM191 1168h538v-85h-538v85z" />
    <glyph glyph-name="ae" unicode="&#xe6;" horiz-adv-x="1366" 
d="M748 528h389q-16 193 -159 207q-117 3 -183 -95q-32 -44 -47 -112zM662 148q-103 -122 -245 -150q-159 -24 -240.5 33.5t-87 171t62 192t187.5 110t253 24.5v58q0 44 -8 76q-9 34 -47.5 57.5t-125.5 21.5q-133 -4 -210 -83l-11 1l-28 125q106 82 291 77
q91 -3 136.5 -20.5t86.5 -53.5q23 -22 30 -51q85 103 235 113q170 10 267 -93.5t84 -332.5h-556q-1 -11 0 -26q7 -154 101.5 -218t211.5 -53t199 52l7 -112q-69 -56 -248.5 -66.5t-293.5 88.5q-22 7 -51 59zM609 243q-22 68 -24 156v32q-96 -1 -176 -22t-126.5 -68.5
t-42.5 -118.5t68 -96t150 8q76 29 151 109z" />
    <glyph glyph-name="ccedilla" unicode="&#xe7;" horiz-adv-x="859" 
d="M526.5 0.5q-179.5 -10.5 -305 90.5t-129.5 311.5t107.5 327t296.5 122t291 -76.5l-28 -125l-14 2q-74 76 -207 79.5t-211 -91t-71 -246.5t96 -216t211.5 -52t204.5 53l7 -112q-69 -56 -248.5 -66.5zM594.5 -462q-128.5 -37 -295.5 40l24 62q131 -51 206 -28t73.5 93.5
t-74.5 91.5t-171 -31l-58 43l166 264l85 -48l-106 -155q106 45 205 -6t86.5 -170t-141 -156z" />
    <glyph glyph-name="uni1E0D" unicode="&#x1e0d;" horiz-adv-x="999" 
d="M556.5 -6.5q-179.5 -10.5 -303.5 88t-128 310.5t101 331t285 129q116 7 210 -29v530h163v-1280q-148 -69 -327.5 -79.5zM568 737q-133 4 -209 -88.5t-69 -250.5t76 -225t175 -68t180 32v573q-67 25 -153 27zM544 -399q-46 0 -78 32.5t-32 77.5q0 46 32 78.5t78 32.5
t78 -32.5t32 -78.5q0 -45 -32 -77.5t-78 -32.5z" />
    <glyph glyph-name="egrave" unicode="&#xe8;" horiz-adv-x="858" 
d="M243 509h398q-6 202 -159 216q-123 3 -186 -85q-40 -54 -53 -131zM237 395q8 -152 97 -215q102 -64 219 -53t199 52l7 -112q-69 -56 -248.5 -66.5t-303.5 88t-128 310.5t101 326t265 125q170 10 267 -93.5t84 -361.5h-559zM211 1381h215l137 -325l-49 -36z" />
    <glyph glyph-name="eacute" unicode="&#xe9;" horiz-adv-x="858" 
d="M243 509h398q-6 202 -159 216q-123 3 -186 -85q-40 -54 -53 -131zM237 395q8 -152 97 -215q102 -64 219 -53t199 52l7 -112q-69 -56 -248.5 -66.5t-303.5 88t-128 310.5t101 326t265 125q170 10 267 -93.5t84 -361.5h-559zM370 1020l-49 36l137 325h215z" />
    <glyph glyph-name="ecircumflex" unicode="&#xea;" horiz-adv-x="858" 
d="M243 509h398q-6 202 -159 216q-123 3 -186 -85q-40 -54 -53 -131zM237 395q8 -152 97 -215q102 -64 219 -53t199 52l7 -112q-69 -56 -248.5 -66.5t-303.5 88t-128 310.5t101 326t265 125q170 10 267 -93.5t84 -361.5h-559zM457 1223l-241 -203l-45 40l243 321h86
l243 -321l-45 -40z" />
    <glyph glyph-name="edieresis" unicode="&#xeb;" horiz-adv-x="858" 
d="M243 509h398q-6 202 -159 216q-123 3 -186 -85q-40 -54 -53 -131zM237 395q8 -152 97 -215q102 -64 219 -53t199 52l7 -112q-69 -56 -248.5 -66.5t-303.5 88t-128 310.5t101 326t265 125q170 10 267 -93.5t84 -361.5h-559zM304 1046q-44 0 -75 31t-31 74q0 44 31 75
t75 31t75 -31t31 -75q0 -43 -31 -74t-75 -31zM644 1046q-44 0 -75 31t-31 74q0 44 31 75t75 31t75 -31t31 -75q0 -43 -31 -74t-75 -31z" />
    <glyph glyph-name="ebreve" unicode="&#x115;" horiz-adv-x="858" 
d="M243 509h398q-6 202 -159 216q-123 3 -186 -85q-40 -54 -53 -131zM237 395q8 -152 97 -215q102 -64 219 -53t199 52l7 -112q-69 -56 -248.5 -66.5t-303.5 88t-128 310.5t101 326t265 125q170 10 267 -93.5t84 -361.5h-559zM704 1341q-3 -48 -23.5 -109.5t-56 -101.5
t-85 -59.5t-89.5 -19.5t-89.5 19.5t-85 59.5t-56 101.5t-23.5 109.5l61 6q17 -61 68.5 -111t124.5 -50t124.5 50t68.5 111z" />
    <glyph glyph-name="uni0259" unicode="&#x259;" horiz-adv-x="858" 
d="M633 341h-398q6 -202 159 -216q123 -3 186 85q40 54 53 131zM639 455q-8 152 -97 215q-102 64 -219 53t-199 -52l-7 112q69 56 248.5 66.5t303.5 -88t128 -310.5t-101 -326t-265 -125q-170 -10 -267 93.5t-84 361.5h559z" />
    <glyph glyph-name="uni1E25" unicode="&#x1e25;" horiz-adv-x="930" 
d="M121 1353h163v-642q68 96 149 133q116 47 260 0q147 -55 152 -281v-563h-163v569q-2 141 -97.5 168.5t-173.5 -20t-127 -120.5v-597h-163v1353zM494 -399q-46 0 -78 32.5t-32 77.5q0 46 32 78.5t78 32.5t78 -32.5t32 -78.5q0 -45 -32 -77.5t-78 -32.5z" />
    <glyph glyph-name="igrave" unicode="&#xec;" horiz-adv-x="435" 
d="M304 853v-853h-163v853h163zM-89 1381h215l137 -325l-49 -36z" />
    <glyph glyph-name="iacute" unicode="&#xed;" horiz-adv-x="435" 
d="M304 853v-853h-163v853h163zM230 1020l-49 36l137 325h215z" />
    <glyph glyph-name="icircumflex" unicode="&#xee;" horiz-adv-x="435" 
d="M304 853v-853h-163v853h163zM217 1223l-241 -203l-45 40l243 321h86l243 -321l-45 -40z" />
    <glyph glyph-name="idieresis" unicode="&#xef;" horiz-adv-x="435" 
d="M304 853v-853h-163v853h163zM54 1046q-44 0 -75 31t-31 74q0 44 31 75t75 31t75 -31t31 -75q0 -43 -31 -74t-75 -31zM394 1046q-44 0 -75 31t-31 74q0 44 31 75t75 31t75 -31t31 -75q0 -43 -31 -74t-75 -31z" />
    <glyph glyph-name="imacron" unicode="&#x12b;" horiz-adv-x="435" 
d="M304 853v-853h-163v853h163zM-39 1168h538v-85h-538v85z" />
    <glyph glyph-name="dotlessi" unicode="&#x131;" horiz-adv-x="435" 
d="M304 853v-853h-163v853h163z" />
    <glyph glyph-name="uni1E37" unicode="&#x1e37;" horiz-adv-x="435" 
d="M304 1353v-1353h-163v1353h163zM214 -399q-46 0 -78 32.5t-32 77.5q0 46 32 78.5t78 32.5t78 -32.5t32 -78.5q0 -45 -32 -77.5t-78 -32.5z" />
    <glyph glyph-name="uni1E39" unicode="&#x1e39;" horiz-adv-x="435" 
d="M304 1353v-1353h-163v1353h163zM214 -399q-46 0 -78 32.5t-32 77.5q0 46 32 78.5t78 32.5t78 -32.5t32 -78.5q0 -45 -32 -77.5t-78 -32.5zM-39 1698h538v-85h-538v85z" />
    <glyph glyph-name="uni1E41" unicode="&#x1e41;" horiz-adv-x="1402" 
d="M811 621q3 -27 4 -58v-563h-163v569q-2 141 -82.5 168.5t-158.5 -20t-127 -120.5v-597h-163v853h163v-142q68 96 149 133q116 47 247 -4q79 -31 112 -127q76 97 151 131q116 47 246.5 -4t135.5 -277v-563h-163v569q-2 141 -82.5 168.5t-158.5 -19.5q-65 -40 -110 -97z
M734 1011q-46 0 -78 32.5t-32 77.5q0 46 32 78.5t78 32.5t78 -32.5t32 -78.5q0 -45 -32 -77.5t-78 -32.5z" />
    <glyph glyph-name="uni1E43" unicode="&#x1e43;" horiz-adv-x="1402" 
d="M811 621q3 -27 4 -58v-563h-163v569q-2 141 -82.5 168.5t-158.5 -20t-127 -120.5v-597h-163v853h163v-142q68 96 149 133q116 47 247 -4q79 -31 112 -127q76 97 151 131q116 47 246.5 -4t135.5 -277v-563h-163v569q-2 141 -82.5 168.5t-158.5 -19.5q-65 -40 -110 -97z
M734 -399q-46 0 -78 32.5t-32 77.5q0 46 32 78.5t78 32.5t78 -32.5t32 -78.5q0 -45 -32 -77.5t-78 -32.5z" />
    <glyph glyph-name="ntilde" unicode="&#xf1;" horiz-adv-x="930" 
d="M284 597v-597h-163v853h163v-142q68 96 149 133q116 47 260 0q147 -55 152 -281v-563h-163v569q-2 141 -97.5 168.5t-173.5 -20t-127 -120.5zM785 1271q-9 -125 -54.5 -179t-126.5 -54q-48 0 -147 68.5t-154 52.5t-82 -123l-39 2q-7 124 43 186t128 60t171 -71t149 -42
t73 112z" />
    <glyph glyph-name="uni1E45" unicode="&#x1e45;" horiz-adv-x="930" 
d="M284 597v-597h-163v853h163v-142q68 96 149 133q116 47 260 0q147 -55 152 -281v-563h-163v569q-2 141 -97.5 168.5t-173.5 -20t-127 -120.5zM484 1011q-46 0 -78 32.5t-32 77.5q0 46 32 78.5t78 32.5t78 -32.5t32 -78.5q0 -45 -32 -77.5t-78 -32.5z" />
    <glyph glyph-name="uni1E47" unicode="&#x1e47;" horiz-adv-x="930" 
d="M284 597v-597h-163v853h163v-142q68 96 149 133q116 47 260 0q147 -55 152 -281v-563h-163v569q-2 141 -97.5 168.5t-173.5 -20t-127 -120.5zM494 -399q-46 0 -78 32.5t-32 77.5q0 46 32 78.5t78 32.5t78 -32.5t32 -78.5q0 -45 -32 -77.5t-78 -32.5z" />
    <glyph glyph-name="eng" unicode="&#x14b;" horiz-adv-x="930" 
d="M682 573l163 -10v-603q-9 -249 -170 -291.5t-325 35.5l13 108q156 -55 233 -30.5t86 168.5v623zM284 597v-597h-163v853h163v-142q68 96 149 133q116 47 260 0q147 -55 152 -281v-563h-163v569q-2 141 -97.5 168.5t-173.5 -20t-127 -120.5z" />
    <glyph glyph-name="ograve" unicode="&#xf2;" horiz-adv-x="910" 
d="M467 -4q-183 0 -283.5 121t-100.5 308q0 188 100.5 308.5t283.5 120.5t283 -120.5t100 -308.5q0 -187 -100 -308t-283 -121zM628 198q63 75 63 230t-63 230t-159 75q-95 0 -158 -75t-63 -230t63 -230t158 -75q96 0 159 75zM231 1381h215l137 -325l-49 -36z" />
    <glyph glyph-name="oacute" unicode="&#xf3;" horiz-adv-x="910" 
d="M467 -4q-183 0 -283.5 121t-100.5 308q0 188 100.5 308.5t283.5 120.5t283 -120.5t100 -308.5q0 -187 -100 -308t-283 -121zM628 198q63 75 63 230t-63 230t-159 75q-95 0 -158 -75t-63 -230t63 -230t158 -75q96 0 159 75zM390 1020l-49 36l137 325h215z" />
    <glyph glyph-name="ocircumflex" unicode="&#xf4;" horiz-adv-x="910" 
d="M467 -4q-183 0 -283.5 121t-100.5 308q0 188 100.5 308.5t283.5 120.5t283 -120.5t100 -308.5q0 -187 -100 -308t-283 -121zM628 198q63 75 63 230t-63 230t-159 75q-95 0 -158 -75t-63 -230t63 -230t158 -75q96 0 159 75zM477 1223l-241 -203l-45 40l243 321h86
l243 -321l-45 -40z" />
    <glyph glyph-name="otilde" unicode="&#xf5;" horiz-adv-x="900" 
d="M467 -4q-183 0 -283.5 121t-100.5 308q0 188 100.5 308.5t283.5 120.5t283 -120.5t100 -308.5q0 -187 -100 -308t-283 -121zM628 198q63 75 63 230t-63 230t-159 75q-95 0 -158 -75t-63 -230t63 -230t158 -75q96 0 159 75zM795 1271q-9 -125 -54.5 -179t-126.5 -54
q-48 0 -147 68.5t-154 52.5t-82 -123l-39 2q-7 124 43 186t128 60t171 -71t149 -42t73 112z" />
    <glyph glyph-name="odieresis" unicode="&#xf6;" horiz-adv-x="910" 
d="M467 -4q-183 0 -283.5 121t-100.5 308q0 188 100.5 308.5t283.5 120.5t283 -120.5t100 -308.5q0 -187 -100 -308t-283 -121zM628 198q63 75 63 230t-63 230t-159 75q-95 0 -158 -75t-63 -230t63 -230t158 -75q96 0 159 75zM324 1046q-44 0 -75 31t-31 74q0 44 31 75
t75 31t75 -31t31 -75q0 -43 -31 -74t-75 -31zM664 1046q-44 0 -75 31t-31 74q0 44 31 75t75 31t75 -31t31 -75q0 -43 -31 -74t-75 -31z" />
    <glyph glyph-name="oslash" unicode="&#xf8;" horiz-adv-x="904" 
d="M861 831l-711 -856l-77 53l711 856zM466 -4q-183 0 -283.5 121t-100.5 308q0 188 100.5 308.5t283.5 120.5t283 -120.5t100 -308.5q0 -187 -100 -308t-283 -121zM627 198q63 75 63 230t-63 230t-159 75q-95 0 -158 -75t-63 -230t63 -230t158 -75q96 0 159 75z" />
    <glyph glyph-name="oe" unicode="&#x153;" horiz-adv-x="1506" 
d="M466 -4q-183 0 -283.5 121t-100.5 308q0 188 100.5 308.5t283.5 120.5t283 -120.5t100 -308.5q0 -187 -100 -308t-283 -121zM627 198q63 75 63 230t-63 230t-159 75q-95 0 -158 -75t-63 -230t63 -230t158 -75q96 0 159 75zM862 509h398q-6 202 -159 216q-123 3 -186 -85
q-40 -54 -53 -131zM856 395q8 -152 97 -215q102 -64 219 -53t199 52l7 -112q-69 -56 -248.5 -66.5t-303.5 88t-128 310.5t101 326t265 125q170 10 267 -93.5t84 -361.5h-559z" />
    <glyph glyph-name="uni1E5B" unicode="&#x1e5b;" horiz-adv-x="697" 
d="M284 853v-853h-163v853h163zM673 815l-43 -128q-155 69 -233.5 17.5t-118.5 -189.5l-61 74q32 134 147 218.5t309 7.5zM214 -389q-46 0 -78 32.5t-32 77.5q0 46 32 78.5t78 32.5t78 -32.5t32 -78.5q0 -45 -32 -77.5t-78 -32.5z" />
    <glyph glyph-name="uni1E5D" unicode="&#x1e5d;" horiz-adv-x="697" 
d="M284 853v-853h-163v853h163zM673 815l-43 -128q-155 69 -233.5 17.5t-118.5 -189.5l-61 74q32 134 147 218.5t309 7.5zM214 -389q-46 0 -78 32.5t-32 77.5q0 46 32 78.5t78 32.5t78 -32.5t32 -78.5q0 -45 -32 -77.5t-78 -32.5zM111 1168h538v-85h-538v85z" />
    <glyph glyph-name="sacute" unicode="&#x15b;" horiz-adv-x="733" 
d="M670.5 296.5q30.5 -130.5 -38.5 -213.5t-240 -88t-297 87l29 125q94 -81 204 -86.5t159 27t32.5 102.5t-206 138.5t-211 185.5t52 198.5t230 89.5t282.5 -84l-28 -125q-87 62 -193.5 80.5t-155 -14.5t-31.5 -100.5t199 -129.5t212.5 -192.5zM320 1020l-49 36l137 325h215
z" />
    <glyph glyph-name="uni1E63" unicode="&#x1e63;" horiz-adv-x="733" 
d="M670.5 296.5q30.5 -130.5 -38.5 -213.5t-240 -88t-297 87l29 125q94 -81 204 -86.5t159 27t32.5 102.5t-206 138.5t-211 185.5t52 198.5t230 89.5t282.5 -84l-28 -125q-87 62 -193.5 80.5t-155 -14.5t-31.5 -100.5t199 -129.5t212.5 -192.5zM374 -399q-46 0 -78 32.5
t-32 77.5q0 46 32 78.5t78 32.5t78 -32.5t32 -78.5q0 -45 -32 -77.5t-78 -32.5z" />
    <glyph glyph-name="longs" unicode="&#x17f;" horiz-adv-x="515" 
d="M334 0h-163v1071q9 249 170 296.5t325 -10.5l-13 -108q-156 35 -233 5.5t-86 -173.5v-1081z" />
    <glyph glyph-name="germandbls" unicode="&#xdf;" horiz-adv-x="1086" 
d="M627.5 1260.5q-102.5 28.5 -193.5 -23.5t-100 -196v-1041h-163v1011q9 249 160.5 329.5t344 40t197.5 -210t-119.5 -303.5t-126 -210t180.5 -138t212.5 -207.5t-38.5 -228.5t-240 -88t-297 87l29 125q94 -81 204 -86.5t159 27t32.5 117.5t-200 153.5t-205 189t113 275.5
t143.5 252t-93.5 125.5z" />
    <glyph glyph-name="uni1E6D" unicode="&#x1e6d;" horiz-adv-x="726" 
d="M354 852h288v-121h-288v-432q9 -144 86 -168.5t233 30.5l13 -108q-164 -78 -325 -35.5t-170 291.5v422h-132v121h132v235h163v-235zM444 -399q-46 0 -78 32.5t-32 77.5q0 46 32 78.5t78 32.5t78 -32.5t32 -78.5q0 -45 -32 -77.5t-78 -32.5z" />
    <glyph glyph-name="ugrave" unicode="&#xf9;" horiz-adv-x="930" 
d="M691 266v587h163v-853h-163v142q-61 -91 -142 -128q-138 -52 -277 -5q-147 55 -152 281v563h163v-569q1 -147 99 -173.5t179 22.5t130 133zM211 1381h215l137 -325l-49 -36z" />
    <glyph glyph-name="uacute" unicode="&#xfa;" horiz-adv-x="930" 
d="M691 266v587h163v-853h-163v142q-61 -91 -142 -128q-138 -52 -277 -5q-147 55 -152 281v563h163v-569q1 -147 99 -173.5t179 22.5t130 133zM470 1020l-49 36l137 325h215z" />
    <glyph glyph-name="ucircumflex" unicode="&#xfb;" horiz-adv-x="930" 
d="M691 266v587h163v-853h-163v142q-61 -91 -142 -128q-138 -52 -277 -5q-147 55 -152 281v563h163v-569q1 -147 99 -173.5t179 22.5t130 133zM487 1223l-241 -203l-45 40l243 321h86l243 -321l-45 -40z" />
    <glyph glyph-name="udieresis" unicode="&#xfc;" horiz-adv-x="930" 
d="M691 266v587h163v-853h-163v142q-61 -91 -142 -128q-138 -52 -277 -5q-147 55 -152 281v563h163v-569q1 -147 99 -173.5t179 22.5t130 133zM314 1046q-44 0 -75 31t-31 74q0 44 31 75t75 31t75 -31t31 -75q0 -43 -31 -74t-75 -31zM654 1046q-44 0 -75 31t-31 74
q0 44 31 75t75 31t75 -31t31 -75q0 -43 -31 -74t-75 -31z" />
    <glyph glyph-name="umacron" unicode="&#x16b;" horiz-adv-x="930" 
d="M691 266v587h163v-853h-163v142q-61 -91 -142 -128q-138 -52 -277 -5q-147 55 -152 281v563h163v-569q1 -147 99 -173.5t179 22.5t130 133zM221 1168h538v-85h-538v85z" />
    <glyph glyph-name="yacute" unicode="&#xfd;" horiz-adv-x="920" 
d="M282 -490h-163l271 578l-359 765h173l269 -603l268 603h163zM470 1020l-49 36l137 325h215z" />
    <glyph glyph-name="ydieresis" unicode="&#xff;" horiz-adv-x="920" 
d="M282 -490h-163l271 578l-359 765h173l269 -603l268 603h163zM304 1046q-44 0 -75 31t-31 74q0 44 31 75t75 31t75 -31t31 -75q0 -43 -31 -74t-75 -31zM644 1046q-44 0 -75 31t-31 74q0 44 31 75t75 31t75 -31t31 -75q0 -43 -31 -74t-75 -31z" />
    <glyph glyph-name="eth" unicode="&#xf0;" horiz-adv-x="904" 
d="M658 1211l-445 -270l-54 76l445 270zM627 198q63 75 63 230t-63 230t-159 75q-95 0 -158 -75t-63 -230t63 -230t158 -75q96 0 159 75zM589 823q-144 252 -426 478l26 38q236 -67 446 -332q194 -245 210 -507q4 -36 4 -75q0 -187 -100 -308t-283 -121t-283.5 121
t-100.5 308q0 188 100.5 308.5t283.5 120.5q57 0 123 -31z" />
    <glyph glyph-name="thorn" unicode="&#xfe;" horiz-adv-x="950" 
d="M324 166q30 -29 94 -54t149.5 -10t141 108.5t37 271t-137.5 234.5q-70 23 -146.5 14.5t-137.5 -73.5v-491zM161 1353h163v-568q129 89 340 41q222 -72 246 -322.5t-70.5 -375t-257.5 -138.5t-258 58v-561h-163v1866z" />
    <glyph glyph-name="ampersand" unicode="&#x26;" horiz-adv-x="1221" 
d="M522 804q172 96 169 215q2 135 -77.5 174t-153 -6t-65 -144.5t126.5 -238.5zM472 611q-177 -83 -193.5 -244.5t89 -217t234.5 -13.5q112 49 156 137zM945 307l256 -307h-196l-140 166q-69 -98 -204 -155q-170 -53 -317 -12.5t-200.5 173.5t-1 288t239.5 262l-73 99
q-77 125 -69.5 249t91.5 196t207 75.5t211 -74.5t98 -201q18 -223 -231 -377l223 -262q38 111 44 244l143 9q-11 -216 -81 -373z" />
    <glyph glyph-name="uniFB00" unicode="&#xfb00;" horiz-adv-x="1221" 
d="M844 852h288v-121h-288v-731h-163v731h-132v121h132v219q9 249 170 296.5t325 -10.5l-13 -108q-156 35 -233 5.5t-86 -173.5v-229zM334 852h488v-121h-488v-731h-163v731h-132v121h132v219q9 249 209.5 301t404.5 -42l-47 -126q-159 69 -277 45t-127 -168v-229z" />
    <glyph glyph-name="uniFB01" unicode="&#xfb01;" horiz-adv-x="960" 
d="M334 852h488v-121h-488v-731h-163v731h-132v121h132v219q9 249 209.5 301t404.5 -42l-47 -126q-159 69 -277 45t-127 -168v-229zM844 852v-852h-163v852h163z" />
    <glyph glyph-name="uniFB02" unicode="&#xfb02;" horiz-adv-x="970" 
d="M854 1353v-1353h-163v1353h163zM334 852h188v-121h-188v-731h-163v731h-132v121h132v219q9 249 209.5 301t404.5 -42l-47 -126q-159 69 -277 45t-127 -168v-229z" />
    <glyph glyph-name="uniFB03" unicode="&#xfb03;" horiz-adv-x="1486" 
d="M844 852h488v-121h-488v-731h-163v731h-132v121h132v219q9 249 209.5 301t404.5 -42l-47 -126q-159 69 -277 45t-127 -168v-229zM1354 852v-852h-163v852h163zM334 852h488v-121h-488v-731h-163v731h-132v121h132v219q9 249 209.5 301t404.5 -42l-47 -126
q-159 69 -277 45t-127 -168v-229z" />
    <glyph glyph-name="uniFB04" unicode="&#xfb04;" horiz-adv-x="1459" 
d="M334 852h488v-121h-488v-731h-163v731h-132v121h132v219q9 249 209.5 301t404.5 -42l-47 -126q-159 69 -277 45t-127 -168v-229zM1364 1353v-1353h-163v1353h163zM844 852h188v-121h-188v-731h-163v731h-132v121h132v219q9 249 209.5 301t404.5 -42l-47 -126
q-159 69 -277 45t-127 -168v-229z" />
    <glyph glyph-name="uniFB05" unicode="&#xfb05;" horiz-adv-x="1162" 
d="M334 0h-163v1071q9 249 170 296.5t325 -10.5l-13 -108q-156 35 -233 5.5t-86 -173.5v-1081zM794 852h288v-121h-288v-432q9 -144 86 -168.5t233 30.5l13 -108q-164 -78 -325 -35.5t-170 291.5v422h-132v121h132v235h163v-235z" />
    <glyph glyph-name="uniFB06" unicode="&#xfb06;" horiz-adv-x="1445" 
d="M1054 1147v-295h288v-121h-288v-432q9 -144 86 -168.5t233 30.5l13 -108q-164 -78 -325 -35.5t-170 291.5v422h-132v121h132v210q-126 27 -214 10q-113 -37 -103.5 -129t109.5 -165l-44 -125q-87 62 -193.5 80.5t-155 -14.5t-31.5 -100.5t199 -129.5t212.5 -192.5
t-38.5 -213.5t-240 -88t-297 87l29 125q94 -81 204 -86.5t159 27t32.5 102.5t-206 138.5t-211 185.5t52 198.5t230.5 89.5q55 3 106 -7q-68 74 -51 172t141 145q200 52 473 -25z" />
    <glyph glyph-name="comma" unicode="," horiz-adv-x="478" 
d="M186 -224l-41 40q85 103 101 201q-43 0 -74 30q-31 31 -31 77q0 45 31 76.5t78 31.5q63 0 95 -40.5t32 -107.5q10 -147 -191 -308z" />
    <glyph glyph-name="semicolon" unicode=";" horiz-adv-x="478" 
d="M186 -224l-41 40q85 103 101 201q-43 0 -74 30q-31 31 -31 77q0 45 31 76.5t78 31.5q63 0 95 -40.5t32 -107.5q10 -147 -191 -308zM254 611q-46 0 -78 32.5t-32 77.5q0 46 32 78.5t78 32.5t78 -32.5t32 -78.5q0 -45 -32 -77.5t-78 -32.5z" />
    <glyph glyph-name="colon" unicode=":" horiz-adv-x="424" 
d="M214 11q-46 0 -78 32.5t-32 77.5q0 46 32 78.5t78 32.5t78 -32.5t32 -78.5q0 -45 -32 -77.5t-78 -32.5zM214 611q-46 0 -78 32.5t-32 77.5q0 46 32 78.5t78 32.5t78 -32.5t32 -78.5q0 -45 -32 -77.5t-78 -32.5z" />
    <glyph glyph-name="period" unicode="." horiz-adv-x="424" 
d="M214 11q-46 0 -78 32.5t-32 77.5q0 46 32 78.5t78 32.5t78 -32.5t32 -78.5q0 -45 -32 -77.5t-78 -32.5z" />
    <glyph glyph-name="ellipsis" unicode="&#x2026;" horiz-adv-x="1314" 
d="M214 11q-46 0 -78 32.5t-32 77.5q0 46 32 78.5t78 32.5t78 -32.5t32 -78.5q0 -45 -32 -77.5t-78 -32.5zM664 11q-46 0 -78 32.5t-32 77.5q0 46 32 78.5t78 32.5t78 -32.5t32 -78.5q0 -45 -32 -77.5t-78 -32.5zM1114 11q-46 0 -78 32.5t-32 77.5q0 46 32 78.5t78 32.5
t78 -32.5t32 -78.5q0 -45 -32 -77.5t-78 -32.5z" />
    <glyph glyph-name="exclam" unicode="!" horiz-adv-x="424" 
d="M214 11q-46 0 -78 32.5t-32 77.5q0 46 32 78.5t78 32.5t78 -32.5t32 -78.5q0 -45 -32 -77.5t-78 -32.5zM294 1353l-20 -1003h-123l-20 1003h163z" />
    <glyph glyph-name="question" unicode="?" horiz-adv-x="653" 
d="M244 11q-46 0 -78 32.5t-32 77.5q0 46 32 78.5t78 32.5t78 -32.5t32 -78.5q0 -45 -32 -77.5t-78 -32.5zM196.5 606q38.5 102 148.5 214t131 208t-39.5 155t-172 40.5t-198.5 -80.5l-28 125q136 92 297.5 84t235.5 -87.5t60 -229.5t-123 -252t-154.5 -183.5t-49.5 -249.5
h-123q-23 154 15.5 256z" />
    <glyph glyph-name="uni203D" unicode="&#x203d;" horiz-adv-x="649" 
d="M214 11q-46 0 -78 32.5t-32 77.5q0 46 32 78.5t78 32.5t78 -32.5t32 -78.5q0 -45 -32 -77.5t-78 -32.5zM287 734q26 36 60 75q108 123 129 219t-39.5 155t-172 40.5t-198.5 -80.5l-28 125q136 92 297.5 84t235.5 -87.5t60 -219.5t-128 -247t-187 -179q-20 -20 -35 -43
l-7 -226h-123l-10 703h153z" />
    <glyph glyph-name="exclamdown" unicode="&#xa1;" horiz-adv-x="424" 
d="M206 889q46 0 78 -32.5t32 -77.5q0 -46 -32 -78.5t-78 -32.5t-78 32.5t-32 78.5q0 45 32 77.5t78 32.5zM126 -453l20 1003h123l20 -1003h-163z" />
    <glyph glyph-name="questiondown" unicode="&#xbf;" horiz-adv-x="653" 
d="M386 889q46 0 78 -32.5t32 -77.5q0 -46 -32 -78.5t-78 -32.5t-78 32.5t-32 78.5q0 45 32 77.5t78 32.5zM433.5 294q-38.5 -102 -148.5 -214t-131 -208t39.5 -155t172 -40.5t198.5 80.5l28 -125q-136 -92 -297.5 -84t-235.5 87.5t-60 229.5t123 252t154.5 183.5
t49.5 249.5h123q23 -154 -15.5 -256z" />
    <glyph glyph-name="uni2E18" unicode="&#x2e18;" horiz-adv-x="649" 
d="M406 889q46 0 78 -32.5t32 -77.5q0 -46 -32 -78.5t-78 -32.5t-78 32.5t-32 78.5q0 45 32 77.5t78 32.5zM333 166q-26 -36 -60 -75q-108 -123 -129 -219t39.5 -155t172 -40.5t198.5 80.5l28 -125q-136 -92 -297.5 -84t-235.5 87.5t-60 219.5t128 247t187 179q20 20 35 43
l7 226h123l10 -703h-153z" />
    <glyph glyph-name="parenleft" unicode="(" horiz-adv-x="710" 
d="M304 668q4 -567 320 -786l-17 -58q-478 175 -481 844v1q3 699 501 904l17 -48q-336 -259 -340 -857z" />
    <glyph glyph-name="parenright" unicode=")" horiz-adv-x="710" 
d="M426 668q-4 -567 -320 -786l17 -58q478 175 481 844v1q-3 699 -501 904l-17 -48q336 -259 340 -857z" />
    <glyph glyph-name="bracketleft" unicode="[" horiz-adv-x="747" 
d="M632 1607v-96h-334v-1574h334v-96h-460v1766h460z" />
    <glyph glyph-name="bracketright" unicode="]" horiz-adv-x="747" 
d="M158 1607v-96h334v-1574h-334v-96h460v1766h-460z" />
    <glyph glyph-name="braceleft" unicode="{" horiz-adv-x="598" 
d="M269 693q106 27 135 90q75 109 27.5 410.5t99.5 360.5l2 43q-296 -14 -255 -435t-155 -431v-76q196 -10 155 -431.5t255 -434.5l-2 43q-147 59 -99.5 360.5t-27.5 410.5q-29 63 -135 90z" />
    <glyph glyph-name="braceright" unicode="}" horiz-adv-x="598" 
d="M381 693q-106 27 -135 90q-75 109 -27.5 410.5t-99.5 360.5l-2 43q296 -14 255 -435t155 -431v-76q-196 -10 -155 -431.5t-255 -434.5l2 43q147 59 99.5 360.5t27.5 410.5q29 63 135 90z" />
    <glyph glyph-name="bar" unicode="|" horiz-adv-x="473" 
d="M298 1h-126v1439h126v-1439z" />
    <glyph glyph-name="slash" unicode="/" horiz-adv-x="670" 
d="M95 -6l491 1459h130l-497 -1459h-124z" />
    <glyph glyph-name="backslash" unicode="\" horiz-adv-x="821" 
d="M705 -6l-491 1459h-130l497 -1459h124z" />
    <glyph glyph-name="quotesingle" unicode="'" horiz-adv-x="480" 
d="M324 1443l-40 -403h-73l-50 403h163z" />
    <glyph glyph-name="quotedbl" unicode="&#x22;" horiz-adv-x="667" 
d="M304 1443l-40 -403h-73l-50 403h163zM554 1443l-40 -403h-73l-50 403h163z" />
    <glyph glyph-name="quoteleft" unicode="&#x2018;" horiz-adv-x="347" 
d="M244 1424l41 -40q-85 -103 -101 -201q43 0 74 -30q31 -31 31 -77q0 -45 -31 -76.5t-78 -31.5q-63 0 -95 40.5t-32 107.5q-10 147 191 308z" />
    <glyph glyph-name="quoteright" unicode="&#x2019;" horiz-adv-x="347" 
d="M106 956l-41 40q85 103 101 201q-43 0 -74 30q-31 31 -31 77q0 45 31 76.5t78 31.5q63 0 95 -40.5t32 -107.5q10 -147 -191 -308z" />
    <glyph glyph-name="quotedblleft" unicode="&#x201c;" horiz-adv-x="658" 
d="M244 1424l41 -40q-85 -103 -101 -201q43 0 74 -30q31 -31 31 -77q0 -45 -31 -76.5t-78 -31.5q-63 0 -95 40.5t-32 107.5q-10 147 191 308zM564 1424l41 -40q-85 -103 -101 -201q43 0 74 -30q31 -31 31 -77q0 -45 -31 -76.5t-78 -31.5q-63 0 -95 40.5t-32 107.5
q-10 147 191 308z" />
    <glyph glyph-name="quotedblright" unicode="&#x201d;" horiz-adv-x="658" 
d="M106 956l-41 40q85 103 101 201q-43 0 -74 30q-31 31 -31 77q0 45 31 76.5t78 31.5q63 0 95 -40.5t32 -107.5q10 -147 -191 -308zM426 956l-41 40q85 103 101 201q-43 0 -74 30q-31 31 -31 77q0 45 31 76.5t78 31.5q63 0 95 -40.5t32 -107.5q10 -147 -191 -308z" />
    <glyph glyph-name="quotesinglbase" unicode="&#x201a;" horiz-adv-x="478" 
d="M186 -224l-41 40q85 103 101 201q-43 0 -74 30q-31 31 -31 77q0 45 31 76.5t78 31.5q63 0 95 -40.5t32 -107.5q10 -147 -191 -308z" />
    <glyph glyph-name="quotedblbase" unicode="&#x201e;" horiz-adv-x="740" 
d="M186 -224l-41 40q85 103 101 201q-43 0 -74 30q-31 31 -31 77q0 45 31 76.5t78 31.5q63 0 95 -40.5t32 -107.5q10 -147 -191 -308zM506 -224l-41 40q85 103 101 201q-43 0 -74 30q-31 31 -31 77q0 45 31 76.5t78 31.5q63 0 95 -40.5t32 -107.5q10 -147 -191 -308z" />
    <glyph glyph-name="guilsinglleft" unicode="&#x2039;" horiz-adv-x="635" 
d="M140 448l304 324q14 -7 26.5 -15.5t24.5 -19.5l-195 -312l195 -312q-12 -11 -24.5 -19.5t-26.5 -15.5l-304 324v46z" />
    <glyph glyph-name="guilsinglright" unicode="&#x203a;" horiz-adv-x="635" 
d="M500 448l-304 324q-14 -7 -26.5 -15.5t-24.5 -19.5l195 -312l-195 -312q12 -11 24.5 -19.5t26.5 -15.5l304 324v46z" />
    <glyph glyph-name="guillemotleft" unicode="&#xab;" horiz-adv-x="886" 
d="M130 448l304 324q14 -7 26.5 -15.5t24.5 -19.5l-195 -312l195 -312q-12 -11 -24.5 -19.5t-26.5 -15.5l-304 324v46zM450 448l304 324q14 -7 26.5 -15.5t24.5 -19.5l-195 -312l195 -312q-12 -11 -24.5 -19.5t-26.5 -15.5l-304 324v46z" />
    <glyph glyph-name="guillemotright" unicode="&#xbb;" horiz-adv-x="886" 
d="M780 448l-304 324q-14 -7 -26.5 -15.5t-24.5 -19.5l195 -312l-195 -312q12 -11 24.5 -19.5t26.5 -15.5l304 324v46zM460 448l-304 324q-14 -7 -26.5 -15.5t-24.5 -19.5l195 -312l-195 -312q12 -11 24.5 -19.5t26.5 -15.5l304 324v46z" />
    <glyph glyph-name="asterisk" unicode="*" horiz-adv-x="733" 
d="M410 1178l173 57l25 -79l-164 -53l106 -144l-68 -48l-112 156l-114 -156l-67 48l106 144l-164 53l25 79l172 -57v190h82v-190z" />
    <glyph glyph-name="dagger" unicode="&#x2020;" horiz-adv-x="771" 
d="M458 1h-126v1439h126v-1439zM745 1024v-106h-699v106h699z" />
    <glyph glyph-name="daggerdbl" unicode="&#x2021;" horiz-adv-x="771" 
d="M458 1h-126v1439h126v-1439zM745 1024v-106h-699v106h699zM46 418v106h699v-106h-699z" />
    <glyph glyph-name="periodcentered" unicode="&#xb7;" horiz-adv-x="580" 
d="M290 312q-30 0 -56.5 10.5t-45.5 29t-30 44.5t-11 57t11 57.5t30.5 45.5t45.5 29.5t56 10.5t55.5 -10.5t45 -29t30.5 -44.5t11 -57q0 -32 -11 -58t-30.5 -45t-45.5 -29.5t-55 -10.5z" />
    <glyph glyph-name="bullet" unicode="&#x2022;" horiz-adv-x="580" 
d="M290 282q-36 0 -68 13t-55 35t-36.5 53.5t-13.5 69.5q0 37 13.5 69t37 55t55 36t67.5 13t67 -13t54.5 -35t37 -53.5t13.5 -69.5q0 -39 -13.5 -70t-37 -54t-55 -36t-66.5 -13z" />
    <glyph glyph-name="at" unicode="@" horiz-adv-x="1507" 
d="M764 579q-104 -5 -165.5 -74t-64.5 -180.5t58 -161.5t158 -38t180 106v326q-62 27 -166 22zM963 130q-82 -112 -230 -121t-250.5 76t-99 241t95 254.5t279.5 106.5t325 -94v-394q7 -81 78.5 -66t99.5 156t-33 302.5t-227.5 228.5t-344 44.5t-280.5 -145.5t-122 -301.5
t41.5 -315.5t208 -208.5t364 -58.5t403.5 134l55 -115q-177 -125 -434 -149t-454 69t-277 266t-57 402t166.5 374t365.5 172.5t431 -54t286.5 -307t16 -409.5t-216 -196t-190.5 108z" />
    <glyph glyph-name="copyright" unicode="&#xa9;" horiz-adv-x="1841" 
d="M160 726q0 168 59.5 307.5t163 240.5t241.5 157t296 56q105 0 202 -25.5t182 -72.5t154 -114.5t119 -152.5t77 -184.5t27 -211.5t-27 -211.5t-77 -184t-119 -152t-154 -114.5t-182 -72.5t-202 -25.5q-158 0 -296 56t-241.5 156.5t-163 240t-59.5 307.5zM241 726
q0 -153 53 -279t145 -216t216 -140t265 -50t265 50t216.5 140t145.5 216t53 279t-53 279t-145.5 216.5t-216.5 140.5t-265 50t-265 -50t-216 -140.5t-145 -216.5t-53 -279zM942.5 216.5q-189.5 -12.5 -329 95t-156.5 350.5t102.5 401.5t348.5 170t351 -105.5l-40 -95
q-82 97 -268.5 102t-283.5 -132t-79 -335.5t129.5 -280.5t255.5 -72.5t279 83.5l8 -79q-128 -90 -317.5 -102.5z" />
    <glyph glyph-name="registered" unicode="&#xae;" horiz-adv-x="1230" 
d="M189 1018q0 -90 33.5 -164.5t90.5 -128t135 -83.5t167 -30q88 0 166.5 30t135.5 83.5t90.5 128t33.5 164.5t-33.5 165t-90.5 128.5t-135.5 83.5t-166.5 30q-89 0 -167 -30t-135 -83.5t-90.5 -128.5t-33.5 -165zM120 1018q0 103 39 189.5t106 148.5t157 96.5t193 34.5
t193 -34.5t157 -96.5t106 -148.5t39 -189.5q0 -104 -39 -190t-106 -147.5t-157 -96t-193 -34.5t-193 34.5t-157 96t-106 147.5t-39 190zM580 1333q216 -3 220 -174v-3q-3 -144 -164 -171q31 -11 67 -59l156 -203h-96l-137 185q-59 73 -96 74h-32v-259h-73v610h155zM498 1275
v-236h83q142 2 146 112v12q-4 110 -146 112h-83z" />
    <glyph glyph-name="trademark" unicode="&#x2122;" horiz-adv-x="1366" 
d="M763 1135v-444h-92v662h92l220 -524l219 524h92v-662h-92v444l-179 -444h-81zM402 1285v-594h-92v594h-231v68h555v-68h-232z" />
    <glyph glyph-name="section" unicode="&#xa7;" horiz-adv-x="763" 
d="M570 236q33 33 27 119t-213 355.5t-215 388.5q-34 -81 11 -182t225 -333.5t165 -347.5zM363.5 3.5q-172.5 -13.5 -318.5 78.5l29 125q114 -81 209 -86.5t144 27t32.5 102.5t-217.5 299t-204 403t85.5 288.5t273 127t310.5 -79.5l-28 -125q-87 62 -203.5 80.5t-165 -14.5
t-29.5 -115.5t226 -318t211.5 -408.5t-89 -271.5t-266 -112z" />
    <glyph glyph-name="_1" horiz-adv-x="733" 
d="M559 466q115 -87 127.5 -204t-61.5 -191t-239 -77.5t-291 88.5l29 125q94 -71 201.5 -81.5t159 27t36.5 123.5t-201 163.5t-212.5 184.5t47.5 189q29 33 93 61q-136 70 -151.5 198.5t58 210t230 89.5t282.5 -84l-28 -125q-87 62 -193.5 80.5t-160.5 -28t-31.5 -140.5
t199.5 -161t212.5 -187.5t-33.5 -203.5q-24 -29 -73 -57zM373 802.5q-47 7.5 -82 -23.5q-49 -53 -32 -120q13 -51 60 -80t94 -32.5t74 21.5q49 52 33 122q-11 43 -55.5 74t-91.5 38.5z" />
    <glyph glyph-name="paragraph" unicode="&#xb6;" horiz-adv-x="1254" 
d="M892 1348h-118v-1747h-136v1157h-161q-416 4 -435 324q7 355 382 358h780v-92h-196v-1747h-116v1747z" />
    <glyph glyph-name="hyphen" unicode="-" horiz-adv-x="765" 
d="M160 536h445v-111h-445v111z" />
    <glyph glyph-name="endash" unicode="&#x2013;" horiz-adv-x="1024" 
d="M20 522h984v-85h-984v85z" />
    <glyph glyph-name="emdash" unicode="&#x2014;" horiz-adv-x="2048" 
d="M20 522h2008v-85h-2008v85z" />
    <glyph glyph-name="figuredash" unicode="&#x2012;" horiz-adv-x="1060" 
d="M20 522h1020v-85h-1020v85z" />
    <glyph glyph-name="uni2015" unicode="&#x2015;" horiz-adv-x="3890" 
d="M20 522h3850v-85h-3850v85z" />
    <glyph glyph-name="numbersign" unicode="#" horiz-adv-x="1335" 
d="M65 -6l585 1355h130l-581 -1355h-134zM515 -6l585 1355h130l-581 -1355h-134zM1292 987v-96h-1059v96h1059zM1122 507v-96h-1059v96h1059z" />
    <glyph glyph-name="zero" unicode="0" horiz-adv-x="1096" 
d="M210 165.5q-133 167.5 -133 494.5q0 317 133 489.5t352 172.5q220 0 353 -172.5t133 -489.5q0 -327 -133 -494.5t-353 -167.5q-219 0 -352 167.5zM562 136q141 0 226.5 127t85.5 397q0 259 -85.5 391.5t-226.5 132.5q-140 0 -225.5 -132.5t-85.5 -391.5q0 -270 85.5 -397
t225.5 -127z" />
    <glyph glyph-name="one" unicode="1" horiz-adv-x="632" 
d="M514 1313v-1313h-163v1122l-250 -100l-49 115l423 176h39z" />
    <glyph glyph-name="two" unicode="2" horiz-adv-x="940" 
d="M321 147h533v-147h-763v106q391 450 477 594t104.5 235.5t-26 151.5t-121 77.5t-159 -5t-162.5 -95.5l-11 7l-45 119q82 83 194 110t223.5 9t187.5 -88.5t89.5 -194t-53.5 -266.5t-199.5 -299.5t-268.5 -313.5z" />
    <glyph glyph-name="three" unicode="3" horiz-adv-x="922" 
d="M566 696q146 -25 217 -116.5t64 -213.5q-5 -141 -78 -232.5t-216 -124.5t-275 -13.5t-201 77.5l-2 128l16 6q86 -53 193.5 -70.5t209.5 7t154 101.5t32.5 171.5t-111 147t-255.5 52.5h-65v138h54q108 0 198 40.5t120 124t-4.5 156t-121 90t-169 -5t-162.5 -95.5l-11 7
l-45 119q82 83 194 110t235 8t200.5 -101.5t70 -213.5t-84.5 -207.5t-157 -89.5z" />
    <glyph glyph-name="four" unicode="4" horiz-adv-x="1123" 
d="M681 1081l-402 -681h402v681zM844 1303v-903h200v-138h-200v-262h-163v262h-591v104l561 937h193z" />
    <glyph glyph-name="five" unicode="5" horiz-adv-x="950" 
d="M566 11.5q-156 -35.5 -288 -16t-201 77.5l-2 128l16 6q86 -53 193.5 -70.5t222 7t174 101.5t49.5 189.5t-98 171t-225.5 55.5t-226.5 -35l-41 10v666h681v-121h-518v-391q108 23 263 -0.5t245.5 -122t87.5 -256.5t-89.5 -261t-242.5 -138.5z" />
    <glyph glyph-name="six" unicode="6" horiz-adv-x="1029" 
d="M250 573q-3 -126 26 -223.5t92 -156.5t167 -63t176 62t77 192.5t-61.5 198.5t-201 74t-275.5 -84zM686 1305.5q134 -12.5 203 -60.5l2 -128l-16 -6q-86 53 -195 59.5t-205 -30t-151.5 -139.5t-68.5 -285q151 83 320.5 77.5t272.5 -115.5t95 -293q-7 -181 -125.5 -290
t-291.5 -102q-23 0 -48 2q-170 14 -260 133t-111.5 303.5t2.5 361.5t85 280q91 150 224.5 197.5t267.5 35z" />
    <glyph glyph-name="seven" unicode="7" horiz-adv-x="917" 
d="M842 1281l-458 -1281h-153l424 1179h-580v123h747z" />
    <glyph glyph-name="eight" unicode="8" horiz-adv-x="954" 
d="M482 758q215 126 226 235q13 118 -89 168q-60 32 -137 33q-77 -1 -137 -33q-103 -50 -90 -168q11 -109 227 -235zM482 133q148 5 213 80q60 81 15 182q-37 92 -228 200q-191 -108 -228 -200q-46 -101 14 -182q65 -75 214 -80zM610 676q241 -138 266 -305t-78 -270
q-95 -78 -235 -98q-31 -8 -64 -8h-35q-32 0 -63 8q-141 20 -236 98q-103 103 -78 270t276 305q-233 136 -248 295q-18 144 62 234t227 105q28 5 58 5h40q29 0 57 -5q147 -15 227 -105t62 -234q-15 -159 -238 -295z" />
    <glyph glyph-name="nine" unicode="9" horiz-adv-x="991" 
d="M759 728q3 126 -26 223.5t-92 161.5t-157 68t-166 -67t-77 -197.5t61.5 -198.5t191 -74t265.5 84zM322.5 -4.5q-133.5 12.5 -202.5 60.5l-2 128l16 6q86 -53 194.5 -59.5t205 30t152 139.5t68.5 285q-151 -83 -310.5 -77.5t-262.5 115.5t-95 293q7 181 125.5 290
t271.5 102q23 0 48 -2q170 -14 260 -133t111.5 -303.5t-2.5 -361.5t-86 -280q-91 -150 -224.5 -197.5t-267 -35z" />
    <glyph glyph-name="uni00B9" unicode="&#xb9;" horiz-adv-x="492" 
d="M396 1463v-764h-132v609l-147 -58l-40 93l288 120h31z" />
    <glyph glyph-name="uni00B2" unicode="&#xb2;" horiz-adv-x="647" 
d="M371 1347q-49 20 -109 7t-125 -72l-9 6l-36 86q66 67 147 84t150.5 1.5t115.5 -62t51 -111.5q10 -85 -42 -180t-253 -295h313v-111h-493v88q250 261 300.5 339t44.5 139t-55 81z" />
    <glyph glyph-name="uni00B3" unicode="&#xb3;" horiz-adv-x="606" 
d="M416 1089q68 -20 106.5 -66.5t40.5 -117.5t-45 -124.5t-124.5 -76.5t-169 -7.5t-147.5 62.5l-2 104l13 5q70 -43 142 -57.5t125.5 0t74.5 49t8.5 78t-60 67.5t-129.5 24h-53v112h44q47 0 85 11t68.5 40.5t21.5 86.5t-59 72.5t-107 2.5t-122 -72l-9 6l-36 86q66 67 147 84
t150.5 1.5t115.5 -62t51 -112t-28.5 -120.5t-101.5 -76z" />
    <glyph glyph-name="percent" unicode="%" horiz-adv-x="1405" 
d="M155 -6l991 1459h130l-997 -1459h-124zM350 676q-127 -2 -204 80q-79 91 -95.5 256.5t57.5 306.5q73 132 231 146h6q127 3 204 -80q78 -85 95 -253.5t-57 -308.5q-73 -133 -231 -147h-6zM352 785q88 10 129 106q41 102 31.5 224t-53.5 183q-42 60 -113 59l-3 -1
q-88 -9 -129 -106q-41 -102 -31.5 -222t52.5 -185q43 -60 114 -58h3zM1050 -24q-127 -2 -204 80q-79 91 -95.5 256.5t57.5 306.5q73 132 231 146h6q127 3 204 -80q78 -85 95 -253.5t-57 -308.5q-73 -133 -231 -147h-6zM1052 85q88 10 129 106q41 102 31.5 224t-53.5 183
q-42 60 -113 59l-3 -1q-88 -9 -129 -106q-41 -102 -31.5 -222t52.5 -185q43 -60 114 -58h3z" />
    <glyph glyph-name="perthousand" unicode="&#x2030;" horiz-adv-x="2092" 
d="M155 -6l991 1459h130l-997 -1459h-124zM350 676q-127 -2 -204 80q-79 91 -95.5 256.5t57.5 306.5q73 132 231 146h6q127 3 204 -80q78 -85 95 -253.5t-57 -308.5q-73 -133 -231 -147h-6zM352 785q88 10 129 106q41 102 31.5 224t-53.5 183q-42 60 -113 59l-3 -1
q-88 -9 -129 -106q-41 -102 -31.5 -222t52.5 -185q43 -60 114 -58h3zM1050 -24q-127 -2 -204 80q-79 91 -95.5 256.5t57.5 306.5q73 132 231 146h6q127 3 204 -80q78 -85 95 -253.5t-57 -308.5q-73 -133 -231 -147h-6zM1052 85q88 10 129 106q41 102 31.5 224t-53.5 183
q-42 60 -113 59l-3 -1q-88 -9 -129 -106q-41 -102 -31.5 -222t52.5 -185q43 -60 114 -58h3zM1710 -24q-127 -2 -204 80q-79 91 -95.5 256.5t57.5 306.5q73 132 231 146h6q127 3 204 -80q78 -85 95 -253.5t-57 -308.5q-73 -133 -231 -147h-6zM1712 85q88 10 129 106
q41 102 31.5 224t-53.5 183q-42 60 -113 59l-3 -1q-88 -9 -129 -106q-41 -102 -31.5 -222t52.5 -185q43 -60 114 -58h3z" />
    <glyph glyph-name="fraction" unicode="&#x2044;" horiz-adv-x="1405" 
d="M155 -6l991 1459h130l-997 -1459h-124z" />
    <glyph glyph-name="onequarter" unicode="&#xbc;" horiz-adv-x="1324" 
d="M155 -6l991 1459h130l-997 -1459h-124zM1014 564l-216 -321h216v321zM1146 754v-511h132v-112h-132v-132h-132v132h-359v84l354 539h137zM496 1463v-764h-132v609l-147 -58l-40 93l288 120h31z" />
    <glyph glyph-name="onehalf" unicode="&#xbd;" horiz-adv-x="1370" 
d="M105 -6l991 1459h130l-997 -1459h-124zM1111 647q-49 20 -109 7t-125 -72l-9 6l-36 86q66 67 147 84t150.5 1.5t115.5 -62t51 -111.5q10 -85 -42 -180t-253 -295h313v-111h-493v88q250 261 300.5 339t44.5 139t-55 81zM476 1463v-764h-132v609l-147 -58l-40 93l288 120
h31z" />
    <glyph glyph-name="threequarters" unicode="&#xbe;" horiz-adv-x="1324" 
d="M155 -6l991 1459h130l-997 -1459h-124zM1014 564l-216 -321h216v321zM1146 754v-511h132v-112h-132v-132h-132v132h-359v84l354 539h137zM426 1089q68 -20 106.5 -66.5t40.5 -117.5t-45 -124.5t-124.5 -76.5t-169 -7.5t-147.5 62.5l-2 104l13 5q70 -43 142 -57.5t125.5 0
t74.5 49t8.5 78t-60 67.5t-129.5 24h-53v112h44q47 0 85 11t68.5 40.5t21.5 86.5t-59 72.5t-107 2.5t-122 -72l-9 6l-36 86q66 67 147 84t150.5 1.5t115.5 -62t51 -112t-28.5 -120.5t-101.5 -76z" />
    <glyph glyph-name="plus" unicode="+" horiz-adv-x="1061" 
d="M902 560v-112h-780v112h780zM456 904h122v-800h-122v800z" />
    <glyph glyph-name="minus" unicode="&#x2212;" horiz-adv-x="877" 
d="M772 560v-122h-680v122h680z" />
    <glyph glyph-name="plusminus" unicode="&#xb1;" horiz-adv-x="1061" 
d="M902 560v-112h-780v112h780zM456 904h122v-800h-122v800zM902 160v-112h-780v112h780z" />
    <glyph glyph-name="multiply" unicode="&#xd7;" horiz-adv-x="1061" 
d="M796 862l94 -94l-622 -622l-94 94zM174 768l94 94l622 -622l-94 -94z" />
    <glyph glyph-name="divide" unicode="&#xf7;" horiz-adv-x="877" 
d="M772 560v-122h-680v122h680zM434 91q-46 0 -78 32.5t-32 77.5q0 46 32 78.5t78 32.5t78 -32.5t32 -78.5q0 -45 -32 -77.5t-78 -32.5zM434 691q-46 0 -78 32.5t-32 77.5q0 46 32 78.5t78 32.5t78 -32.5t32 -78.5q0 -45 -32 -77.5t-78 -32.5z" />
    <glyph glyph-name="equal" unicode="=" horiz-adv-x="877" 
d="M772 740v-122h-680v122h680zM772 390v-122h-680v122h680z" />
    <glyph glyph-name="less" unicode="&#x3c;" horiz-adv-x="1132" 
d="M356 424l652 -262l-44 -121l-834 349v73l834 349l44 -121l-652 -263v-4z" />
    <glyph glyph-name="greater" unicode="&#x3e;" horiz-adv-x="1132" 
d="M782 428l-652 263l44 121l834 -349v-73l-834 -349l-44 121l652 262v4z" />
    <glyph glyph-name="logicalnot" unicode="&#xac;" horiz-adv-x="1061" 
d="M948 560v-386h-132v274h-724v112h856z" />
    <glyph glyph-name="mu" unicode="&#xb5;" horiz-adv-x="968" 
d="M303 95v-585h-163v1343h163v-539q5 -98 64 -146.5t128.5 -50t137 56t78.5 122.5v557h163v-853h-163v112q-61 -81 -133 -105.5t-149.5 -5t-125.5 93.5z" />
    <glyph glyph-name="degree" unicode="&#xb0;" horiz-adv-x="657" 
d="M343 1386h32q151 0 222 -128q27 -57 27 -122q0 -192 -188 -241q-37 -7 -65 -7h-18q-154 0 -228 126q-29 53 -29 124v6q0 172 168 230q44 12 79 12zM313 1285q-87 -37 -87 -145v-1q0 -46 15 -80q37 -78 115 -78h10q14 0 33 4q96 31 96 151q0 40 -15 77q-36 79 -112 79h-17
q-17 0 -38 -7z" />
    <glyph glyph-name="asciicircum" unicode="^" horiz-adv-x="724" 
d="M357 1210l-192 -382l-111 44l269 534h73l269 -534l-111 -44l-193 382h-4z" />
    <glyph glyph-name="asciitilde" unicode="~" horiz-adv-x="844" 
d="M804 600q-52 -190 -147 -215.5t-246 63.5t-207 76t-88 -118l-49 4q0 124 53 183t130.5 53t217 -82.5t197 -52.5t91.5 100z" />
    <glyph glyph-name="brokenbar" unicode="&#xa6;" horiz-adv-x="473" 
d="M298 901h-126v539h126v-539zM298 1h-126v539h126v-539z" />
    <glyph glyph-name="underscore" unicode="_" horiz-adv-x="914" 
d="M-35 -181h984v-85h-984v85z" />
    <glyph glyph-name="ordfeminine" unicode="&#xaa;" horiz-adv-x="709" 
d="M71 508h618v-85h-618v85zM496 955q-54 7 -128.5 -2.5t-117.5 -51.5t-39.5 -106t55.5 -84t121 9t109 88v147zM628 1109v-372q0 -62 8 -123h-70q-40 14 -57 98q-67 -84 -155 -100q-129 -19 -195 27.5t-73 143t50.5 159.5t154.5 84.5t205 7.5v55q0 36 -7 62q-7 27 -38 46
t-102 18q-108 -3 -170 -67h-9l-23 102q86 66 236 62q74 -2 115 -16.5t74 -43.5q53 -48 56 -143z" />
    <glyph glyph-name="ordmasculine" unicode="&#xba;" horiz-adv-x="788" 
d="M71 508h668v-85h-668v85zM403 599q-148 0 -229.5 98t-81.5 250t81.5 249.5t229.5 97.5t229 -97.5t81 -249.5t-81 -250t-229 -98zM533 762.5q51 60.5 51 186.5q0 125 -51 186t-128 61t-128 -61t-51 -186q0 -126 51 -186.5t128 -60.5t128 60.5z" />
    <glyph glyph-name="currency" unicode="&#xa4;" horiz-adv-x="797" 
d="M327 1168q-115 -45 -115 -179v-2q0 -57 20 -99q49 -97 152 -97h13q19 0 43 5q127 38 127 188q0 50 -20 95q-47 98 -148 98h-21q-23 0 -51 -9zM252 1236q15 6 31 12q48 13 87 13h36q78 0 137 -30l121 121l94 -94l-118 -118q7 -10 13 -21q30 -63 30 -135q0 -86 -33 -146
l108 -108l-94 -94l-110 110q-35 -18 -80 -30q-41 -8 -72 -8h-20q-81 0 -143 31l-103 -103l-94 94l98 98l-12 20q-32 59 -32 138v6q0 98 49 163l-103 103l94 94z" />
    <glyph glyph-name="Euro" unicode="&#x20ac;" horiz-adv-x="1313" 
d="M869.5 -6q-255.5 -17 -443.5 128t-211 472t138.5 541t470 229.5t472.5 -142.5l-53 -128q-111 130 -362.5 137t-382.5 -177.5t-106.5 -452t174.5 -378t344.5 -98t376.5 112.5l11 -106q-173 -121 -428.5 -138zM894 814v-86h-839v86h839zM894 614v-86h-839v86h839z" />
    <glyph glyph-name="dollar" unicode="$" horiz-adv-x="885" 
d="M835.5 399q21.5 -186 -91.5 -294t-324 -109.5t-384 173.5l51 134q151 -163 322.5 -164.5t231.5 83t14.5 190t-311.5 252t-283.5 337.5t92 281t305 87.5t319.5 -97.5l-30 -124q-86 63 -220 87.5t-226.5 -27t-79.5 -174.5t303 -286t311.5 -349zM488 -199h-86v1759h86v-1759
z" />
    <glyph glyph-name="cent" unicode="&#xa2;" horiz-adv-x="904" 
d="M526.5 0.5q-179.5 -10.5 -303.5 88t-128 310.5t101 326t285 124.5t306 -81.5l-28 -125q-88 78 -221 81.5t-209 -85t-69 -242t99.5 -217.5t209.5 -53t199 52l7 -112q-69 -56 -248.5 -66.5zM548 -199h-86v1239h86v-1239z" />
    <glyph glyph-name="sterling" unicode="&#xa3;" horiz-adv-x="895" 
d="M53 80q274 370 148.5 541t-133 346.5t88.5 279t308 109t343 -159.5l-56 -106q-116 138 -257 139.5t-208 -84.5t-48 -212.5t118 -304t-111 -507.5h628v-121h-772zM675 654v-86h-639v86h639z" />
    <glyph glyph-name="yen" unicode="&#xa5;" horiz-adv-x="1149" 
d="M583 756l388 597h183l-571 -868l-572 868h193zM664 683v-683h-163v683h163zM1005 654v-86h-839v86h839zM1005 454v-86h-839v86h839z" />
    <glyph glyph-name="florin" unicode="&#x192;" horiz-adv-x="638" 
d="M171 1071q9 249 170 296.5t325 -10.5l-13 -108q-156 35 -233 5.5t-86 -173.5v-229h288v-121h-288v-771q-9 -249 -170 -291.5t-325 35.5l13 108q156 -55 233 -30.5t86 168.5v781h-132v121h132v219z" />
    <glyph glyph-name="grave" unicode="`" horiz-adv-x="800" 
d="M211 1381h215l137 -325l-49 -36z" />
    <glyph glyph-name="acute" unicode="&#xb4;" horiz-adv-x="800" 
d="M370 1020l-49 36l137 325h215z" />
    <glyph glyph-name="circumflex" unicode="&#x2c6;" horiz-adv-x="800" 
d="M387 1223l-241 -203l-45 40l243 321h86l243 -321l-45 -40z" />
    <glyph glyph-name="tilde" unicode="&#x2dc;" horiz-adv-x="800" 
d="M715 1271q-9 -125 -54.5 -179t-126.5 -54q-48 0 -147 68.5t-154 52.5t-82 -123l-39 2q-7 124 43 186t128 60t171 -71t149 -42t73 112z" />
    <glyph glyph-name="dieresis" unicode="&#xa8;" horiz-adv-x="748" 
d="M204 1046q-44 0 -75 31t-31 74q0 44 31 75t75 31t75 -31t31 -75q0 -43 -31 -74t-75 -31zM544 1046q-44 0 -75 31t-31 74q0 44 31 75t75 31t75 -31t31 -75q0 -43 -31 -74t-75 -31z" />
    <glyph glyph-name="macron" unicode="&#xaf;" horiz-adv-x="800" 
d="M131 1168h538v-85h-538v85z" />
    <glyph glyph-name="breve" unicode="&#x2d8;" horiz-adv-x="800" 
d="M654 1341q-3 -48 -23.5 -109.5t-56 -101.5t-85 -59.5t-89.5 -19.5t-89.5 19.5t-85 59.5t-56 101.5t-23.5 109.5l61 6q17 -61 68.5 -111t124.5 -50t124.5 50t68.5 111z" />
    <glyph glyph-name="ring" unicode="&#x2da;" horiz-adv-x="800" 
d="M184 1136q0 39 15 74t43 61t69 41.5t94 15.5q51 0 90.5 -15t66 -40.5t40.5 -59t14 -71.5q0 -39 -15 -73.5t-43 -61t-69 -41.5t-94 -15q-51 0 -90.5 15t-66 40t-40.5 58.5t-14 71.5zM296 1138q0 -57 29 -79.5t74 -22.5q22 0 41.5 5.5t34 17.5t22 32t7.5 50q0 57 -29 79.5
t-74 22.5q-22 0 -41.5 -5.5t-34 -18t-22 -32.5t-7.5 -49z" />
    <glyph glyph-name="cedilla" unicode="&#xb8;" horiz-adv-x="603" 
d="M504.5 -462q-128.5 -37 -295.5 40l24 62q131 -51 206 -28t73.5 93.5t-74.5 91.5t-171 -31l-58 43l166 264l85 -48l-106 -155q106 45 205 -6t86.5 -170t-141 -156z" />
    <glyph glyph-name="_2" horiz-adv-x="800" 
d="M211 1881h215l137 -325l-49 -36z" />
    <glyph glyph-name="_3" 
d="M370 1520l-49 36l137 325h215z" />
    <glyph glyph-name="_4" 
d="M387 1723l-241 -203l-45 40l243 321h86l243 -321l-45 -40z" />
    <glyph glyph-name="_5" 
d="M715 1771q-9 -125 -54.5 -179t-126.5 -54q-48 0 -147 68.5t-154 52.5t-82 -123l-39 2q-7 124 43 186t128 60t171 -71t149 -42t73 112z" />
    <glyph glyph-name="_6" 
d="M204 1546q-44 0 -75 31t-31 74q0 44 31 75t75 31t75 -31t31 -75q0 -43 -31 -74t-75 -31zM544 1546q-44 0 -75 31t-31 74q0 44 31 75t75 31t75 -31t31 -75q0 -43 -31 -74t-75 -31z" />
    <glyph glyph-name="_7" 
d="M131 1698h538v-85h-538v85z" />
    <glyph glyph-name="_8" 
d="M654 1841q-3 -48 -23.5 -109.5t-56 -101.5t-85 -59.5t-89.5 -19.5t-89.5 19.5t-85 59.5t-56 101.5t-23.5 109.5l61 6q17 -61 68.5 -111t124.5 -50t124.5 50t68.5 111z" />
    <glyph glyph-name="_9" 
d="M184 1486q0 39 15 74t43 61t69 41.5t94 15.5q51 0 90.5 -15t66 -40.5t40.5 -59t14 -71.5q0 -39 -15 -73.5t-43 -61t-69 -41.5t-94 -15q-51 0 -90.5 15t-66 40t-40.5 58.5t-14 71.5zM296 1488q0 -57 29 -79.5t74 -22.5q22 0 41.5 5.5t34 17.5t22 32t7.5 50q0 57 -29 79.5
t-74 22.5q-22 0 -41.5 -5.5t-34 -18t-22 -32.5t-7.5 -49z" />
    <glyph glyph-name="_10" 
d="M414 1551q-46 0 -78 32.5t-32 77.5q0 46 32 78.5t78 32.5t78 -32.5t32 -78.5q0 -45 -32 -77.5t-78 -32.5z" />
    <glyph glyph-name="gravecomb" unicode="&#x300;" 
d="M-589 1381h215l137 -325l-49 -36z" />
    <glyph glyph-name="acutecomb" unicode="&#x301;" 
d="M-430 1020l-49 36l137 325h215z" />
    <glyph glyph-name="uni0302" unicode="&#x302;" 
d="M-413 1223l-241 -203l-45 40l243 321h86l243 -321l-45 -40z" />
    <glyph glyph-name="tildecomb" unicode="&#x303;" 
d="M-85 1271q-9 -125 -54.5 -179t-126.5 -54q-48 0 -147 68.5t-154 52.5t-82 -123l-39 2q-7 124 43 186t128 60t171 -71t149 -42t73 112z" />
    <glyph glyph-name="uni0308" unicode="&#x308;" 
d="M-596 1046q-44 0 -75 31t-31 74q0 44 31 75t75 31t75 -31t31 -75q0 -43 -31 -74t-75 -31zM-256 1046q-44 0 -75 31t-31 74q0 44 31 75t75 31t75 -31t31 -75q0 -43 -31 -74t-75 -31z" />
    <glyph glyph-name="uni0304" unicode="&#x304;" 
d="M-669 1168h538v-85h-538v85z" />
    <glyph glyph-name="uni0306" unicode="&#x306;" 
d="M-146 1341q-3 -48 -23.5 -109.5t-56 -101.5t-85 -59.5t-89.5 -19.5t-89.5 19.5t-85 59.5t-56 101.5t-23.5 109.5l61 6q17 -61 68.5 -111t124.5 -50t124.5 50t68.5 111z" />
    <glyph glyph-name="uni030A" unicode="&#x30a;" 
d="M-616 1136q0 39 15 74t43 61t69 41.5t94 15.5q51 0 90.5 -15t66 -40.5t40.5 -59t14 -71.5q0 -39 -15 -73.5t-43 -61t-69 -41.5t-94 -15q-51 0 -90.5 15t-66 40t-40.5 58.5t-14 71.5zM-504 1138q0 -57 29 -79.5t74 -22.5q22 0 41.5 5.5t34 17.5t22 32t7.5 50
q0 57 -29 79.5t-74 22.5q-22 0 -41.5 -5.5t-34 -18t-22 -32.5t-7.5 -49z" />
    <glyph glyph-name="uni0310" unicode="&#x310;" 
d="M-572 1308q-28 0 -48.5 20t-20.5 49q0 28 20.5 48t48.5 20q29 0 49 -20t20 -48q0 -29 -20 -49t-49 -20zM-316 1341q-3 -48 -23.5 -109.5t-56 -101.5t-85 -59.5t-89.5 -19.5t-89.5 19.5t-85 59.5t-56 101.5t-23.5 109.5l61 6q17 -61 68.5 -111t124.5 -50t124.5 50
t68.5 111z" />
    <glyph glyph-name="uni0307" unicode="&#x307;" 
d="M-286 1011q-46 0 -78 32.5t-32 77.5q0 46 32 78.5t78 32.5t78 -32.5t32 -78.5q0 -45 -32 -77.5t-78 -32.5z" />
    <glyph glyph-name="dotbelowcomb" unicode="&#x323;" 
d="M-286 -399q-46 0 -78 32.5t-32 77.5q0 46 32 78.5t78 32.5t78 -32.5t32 -78.5q0 -45 -32 -77.5t-78 -32.5z" />
    <glyph glyph-name="uni032A" unicode="&#x32a;" 
d="M-124 -122v-283h-101v182h-409v-182h-101v283h611z" />
    <glyph glyph-name="uni25FB" unicode="&#x25fb;" horiz-adv-x="1220" 
d="M180 905h860v-860h-860v860zM260 125h700v700h-700v-700z" />
    <glyph glyph-name="uni25FC" unicode="&#x25fc;" horiz-adv-x="1220" 
d="M180 905h860v-860h-860v860z" />
    <glyph glyph-name="uni25FD" unicode="&#x25fd;" horiz-adv-x="1220" 
d="M352 733h516v-516h-516v516zM422 288h376v375h-376v-375z" />
    <glyph glyph-name="uni25FE" unicode="&#x25fe;" horiz-adv-x="1220" 
d="M352 733h516v-516h-516v516z" />
    <glyph glyph-name="arrowleft" unicode="&#x2190;" horiz-adv-x="1189" 
d="M1135 480v-102h-980v102h980zM62 461l484 324l66 -81l-390 -266v-16l390 -266l-66 -81l-484 324v62z" />
    <glyph glyph-name="arrowright" unicode="&#x2192;" horiz-adv-x="1189" 
d="M1042 480v-102h-980v102h980zM1135 399l-484 -324l-66 81l390 266v16l-390 266l66 81l484 -324v-62z" />
    <glyph glyph-name="uni2002" unicode="&#x2002;" horiz-adv-x="602" 
 />
    <glyph glyph-name="uni2004" unicode="&#x2004;" horiz-adv-x="302" 
 />
    <glyph glyph-name="uni2006" unicode="&#x2006;" horiz-adv-x="102" 
 />
    <glyph glyph-name="uni200C" unicode="&#x200c;" 
d="M36 -275h-72v1859h72v-1859z" />
    <glyph glyph-name="uni200D" unicode="&#x200d;" 
d="M219 1369l-49 -49l-134 136v-1731h-72v1731l-134 -136l-49 49l171 169l-171 168l49 49l170 -171l170 171l49 -49l-171 -168z" />
    <glyph glyph-name="uni200B" unicode="&#x200b;" 
 />
    <glyph glyph-name="uni25CC" unicode="&#x25cc;" horiz-adv-x="1217" 
d="M980 858q0 -50 -48 -50q-52 0 -52 50t52 50q48 0 48 -50zM832 956q0 -49 -48 -49q-52 0 -52 49q0 51 52 51q48 0 48 -51zM1079 710q0 -51 -51 -51q-49 0 -49 51q0 49 51 49q49 0 49 -49zM1115 536q0 -50 -48 -50q-52 0 -52 50t52 50q48 0 48 -50zM658 993q0 -51 -50 -51
t-50 51q0 49 50 49t50 -49zM485 956q0 -49 -51 -49q-49 0 -49 49q0 51 49 51q51 0 51 -51zM1079 362q0 -49 -51 -49q-49 0 -49 49q0 51 49 51q51 0 51 -51zM337 858q0 -50 -50 -50t-50 47q0 53 50 53t50 -50zM980 212q0 -49 -48 -49q-52 0 -52 49q0 51 52 51q48 0 48 -51z
M832 114q0 -48 -48 -48q-52 0 -52 48q0 52 52 52q48 0 48 -52zM238 710q0 -51 -48 -51q-52 0 -52 51q0 49 50 49t50 -49zM202 536q1 -50 -48 -50q-52 0 -52 50t52 50q49 0 48 -50zM658 81q0 -51 -50 -51t-50 51q0 49 50 49t50 -49zM238 362q0 -49 -50 -49t-50 49q0 51 50 51
t50 -51zM485 118q0 -52 -51 -52q-49 0 -49 48q0 52 49 52q51 0 51 -48zM337 212q0 -49 -50 -49t-50 49q0 51 50 51t50 -51z" />
    <glyph glyph-name="cereg" horiz-adv-x="1351" 
d="M652.5 -544.5q-15.5 62.5 -122.5 32t-170.5 -52t-129 -39.5t-96 14t-5.5 119.5t178 214.5t309 165l8 -22q-138 -56 -246.5 -140t-161 -159t-48 -115t49.5 -33.5t138.5 41.5t204.5 62t190 -19.5t53 -171t-233 -258t-460 -215.5l-11 23q165 103 366.5 297t186 256.5z" />
    <glyph glyph-name="cereg.above" 
d="M352.5 1755.5q-15.5 62.5 -122.5 32t-170.5 -52t-129 -39.5t-96 14t-5.5 119.5t178 214.5t309 165l8 -22q-138 -56 -246.5 -140t-161 -159t-48 -115t49.5 -33.5t138.5 41.5t204.5 62t190 -19.5t53 -171t-233 -258t-460 -215.5l-11 23q165 103 366.5 297t186 256.5z" />
    <glyph glyph-name="cereg.conj" 
d="M-847.5 -1744.5q-15.5 62.5 -122.5 32t-170.5 -52t-129 -39.5t-96 14t-5.5 119.5t178 214.5t309 165l8 -22q-138 -56 -246.5 -140t-161 -159t-48 -115t49.5 -33.5t138.5 41.5t204.5 62t190 -19.5t53 -171t-233 -258t-460 -215.5l-11 23q165 103 366.5 297t186 256.5z" />
    <glyph glyph-name="cereg.alt" horiz-adv-x="1351" 
d="M652.5 -644.5q-15.5 62.5 -122.5 32t-170.5 -52t-129 -39.5t-96 14t-5.5 119.5t178 214.5t309 165l8 -22q-138 -56 -246.5 -140t-161 -159t-48 -115t49.5 -33.5t138.5 41.5t204.5 62t190 -19.5t53 -171t-233 -258t-460 -215.5l-11 23q165 103 366.5 297t186 256.5z" />
    <glyph glyph-name="uniA980" unicode="&#xa980;" 
d="M-402 1155q-44 17 -72.5 53t-41.5 92t-11 100l29 5q10 -55 53 -101q12 -13 29 -23q-15 38 -5 75q19 64 120 128v1h22v-1q88 -64 94 -128q4 -37 -20 -75q19 10 35 23q51 46 72 101l29 -5q-8 -44 -32 -100t-60 -92t-82 -53q-45 -15 -81.5 -15t-77.5 15zM-380 1267
q30 -8 68 -8q37 0 68 8q51 93 -52 160q-115 -67 -84 -160z" />
    <glyph glyph-name="uniA981" unicode="&#xa981;" 
d="M-321 1138q-46 3 -72 29t-26 63t26 63t63 26t63 -26t26 -63q0 -19 -4 -29q82 26 169 118l23 -20q-104 -169 -268 -161z" />
    <glyph glyph-name="uniA982" unicode="&#xa982;" 
d="M1318 1633l-18 -19q-54 30 -128 17.5t-408 -188t-598 -255.5q-319 -85 -487.5 -83.5t-194.5 76.5h12q47 -51 240 -37.5t558 209.5t635.5 297t388.5 -17z" />
    <glyph glyph-name="uniA983" unicode="&#xa983;" horiz-adv-x="681" 
d="M757 872.5q33 -105.5 -42.5 -238t-434.5 -271.5q272 -113 380 -339.5t55 -498.5t-277 -522l-12 23q133 275 135 514.5t-83.5 472.5t-266.5 319l-2 38q216 111 270 206q-73 49 -94.5 123.5t-6 145.5t75.5 118t165 31t138 -121.5zM479.5 935q-45.5 -25 -60.5 -94t2 -131.5
t79 -113.5q100 159 105 239.5t-37.5 102.5t-88 -3z" />
    <glyph glyph-name="uniA984" unicode="&#xa984;" horiz-adv-x="2200" 
d="M1026 1161q-277 8 -453 -131t-248 -378t-2.5 -403.5t200 -207t225 -4t121.5 182t-32.5 234.5t-133.5 105l8 30q85 -5 147 27t85 143.5t-17.5 149.5t-97.5 24.5t-103 -78.5l-19 8q25 80 105 110.5t192 1.5t138 -129.5t-33.5 -188t-222.5 -98.5q146 -44 175 -196
t-52 -262.5t-273 -123.5q-296 -16 -415.5 171.5t-52.5 467.5t265.5 433t495.5 135zM1496 911l12 -12q-27 -51 -22.5 -100.5t97.5 -165.5t129 -236t-36 -242h-13q-24 0 -13 24q5 34 -8 56.5t-146.5 154t-126.5 275.5t127 246zM1482.5 -13q-86.5 22 -199.5 74t-196 -26l-11 25
q121 155 240 155h24q124 0 252 -120q40 -34 87 -27t115 193l221 625q35 106 143 109h172q111 -2 66 -150l-298 -845h-200l338 953h-95q-66 -1 -97 -108l-208 -593q-83 -235 -175 -261t-178.5 -4z" />
    <glyph glyph-name="uniA985" unicode="&#xa985;" horiz-adv-x="1400" 
d="M1439 957q-136 1 -249 -133q-20 134 -124 134q-105 0 -161.5 -90.5t-30.5 -183.5l-12 -11q-38 61 -13.5 156t104.5 137t159 22t98 -100q114 107 275 108q90 0 104 -65.5t-22 -163.5l-38 -110l-76 -219l-153 -438h-200zM711 37q-31 65 18 192h16q29 -111 221 -203l-7 -31
h-523q-111 2 -66 150l274 778q11 30 -15 30h-36q-134 2 -208 -207l-89 -241q-94 -271 -99 -356.5t46 -138.5l-15 -15q-80 29 -76.5 149t103.5 373l95 261q79 221 263 217h70q177 -2 89 -275l-241 -683h180zM852.5 -544.5q-15.5 62.5 -122.5 32t-170.5 -52t-129 -39.5t-96 14
t-5.5 119.5t178 214.5t309 165l8 -22q-138 -56 -246.5 -140t-161 -159t-48 -115t49.5 -33.5t138.5 41.5t204.5 62t190 -19.5t53 -171t-233 -258t-460 -215.5l-11 23q165 103 366.5 297t186 256.5z" />
    <glyph glyph-name="uniA986" unicode="&#xa986;" horiz-adv-x="1791" 
d="M701 37q-31 65 18 192h16q29 -111 221 -203l-7 -31h-523q-111 2 -66 150l274 778q11 30 -15 30h-36q-134 2 -208 -207l-89 -241q-94 -271 -99 -356.5t46 -138.5l-15 -15q-80 29 -76.5 149t103.5 373l95 261q79 221 263 217h70q177 -2 89 -275l-241 -683h180zM1307 53
q60 -7 86 69l272 764q35 106 143 109h117q111 -2 66 -150l-298 -845h-200l338 953h-40q-66 -1 -97 -108l-258 -732q-40 -113 -159 -113h-189l341 957q-116 1 -249 -133q-20 134 -124 134q-105 0 -161.5 -90.5t-30.5 -183.5l-12 -11q-38 61 -13.5 156t104.5 137t159 22
t98 -100q114 107 275 108q90 0 104 -65.5t-22 -163.5l-38 -110zM1052.5 -544.5q-15.5 62.5 -122.5 32t-170.5 -52t-129 -39.5t-96 14t-5.5 119.5t178 214.5t309 165l8 -22q-138 -56 -246.5 -140t-161 -159t-48 -115t49.5 -33.5t138.5 41.5t204.5 62t190 -19.5t53 -171
t-233 -258t-460 -215.5l-11 23q165 103 366.5 297t186 256.5z" />
    <glyph glyph-name="uniA987" unicode="&#xa987;" horiz-adv-x="1791" 
d="M701 37q-31 65 18 192h16q29 -111 221 -203l-7 -31h-523q-111 2 -66 150l274 778q11 30 -15 30h-36q-134 2 -208 -207l-89 -241q-94 -271 -99 -356.5t46 -138.5l-15 -15q-80 29 -76.5 149t103.5 373l95 261q79 221 263 217h70q177 -2 89 -275l-241 -683h180zM1307 53
q60 -7 86 69l272 764q35 106 143 109h117q111 -2 66 -150l-298 -845h-200l338 953h-40q-66 -1 -97 -108l-258 -732q-40 -113 -159 -113h-189l341 957q-116 1 -249 -133q-20 134 -124 134q-105 0 -161.5 -90.5t-30.5 -183.5l-12 -11q-38 61 -13.5 156t104.5 137t159 22
t98 -100q114 107 275 108q90 0 104 -65.5t-22 -163.5l-38 -110zM1052.5 -544.5q-15.5 62.5 -122.5 32t-170.5 -52t-129 -39.5t-96 14t-5.5 119.5t178 214.5t309 165l8 -22q-138 -56 -246.5 -140t-161 -159t-48 -115t49.5 -33.5t138.5 41.5t204.5 62t190 -19.5t53 -171
t-233 -258t-460 -215.5l-11 23q165 103 366.5 297t186 256.5z" />
    <glyph glyph-name="uniA988" unicode="&#xa988;" horiz-adv-x="1401" 
d="M1439 957q-136 1 -249 -133q-20 134 -124 134q-105 0 -161.5 -90.5t-30.5 -183.5l-12 -11q-38 61 -13.5 156t104.5 137t159 22t98 -100q114 107 275 108q90 0 104 -65.5t-22 -163.5l-38 -110l-76 -219l-153 -438h-200zM711 37q-31 65 18 192h16q29 -111 221 -203l-7 -31
h-523q-111 2 -66 150l274 778q11 30 -15 30h-36q-134 2 -208 -207l-89 -241q-94 -271 -99 -356.5t46 -138.5l-15 -15q-80 29 -76.5 149t103.5 373l95 261q79 221 263 217h70q177 -2 89 -275l-241 -683h180zM652.5 -474.5q-189.5 -120.5 -330 -263t-162.5 -215.5t27 -59.5
t192 90.5t315 158t344.5 98.5t314.5 -33.5l-8 -22q-154 14 -362.5 -15.5t-472.5 -169t-373 -167t-137.5 56.5t85.5 215.5t331 258t396 218.5t288 324h200q-51 -151 -254.5 -252.5t-393 -222z" />
    <glyph glyph-name="uniA989" unicode="&#xa989;" horiz-adv-x="1180" 
d="M511 37h172q66 1 107 108l262 741q35 106 143 109h117q111 -2 66 -150l-298 -845h-200l338 953h-40q-66 -1 -97 -108l-261 -741q-35 -106 -156 -109h-248q-111 2 -66 150l274 778q11 30 -15 30h-36q-134 2 -208 -207l-89 -241q-94 -271 -99 -356.5t46 -138.5l-15 -15
q-80 29 -76.5 149t103.5 373l95 261q79 221 263 217h70q177 -2 89 -275zM652.5 -544.5q-15.5 62.5 -122.5 32t-170.5 -52t-129 -39.5t-96 14t-5.5 119.5t178 214.5t309 165l8 -22q-138 -56 -246.5 -140t-161 -159t-48 -115t49.5 -33.5t138.5 41.5t204.5 62t190 -19.5
t53 -171t-233 -258t-460 -215.5l-11 23q165 103 366.5 297t186 256.5z" />
    <glyph glyph-name="uniA98A" unicode="&#xa98a;" horiz-adv-x="1400" 
d="M1439 957q-136 1 -249 -133q-20 134 -124 134q-105 0 -161.5 -90.5t-30.5 -183.5l-12 -11q-38 61 -13.5 156t104.5 137t159 22t98 -100q114 107 275 108q90 0 104 -65.5t-22 -163.5l-38 -110l-76 -219l-153 -438h-200zM711 37q-31 65 18 192h16q29 -111 221 -203l-7 -31
h-523q-111 2 -66 150l274 778q11 30 -15 30h-36q-134 2 -208 -207l-89 -241q-94 -271 -99 -356.5t46 -138.5l-15 -15q-80 29 -76.5 149t103.5 373l95 261q79 221 263 217h70q177 -2 89 -275l-241 -683h180zM535 -930q-176 -52 -326.5 25t-152.5 268.5t148 352.5t394 180.5
t511.5 -59.5t474.5 -82l-3 -24q-248 -11 -495.5 67t-467.5 57t-356.5 -146t-150.5 -311t106 -259.5t296 -33.5q263 78 587 895h200q-206 -558 -390.5 -719t-374.5 -211z" />
    <glyph glyph-name="uniA98B" unicode="&#xa98b;" horiz-adv-x="1400" 
d="M1439 957q-136 1 -249 -133q-20 134 -124 134q-105 0 -161.5 -90.5t-30.5 -183.5l-12 -11q-38 61 -13.5 156t104.5 137t159 22t98 -100q114 107 275 108q90 0 104 -65.5t-22 -163.5l-38 -110l-76 -219l-153 -438h-200zM711 37q-31 65 18 192h16q29 -111 221 -203l-7 -31
h-523q-111 2 -66 150l274 778q11 30 -15 30h-36q-134 2 -208 -207l-89 -241q-94 -271 -99 -356.5t46 -138.5l-15 -15q-80 29 -76.5 149t103.5 373l95 261q79 221 263 217h70q177 -2 89 -275l-241 -683h180zM535 -930q-176 -52 -326.5 20t-152.5 268.5t145.5 352.5t422 187
t468 -66.5t225 -345t-166 -421.5t-474.5 -206l-6 24q237 29 429.5 186t167 400t-208 327.5t-421.5 61t-375.5 -148.5t-150.5 -316t106 -259.5t296 -28.5q263 78 587 895h200q-206 -558 -390.5 -719t-374.5 -211z" />
    <glyph glyph-name="uniA98C" unicode="&#xa98c;" horiz-adv-x="1105" 
d="M544 670q-142 -206 -216 -444q-42 -200 11.5 -208t240.5 82.5t312 130t184 -13t-15 -225.5l-25 6q5 88 -125.5 118.5t-328 -54.5t-276.5 -87q-211 1 -179 215q68 295 258.5 511.5t363.5 264t221 -13.5t-0.5 -146t-187.5 -151l-7 22q87 66 128.5 131t8.5 115t-134.5 -12
t-233.5 -241z" />
    <glyph glyph-name="uniA98D" unicode="&#xa98d;" horiz-adv-x="1152" 
d="M544 670q-142 -206 -216 -444q-42 -200 11.5 -208t240.5 82.5t312 130t184 -13t-15 -225.5l-25 6q5 88 -125.5 118.5t-328 -54.5t-276.5 -87q-211 1 -179 215q68 295 258.5 511.5t363.5 264t221 -13.5t-0.5 -146t-187.5 -151l-7 22q87 66 128.5 131t8.5 115t-134.5 -12
t-233.5 -241zM1152.5 1755.5q-15.5 62.5 -122.5 32t-170.5 -52t-129 -39.5t-96 14t-5.5 119.5t178 214.5t309 165l8 -22q-138 -56 -246.5 -140t-161 -159t-48 -115t49.5 -33.5t138.5 41.5t204.5 62t190 -19.5t53 -171t-233 -258t-460 -215.5l-11 23q165 103 366.5 297
t186 256.5z" />
    <glyph glyph-name="uniA98D_uniA980" horiz-adv-x="1152" 
d="M544 670q-142 -206 -216 -444q-42 -200 11.5 -208t240.5 82.5t312 130t184 -13t-15 -225.5l-25 6q5 88 -125.5 118.5t-328 -54.5t-276.5 -87q-211 1 -179 215q68 295 258.5 511.5t363.5 264t221 -13.5t-0.5 -146t-187.5 -151l-7 22q87 66 128.5 131t8.5 115t-134.5 -12
t-233.5 -241zM752.5 1755.5q-15.5 62.5 -122.5 32t-170.5 -52t-129 -39.5t-96 14t-5.5 119.5t178 214.5t309 165l8 -22q-138 -56 -246.5 -140t-161 -159t-48 -115t49.5 -33.5t138.5 41.5t204.5 62t190 -19.5t53 -171t-233 -258t-460 -215.5l-11 23q165 103 366.5 297
t186 256.5zM898 1155q-44 17 -72.5 53t-41.5 92t-11 100l29 5q10 -55 53 -101q12 -13 29 -23q-15 38 -5 75q19 64 120 128v1h22v-1q88 -64 94 -128q4 -37 -20 -75q19 10 35 23q51 46 72 101l29 -5q-8 -44 -32 -100t-60 -92t-82 -53q-45 -15 -81.5 -15t-77.5 15zM920 1267
q30 -8 68 -8q37 0 68 8q51 93 -52 160q-115 -67 -84 -160z" />
    <glyph glyph-name="uniA98D_uniA981" horiz-adv-x="1152" 
d="M544 670q-142 -206 -216 -444q-42 -200 11.5 -208t240.5 82.5t312 130t184 -13t-15 -225.5l-25 6q5 88 -125.5 118.5t-328 -54.5t-276.5 -87q-211 1 -179 215q68 295 258.5 511.5t363.5 264t221 -13.5t-0.5 -146t-187.5 -151l-7 22q87 66 128.5 131t8.5 115t-134.5 -12
t-233.5 -241zM852.5 1755.5q-15.5 62.5 -122.5 32t-170.5 -52t-129 -39.5t-96 14t-5.5 119.5t178 214.5t309 165l8 -22q-138 -56 -246.5 -140t-161 -159t-48 -115t49.5 -33.5t138.5 41.5t204.5 62t190 -19.5t53 -171t-233 -258t-460 -215.5l-11 23q165 103 366.5 297
t186 256.5zM929 1138q-46 3 -72 29t-26 63t26 63t63 26t63 -26t26 -63q0 -19 -4 -29q82 26 169 118l23 -20q-104 -169 -268 -161z" />
    <glyph glyph-name="uniA98D_uniA982" horiz-adv-x="1152" 
d="M544 670q-142 -206 -216 -444q-42 -200 11.5 -208t240.5 82.5t312 130t184 -13t-15 -225.5l-25 6q5 88 -125.5 118.5t-328 -54.5t-276.5 -87q-211 1 -179 215q68 295 258.5 511.5t363.5 264t221 -13.5t-0.5 -146t-187.5 -151l-7 22q87 66 128.5 131t8.5 115t-134.5 -12
t-233.5 -241zM1252.5 1855.5q-15.5 62.5 -122.5 32t-170.5 -52t-129 -39.5t-96 14t-5.5 119.5t178 214.5t309 165l8 -22q-138 -56 -246.5 -140t-161 -159t-48 -115t49.5 -33.5t138.5 41.5t204.5 62t190 -19.5t53 -171t-233 -258t-460 -215.5l-11 23q165 103 366.5 297
t186 256.5zM2318 1633l-18 -19q-54 30 -128 17.5t-408 -188t-598 -255.5q-319 -85 -487.5 -83.5t-194.5 76.5h12q47 -51 240 -37.5t558 209.5t635.5 297t388.5 -17z" />
    <glyph glyph-name="uniA98E" unicode="&#xa98e;" horiz-adv-x="1400" 
d="M755 -5h-318q-111 2 -66 150l274 778q11 30 -15 30h-36q-134 2 -208 -207l-89 -241q-94 -271 -99 -356.5t46 -138.5l-15 -15q-80 29 -76.5 149t103.5 373l95 261q79 221 263 217h70q177 -2 89 -275l-241 -683h251q155 8 242.5 171.5t111.5 347.5t-25.5 272t-126.5 125
h-143l17 42h672q111 -2 66 -150l-298 -845h-200l338 953h-398q68 -29 114 -133.5t20 -290t-123.5 -355t-294.5 -179.5zM651.5 -474.5q-189.5 -120.5 -330 -263t-162.5 -215.5t27 -59.5t192 90.5t315 158t344.5 98.5t314.5 -33.5l-8 -22q-154 14 -362.5 -15.5t-472.5 -169
t-373 -167t-137.5 56.5t85.5 215.5t331 258t396 218.5t288 324h200q-51 -151 -254.5 -252.5t-393 -222z" />
    <glyph glyph-name="uniA98F" unicode="&#xa98f;" horiz-adv-x="1600" 
d="M775 340l-54 -150q-24 -89 2 -126t66.5 -23t48 85t-5 126t-57.5 88zM368 746l-89 -241q-94 -271 -99 -356.5t46 -138.5l-15 -15q-80 29 -76.5 149t103.5 373l95 261q79 221 263 217h70q177 -2 89 -275l-116 -327q42 10 105 -1l179 494q35 106 143 109h260q111 -2 66 -150
l-279 -792q60 -7 86 69l272 764q35 106 143 109h117q111 -2 66 -150l-298 -845h-200l338 953h-40q-66 -1 -97 -108l-258 -732q-40 -113 -159 -113h-189l64 179l21 61l86 240l167 473h-172q-66 -1 -108 -108l-166 -472q87 -55 96 -166.5t-23.5 -160t-93 -49t-88.5 52t9 173.5
l49 139q-61 11 -105 2h-1l-129 -364h-200l169 476l84 239l43 119l21 59l10 30q11 30 -15 30h-36q-134 2 -208 -207z" />
    <glyph glyph-name="uniA990" unicode="&#xa990;" horiz-adv-x="1600" 
d="M775 340l-54 -150q-24 -89 2 -126t66.5 -23t48 85t-5 126t-57.5 88zM368 746l-89 -241q-94 -271 -99 -356.5t46 -138.5l-15 -15q-80 29 -76.5 149t103.5 373l95 261q79 221 263 217h70q177 -2 89 -275l-116 -327q42 10 105 -1l179 494q35 106 143 109h260q111 -2 66 -150
l-279 -792q60 -7 86 69l272 764q35 106 143 109h117q111 -2 66 -150l-298 -845h-200l338 953h-40q-66 -1 -97 -108l-258 -732q-40 -113 -159 -113h-189l64 179l21 61l86 240l167 473h-172q-66 -1 -108 -108l-166 -472q87 -55 96 -166.5t-23.5 -160t-93 -49t-88.5 52t9 173.5
l49 139q-61 11 -105 2h-1l-129 -364h-200l169 476l84 239l43 119l21 59l10 30q11 30 -15 30h-36q-134 2 -208 -207zM852.5 -544.5q-15.5 62.5 -122.5 32t-170.5 -52t-129 -39.5t-96 14t-5.5 119.5t178 214.5t309 165l8 -22q-138 -56 -246.5 -140t-161 -159t-48 -115
t49.5 -33.5t138.5 41.5t204.5 62t190 -19.5t53 -171t-233 -258t-460 -215.5l-11 23q165 103 366.5 297t186 256.5z" />
    <glyph glyph-name="uniA991" unicode="&#xa991;" horiz-adv-x="1599" 
d="M773 340l-54 -150q-24 -89 2 -126t66.5 -23t48 85t-5 126t-57.5 88zM1251 449l-140 -396q140 -7 406.5 516t474.5 426l-2 -26q-181 83 -445.5 -443t-463.5 -526h-189l64 179l21 61l86 240l167 473h-172q-66 -1 -108 -108l-166 -472q87 -55 96 -166.5t-23.5 -160t-93 -49
t-88.5 52t9 173.5l49 139q-61 11 -105 2h-1l-129 -364h-200l169 476l84 239l43 119l21 59l10 30q11 30 -15 30h-36q-134 2 -208 -207l-89 -241q-94 -271 -99 -356.5t46 -138.5l-15 -15q-80 29 -76.5 149t103.5 373l95 261q79 221 263 217h70q177 -2 89 -275l-116 -327
q42 10 105 -1l179 494q35 106 143 109h260q111 -2 66 -150z" />
    <glyph glyph-name="uniA991.alt" horiz-adv-x="1599" 
d="M773 340l-54 -150q-24 -89 2 -126t66.5 -23t48 85t-5 126t-57.5 88zM1251 449l-140 -396q140 -7 406.5 516t474.5 426l-2 -26q-181 83 -445.5 -443t-463.5 -526h-189l64 179l21 61l86 240l167 473h-172q-66 -1 -108 -108l-166 -472q87 -55 96 -166.5t-23.5 -160t-93 -49
t-88.5 52t9 173.5l49 139q-61 11 -105 2h-1l-129 -364h-200l169 476l84 239l43 119l21 59l10 30q11 30 -15 30h-36q-134 2 -208 -207l-89 -241q-94 -271 -99 -356.5t46 -138.5l-15 -15q-80 29 -76.5 149t103.5 373l95 261q79 221 263 217h70q177 -2 89 -275l-116 -327
q42 10 105 -1l179 494q35 106 143 109h260q111 -2 66 -150z" />
    <glyph glyph-name="uniA992" unicode="&#xa992;" horiz-adv-x="1669" 
d="M1170 953h-173q-66 -1 -97 -108l-259 -732q-39 -113 -158 -113h-189l183 518l43 119l21 59l10 30q11 30 -15 30h-36q-134 2 -208 -207l-19 -44q-94 -271 -99 -356.5t46 -138.5l-15 -15q-80 29 -76.5 149t103.5 373l25 64q79 221 263 217h70q177 -2 89 -275l-166 -470
q60 -7 85 69l273 764q35 106 143 109h250q111 -2 66 -150l-279 -792q60 -7 85 69l273 764q35 106 143 109h250q111 -2 66 -150l-298 -845h-200l338 953h-173q-66 -1 -97 -108l-259 -732q-39 -113 -158 -113h-189z" />
    <glyph glyph-name="uniA993" unicode="&#xa993;" horiz-adv-x="2050" 
d="M1078 953q-134 2 -208 -206l-122 -333q-52 -132 -53 -231t110 -166l-5 -17h-493l169 476l84 239l43 119l21 59l10 30q11 30 -15 30h-36q-134 2 -208 -206l-89 -242q-94 -271 -99 -356.5t46 -138.5l-15 -15q-80 29 -76.5 149t103.5 373l95 261q79 221 263 217h70
q177 -2 89 -275l-241 -682h203q-73 48 -70 148.5t53 239.5l128 352q79 221 263 217h141q177 -2 89 -275l-243 -686q137 -1 249 133q20 -133 122 -134q133 12 221 176q87 163 111 347t-25.5 272t-126.5 125h-143l17 42h672q111 -2 66 -150l-298 -845h-200l338 953h-398
q68 -29 114 -133.5t20 -290t-123 -354.5q-96 -167 -249 -175q-16 -1 -40 3q-79 20 -98 100q-114 -107 -275 -108q-90 0 -104 65.5t22 164.5l243 698q11 30 -15 30h-107z" />
    <glyph glyph-name="uniA994" unicode="&#xa994;" horiz-adv-x="1401" 
d="M1439 957q-136 1 -249 -133q-20 134 -124 134q-105 0 -161.5 -90.5t-30.5 -183.5l-12 -11q-38 61 -13.5 156t104.5 137t159 22t98 -100q114 107 275 108q90 0 104 -65.5t-22 -163.5l-38 -110l-76 -219l-153 -438h-200zM711 37q-31 65 18 192h16q29 -111 221 -203l-7 -31
h-523q-111 2 -66 150l274 778q11 30 -15 30h-36q-134 2 -208 -207l-89 -241q-94 -271 -99 -356.5t46 -138.5l-15 -15q-80 29 -76.5 149t103.5 373l95 261q79 221 263 217h70q177 -2 89 -275l-241 -683h180z" />
    <glyph glyph-name="uniA995" unicode="&#xa995;" horiz-adv-x="1530" 
d="M443 132l33 99q-51 -15 -77.5 -40t-36.5 -60.5t-2.5 -65.5t27.5 -28t44 62zM663 200q-37 -96 -89.5 -150t-127 -60t-105.5 30.5t-22 99t63.5 103.5t108.5 45l201 566l21 59l10 30q11 30 -15 30h-136q-134 2 -208 -206l-89 -242q-94 -271 -99 -356.5t46 -138.5l-15 -15
q-80 29 -76.5 149t103.5 373l95 261q79 221 263 217h170q177 -2 89 -275l-168 -480q76 -131 148 -178.5t164 -12t170 179t102 327.5t-25.5 272t-126.5 125h-143l17 42h672q111 -2 66 -150l-298 -845h-200l338 953h-398q68 -29 114 -133.5t20 -290t-123.5 -355t-244.5 -175.5
q-92 -6 -167 65t-105 136z" />
    <glyph glyph-name="uniA996" unicode="&#xa996;" horiz-adv-x="2117" 
d="M517 53q99 -2 168 186l230 647q35 106 143 109h150q111 -2 66 -150l-279 -792q60 -7 86 69l272 764q35 106 143 109h150q111 -2 66 -150l-279 -792q60 -7 86 69l253 708q40 106 124.5 140t196.5 5t138 -129.5t-33.5 -188t-222.5 -98.5q146 -44 175 -196t-52 -262.5
t-269 -105.5v29q103 52 130 195.5t-32.5 234.5t-133.5 105l8 30q85 -5 147 27t85 143.5t-17.5 149.5t-103.5 20t-104 -122l-246 -694q-40 -113 -159 -113h-189l338 953h-73q-66 -1 -97 -108l-258 -732q-40 -113 -159 -113h-189l338 953h-73q-66 -1 -97 -108l-216 -615
q-82 -230 -231 -230h-19q-254 -1 -254 253.5t190.5 471t521.5 312.5l9 -23q-240 -142 -377 -334.5t-165.5 -406t114.5 -220.5z" />
    <glyph glyph-name="uniA996.alt" horiz-adv-x="2117" 
d="M517 53q99 -2 168 186l230 647q35 106 143 109h150q111 -2 66 -150l-279 -792q60 -7 86 69l272 764q35 106 143 109h150q111 -2 66 -150l-279 -792q60 -7 86 69l253 708q40 106 124.5 140t196.5 5t138 -129.5t-33.5 -188t-222.5 -98.5q146 -44 175 -196t-52 -262.5
t-269 -105.5v29q103 52 130 195.5t-32.5 234.5t-133.5 105l8 30q85 -5 147 27t85 143.5t-17.5 149.5t-103.5 20t-104 -122l-246 -694q-40 -113 -159 -113h-189l338 953h-73q-66 -1 -97 -108l-258 -732q-40 -113 -159 -113h-189l338 953h-73q-66 -1 -97 -108l-216 -615
q-82 -230 -231 -230h-19q-254 -1 -254 253.5t190.5 471t521.5 312.5l9 -23q-240 -142 -377 -334.5t-165.5 -406t114.5 -220.5z" />
    <glyph glyph-name="uniA997" unicode="&#xa997;" horiz-adv-x="1350" 
d="M871 513l-10 53q181 162 548 387h-91q-334 2 -454 -330l-76 -209q-52 -132 -53 -231t110 -166l-5 -17h-493l169 476l84 239l43 119l21 59l10 30q11 30 -15 30h-36q-134 2 -208 -206l-89 -242q-94 -271 -99 -356.5t46 -138.5l-15 -15q-80 29 -76.5 149t103.5 373l95 261
q79 221 263 217h70q177 -2 89 -275l-241 -682h203q-73 48 -70 148.5t53 239.5l82 228q125 345 509 341h326l18 -42q-491 -309 -661 -436q322 -47 358 -244.5t-214 -487.5l-25 15q110 268 35.5 470t-304.5 243z" />
    <glyph glyph-name="uniA997.alt" horiz-adv-x="1437" 
d="M871 513l-10 53q181 162 548 387h-91q-334 2 -454 -330l-76 -209q-52 -132 -53 -231t110 -166l-5 -17h-493l169 476l84 239l43 119l21 59l10 30q11 30 -15 30h-36q-134 2 -208 -206l-89 -242q-94 -271 -99 -356.5t46 -138.5l-15 -15q-80 29 -76.5 149t103.5 373l95 261
q79 221 263 217h70q177 -2 89 -275l-241 -682h203q-73 48 -70 148.5t53 239.5l82 228q125 345 509 341h326l18 -42q-491 -309 -661 -436q239 -50 313 -178.5t6 -338.5h-200q83 252 52 362t-321 151z" />
    <glyph glyph-name="uniA998" unicode="&#xa998;" horiz-adv-x="1350" 
d="M871 513l-10 53q181 162 548 387h-91q-334 2 -454 -330l-76 -209q-52 -132 -53 -231t110 -166l-5 -17h-493l169 476l84 239l43 119l21 59l10 30q11 30 -15 30h-36q-134 2 -208 -206l-89 -242q-94 -271 -99 -356.5t46 -138.5l-15 -15q-80 29 -76.5 149t103.5 373l95 261
q79 221 263 217h70q177 -2 89 -275l-241 -682h203q-73 48 -70 148.5t53 239.5l82 228q125 345 509 341h326l18 -42q-491 -309 -661 -436q322 -47 358 -244.5t-214 -487.5l-25 15q110 268 35.5 470t-304.5 243zM652.5 -544.5q-15.5 62.5 -122.5 32t-170.5 -52t-129 -39.5
t-96 14t-5.5 119.5t178 214.5t309 165l8 -22q-138 -56 -246.5 -140t-161 -159t-48 -115t49.5 -33.5t138.5 41.5t204.5 62t190 -19.5t53 -171t-233 -258t-460 -215.5l-11 23q165 103 366.5 297t186 256.5z" />
    <glyph glyph-name="uniA998.alt" horiz-adv-x="1439" 
d="M871 513l-10 53q181 162 548 387h-91q-334 2 -454 -330l-76 -209q-52 -132 -53 -231t110 -166l-5 -17h-493l169 476l84 239l43 119l21 59l10 30q11 30 -15 30h-36q-134 2 -208 -206l-89 -242q-94 -271 -99 -356.5t46 -138.5l-15 -15q-80 29 -76.5 149t103.5 373l95 261
q79 221 263 217h70q177 -2 89 -275l-241 -682h203q-73 48 -70 148.5t53 239.5l82 228q125 345 509 341h326l18 -42q-491 -309 -661 -436q239 -50 313 -178.5t6 -338.5h-200q83 252 52 362t-321 151zM652.5 -544.5q-15.5 62.5 -122.5 32t-170.5 -52t-129 -39.5t-96 14
t-5.5 119.5t178 214.5t309 165l8 -22q-138 -56 -246.5 -140t-161 -159t-48 -115t49.5 -33.5t138.5 41.5t204.5 62t190 -19.5t53 -171t-233 -258t-460 -215.5l-11 23q165 103 366.5 297t186 256.5z" />
    <glyph glyph-name="uniA999" unicode="&#xa999;" horiz-adv-x="1917" 
d="M1469 957q-136 1 -249 -133q-20 134 -124 134q-105 0 -161.5 -90.5t-30.5 -183.5l-12 -11q-38 61 -13.5 156t104.5 137t159 22t98 -100q114 107 275 108q90 0 104 -65.5t-22 -163.5l-38 -110l-76 -219l-153 -438h-200zM741 37q-31 65 18 192h16q29 -111 221 -203l-7 -31
h-523q-111 2 -66 150l274 778q11 30 -15 30h-36q-134 2 -208 -207l-89 -241q-94 -271 -99 -356.5t46 -138.5l-15 -15q-80 29 -76.5 149t103.5 373l95 261q79 221 263 217h70q177 -2 89 -275l-241 -683h180zM1075 -124q25 44 55 124h200q-79 -232 -213 -178t-217 54
q-132 0 -268.5 -156t-162.5 -394q-2 -200 53 -208t206.5 92.5t246 134.5t164 -7.5t72.5 -123.5l591 1672l29 -41l-630 -1784l-38 17l16 45q16 116 -44.5 167t-169 4t-239 -132t-209.5 -87q-211 1 -222 215q9 295 173 453t348 171q146 8 259 -38zM1804 881q-30 38 -64 76
q-115 121 -136 223.5t17.5 141t102.5 12t104 -145t18 -290.5q76 -84 149 -178q106 -138 66 -305t-266 -280l-25 15q97 106 132.5 254.5t8.5 256t-74 175.5zM1645.5 1301q-23.5 -31 -2 -120.5t133.5 -206.5q17 -18 35 -37q16 160 -22.5 253.5t-79.5 117.5t-64.5 -7z" />
    <glyph glyph-name="uniA999.full" horiz-adv-x="1939" 
d="M1645.5 1301q-23.5 -31 -2 -120.5t133.5 -206.5q17 -18 35 -37q16 160 -22.5 253.5t-79.5 117.5t-64.5 -7zM1837 836l-33 45q-30 38 -64 76q-115 121 -136 223.5t17.5 141t102.5 12t104 -145t18 -290.5q90 -96 143 -214t-19 -334l-130 -351h-202l132 351q72 218 93 318
t-26 168zM1469 957q-136 1 -249 -133q-20 134 -124 134q-105 0 -161.5 -90.5t-30.5 -183.5l-12 -11q-38 61 -13.5 156t104.5 137t159 22t98 -100q114 107 275 108q90 0 104 -65.5t-22 -163.5l-38 -110l-76 -219l-153 -438h-200zM741 37q-31 65 18 192h16q29 -111 221 -203
l-7 -31h-523q-111 2 -66 150l274 778q11 30 -15 30h-36q-134 2 -208 -207l-89 -241q-94 -271 -99 -356.5t46 -138.5l-15 -15q-80 29 -76.5 149t103.5 373l95 261q79 221 263 217h70q177 -2 89 -275l-241 -683h180zM1075 -124q25 44 55 124h200q-79 -232 -213 -178t-217 54
q-132 0 -268.5 -156t-162.5 -394q-2 -200 53 -208t206.5 92.5t246 134.5t164 -7.5t72.5 -123.5l591 1672l29 -41l-630 -1784l-38 17l16 45q16 116 -44.5 167t-169 4t-239 -132t-209.5 -87q-211 1 -222 215q9 295 173 453t348 171q146 8 259 -38z" />
    <glyph glyph-name="uniA999.full_long" horiz-adv-x="1900" 
d="M1645.5 1301q-23.5 -31 -2 -120.5t133.5 -206.5q17 -18 35 -37q16 160 -22.5 253.5t-79.5 117.5t-64.5 -7zM1837 836l-33 45q-30 38 -64 76q-115 121 -136 223.5t17.5 141t102.5 12t104 -145t18 -290.5q90 -96 143 -214t-19 -334l-576 -1551h-202l578 1551q72 218 93 318
t-26 168zM1469 957q-136 1 -249 -133q-20 134 -124 134q-105 0 -161.5 -90.5t-30.5 -183.5l-12 -11q-38 61 -13.5 156t104.5 137t159 22t98 -100q114 107 275 108q90 0 104 -65.5t-22 -163.5l-38 -110l-76 -219l-153 -438h-200zM741 37q-31 65 18 192h16q29 -111 221 -203
l-7 -31h-523q-111 2 -66 150l274 778q11 30 -15 30h-36q-134 2 -208 -207l-89 -241q-94 -271 -99 -356.5t46 -138.5l-15 -15q-80 29 -76.5 149t103.5 373l95 261q79 221 263 217h70q177 -2 89 -275l-241 -683h180zM1075 -124q25 44 55 124h200q-79 -232 -213 -178t-217 54
q-132 0 -268.5 -156t-162.5 -394q-2 -200 53 -208t206.5 92.5t246 134.5t164 -7.5t72.5 -123.5l591 1672l29 -41l-630 -1784l-38 17l16 45q16 116 -44.5 167t-169 4t-239 -132t-209.5 -87q-211 1 -222 215q9 295 173 453t348 171q146 8 259 -38z" />
    <glyph glyph-name="uniA99A" unicode="&#xa99a;" horiz-adv-x="2183" 
d="M696 37q-31 65 18 192h16q29 -111 221 -203l-7 -31h-523q-111 2 -66 150l274 778q11 30 -15 30h-36q-134 2 -208 -207l-89 -241q-94 -271 -99 -356.5t46 -138.5l-15 -15q-80 29 -76.5 149t103.5 373l95 261q79 221 263 217h70q177 -2 89 -275l-241 -683h180zM1697 53
q60 -7 86 69l272 764q35 106 143 109h117q111 -2 66 -150l-298 -845h-200l338 953h-40q-66 -1 -97 -108l-258 -732q-40 -113 -159 -113h-189l338 953h-40q-66 -1 -97 -108l-258 -732q-40 -113 -159 -113h-189l341 957q-116 1 -249 -133q-20 134 -124 134
q-105 0 -161.5 -90.5t-30.5 -183.5l-12 -11q-38 61 -13.5 156t104.5 137t159 22t98 -100q114 107 275 108q90 0 104 -65.5t-22 -163.5l-38 -110l-212 -604q60 -7 86 69l272 764q35 106 143 109h117q111 -2 66 -150z" />
    <glyph glyph-name="uniA99B" unicode="&#xa99b;" horiz-adv-x="1449" 
d="M1488 957q-136 1 -249 -133q-20 134 -124 134q-105 0 -161.5 -90.5t-30.5 -183.5l-12 -11q-38 61 -13.5 156t104.5 137t159 22t98 -100q114 107 275 108q90 0 104 -65.5t-22 -163.5l-38 -110l-76 -219l-153 -438h-200zM485 -5q-111 2 -66 150l274 778q11 30 -15 30h-36
q-134 2 -208 -207l-89 -241q-94 -271 -99 -356.5t46 -138.5l-15 -15q-80 29 -76.5 149t103.5 373l95 261q79 221 263 217h70q177 -2 89 -275l-241 -683h78q122 10 163 35l68 54q42 41 65.5 29t2.5 -55t-126 -86q-190 -197 -197.5 -370t138 -178t244.5 87l29 -20
q-146 -210 -333 -206q-103 0 -165 80.5t-22.5 226t250.5 378.5q-50 -13 -147 -17h-143z" />
    <glyph glyph-name="_1" horiz-adv-x="1449" 
d="M1488 957q-136 1 -249 -133q-20 134 -124 134q-105 0 -161.5 -90.5t-30.5 -183.5l-12 -11q-38 61 -13.5 156t104.5 137t159 22t98 -100q114 107 275 108q90 0 104 -65.5t-22 -163.5l-38 -110l-76 -219l-153 -438h-200zM485 -5q-111 2 -66 150l274 778q11 30 -15 30h-36
q-134 2 -208 -207l-89 -241q-94 -271 -99 -356.5t46 -138.5l-15 -15q-80 29 -76.5 149t103.5 373l95 261q79 221 263 217h70q177 -2 89 -275l-241 -683h78q122 10 163 35l68 54q42 41 65.5 29t2.5 -55t-126 -86q-141 -158 -144.5 -242t113.5 -55t216 136l12 -12
q-147 -170 -277 -173t-124 95t148 249q-50 -13 -147 -17h-143z" />
    <glyph glyph-name="uniA99C" unicode="&#xa99c;" horiz-adv-x="1449" 
d="M1488 957q-136 1 -249 -133q-20 134 -124 134q-105 0 -161.5 -90.5t-30.5 -183.5l-12 -11q-38 61 -13.5 156t104.5 137t159 22t98 -100q114 107 275 108q90 0 104 -65.5t-22 -163.5l-38 -110l-76 -219l-153 -438h-200zM485 -5q-111 2 -66 150l274 778q11 30 -15 30h-36
q-134 2 -208 -207l-89 -241q-94 -271 -99 -356.5t46 -138.5l-15 -15q-80 29 -76.5 149t103.5 373l95 261q79 221 263 217h70q177 -2 89 -275l-241 -683h199q111 2 133.5 47.5t1 74.5t-78 14.5t-70.5 -83.5l-20 2q9 106 88.5 123.5t120 -35t2.5 -118t-165 -67.5h-306z" />
    <glyph glyph-name="uniA99D" unicode="&#xa99d;" horiz-adv-x="1469" 
d="M901 3q-79 20 -98 100q-114 -107 -275 -108q-90 0 -104 65.5t22 164.5l244 699q11 30 -15 30h-36q-134 2 -208 -207l-89 -241q-94 -271 -99 -356.5t46 -138.5l-15 -15q-80 29 -76.5 149t103.5 373l95 261q79 221 263 217h70q177 -2 89 -275l-244 -687q137 -1 249 133
q20 -134 124 -134h23q68 5 109 112l262 741q35 106 143 109h117q111 -2 66 -150l-298 -845h-200l338 953h-40q-66 -1 -97 -108l-261 -741q-24 -61 -75 -87.5t-133 -13.5z" />
    <glyph glyph-name="uniA99E" unicode="&#xa99e;" horiz-adv-x="1179" 
d="M886 33q133 12 221 176q87 163 111 322t-20.5 282t-155.5 171l13 18q143 -58 184 -197.5t15 -300t-123 -329.5q-96 -167 -249 -175q-16 -1 -40 3q-79 20 -98 100q-114 -107 -275 -108q-90 0 -104 65.5t22 164.5l244 699q11 30 -15 30h-36q-134 2 -208 -207l-89 -241
q-94 -271 -99 -356.5t46 -138.5l-15 -15q-80 29 -76.5 149t103.5 373l95 261q79 221 263 217h70q177 -2 89 -275l-244 -687q137 -1 249 133q20 -133 122 -134z" />
    <glyph glyph-name="uniA99E.alt" horiz-adv-x="1189" 
d="M1235 417l-6 -19q-12 -39 -28 -79l-112 -319h-200l1 1q-4 -1 -8 -1q-16 -1 -40 3q-79 20 -98 100q-114 -107 -275 -108q-90 0 -104 65.5t22 164.5l244 699q11 30 -15 30h-36q-134 2 -208 -207l-89 -241q-94 -271 -99 -356.5t46 -138.5l-15 -15q-80 29 -76.5 149
t103.5 373l95 261q79 221 263 217h70q177 -2 89 -275l-244 -687q137 -1 249 133q20 -133 122 -134q133 12 221 176q87 163 111 322t-20.5 282t-155.5 171l13 18q143 -58 184 -197.5t15 -299.5q-7 -44 -19 -88z" />
    <glyph glyph-name="uniA99F" unicode="&#xa99f;" horiz-adv-x="2212" 
d="M1712 953h-173q-66 -1 -97 -108l-258 -732q-40 -113 -159 -113h-189l338 953h-173q-66 -1 -97 -108l-258 -732q-40 -113 -159 -113h-189l183 518l43 119l21 59l10 30q11 30 -15 30h-36q-134 2 -208 -207l-19 -44q-94 -271 -99 -356.5t46 -138.5l-15 -15q-80 29 -76.5 149
t103.5 373l25 64q79 221 263 217h70q177 -2 89 -275l-166 -470q60 -7 86 69l272 764q35 106 143 109h250q111 -2 66 -150l-279 -792q60 -7 86 69l272 764q35 106 143 109h250q111 -2 66 -150l-279 -792q60 -7 86 69l272 764q35 106 143 109h250q111 -2 66 -150l-298 -845
h-200l338 953h-173q-66 -1 -97 -108l-258 -732q-40 -113 -159 -113h-189z" />
    <glyph glyph-name="uniA9A0" unicode="&#xa9a0;" horiz-adv-x="1877" 
d="M1197 995h407q111 -2 66 -150l-279 -792q60 -7 86 70l272 763q35 106 143 109h117q111 -2 66 -150l-298 -845h-200l338 953h-40q-66 -1 -97 -108l-258 -731q-40 -114 -159 -114h-189l64 179l21 61l86 240l167 473h-312q-117 -1 -205 -63.5t-109.5 -183t67.5 -196.5
l126 -104q114 -92 80.5 -250t-213.5 -161h-528q-111 2 -66 150l274 778q11 30 -15 30h-36q-134 2 -208 -207l-89 -241q-94 -271 -99 -356.5t46 -138.5l-15 -15q-80 29 -76.5 149t103.5 373l95 261q79 221 263 217h70q177 -2 89 -275l-241 -683h452q89 6 122.5 64.5t32 138.5
t-73.5 141l-110 94q-114 79 -95 223t127 220.5t231 76.5z" />
    <glyph glyph-name="uniA9A1" unicode="&#xa9a1;" horiz-adv-x="1380" 
d="M736 -5h-318q-111 2 -66 150l274 778q11 30 -15 30h-36q-134 2 -208 -207l-89 -241q-94 -271 -99 -356.5t46 -138.5l-15 -15q-80 29 -76.5 149t103.5 373l95 261q79 221 263 217h70q177 -2 89 -275l-241 -683h251q155 8 242.5 171.5t111.5 347.5t-25.5 272t-126.5 125
h-143l17 42h672q111 -2 66 -150l-298 -845h-200l338 953h-398q68 -29 114 -133.5t20 -290t-123.5 -355t-294.5 -179.5zM784 180q37 77 -14.5 91.5t-93.5 -48.5l-8 7q26 69 83.5 72t82 -32t-11.5 -105t-98 -169.5t-59.5 -164.5t62 -69.5t105.5 16.5l4 -19
q-61 -40 -133.5 -24.5t-79 88t58.5 176.5t102 181z" />
    <glyph glyph-name="uniA9A2" unicode="&#xa9a2;" horiz-adv-x="1480" 
d="M1053 340l-54 -150q-24 -89 2 -126t66.5 -23t48 85t-5 126t-57.5 88zM663.5 180q106.5 117 185.5 172t176 40l179 494q35 106 143 109h265q111 -2 66 -150l-298 -845h-200l338 953h-177q-66 -1 -108 -108l-166 -472q87 -55 96 -166.5t-23.5 -160t-93 -49t-88.5 52
t9 173.5l49 139q-62 16 -142 -36.5t-200.5 -193t-237.5 -137.5q-121 2 -76 150l137 389q137 385 302 419h-216q-134 2 -208 -207l-89 -241q-94 -271 -99 -356.5t46 -138.5l-15 -15q-80 29 -76.5 149t103.5 373l95 261q79 221 263 217h370l3 -30q-136 -47 -272 -412
l-176 -503q29 13 135.5 130z" />
    <glyph glyph-name="uniA9A3" unicode="&#xa9a3;" horiz-adv-x="1479" 
d="M886 33q133 12 221 176q87 163 111 347t-25.5 272t-126.5 125h-143l17 42h672q111 -2 66 -150l-298 -845h-200l338 953h-398q68 -29 114 -133.5t20 -290t-123 -354.5q-96 -167 -249 -175q-16 -1 -40 3q-79 20 -98 100q-114 -107 -275 -108q-90 0 -104 65.5t22 164.5
l244 699q11 30 -15 30h-36q-134 2 -208 -207l-89 -241q-94 -271 -99 -356.5t46 -138.5l-15 -15q-80 29 -76.5 149t103.5 373l95 261q79 221 263 217h70q177 -2 89 -275l-244 -687q137 -1 249 133q20 -133 122 -134z" />
    <glyph glyph-name="uniA9A4" unicode="&#xa9a4;" horiz-adv-x="1200" 
d="M773 340l-54 -150q-24 -89 2 -126t66.5 -23t48 85t-5 126t-57.5 88zM369 746l-89 -241q-94 -271 -99 -356.5t46 -138.5l-15 -15q-80 29 -76.5 149t103.5 373l95 261q79 221 263 217h70q177 -2 89 -275l-116 -327q42 10 105 -1l179 494q35 106 143 109h148h117
q111 -2 66 -150l-298 -845h-200l338 953h-40h-137q-66 -1 -108 -108l-166 -472q87 -55 96 -166.5t-23.5 -160t-93 -49t-88.5 52t9 173.5l49 139q-61 11 -105 2h-1l-129 -364h-200l169 476l84 239l43 119l21 59l10 30q11 30 -15 30h-36q-134 2 -208 -207z" />
    <glyph glyph-name="uniA9A5" unicode="&#xa9a5;" horiz-adv-x="1180" 
d="M511 37h172q66 1 107 108l262 741q35 106 143 109h117q111 -2 66 -150l-298 -845h-200l338 953h-40q-66 -1 -97 -108l-261 -741q-35 -106 -156 -109h-248q-111 2 -66 150l274 778q11 30 -15 30h-36q-134 2 -208 -207l-89 -241q-94 -271 -99 -356.5t46 -138.5l-15 -15
q-80 29 -76.5 149t103.5 373l95 261q79 221 263 217h70q177 -2 89 -275z" />
    <glyph glyph-name="uniA9A6" unicode="&#xa9a6;" horiz-adv-x="1501" 
d="M1214 531q-30 38 -64 76q-115 121 -136 223.5t17.5 141t102.5 12t104 -145t18 -290.5q76 -84 149 -178q106 -138 66 -305t-266 -280l-25 15q97 106 132.5 254.5t8.5 256t-74 175.5q-30 -162 -116 -311q-96 -167 -249 -175q-16 -1 -40 3q-79 20 -98 100
q-114 -107 -275 -108q-90 0 -104 65.5t22 164.5l244 699q11 30 -15 30h-36q-134 2 -208 -207l-89 -241q-94 -271 -99 -356.5t46 -138.5l-15 -15q-80 29 -76.5 149t103.5 373l95 261q79 221 263 217h70q177 -2 89 -275l-244 -687q137 -1 249 133q20 -133 122 -134
q133 12 221 176q81 152 107 322zM1055.5 951q-23.5 -31 -2 -120.5t133.5 -206.5q17 -18 35 -37q16 160 -22.5 253.5t-79.5 117.5t-64.5 -7z" />
    <glyph glyph-name="uniA9A6.alt" horiz-adv-x="1480" 
d="M1055.5 951q-23.5 -31 -2 -120.5t133.5 -206.5q17 -18 35 -37q16 160 -22.5 253.5t-79.5 117.5t-64.5 -7zM1247 486q-30 -162 -116 -311q-96 -167 -249 -175q-16 -1 -40 3q-79 20 -98 100q-114 -107 -275 -108q-90 0 -104 65.5t22 164.5l244 699q11 30 -15 30h-36
q-134 2 -208 -207l-89 -241q-94 -271 -99 -356.5t46 -138.5l-15 -15q-80 29 -76.5 149t103.5 373l95 261q79 221 263 217h70q177 -2 89 -275l-244 -687q137 -1 249 133q20 -133 122 -134q133 12 221 176q81 152 107 322q-30 38 -64 76q-115 121 -136 223.5t17.5 141
t102.5 12t104 -145t18 -290.5q90 -96 143 -214t-19 -334h-200q72 218 93 318t-26 168z" />
    <glyph glyph-name="uniA9A7" unicode="&#xa9a7;" horiz-adv-x="1793" 
d="M701 37q-31 65 18 192h16q29 -111 221 -203l-7 -31h-523q-111 2 -66 150l274 778q11 30 -15 30h-36q-134 2 -208 -207l-89 -241q-94 -271 -99 -356.5t46 -138.5l-15 -15q-80 29 -76.5 149t103.5 373l95 261q79 221 263 217h70q177 -2 89 -275l-241 -683h180zM1307 53
q60 -7 86 69l272 764q35 106 143 109h117q111 -2 66 -150l-298 -845h-200l338 953h-40q-66 -1 -97 -108l-258 -732q-40 -113 -159 -113h-189l341 957q-116 1 -249 -133q-20 134 -124 134q-105 0 -161.5 -90.5t-30.5 -183.5l-12 -11q-38 61 -13.5 156t104.5 137t159 22
t98 -100q114 107 275 108q90 0 104 -65.5t-22 -163.5l-38 -110z" />
    <glyph glyph-name="uniA9A8" unicode="&#xa9a8;" horiz-adv-x="1401" 
d="M710 449q-357 6 -420.5 45.5t-57 103t59.5 110.5l9 -10q-18 -52 -12 -98t58 -76.5t455 -40.5q318 -9 417 -58t120 -152q36 -198 -214 -488l-25 15q110 268 36 470q-39 105 -123 140t-303 39zM1072 886q35 106 143 109h427l-3 -32q-173 -125 -314 -233l-18 10l81 213h-190
q-66 -1 -97 -108l-237 -664q-68 -189 -212 -185h-40l-310 222l6 35q242 20 305 189l61 171l120 341h-229q30 -65 -19 -192h-16q-29 111 -221 203l7 31h573q111 -2 66 -150l-68 -194l-69 -195q-82 -244 -410 -262l218 -157h46q94 -2 157 175z" />
    <glyph glyph-name="uniA9A8.alt" horiz-adv-x="1401" 
d="M1072 886q35 106 143 109h427l-3 -32q-173 -125 -314 -233l-18 10l81 213h-190q-66 -1 -97 -108l-237 -664q-68 -189 -212 -185h-40l-310 222l6 35q242 20 305 189l61 171l120 341h-229q30 -65 -19 -192h-16q-29 111 -221 203l7 31h573q111 -2 66 -150l-68 -194l-69 -195
q-82 -244 -410 -262l218 -157h46q94 -2 157 175zM1292 342q76 -132 8 -342h-200q83 252 57.5 352t-415 101.5t-453 41t-57 103t59.5 110.5l9 -10q-18 -52 -12 -98t58 -76.5t460.5 -40t484.5 -141.5z" />
    <glyph glyph-name="uniA9A9" unicode="&#xa9a9;" horiz-adv-x="1349" 
d="M334.5 45q-52.5 53 -43.5 171t94 224t300 151q-86 37 -81 142t174 187q-202 -59 -341 -222.5t-216.5 -358t-46 -343t179.5 -181.5l-4 -21q-175 7 -213.5 181t49 390t233.5 371.5t310 209t372 47.5l-1 -41q-181 -2 -261.5 -72t-72 -176.5t177.5 -103.5l1 -28
q-199 -3 -312 -68t-161 -191t-20 -199t100 -77h302q66 1 107 108l262 741q35 106 143 109h117q111 -2 66 -150l-298 -845h-200l338 953h-40q-66 -1 -97 -108l-261 -741q-35 -106 -156 -109h-368q-80 -3 -132.5 50z" />
    <glyph glyph-name="uniA9AA" unicode="&#xa9aa;" horiz-adv-x="1817" 
d="M1273 954h-40q-66 -1 -97 -108l-261 -741q-35 -106 -156 -109h-248q-111 2 -66 150l274 778q11 30 -15 30h-36q-134 2 -208 -207l-89 -241q-94 -271 -99 -356.5t46 -138.5l-15 -15q-80 29 -76.5 149t103.5 373l95 261q79 221 263 217h70q177 -2 89 -275l-241 -683h172
q66 1 107 108l262 741q35 106 143 109h117q111 -2 66 -150l-285 -809h172q66 1 107 108l262 741q35 106 143 109h117q111 -2 66 -150l-298 -845h-200l338 953h-40q-66 -1 -97 -108l-261 -741q-35 -106 -156 -109h-248q-111 2 -66 150z" />
    <glyph glyph-name="uniA9AB" unicode="&#xa9ab;" horiz-adv-x="1400" 
d="M1533 995q111 -2 66 -150l-298 -845h-200l338 953h-341q-66 -1 -97 -108l-237 -664q-68 -189 -212 -185h-40l-310 222l6 35q242 20 305 189l61 171l120 341h-229q30 -65 -19 -192h-16q-29 111 -221 203l7 31h573q111 -2 66 -150l-68 -194l-69 -195q-82 -244 -410 -262
l218 -157h46q94 -2 157 175l243 673q35 106 143 109h418z" />
    <glyph glyph-name="uniA9AC" unicode="&#xa9ac;" horiz-adv-x="2652" 
d="M2354 995q111 -2 66 -150l-139 -396l-140 -396q140 -7 406.5 516t474.5 426l-2 -26q-181 83 -445.5 -443t-463.5 -526h-189l64 179l21 61l86 240l167 473h-173q-66 -1 -97 -108l-258 -732q-40 -113 -159 -113h-189l338 953h-173q-66 -1 -97 -108l-258 -732
q-40 -113 -159 -113h-189l338 953h-173q-66 -1 -97 -108l-258 -732q-40 -113 -159 -113h-189l183 518l43 119l21 59l10 30q11 30 -15 30h-36q-134 2 -208 -207l-19 -44q-94 -271 -99 -356.5t46 -138.5l-15 -15q-80 29 -76.5 149t103.5 373l25 64q79 221 263 217h70
q177 -2 89 -275l-166 -470q60 -7 86 69l272 764q35 106 143 109h250q111 -2 66 -150l-279 -792q60 -7 86 69l272 764q35 106 143 109h250q111 -2 66 -150l-279 -792q60 -7 86 69l272 764q35 106 143 109h250z" />
    <glyph glyph-name="uniA9AC.alt" horiz-adv-x="2652" 
d="M2354 995q111 -2 66 -150l-139 -396l-140 -396q140 -7 406.5 516t474.5 426l-2 -26q-181 83 -445.5 -443t-463.5 -526h-189l64 179l21 61l86 240l167 473h-173q-66 -1 -97 -108l-258 -732q-40 -113 -159 -113h-189l338 953h-173q-66 -1 -97 -108l-258 -732
q-40 -113 -159 -113h-189l338 953h-173q-66 -1 -97 -108l-258 -732q-40 -113 -159 -113h-189l183 518l43 119l21 59l10 30q11 30 -15 30h-36q-134 2 -208 -207l-19 -44q-94 -271 -99 -356.5t46 -138.5l-15 -15q-80 29 -76.5 149t103.5 373l25 64q79 221 263 217h70
q177 -2 89 -275l-166 -470q60 -7 86 69l272 764q35 106 143 109h250q111 -2 66 -150l-279 -792q60 -7 86 69l272 764q35 106 143 109h250q111 -2 66 -150l-279 -792q60 -7 86 69l272 764q35 106 143 109h250z" />
    <glyph glyph-name="uniA9AD" unicode="&#xa9ad;" horiz-adv-x="1751" 
d="M1081 37h172q66 1 107 108l262 741q35 106 143 109h117q111 -2 66 -150l-298 -845h-200l338 953h-40q-66 -1 -97 -108l-261 -741q-35 -106 -143 -109v2q-20 -4 -43 -2h-218q-111 2 -66 150l201 570l43 119l21 59l10 30q11 30 -15 30h-102q-134 2 -208 -206l-122 -333
q-52 -132 -53 -231t110 -166l-5 -17h-493l169 476l84 239l43 119l21 59l10 30q11 30 -15 30h-36q-134 2 -208 -206l-89 -242q-94 -271 -99 -356.5t46 -138.5l-15 -15q-80 29 -76.5 149t103.5 373l95 261q79 221 263 217h70q177 -2 89 -275l-241 -682h203q-73 48 -70 148.5
t53 239.5l128 352q79 221 263 217h136q166 -2 99 -242z" />
    <glyph glyph-name="uniA9AE" unicode="&#xa9ae;" horiz-adv-x="1380" 
d="M736 -5h-318q-111 2 -66 150l274 778q11 30 -15 30h-36q-134 2 -208 -207l-89 -241q-94 -271 -99 -356.5t46 -138.5l-15 -15q-80 29 -76.5 149t103.5 373l95 261q79 221 263 217h70q177 -2 89 -275l-241 -683h251q155 8 242.5 171.5t111.5 347.5t-25.5 272t-126.5 125
h-143l17 42h672q111 -2 66 -150l-298 -845h-200l338 953h-398q68 -29 114 -133.5t20 -290t-123.5 -355t-294.5 -179.5z" />
    <glyph glyph-name="uniA9AF" unicode="&#xa9af;" horiz-adv-x="1670" 
d="M1426 267l-22 1q20 138 -180 153t-258.5 54.5t-52 103t49.5 100.5l9 -10q-28 -52 -22 -98t63 -76.5t259.5 -41t153.5 -186.5zM1170 953h-173q-66 -1 -97 -108l-259 -732q-39 -113 -158 -113h-189l183 518l43 119l21 59l10 30q11 30 -15 30h-36q-134 2 -208 -207l-19 -44
q-94 -271 -99 -356.5t46 -138.5l-15 -15q-80 29 -76.5 149t103.5 373l25 64q79 221 263 217h70q177 -2 89 -275l-166 -470q60 -7 85 69l273 764q35 106 143 109h250q111 -2 66 -150l-279 -792q60 -7 85 69l273 764q35 106 143 109h250q111 -2 66 -150l-298 -845h-200
l338 953h-173q-66 -1 -97 -108l-259 -732q-39 -113 -158 -113h-189z" />
    <glyph glyph-name="uniA9B0" unicode="&#xa9b0;" horiz-adv-x="1581" 
d="M511 37h572q66 1 107 108l262 741q35 106 143 109h117q111 -2 66 -150l-298 -845h-200l338 953h-40q-66 -1 -97 -108l-261 -741q-35 -106 -143 -109h-661q-111 2 -66 150l274 778q11 30 -15 30h-36q-134 2 -208 -207l-89 -241q-94 -271 -99 -356.5t46 -138.5l-15 -15
q-80 29 -76.5 149t103.5 373l95 261q79 221 263 217h70q177 -2 89 -275zM946 911l12 -12q-27 -51 -22.5 -100.5t97.5 -165.5t129 -236t-36 -242h-13q-24 0 -13 24q5 34 -8 56.5t-146.5 154t-126.5 275.5t127 246z" />
    <glyph glyph-name="uniA9B1" unicode="&#xa9b1;" horiz-adv-x="1448" 
d="M444 132l33 99q-51 -15 -77.5 -40t-36.5 -60.5t-2.5 -65.5t27.5 -28t44 62zM773.5 59.5q-79.5 75.5 -109.5 140.5q-37 -96 -89.5 -150t-127 -60t-105.5 30.5t-22 99t63.5 103.5t108.5 45l201 566l21 59l10 30q11 30 -15 30h-136q-134 2 -208 -206l-89 -242
q-94 -271 -99 -356.5t46 -138.5l-15 -15q-80 29 -76.5 149t103.5 373l95 261q79 221 263 217h170q177 -2 89 -275l-168 -480q76 -131 148 -178q65 -43 128 -29.5t140 225.5l221 628q35 106 143 109h117q111 -2 66 -150l-298 -845h-200l338 953h-40q-66 -1 -97 -108
l-211 -609q-76 -231 -181 -241.5t-184.5 65z" />
    <glyph glyph-name="uniA9B2" unicode="&#xa9b2;" horiz-adv-x="1570" 
d="M1084 53q60 -7 85 69l273 764q35 106 143 109h117q111 -2 66 -150l-298 -845h-200l338 953h-40q-66 -1 -97 -108l-259 -732q-39 -113 -158 -113h-189l339 953h-40q-66 -1 -97 -108l-261 -741q-35 -106 -143 -109h-241q-111 2 -66 150l274 778q11 30 -15 30h-36
q-134 2 -208 -207l-89 -241q-94 -271 -99 -356.5t46 -138.5l-15 -15q-80 29 -76.5 149t103.5 373l95 261q79 221 263 217h70q177 -2 89 -275l-241 -683h152q66 1 107 108l262 741q35 106 143 109h117q111 -2 66 -150z" />
    <glyph glyph-name="uniA9B3" unicode="&#xa9b3;" 
d="M-277.5 1414.5q20.5 -20.5 20.5 -49.5q0 -30 -20.5 -50.5t-50.5 -20.5t-50.5 20.5t-20.5 50.5q0 29 20.5 49.5t50.5 20.5t50.5 -20.5zM-430.5 1229.5q21.5 -20.5 21.5 -49.5q0 -30 -21.5 -50.5t-49.5 -20.5q-30 0 -51 20.5t-21 50.5q0 29 21 49.5t51 20.5
q28 0 49.5 -20.5zM-205 1229.5q21 -20.5 21 -49.5q0 -30 -21 -50.5t-50 -20.5t-50 20.5t-21 50.5q0 29 21 49.5t50 20.5t50 -20.5z" />
    <glyph glyph-name="uniA9B3_uniA980" unicode="&#xe051;" 
d="M-277.5 1414.5q20.5 -20.5 20.5 -49.5q0 -30 -20.5 -50.5t-50.5 -20.5t-50.5 20.5t-20.5 50.5q0 29 20.5 49.5t50.5 20.5t50.5 -20.5zM-430.5 1229.5q21.5 -20.5 21.5 -49.5q0 -30 -21.5 -50.5t-49.5 -20.5q-30 0 -51 20.5t-21 50.5q0 29 21 49.5t51 20.5
q28 0 49.5 -20.5zM-205 1229.5q21 -20.5 21 -49.5q0 -30 -21 -50.5t-50 -20.5t-50 20.5t-21 50.5q0 29 21 49.5t50 20.5t50 -20.5zM-277.5 1414.5q20.5 -20.5 20.5 -49.5q0 -30 -20.5 -50.5t-50.5 -20.5t-50.5 20.5t-20.5 50.5q0 29 20.5 49.5t50.5 20.5t50.5 -20.5z
M-430.5 1229.5q21.5 -20.5 21.5 -49.5q0 -30 -21.5 -50.5t-49.5 -20.5q-30 0 -51 20.5t-21 50.5q0 29 21 49.5t51 20.5q28 0 49.5 -20.5zM-205 1229.5q21 -20.5 21 -49.5q0 -30 -21 -50.5t-50 -20.5t-50 20.5t-21 50.5q0 29 21 49.5t50 20.5t50 -20.5zM-376 1555
q-44 17 -72.5 53t-41.5 92t-11 100l29 5q10 -55 53 -101q12 -13 29 -23q-15 38 -5 75q19 64 120 128v1h22v-1q88 -64 94 -128q4 -37 -20 -75q19 10 35 23q51 46 72 101l29 -5q-8 -44 -32 -100t-60 -92t-82 -53q-45 -15 -81.5 -15t-77.5 15zM-354 1667q30 -8 68 -8q37 0 68 8
q51 93 -52 160q-115 -67 -84 -160z" />
    <glyph glyph-name="uniA9B3_uniA981" unicode="&#xe052;" 
d="M-277.5 1414.5q20.5 -20.5 20.5 -49.5q0 -30 -20.5 -50.5t-50.5 -20.5t-50.5 20.5t-20.5 50.5q0 29 20.5 49.5t50.5 20.5t50.5 -20.5zM-430.5 1229.5q21.5 -20.5 21.5 -49.5q0 -30 -21.5 -50.5t-49.5 -20.5q-30 0 -51 20.5t-21 50.5q0 29 21 49.5t51 20.5
q28 0 49.5 -20.5zM-205 1229.5q21 -20.5 21 -49.5q0 -30 -21 -50.5t-50 -20.5t-50 20.5t-21 50.5q0 29 21 49.5t50 20.5t50 -20.5zM-311 1538q-46 3 -72 29t-26 63t26 63t63 26t63 -26t26 -63q0 -19 -4 -29q82 26 169 118l23 -20q-104 -169 -268 -161z" />
    <glyph glyph-name="uniA9B3_uniA982" unicode="&#xe053;" 
d="M-277.5 1414.5q20.5 -20.5 20.5 -49.5q0 -30 -20.5 -50.5t-50.5 -20.5t-50.5 20.5t-20.5 50.5q0 29 20.5 49.5t50.5 20.5t50.5 -20.5zM-430.5 1229.5q21.5 -20.5 21.5 -49.5q0 -30 -21.5 -50.5t-49.5 -20.5q-30 0 -51 20.5t-21 50.5q0 29 21 49.5t51 20.5
q28 0 49.5 -20.5zM-205 1229.5q21 -20.5 21 -49.5q0 -30 -21 -50.5t-50 -20.5t-50 20.5t-21 50.5q0 29 21 49.5t50 20.5t50 -20.5zM1318 2093l-18 -19q-54 30 -128 17.5t-408 -188t-598 -255.5q-319 -85 -487.5 -83.5t-194.5 76.5h12q47 -51 240 -37.5t558 209.5t635.5 297
t388.5 -17z" />
    <glyph glyph-name="uniA9B3_uniA9B6" unicode="&#xe054;" 
d="M-260.5 1601.5q105.5 -39.5 112 -171.5t-95.5 -207t-247 -93l-1 23q97 46 149.5 133.5t59.5 171t-32.5 110t-108.5 12t-103 -68t-32 -123.5t66 -147l-17 -11q-98 70 -83.5 201t121 170.5t212 0zM-737.5 1414.5q20.5 -20.5 20.5 -49.5q0 -30 -20.5 -50.5t-50.5 -20.5
t-50.5 20.5t-20.5 50.5q0 29 20.5 49.5t50.5 20.5t50.5 -20.5zM-890.5 1229.5q21.5 -20.5 21.5 -49.5q0 -30 -21.5 -50.5t-49.5 -20.5q-30 0 -51 20.5t-21 50.5q0 29 21 49.5t51 20.5q28 0 49.5 -20.5zM-665 1229.5q21 -20.5 21 -49.5q0 -30 -21 -50.5t-50 -20.5t-50 20.5
t-21 50.5q0 29 21 49.5t50 20.5t50 -20.5z" />
    <glyph glyph-name="uniA9B3_uniA9B6_uniA980" unicode="&#xe055;" 
d="M-720.5 1601.5q105.5 -39.5 112 -171.5t-95.5 -207t-247 -93l-1 23q97 46 149.5 133.5t59.5 171t-32.5 110t-108.5 12t-103 -68t-32 -123.5t66 -147l-17 -11q-98 70 -83.5 201t121 170.5t212 0zM-402 1155q-44 17 -72.5 53t-41.5 92t-11 100l29 5q10 -55 53 -101
q12 -13 29 -23q-15 38 -5 75q19 64 120 128v1h22v-1q88 -64 94 -128q4 -37 -20 -75q19 10 35 23q51 46 72 101l29 -5q-8 -44 -32 -100t-60 -92t-82 -53q-45 -15 -81.5 -15t-77.5 15zM-380 1267q30 -8 68 -8q37 0 68 8q51 93 -52 160q-115 -67 -84 -160zM-1207.5 1414.5
q20.5 -20.5 20.5 -49.5q0 -30 -20.5 -50.5t-50.5 -20.5t-50.5 20.5t-20.5 50.5q0 29 20.5 49.5t50.5 20.5t50.5 -20.5zM-1360.5 1229.5q21.5 -20.5 21.5 -49.5q0 -30 -21.5 -50.5t-49.5 -20.5q-30 0 -51 20.5t-21 50.5q0 29 21 49.5t51 20.5q28 0 49.5 -20.5zM-1135 1229.5
q21 -20.5 21 -49.5q0 -30 -21 -50.5t-50 -20.5t-50 20.5t-21 50.5q0 29 21 49.5t50 20.5t50 -20.5z" />
    <glyph glyph-name="uniA9B3_uniA9B6_uniA981" unicode="&#xe056;" 
d="M-460.5 1601.5q105.5 -39.5 112 -171.5t-95.5 -207t-247 -93l-1 23q97 46 149.5 133.5t59.5 171t-32.5 110t-108.5 12t-103 -68t-32 -123.5t66 -147l-17 -11q-98 70 -83.5 201t121 170.5t212 0zM-211 1138q-46 3 -72 29t-26 63t26 63t63 26t63 -26t26 -63q0 -19 -4 -29
q82 26 169 118l23 -20q-104 -169 -268 -161zM-987.5 1414.5q20.5 -20.5 20.5 -49.5q0 -30 -20.5 -50.5t-50.5 -20.5t-50.5 20.5t-20.5 50.5q0 29 20.5 49.5t50.5 20.5t50.5 -20.5zM-1140.5 1229.5q21.5 -20.5 21.5 -49.5q0 -30 -21.5 -50.5t-49.5 -20.5q-30 0 -51 20.5
t-21 50.5q0 29 21 49.5t51 20.5q28 0 49.5 -20.5zM-915 1229.5q21 -20.5 21 -49.5q0 -30 -21 -50.5t-50 -20.5t-50 20.5t-21 50.5q0 29 21 49.5t50 20.5t50 -20.5z" />
    <glyph glyph-name="uniA9B3_uniA9B6_uniA982" unicode="&#xe057;" 
d="M-460.5 1601.5q105.5 -39.5 112 -171.5t-95.5 -207t-247 -93l-1 23q97 46 149.5 133.5t59.5 171t-32.5 110t-108.5 12t-103 -68t-32 -123.5t66 -147l-17 -11q-98 70 -83.5 201t121 170.5t212 0zM1408 1633l-18 -19q-54 30 -128 17.5t-408 -188t-598 -255.5
q-319 -85 -487.5 -83.5t-194.5 76.5h12q47 -51 240 -37.5t558 209.5t635.5 297t388.5 -17zM-987.5 1414.5q20.5 -20.5 20.5 -49.5q0 -30 -20.5 -50.5t-50.5 -20.5t-50.5 20.5t-20.5 50.5q0 29 20.5 49.5t50.5 20.5t50.5 -20.5zM-1140.5 1229.5q21.5 -20.5 21.5 -49.5
q0 -30 -21.5 -50.5t-49.5 -20.5q-30 0 -51 20.5t-21 50.5q0 29 21 49.5t51 20.5q28 0 49.5 -20.5zM-915 1229.5q21 -20.5 21 -49.5q0 -30 -21 -50.5t-50 -20.5t-50 20.5t-21 50.5q0 29 21 49.5t50 20.5t50 -20.5z" />
    <glyph glyph-name="uniA9B3_uniA9B7" unicode="&#xe058;" 
d="M222 1641l17 -13q-138 -139 -267 -219t-242.5 -84t-149.5 55l12 7q48 -46 169.5 -18t230 97.5t230.5 174.5zM-190.5 1601.5q105.5 -39.5 112 -171.5t-95.5 -207t-247 -93l-1 23q97 46 149.5 133.5t59.5 171t-32.5 110t-108.5 12t-103 -68t-32 -123.5t66 -147l-17 -11
q-98 70 -83.5 201t121 170.5t212 0zM-677.5 1414.5q20.5 -20.5 20.5 -49.5q0 -30 -20.5 -50.5t-50.5 -20.5t-50.5 20.5t-20.5 50.5q0 29 20.5 49.5t50.5 20.5t50.5 -20.5zM-830.5 1229.5q21.5 -20.5 21.5 -49.5q0 -30 -21.5 -50.5t-49.5 -20.5q-30 0 -51 20.5t-21 50.5
q0 29 21 49.5t51 20.5q28 0 49.5 -20.5zM-605 1229.5q21 -20.5 21 -49.5q0 -30 -21 -50.5t-50 -20.5t-50 20.5t-21 50.5q0 29 21 49.5t50 20.5t50 -20.5z" />
    <glyph glyph-name="uniA9B3_uniA9B7_uniA980" unicode="&#xe059;" 
d="M-720.5 1601.5q105.5 -39.5 112 -171.5t-95.5 -207t-247 -93l-1 23q97 46 149.5 133.5t59.5 171t-32.5 110t-108.5 12t-103 -68t-32 -123.5t66 -147l-17 -11q-98 70 -83.5 201t121 170.5t212 0zM-402 1155q-44 17 -72.5 53t-41.5 92t-11 100l29 5q10 -55 53 -101
q12 -13 29 -23q-15 38 -5 75q19 64 120 128v1h22v-1q88 -64 94 -128q4 -37 -20 -75q19 10 35 23q51 46 72 101l29 -5q-8 -44 -32 -100t-60 -92t-82 -53q-45 -15 -81.5 -15t-77.5 15zM-380 1267q30 -8 68 -8q37 0 68 8q51 93 -52 160q-115 -67 -84 -160zM-308 1641l17 -13
q-138 -139 -267 -219t-242.5 -84t-149.5 55l12 7q48 -46 169.5 -18t230 97.5t230.5 174.5zM-1207.5 1414.5q20.5 -20.5 20.5 -49.5q0 -30 -20.5 -50.5t-50.5 -20.5t-50.5 20.5t-20.5 50.5q0 29 20.5 49.5t50.5 20.5t50.5 -20.5zM-1360.5 1229.5q21.5 -20.5 21.5 -49.5
q0 -30 -21.5 -50.5t-49.5 -20.5q-30 0 -51 20.5t-21 50.5q0 29 21 49.5t51 20.5q28 0 49.5 -20.5zM-1135 1229.5q21 -20.5 21 -49.5q0 -30 -21 -50.5t-50 -20.5t-50 20.5t-21 50.5q0 29 21 49.5t50 20.5t50 -20.5z" />
    <glyph glyph-name="uniA9B3_uniA9B7_uniA981" unicode="&#xe05a;" 
d="M-460.5 1601.5q105.5 -39.5 112 -171.5t-95.5 -207t-247 -93l-1 23q97 46 149.5 133.5t59.5 171t-32.5 110t-108.5 12t-103 -68t-32 -123.5t66 -147l-17 -11q-98 70 -83.5 201t121 170.5t212 0zM-211 1138q-46 3 -72 29t-26 63t26 63t63 26t63 -26t26 -63q0 -19 -4 -29
q82 26 169 118l23 -20q-104 -169 -268 -161zM-48 1641l17 -13q-138 -139 -267 -219t-242.5 -84t-149.5 55l12 7q48 -46 169.5 -18t230 97.5t230.5 174.5zM-987.5 1414.5q20.5 -20.5 20.5 -49.5q0 -30 -20.5 -50.5t-50.5 -20.5t-50.5 20.5t-20.5 50.5q0 29 20.5 49.5
t50.5 20.5t50.5 -20.5zM-1140.5 1229.5q21.5 -20.5 21.5 -49.5q0 -30 -21.5 -50.5t-49.5 -20.5q-30 0 -51 20.5t-21 50.5q0 29 21 49.5t51 20.5q28 0 49.5 -20.5zM-915 1229.5q21 -20.5 21 -49.5q0 -30 -21 -50.5t-50 -20.5t-50 20.5t-21 50.5q0 29 21 49.5t50 20.5
t50 -20.5z" />
    <glyph glyph-name="uniA9B3_uniA9B7_uniA982" unicode="&#xe05b;" 
d="M-460.5 1601.5q105.5 -39.5 112 -171.5t-95.5 -207t-247 -93l-1 23q97 46 149.5 133.5t59.5 171t-32.5 110t-108.5 12t-103 -68t-32 -123.5t66 -147l-17 -11q-98 70 -83.5 201t121 170.5t212 0zM1408 1633l-18 -19q-54 30 -128 17.5t-408 -188t-598 -255.5
q-319 -85 -487.5 -83.5t-194.5 76.5h12q47 -51 240 -37.5t558 209.5t635.5 297t388.5 -17zM-48 1641l17 -13q-138 -139 -267 -219t-242.5 -84t-149.5 55l12 7q48 -46 169.5 -18t230 97.5t230.5 174.5zM-987.5 1414.5q20.5 -20.5 20.5 -49.5q0 -30 -20.5 -50.5t-50.5 -20.5
t-50.5 20.5t-20.5 50.5q0 29 20.5 49.5t50.5 20.5t50.5 -20.5zM-1140.5 1229.5q21.5 -20.5 21.5 -49.5q0 -30 -21.5 -50.5t-49.5 -20.5q-30 0 -51 20.5t-21 50.5q0 29 21 49.5t51 20.5q28 0 49.5 -20.5zM-915 1229.5q21 -20.5 21 -49.5q0 -30 -21 -50.5t-50 -20.5t-50 20.5
t-21 50.5q0 29 21 49.5t50 20.5t50 -20.5z" />
    <glyph glyph-name="uniA9B3_uniA9BC" unicode="&#xe05c;" 
d="M-254 1168q-181 -85 -461.5 -23t-378 222t-34.5 352.5t273.5 271t453.5 1.5t344.5 -268.5t26.5 -421.5l-30 -3q-24 169 -140 332.5t-303.5 245.5t-345.5 44.5t-224 -203t27.5 -324.5t352.5 -212.5t435 9.5zM-1267.5 1414.5q20.5 -20.5 20.5 -49.5q0 -30 -20.5 -50.5
t-50.5 -20.5t-50.5 20.5t-20.5 50.5q0 29 20.5 49.5t50.5 20.5t50.5 -20.5zM-1420.5 1229.5q21.5 -20.5 21.5 -49.5q0 -30 -21.5 -50.5t-49.5 -20.5q-30 0 -51 20.5t-21 50.5q0 29 21 49.5t51 20.5q28 0 49.5 -20.5zM-1195 1229.5q21 -20.5 21 -49.5q0 -30 -21 -50.5
t-50 -20.5t-50 20.5t-21 50.5q0 29 21 49.5t50 20.5t50 -20.5z" />
    <glyph glyph-name="uniA9B3_uniA9BC_uniA980" unicode="&#xe05d;" 
d="M16 1168q-181 -85 -461.5 -23t-378 222t-34.5 352.5t273.5 271t453.5 1.5t344.5 -268.5t26.5 -421.5l-30 -3q-24 169 -140 332.5t-303.5 245.5t-345.5 44.5t-224 -203t27.5 -324.5t352.5 -212.5t435 9.5zM-243 1255q-44 17 -72.5 53t-41.5 92t-11 100l29 5
q10 -55 53 -101q12 -13 29 -23q-15 38 -5 75q19 64 120 128v1h22v-1q88 -64 94 -128q4 -37 -20 -75q19 10 35 23q51 46 72 101l29 -5q-8 -44 -32 -100t-60 -92t-82 -53q-45 -15 -81.5 -15t-77.5 15zM-221 1367q30 -8 68 -8q37 0 68 8q51 93 -52 160q-115 -67 -84 -160z
M-1008.5 1414.5q20.5 -20.5 20.5 -49.5q0 -30 -20.5 -50.5t-50.5 -20.5t-50.5 20.5t-20.5 50.5q0 29 20.5 49.5t50.5 20.5t50.5 -20.5zM-1161.5 1229.5q21.5 -20.5 21.5 -49.5q0 -30 -21.5 -50.5t-49.5 -20.5q-30 0 -51 20.5t-21 50.5q0 29 21 49.5t51 20.5q28 0 49.5 -20.5
zM-936 1229.5q21 -20.5 21 -49.5q0 -30 -21 -50.5t-50 -20.5t-50 20.5t-21 50.5q0 29 21 49.5t50 20.5t50 -20.5z" />
    <glyph glyph-name="uniA9B3_uniA9BC_uniA981" unicode="&#xe05e;" 
d="M16 1168q-181 -85 -461.5 -23t-378 222t-34.5 352.5t273.5 271t453.5 1.5t344.5 -268.5t26.5 -421.5l-30 -3q-24 169 -140 332.5t-303.5 245.5t-345.5 44.5t-224 -203t27.5 -324.5t352.5 -212.5t435 9.5zM-192 1258q-46 3 -72 29t-26 63t26 63t63 26t63 -26t26 -63
q0 -19 -4 -29q82 26 169 118l23 -20q-104 -169 -268 -161zM-1008.5 1414.5q20.5 -20.5 20.5 -49.5q0 -30 -20.5 -50.5t-50.5 -20.5t-50.5 20.5t-20.5 50.5q0 29 20.5 49.5t50.5 20.5t50.5 -20.5zM-1161.5 1229.5q21.5 -20.5 21.5 -49.5q0 -30 -21.5 -50.5t-49.5 -20.5
q-30 0 -51 20.5t-21 50.5q0 29 21 49.5t51 20.5q28 0 49.5 -20.5zM-936 1229.5q21 -20.5 21 -49.5q0 -30 -21 -50.5t-50 -20.5t-50 20.5t-21 50.5q0 29 21 49.5t50 20.5t50 -20.5z" />
    <glyph glyph-name="uniA9B3_uniA9BC_uniA982" unicode="&#xe05f;" 
d="M1317 1833l-18 -19q-54 30 -128 17.5t-408 -188t-598 -255.5q-319 -85 -487.5 -83.5t-194.5 76.5h12q47 -51 240 -37.5t558 209.5t635.5 297t388.5 -17zM-184 1168q-181 -85 -461.5 -23t-378 222t-34.5 352.5t249.5 263t390 43.5t326.5 -169.5t95 -352.5l-22 -5
q-104 197 -211 293t-249 131.5t-300 -2t-224 -203t27.5 -324.5t352.5 -212.5t435 9.5zM-1208.5 1414.5q20.5 -20.5 20.5 -49.5q0 -30 -20.5 -50.5t-50.5 -20.5t-50.5 20.5t-20.5 50.5q0 29 20.5 49.5t50.5 20.5t50.5 -20.5zM-1361.5 1229.5q21.5 -20.5 21.5 -49.5
q0 -30 -21.5 -50.5t-49.5 -20.5q-30 0 -51 20.5t-21 50.5q0 29 21 49.5t51 20.5q28 0 49.5 -20.5zM-1136 1229.5q21 -20.5 21 -49.5q0 -30 -21 -50.5t-50 -20.5t-50 20.5t-21 50.5q0 29 21 49.5t50 20.5t50 -20.5z" />
    <glyph glyph-name="uniA9B4" unicode="&#xa9b4;" horiz-adv-x="640" 
d="M615.5 991q82.5 -20 117 -105t-7 -185.5t-198.5 -171.5q-99 -44 -178 -93.5t-123.5 -116.5t-73.5 -152h458l-59 -168h-502v12q90 275 167.5 357.5t174 134.5t140 142t50.5 168.5t-20.5 113.5t-76.5 32t-98 -45.5t-81 -133.5l-21 15q24 89 71.5 137t112.5 63.5t147.5 -4.5
z" />
    <glyph glyph-name="uniA9B5" unicode="&#xa9b5;" horiz-adv-x="649" 
d="M179.5 46q51.5 -37 130 -15t143.5 172t45.5 405.5t-145.5 377.5l15 15q246 -123 291.5 -400.5t-60.5 -439.5t-238 -180.5t-196 32.5t-80 191l15 4q28 -125 79.5 -162z" />
    <glyph glyph-name="uniA9B6" unicode="&#xa9b6;" 
d="M-60.5 1601.5q105.5 -39.5 112 -171.5t-95.5 -207t-247 -93l-1 23q97 46 149.5 133.5t59.5 171t-32.5 110t-108.5 12t-103 -68t-32 -123.5t66 -147l-17 -11q-98 70 -83.5 201t121 170.5t212 0z" />
    <glyph glyph-name="uniA9B6_uniA980" unicode="&#xe048;" 
d="M-690.5 1601.5q105.5 -39.5 112 -171.5t-95.5 -207t-247 -93l-1 23q97 46 149.5 133.5t59.5 171t-32.5 110t-108.5 12t-103 -68t-32 -123.5t66 -147l-17 -11q-98 70 -83.5 201t121 170.5t212 0zM-402 1155q-44 17 -72.5 53t-41.5 92t-11 100l29 5q10 -55 53 -101
q12 -13 29 -23q-15 38 -5 75q19 64 120 128v1h22v-1q88 -64 94 -128q4 -37 -20 -75q19 10 35 23q51 46 72 101l29 -5q-8 -44 -32 -100t-60 -92t-82 -53q-45 -15 -81.5 -15t-77.5 15zM-380 1267q30 -8 68 -8q37 0 68 8q51 93 -52 160q-115 -67 -84 -160z" />
    <glyph glyph-name="uniA9B6_uniA981" unicode="&#xe049;" 
d="M-470.5 1601.5q105.5 -39.5 112 -171.5t-95.5 -207t-247 -93l-1 23q97 46 149.5 133.5t59.5 171t-32.5 110t-108.5 12t-103 -68t-32 -123.5t66 -147l-17 -11q-98 70 -83.5 201t121 170.5t212 0zM-221 1138q-46 3 -72 29t-26 63t26 63t63 26t63 -26t26 -63q0 -19 -4 -29
q82 26 169 118l23 -20q-104 -169 -268 -161z" />
    <glyph glyph-name="uniA9B6_uniA982" unicode="&#xe04a;" 
d="M-560.5 1601.5q105.5 -39.5 112 -171.5t-95.5 -207t-247 -93l-1 23q97 46 149.5 133.5t59.5 171t-32.5 110t-108.5 12t-103 -68t-32 -123.5t66 -147l-17 -11q-98 70 -83.5 201t121 170.5t212 0zM1318 1633l-18 -19q-54 30 -128 17.5t-408 -188t-598 -255.5
q-319 -85 -487.5 -83.5t-194.5 76.5h12q47 -51 240 -37.5t558 209.5t635.5 297t388.5 -17z" />
    <glyph glyph-name="uniA9B7" unicode="&#xa9b7;" 
d="M252 1641l17 -13q-138 -139 -267 -219t-242.5 -84t-149.5 55l12 7q48 -46 169.5 -18t230 97.5t230.5 174.5zM-160.5 1601.5q105.5 -39.5 112 -171.5t-95.5 -207t-247 -93l-1 23q97 46 149.5 133.5t59.5 171t-32.5 110t-108.5 12t-103 -68t-32 -123.5t66 -147l-17 -11
q-98 70 -83.5 201t121 170.5t212 0z" />
    <glyph glyph-name="uniA9B7_uniA980" unicode="&#xe04b;" 
d="M-348 1641l17 -13q-138 -139 -267 -219t-242.5 -84t-149.5 55l12 7q48 -46 169.5 -18t230 97.5t230.5 174.5zM-760.5 1601.5q105.5 -39.5 112 -171.5t-95.5 -207t-247 -93l-1 23q97 46 149.5 133.5t59.5 171t-32.5 110t-108.5 12t-103 -68t-32 -123.5t66 -147l-17 -11
q-98 70 -83.5 201t121 170.5t212 0zM-402 1155q-44 17 -72.5 53t-41.5 92t-11 100l29 5q10 -55 53 -101q12 -13 29 -23q-15 38 -5 75q19 64 120 128v1h22v-1q88 -64 94 -128q4 -37 -20 -75q19 10 35 23q51 46 72 101l29 -5q-8 -44 -32 -100t-60 -92t-82 -53
q-45 -15 -81.5 -15t-77.5 15zM-380 1267q30 -8 68 -8q37 0 68 8q51 93 -52 160q-115 -67 -84 -160z" />
    <glyph glyph-name="uniA9B7_uniA981" unicode="&#xe04c;" 
d="M-148 1641l17 -13q-138 -139 -267 -219t-242.5 -84t-149.5 55l12 7q48 -46 169.5 -18t230 97.5t230.5 174.5zM-560.5 1601.5q105.5 -39.5 112 -171.5t-95.5 -207t-247 -93l-1 23q97 46 149.5 133.5t59.5 171t-32.5 110t-108.5 12t-103 -68t-32 -123.5t66 -147l-17 -11
q-98 70 -83.5 201t121 170.5t212 0zM-321 1138q-46 3 -72 29t-26 63t26 63t63 26t63 -26t26 -63q0 -19 -4 -29q82 26 169 118l23 -20q-104 -169 -268 -161z" />
    <glyph glyph-name="uniA9B7_uniA982" unicode="&#xe04d;" 
d="M-148 1641l17 -13q-138 -139 -267 -219t-242.5 -84t-149.5 55l12 7q48 -46 169.5 -18t230 97.5t230.5 174.5zM-560.5 1601.5q105.5 -39.5 112 -171.5t-95.5 -207t-247 -93l-1 23q97 46 149.5 133.5t59.5 171t-32.5 110t-108.5 12t-103 -68t-32 -123.5t66 -147l-17 -11
q-98 70 -83.5 201t121 170.5t212 0zM1318 1633l-18 -19q-54 30 -128 17.5t-408 -188t-598 -255.5q-319 -85 -487.5 -83.5t-194.5 76.5h12q47 -51 240 -37.5t558 209.5t635.5 297t388.5 -17z" />
    <glyph glyph-name="uniA9B8" unicode="&#xa9b8;" 
d="M880 -329l-18 -19q-54 30 -128 17.5t-477 -226.5q-389 -216 -742.5 -307.5t-548 -91.5t-220.5 75h12q47 -51 240 -37.5t695 229.5q528 276 798.5 377t388.5 -17zM-100 0q-168 -494 -357 -626.5t-338 -174.5l-12 24q251 70 507 777h200z" />
    <glyph glyph-name="uniA9B8.conj" 
d="M580 -1529l-18 -19q-54 30 -128 17.5t-477 -226.5q-389 -216 -742.5 -307.5t-548 -91.5t-220.5 75h12q47 -51 240 -37.5t695 229.5q528 276 798.5 377t388.5 -17zM-540 -1200q-168 -494 -357 -626.5t-338 -174.5l-12 24q251 70 507 777h200z" />
    <glyph glyph-name="uniA9B9" unicode="&#xa9b9;" 
d="M-145 -580q27 110 -33.5 151t-176.5 30t-225.5 -17.5t-148 30.5t-18 109t108 117t184.5 52l8 -22q-73 -14 -140.5 -40t-103 -77t-20 -96t105 -43t197 14.5t193.5 -1t120 -78t-6 -173.5t-228.5 -170.5t-440.5 -88.5l-5 25q242 32 422 100t207 178zM-100 0
q-168 -494 -357 -626.5t-338 -174.5l-12 24q251 70 507 777h200z" />
    <glyph glyph-name="uniA9B9.conj" 
d="M-585 -1780q27 110 -33.5 151t-176.5 30t-225.5 -17.5t-148 30.5t-18 109t108 117t184.5 52l8 -22q-73 -14 -140.5 -40t-103 -77t-20 -96t105 -43t197 14.5t193.5 -1t120 -78t-6 -173.5t-228.5 -170.5t-440.5 -88.5l-5 25q242 32 422 100t207 178zM-540 -1200
q-168 -494 -357 -626.5t-338 -174.5l-12 24q251 70 507 777h200z" />
    <glyph glyph-name="uniA9BA" unicode="&#xa9ba;" horiz-adv-x="1159" 
d="M295 0l169 476l84 239l43 119l21 59l10 30q11 30 -15 30h-36q-134 2 -208 -206l-89 -242q-94 -271 -99 -356.5t46 -138.5l-15 -15q-80 29 -76.5 149t103.5 373l95 261q79 221 263 217h70q177 -2 89 -275l-241 -682h203q-73 48 -70 148.5t53 239.5l128 352q79 221 263 217
h136q166 -2 99 -242l-265 -753q-43 -134 -167.5 -493t-88.5 -458l-42 -18q-71 144 -60 347t158 622l169 476l84 239l43 119l21 59l10 30q11 30 -15 30h-102q-134 2 -208 -206l-122 -333q-52 -132 -53 -231t110 -166l-5 -17h-493z" />
    <glyph glyph-name="uniA9BB" unicode="&#xa9bb;" horiz-adv-x="1159" 
d="M1102.5 1755.5q-15.5 62.5 -122.5 32t-170.5 -52t-129 -39.5t-96 14t-5.5 119.5t178 214.5t309 165l8 -22q-138 -56 -246.5 -140t-161 -159t-48 -115t49.5 -33.5t138.5 41.5t204.5 62t190 -19.5t53 -171t-233 -258t-460 -215.5l-11 23q165 103 366.5 297t186 256.5z
M295 0l169 476l84 239l43 119l21 59l10 30q11 30 -15 30h-36q-134 2 -208 -206l-89 -242q-94 -271 -99 -356.5t46 -138.5l-15 -15q-80 29 -76.5 149t103.5 373l95 261q79 221 263 217h70q177 -2 89 -275l-241 -682h203q-73 48 -70 148.5t53 239.5l128 352q79 221 263 217
h136q166 -2 99 -242l-265 -753q-43 -134 -167.5 -493t-88.5 -458l-42 -18q-71 144 -60 347t158 622l169 476l84 239l43 119l21 59l10 30q11 30 -15 30h-102q-134 2 -208 -206l-122 -333q-52 -132 -53 -231t110 -166l-5 -17h-493z" />
    <glyph glyph-name="uniA9BC" unicode="&#xa9bc;" 
d="M16 1168q-181 -85 -461.5 -23t-378 222t-34.5 352.5t273.5 271t453.5 1.5t344.5 -268.5t26.5 -421.5l-30 -3q-24 169 -140 332.5t-303.5 245.5t-345.5 44.5t-224 -203t27.5 -324.5t352.5 -212.5t435 9.5z" />
    <glyph glyph-name="uniA9BC.short" 
d="M16 1168q-181 -85 -461.5 -23t-378 222t-34.5 352.5t249.5 263t390 43.5t326.5 -169.5t95 -352.5l-22 -5q-104 197 -211 293t-249 131.5t-300 -2t-224 -203t27.5 -324.5t352.5 -212.5t435 9.5z" />
    <glyph glyph-name="uniA9BC_uniA980" unicode="&#xe04e;" 
d="M-384 1168q-181 -85 -461.5 -23t-378 222t-34.5 352.5t273.5 271t453.5 1.5t344.5 -268.5t26.5 -421.5l-30 -3q-24 169 -140 332.5t-303.5 245.5t-345.5 44.5t-224 -203t27.5 -324.5t352.5 -212.5t435 9.5zM-712 1255q-44 17 -72.5 53t-41.5 92t-11 100l29 5
q10 -55 53 -101q12 -13 29 -23q-15 38 -5 75q19 64 120 128v1h22v-1q88 -64 94 -128q4 -37 -20 -75q19 10 35 23q51 46 72 101l29 -5q-8 -44 -32 -100t-60 -92t-82 -53q-45 -15 -81.5 -15t-77.5 15zM-690 1367q30 -8 68 -8q37 0 68 8q51 93 -52 160q-115 -67 -84 -160z" />
    <glyph glyph-name="uniA9BC_uniA981" unicode="&#xe04f;" 
d="M-84 1168q-181 -85 -461.5 -23t-378 222t-34.5 352.5t273.5 271t453.5 1.5t344.5 -268.5t26.5 -421.5l-30 -3q-24 169 -140 332.5t-303.5 245.5t-345.5 44.5t-224 -203t27.5 -324.5t352.5 -212.5t435 9.5zM-291 1278q-46 3 -72 29t-26 63t26 63t63 26t63 -26t26 -63
q0 -19 -4 -29q82 26 169 118l23 -20q-104 -169 -268 -161z" />
    <glyph glyph-name="uniA9BC_uniA982" unicode="&#xe050;" horiz-adv-x="1" 
d="M-184 1168q-181 -85 -461.5 -23t-378 222t-34.5 352.5t249.5 263t390 43.5t326.5 -169.5t95 -352.5l-22 -5q-104 197 -211 293t-249 131.5t-300 -2t-224 -203t27.5 -324.5t352.5 -212.5t435 9.5zM1318 1833l-18 -19q-54 30 -128 17.5t-408 -188t-598 -255.5
q-319 -85 -487.5 -83.5t-194.5 76.5h12q47 -51 240 -37.5t558 209.5t635.5 297t388.5 -17z" />
    <glyph glyph-name="uniA9BD" unicode="&#xa9bd;" 
d="M-150 0q-67 -181 -216.5 -278t-298.5 -139l-12 24q251 70 327 393h200zM-680 -391q193 -22 304.5 -116t86.5 -304t-266 -307t-630 -46q-77 -224 -67 -315.5t65 -89t103 57.5l13 -42q-92 -118 -200.5 -122t-148 83t-11 189.5t109.5 280.5q-40 25 -53 69.5t-2.5 89t44 70.5
t83.5 14t73 -72t6 -164q303 -41 481 57.5t205 271.5t-23 257t-174 115zM-1299 -1082q50 94 38.5 134.5t-41.5 31.5t-35 -63t38 -103z" />
    <glyph glyph-name="uniA9BD.conj" 
d="M-540 -1200q-47 -141 -205 -193.5t-274 -61.5l-12 24q206 34 291 231h200zM-1034 -1429q193 -22 304.5 -121t77 -302.5t-241 -252t-445.5 22.5q-39 -174 -5.5 -198t101.5 8l13 -42q-87 -75 -180.5 -69t-118 98t55.5 252q-36 25 -52 66t-5.5 85.5t44 70.5t83.5 14t73 -72
t6 -164q153 -61 308.5 -7.5t180 216.5t-25.5 252t-174 120zM-1451 -1993q38 87 31.5 127.5t-36.5 31.5t-35 -63t40 -96z" />
    <glyph glyph-name="uniA9BD.disjointed" horiz-adv-x="50" 
d="M-310 -40q113 -161 1 -251t-306 -126l-12 24q251 70 297 353h20zM-630 -391q193 -22 304.5 -116t86.5 -304t-266 -307t-630 -46q-77 -224 -67 -315.5t65 -89t103 57.5l13 -42q-92 -118 -200.5 -122t-148 83t-11 189.5t109.5 280.5q-40 25 -53 69.5t-2.5 89t44 70.5
t83.5 14t73 -72t6 -164q303 -41 481 57.5t205 271.5t-23 257t-174 115zM-1249 -1082q50 94 38.5 134.5t-41.5 31.5t-35 -63t38 -103z" />
    <glyph glyph-name="uniA9BD.conj_disjointed" 
d="M-894 -1429q193 -22 304.5 -121t77 -302.5t-241 -252t-445.5 22.5q-39 -174 -5.5 -198t101.5 8l13 -42q-87 -75 -180.5 -69t-118 98t55.5 252q-36 25 -52 66t-5.5 85.5t44 70.5t83.5 14t73 -72t6 -164q153 -61 308.5 -7.5t180 216.5t-25.5 252t-174 120zM-1311 -1993
q38 87 31.5 127.5t-36.5 31.5t-35 -63t40 -96zM-570 -1080q113 -161 1 -251t-306 -126l-12 24q251 70 297 353h20z" />
    <glyph glyph-name="uniA9BE" unicode="&#xa9be;" horiz-adv-x="549" 
d="M-355 -124q25 44 55 124h200q-79 -232 -213 -178t-217 54q-132 0 -268.5 -156t-162.5 -394q-2 -200 53 -208t206.5 92.5t246 134.5t164 -7.5t72.5 -123.5l591 1672q35 106 143 109h117q111 -2 66 -150l-298 -845q-43 -134 -167.5 -493t-88.5 -458l-42 -18
q-71 144 -60 347t158 622l338 953h-40q-66 -1 -97 -108l-630 -1784l-38 17l16 45q16 116 -44.5 167t-169 4t-239 -132t-209.5 -87q-211 1 -222 215q9 295 173 453t348 171q146 8 259 -38z" />
    <glyph glyph-name="uniA9BE.alt" horiz-adv-x="549" 
d="M-355 -124q25 44 55 124h200q-79 -232 -213 -178t-217 54q-132 0 -268.5 -156t-162.5 -394q-2 -200 53 -208t206.5 92.5t246 134.5t164 -7.5t72.5 -123.5l591 1672q35 106 143 109h117q111 -2 66 -150l-298 -845h-200l338 953h-40q-66 -1 -97 -108l-630 -1784l-38 17
l16 45q16 116 -44.5 167t-169 4t-239 -132t-209.5 -87q-211 1 -222 215q9 295 173 453t348 171q146 8 259 -38z" />
    <glyph glyph-name="uniA9BE.full_uniA9B8.short" horiz-adv-x="549" 
d="M1725 -385l-18 -19q-54 30 -128 17.5t-477 -226.5q-389 -216 -742.5 -307.5t-548 -91.5t-220.5 75h12q47 -51 240 -37.5t695 229.5q528 276 798.5 377t388.5 -17zM400 0q-182 -571 -314.5 -729.5t-261.5 -215.5l-12 24q108 69 388 921h200zM-355 -124q25 44 55 124h200
q-79 -232 -213 -178t-217 54q-132 0 -268.5 -156t-162.5 -394q-2 -200 53 -208t206.5 92.5t246 134.5t164 -7.5t72.5 -123.5l591 1672q35 106 143 109h117q111 -2 66 -150l-298 -845h-200l338 953h-40q-66 -1 -97 -108l-630 -1784l-38 17l16 45q16 116 -44.5 167t-169 4
t-239 -132t-209.5 -87q-211 1 -222 215q9 295 173 453t348 171q146 8 259 -38z" />
    <glyph glyph-name="uniA9BE.full_uniA9B9.short" horiz-adv-x="549" 
d="M340 -722q27 110 -33.5 151t-229 25t-275.5 -17.5t-145.5 35.5t-18 109t108 117t184.5 52l8 -22q-73 -14 -140.5 -40t-103 -77t-20 -96t102.5 -48t247 14.5t246 4t120 -78t-6 -173.5t-228.5 -170.5t-440.5 -88.5l-5 25q242 32 422 100t207 178zM-355 -124q25 44 55 124
h200q-79 -232 -213 -178t-217 54q-132 0 -268.5 -156t-162.5 -394q-2 -200 53 -208t206.5 92.5t246 134.5t164 -7.5t72.5 -123.5l591 1672q35 106 143 109h117q111 -2 66 -150l-298 -845h-200l338 953h-40q-66 -1 -97 -108l-630 -1784l-38 17l16 45q16 116 -44.5 167t-169 4
t-239 -132t-209.5 -87q-211 1 -222 215q9 295 173 453t348 171q146 8 259 -38zM400 0q-182 -571 -314.5 -729.5t-261.5 -215.5l-12 24q108 69 388 921h200z" />
    <glyph glyph-name="uniA9BE.disjointed" horiz-adv-x="549" 
d="M-355 -124q104 -37 231 83l11 -8q-66 -183 -200 -129t-217 54q-132 0 -268.5 -156t-162.5 -394q-2 -200 53 -208t206.5 92.5t246 134.5t164 -7.5t72.5 -123.5l591 1672q35 106 143 109h117q111 -2 66 -150l-298 -845q-43 -134 -167.5 -493t-88.5 -458l-42 -18
q-71 144 -60 347t158 622l338 953h-40q-66 -1 -97 -108l-630 -1784l-38 17l16 45q16 116 -44.5 167t-169 4t-239 -132t-209.5 -87q-211 1 -222 215q9 295 173 453t348 171q146 8 259 -38z" />
    <glyph glyph-name="uniA9BE.disjointed_full" horiz-adv-x="549" 
d="M-355 -124q104 -37 231 83l11 -8q-66 -183 -200 -129t-217 54q-132 0 -268.5 -156t-162.5 -394q-2 -200 53 -208t206.5 92.5t246 134.5t164 -7.5t72.5 -123.5l591 1672q35 106 143 109h117q111 -2 66 -150l-298 -845h-200l338 953h-40q-66 -1 -97 -108l-630 -1784l-38 17
l16 45q16 116 -44.5 167t-169 4t-239 -132t-209.5 -87q-211 1 -222 215q9 295 173 453t348 171q146 8 259 -38z" />
    <glyph glyph-name="uniA9BE.disjointed_full_uniA9B8" horiz-adv-x="549" 
d="M-355 -124q104 -37 231 83l11 -8q-66 -183 -200 -129t-217 54q-132 0 -268.5 -156t-162.5 -394q-2 -200 53 -208t206.5 92.5t246 134.5t164 -7.5t72.5 -123.5l591 1672q35 106 143 109h117q111 -2 66 -150l-298 -845h-200l338 953h-40q-66 -1 -97 -108l-630 -1784l-38 17
l16 45q16 116 -44.5 167t-169 4t-239 -132t-209.5 -87q-211 1 -222 215q9 295 173 453t348 171q146 8 259 -38zM1725 -385l-18 -19q-54 30 -128 17.5t-477 -226.5q-389 -216 -742.5 -307.5t-548 -91.5t-220.5 75h12q47 -51 240 -37.5t695 229.5q528 276 798.5 377t388.5 -17
zM400 0q-182 -571 -314.5 -729.5t-261.5 -215.5l-12 24q108 69 388 921h200z" />
    <glyph glyph-name="uniA9BE.disjointed_full_uniA9B9" horiz-adv-x="549" 
d="M-355 -124q104 -37 231 83l11 -8q-66 -183 -200 -129t-217 54q-132 0 -268.5 -156t-162.5 -394q-2 -200 53 -208t206.5 92.5t246 134.5t164 -7.5t72.5 -123.5l591 1672q35 106 143 109h117q111 -2 66 -150l-298 -845h-200l338 953h-40q-66 -1 -97 -108l-630 -1784l-38 17
l16 45q16 116 -44.5 167t-169 4t-239 -132t-209.5 -87q-211 1 -222 215q9 295 173 453t348 171q146 8 259 -38zM340 -722q27 110 -33.5 151t-229 25t-275.5 -17.5t-145.5 35.5t-18 109t108 117t184.5 52l8 -22q-73 -14 -140.5 -40t-103 -77t-20 -96t102.5 -48t247 14.5
t246 4t120 -78t-6 -173.5t-228.5 -170.5t-440.5 -88.5l-5 25q242 32 422 100t207 178zM400 0q-182 -571 -314.5 -729.5t-261.5 -215.5l-12 24q108 69 388 921h200z" />
    <glyph glyph-name="uniA9BE.conj" horiz-adv-x="549" 
d="M-655 -1324q25 44 55 124h200q-79 -232 -213 -178t-217 54q-132 0 -268.5 -156t-162.5 -394q-2 -200 53 -208t206.5 92.5t246 134.5t164 -7.5t72.5 -123.5l1014 2872q35 106 143 109h117q111 -2 66 -150l-721 -2045q-43 -134 -167.5 -493t-88.5 -458l-42 -18
q-71 144 -60 347t158 622l761 2153h-40q-66 -1 -97 -108l-1053 -2984l-38 17l16 45q16 116 -44.5 167t-169 4t-239 -132t-209.5 -87q-211 1 -222 215q9 295 173 453t348 171q146 8 259 -38z" />
    <glyph glyph-name="uniA9BE.conj_alt" horiz-adv-x="549" 
d="M-655 -1324q25 44 55 124h200q-79 -232 -213 -178t-217 54q-132 0 -268.5 -156t-162.5 -394q-2 -200 53 -208t206.5 92.5t246 134.5t164 -7.5t72.5 -123.5l1014 2872q35 106 143 109h117q111 -2 66 -150l-721 -2045h-200l761 2153h-40q-66 -1 -97 -108l-1053 -2984
l-38 17l16 45q16 116 -44.5 167t-169 4t-239 -132t-209.5 -87q-211 1 -222 215q9 295 173 453t348 171q146 8 259 -38z" />
    <glyph glyph-name="uniA9BE.conj_full_uniA9B8.conj_" horiz-adv-x="549" 
d="M-655 -1324q25 44 55 124h200q-79 -232 -213 -178t-217 54q-132 0 -268.5 -156t-162.5 -394q-2 -200 53 -208t206.5 92.5t246 134.5t164 -7.5t72.5 -123.5l1014 2872q35 106 143 109h117q111 -2 66 -150l-721 -2045h-200l761 2153h-40q-66 -1 -97 -108l-1053 -2984
l-38 17l16 45q16 116 -44.5 167t-169 4t-239 -132t-209.5 -87q-211 1 -222 215q9 295 173 453t348 171q146 8 259 -38zM1425 -1585l-18 -19q-54 30 -128 17.5t-477 -226.5q-389 -216 -742.5 -307.5t-548 -91.5t-220.5 75h12q47 -51 240 -37.5t695 229.5q528 276 798.5 377
t388.5 -17zM100 -1200q-182 -571 -314.5 -729.5t-261.5 -215.5l-12 24q108 69 388 921h200z" />
    <glyph glyph-name="uniA9BE.conj_full_uniA9B9.conj_" horiz-adv-x="549" 
d="M-655 -1324q25 44 55 124h200q-79 -232 -213 -178t-217 54q-132 0 -268.5 -156t-162.5 -394q-2 -200 53 -208t206.5 92.5t246 134.5t164 -7.5t72.5 -123.5l1014 2872q35 106 143 109h117q111 -2 66 -150l-721 -2045h-200l761 2153h-40q-66 -1 -97 -108l-1053 -2984
l-38 17l16 45q16 116 -44.5 167t-169 4t-239 -132t-209.5 -87q-211 1 -222 215q9 295 173 453t348 171q146 8 259 -38zM40 -1922q27 110 -33.5 151t-229 25t-275.5 -17.5t-145.5 35.5t-18 109t108 117t184.5 52l8 -22q-73 -14 -140.5 -40t-103 -77t-20 -96t102.5 -48
t247 14.5t246 4t120 -78t-6 -173.5t-228.5 -170.5t-440.5 -88.5l-5 25q242 32 422 100t207 178zM100 -1200q-182 -571 -314.5 -729.5t-261.5 -215.5l-12 24q108 69 388 921h200z" />
    <glyph glyph-name="uniA9BE.conj_disjointed" horiz-adv-x="549" 
d="M-519 -1986l1014 2872q35 106 143 109h117q111 -2 66 -150l-721 -2045q-43 -134 -167.5 -493t-88.5 -458l-42 -18q-71 144 -60 347t158 622l761 2153h-40q-66 -1 -97 -108l-1053 -2984l-38 17l16 45zM-655 -1324q104 -37 231 83l11 -8q-66 -183 -200 -129t-217 54
q-132 0 -268.5 -156t-162.5 -394q-2 -200 53 -208t206.5 92.5t246 134.5t164 -7.5t72.5 -123.5l-10 -153l-38 17l16 45q16 116 -44.5 167t-169 4t-239 -132t-209.5 -87q-211 1 -222 215q9 295 173 453t348 171q146 8 259 -38z" />
    <glyph glyph-name="uniA9BE.conj_disjointed_full" horiz-adv-x="549" 
d="M-519 -1986l1014 2872q35 106 143 109h117q111 -2 66 -150l-721 -2045h-200l761 2153h-40q-66 -1 -97 -108l-1053 -2984l-38 17l16 45zM-655 -1324q104 -37 231 83l11 -8q-66 -183 -200 -129t-217 54q-132 0 -268.5 -156t-162.5 -394q-2 -200 53 -208t206.5 92.5
t246 134.5t164 -7.5t72.5 -123.5l-10 -153l-38 17l16 45q16 116 -44.5 167t-169 4t-239 -132t-209.5 -87q-211 1 -222 215q9 295 173 453t348 171q146 8 259 -38z" />
    <glyph glyph-name="uniA9BE.conj_disjointed_full_un" horiz-adv-x="549" 
d="M1425 -1585l-18 -19q-54 30 -128 17.5t-477 -226.5q-389 -216 -742.5 -307.5t-548 -91.5t-220.5 75h12q47 -51 240 -37.5t695 229.5q528 276 798.5 377t388.5 -17zM100 -1200q-182 -571 -314.5 -729.5t-261.5 -215.5l-12 24q108 69 388 921h200zM-519 -1986l1014 2872
q35 106 143 109h117q111 -2 66 -150l-721 -2045h-200l761 2153h-40q-66 -1 -97 -108l-1053 -2984l-38 17l16 45q16 116 -44.5 167t-169 4t-239 -132t-209.5 -87q-211 1 -222 215q9 295 173 453t348 171q146 8 259 -38q104 -37 231 83l11 -8q-66 -183 -200 -129t-217 54
q-132 0 -268.5 -156t-162.5 -394q-2 -200 53 -208t206.5 92.5t246 134.5t164 -7.5t72.5 -123.5z" />
    <glyph glyph-name="uniA9BE.conj_disjointed_full_un" horiz-adv-x="549" 
d="M-519 -1986l1014 2872q35 106 143 109h117q111 -2 66 -150l-721 -2045h-200l761 2153h-40q-66 -1 -97 -108l-1053 -2984l-38 17l16 45zM-655 -1324q104 -37 231 83l11 -8q-66 -183 -200 -129t-217 54q-132 0 -268.5 -156t-162.5 -394q-2 -200 53 -208t206.5 92.5
t246 134.5t164 -7.5t72.5 -123.5l-10 -153l-38 17l16 45q16 116 -44.5 167t-169 4t-239 -132t-209.5 -87q-211 1 -222 215q9 295 173 453t348 171q146 8 259 -38zM40 -1922q27 110 -33.5 151t-229 25t-275.5 -17.5t-145.5 35.5t-18 109t108 117t184.5 52l8 -22
q-73 -14 -140.5 -40t-103 -77t-20 -96t102.5 -48t247 14.5t246 4t120 -78t-6 -173.5t-228.5 -170.5t-440.5 -88.5l-5 25q242 32 422 100t207 178zM100 -1200q-182 -571 -314.5 -729.5t-261.5 -215.5l-12 24q108 69 388 921h200z" />
    <glyph glyph-name="uniA9BF" unicode="&#xa9bf;" horiz-adv-x="351" 
d="M1192 1498l7 -22q-171 -63 -325 -215.5t-320.5 -462t-233 -538t-83 -446t53.5 -268.5t156 -51q115 0 266.5 85t272.5 203l12 -24q-69 -82 -238.5 -192.5t-360.5 -107.5q-180 16 -260.5 127t-54 355.5t146.5 549.5q214 476 478.5 714.5t482.5 292.5z" />
    <glyph glyph-name="uniA9BF.conj" horiz-adv-x="501" 
d="M1292 1498l7 -22q-171 -103 -364.5 -310t-426.5 -645t-334 -888.5t-88.5 -741t96.5 -380.5t221 -88q115 0 266.5 85t272.5 203l12 -24q-69 -82 -238.5 -192.5t-360.5 -107.5q-242 4 -344.5 157.5t-101.5 472.5t95.5 693.5t317.5 795.5t487.5 659.5t482.5 332.5z" />
    <glyph glyph-name="uniA9BF.conj_short" horiz-adv-x="501" 
d="M1292 1498l7 -22q-171 -103 -364.5 -310t-426.5 -645t-334 -888.5t-88.5 -741t96.5 -380.5t221 -88q115 0 266.5 85t272.5 203l12 -24q-69 -82 -238.5 -192.5t-360.5 -107.5q-242 4 -344.5 157.5t-101.5 472.5t95.5 693.5t317.5 795.5t487.5 659.5t482.5 332.5z" />
    <glyph glyph-name="uniA9BF_uniA9B8.conj_large" 
d="M-2135 -1366q-87 -83 -70.5 -208t152.5 -131q115 0 506 83.5t644 80.5l1 -22q-250 -13 -667.5 -104t-581 -76.5t-170.5 160.5t174 232zM-400 -1200q-168 -494 -357 -626.5t-338 -174.5l-12 24q251 70 507 777h200zM-496 -1629q249 -57 238 -249t-347 -244t-839 -35l2 22
q484 2 807.5 57t323.5 217.5t-191 211.5z" />
    <glyph glyph-name="uniA9BF_uniA9B8.conj_med" 
d="M-2135 -1366q-87 -83 -70.5 -208t152.5 -131q115 0 506 83.5t644 80.5l1 -22q-250 -13 -667.5 -104t-581 -76.5t-170.5 160.5t174 232zM-400 -1200q-168 -494 -357 -626.5t-338 -174.5l-12 24q251 70 507 777h200zM-496 -1629q249 -57 238 -249t-347 -244t-839 -35l2 22
q484 2 807.5 57t323.5 217.5t-191 211.5z" />
    <glyph glyph-name="uniA9BF_uniA9B8.conj_small" 
d="M-2135 -1366q-87 -83 -70.5 -208t152.5 -131q115 0 506 83.5t644 80.5l1 -22q-250 -13 -667.5 -104t-581 -76.5t-170.5 160.5t174 232zM-400 -1200q-168 -494 -357 -626.5t-338 -174.5l-12 24q251 70 507 777h200zM-496 -1629q249 -57 238 -249t-347 -244t-839 -35l2 22
q484 2 807.5 57t323.5 217.5t-191 211.5z" />
    <glyph glyph-name="uniA9C0" unicode="&#xa9c0;" horiz-adv-x="500" 
d="M-251 -877q16 116 -44.5 167t-169 4t-239 -132t-209.5 -87q-211 1 -222 215q9 295 173 453t348 170.5t264 -73.5l-10 -22q-79 58 -170 58q-132 0 -268.5 -156t-162.5 -394q-2 -200 53 -208t206.5 92.5t246 134.5t164 -7.5t72.5 -123.5l591 1672q35 106 143 109h117
q111 -2 66 -150l-298 -845q-43 -134 -167.5 -493t-88.5 -458l-42 -18q-71 144 -60 347t158 622l338 953h-40q-66 -1 -97 -108l-630 -1784l-38 17z" />
    <glyph glyph-name="uniA9C1" unicode="&#xa9c1;" horiz-adv-x="2110" 
d="M1892 265q-630 -110 -1119 -48q-520 67 -684 146q-42 16 -57 48t-1 68q13 35 47.5 53t69.5 8q34 -11 49 -42.5t1 -67.5q-7 -19 -15 -27q107 -64 614 -135q475 -66 1095 22v-25zM1974 140q-124 -306 -274 -457q-154 -157 -325 -213q-86 -23 -119 7.5t-20.5 74.5t45.5 62
q34 18 68.5 8t48.5 -42q8 -17 8 -28q127 30 275 176q138 135 272 420zM1928 191q-409 -278 -703 -377q-309 -94 -537 -75q-109 12 -112 85q3 36 21.5 57t55.5 26q37 6 64.5 -16.5t28.5 -59.5q1 -18 -3 -29q180 -10 475 56q281 89 697 352zM1939 476q-282 125 -403 274
q-126 155 -147 325q-6 86 31.5 119t79 20.5t53.5 -46.5q9 -34 -7 -68.5t-53 -47.5q-18 -8 -29 -8q5 -127 121 -274q108 -138 366 -273zM1914 381q-467 32 -737 139q-279 121 -427 284q-68 79 -22 141q24 29 51 34.5t57 -14.5q29 -19 33.5 -55t-18.5 -68q-10 -16 -20 -22
q120 -124 369 -259q256 -106 718 -156z" />
    <glyph glyph-name="uniA9C2" unicode="&#xa9c2;" horiz-adv-x="2110" 
d="M165 413q630 110 1119 48q520 -67 684 -146q42 -16 57 -48t1 -68q-13 -35 -47.5 -53t-69.5 -8q-34 11 -49 42.5t-1 67.5q7 19 15 27q-107 64 -614 135q-475 66 -1095 -22v25zM83 538q124 306 274 457q154 157 325 213q86 23 119 -7.5t20.5 -74.5t-45.5 -62
q-34 -18 -68.5 -8t-48.5 42q-8 17 -8 28q-127 -30 -275 -176q-138 -135 -272 -420zM129 487q409 278 703 377q309 94 537 75q109 -12 112 -85q-3 -36 -21.5 -57t-55.5 -26q-37 -6 -64.5 16.5t-28.5 59.5q-1 18 3 29q-180 10 -475 -56q-281 -89 -697 -352zM118 202
q282 -125 403 -274q126 -155 147 -325q6 -86 -31.5 -119t-79 -20.5t-53.5 46.5q-9 34 7 68.5t53 47.5q18 8 29 8q-5 127 -121 274q-108 138 -366 273zM143 297q467 -32 737 -139q279 -121 427 -284q68 -79 22 -141q-24 -29 -51 -34.5t-57 14.5q-29 19 -33.5 55t18.5 68
q10 16 20 22q-120 124 -369 259q-256 106 -718 156z" />
    <glyph glyph-name="uniA9C3" unicode="&#xa9c3;" horiz-adv-x="4302" 
d="M1867 -1682q16 116 -44.5 167t-159.5 12t-423.5 -148t-650 -62.5t-534.5 361t-145 829.5t399.5 916t932.5 605l6 -18q-476 -230 -774.5 -629.5t-357.5 -904.5t72.5 -785.5t425.5 -327.5t624 63t424.5 144t164 -7.5t72.5 -123.5l875 2477q35 106 143 109h117
q111 -2 66 -150l-582 -1650q-43 -134 -167.5 -493t-88.5 -458l-42 -18q-71 144 -60 347t158 622l622 1758h-40q-66 -1 -97 -108l-914 -2589l-38 17zM3267 -1682q16 116 -44.5 167t-169 4t-239 -132t-209.5 -87q-211 1 -222 215q9 295 173 453t348 170.5t264 -73.5l-10 -22
q-79 58 -170 58q-132 0 -268.5 -156t-162.5 -394q-2 -200 53 -208t206.5 92.5t246 134.5t164 -7.5t72.5 -123.5l875 2477q35 106 143 109h117q111 -2 66 -150l-582 -1650q-43 -134 -167.5 -493t-88.5 -458l-42 -18q-71 144 -60 347t158 622l622 1758h-40q-66 -1 -97 -108
l-914 -2589l-38 17zM2411 957q-136 1 -249 -133q-20 134 -124 134q-105 0 -161.5 -90.5t-30.5 -183.5l-12 -11q-38 61 -13.5 156t104.5 137t159 22t98 -100q114 107 275 108q90 0 104 -65.5t-22 -163.5l-38 -110l-76 -219l-153 -438h-200zM1683 37q-31 65 18 192h16
q29 -111 221 -203l-7 -31h-523q-111 2 -66 150l274 778q11 30 -15 30h-36q-134 2 -208 -207l-89 -241q-94 -271 -99 -356.5t46 -138.5l-15 -15q-80 29 -76.5 149t103.5 373l95 261q79 221 263 217h70q177 -2 89 -275l-241 -683h180zM1630 -200l9 -29q-246 -60 -385 -218
t-140 -413q5 -135 86.5 -212.5t260.5 -83.5q152 3 279.5 70t134 201.5t-115 147t-234.5 -49.5l-5 34q358 138 1028 220t1231.5 -34t633.5 -430l-18 -13q-185 235 -814 350.5t-1115.5 58t-664.5 -101.5q137 -37 124 -188t-148 -227t-324 -80q-253 -6 -376.5 89t-137.5 261
q-5 279 186 447.5t505 200.5z" />
    <glyph glyph-name="uniA9C4" unicode="&#xa9c4;" horiz-adv-x="4302" 
d="M1867 -1682q16 116 -44.5 167t-159.5 12t-423.5 -148t-650 -62.5t-534.5 361t-145 829.5t399.5 916t932.5 605l6 -18q-476 -230 -774.5 -629.5t-357.5 -904.5t72.5 -785.5t425.5 -327.5t624 63t424.5 144t164 -7.5t72.5 -123.5l875 2477q35 106 143 109h117
q111 -2 66 -150l-582 -1650q-43 -134 -167.5 -493t-88.5 -458l-42 -18q-71 144 -60 347t158 622l622 1758h-40q-66 -1 -97 -108l-914 -2589l-38 17zM3267 -1682q16 116 -44.5 167t-169 4t-239 -132t-209.5 -87q-211 1 -222 215q9 295 173 453t348 170.5t264 -73.5l-10 -22
q-79 58 -170 58q-132 0 -268.5 -156t-162.5 -394q-2 -200 53 -208t206.5 92.5t246 134.5t164 -7.5t72.5 -123.5l875 2477q35 106 143 109h117q111 -2 66 -150l-582 -1650q-43 -134 -167.5 -493t-88.5 -458l-42 -18q-71 144 -60 347t158 622l622 1758h-40q-66 -1 -97 -108
l-914 -2589l-38 17zM2411 957q-136 1 -249 -133q-20 134 -124 134q-105 0 -161.5 -90.5t-30.5 -183.5l-12 -11q-38 61 -13.5 156t104.5 137t159 22t98 -100q114 107 275 108q90 0 104 -65.5t-22 -163.5l-38 -110l-76 -219l-153 -438h-200zM1683 37q-31 65 18 192h16
q29 -111 221 -203l-7 -31h-523q-111 2 -66 150l274 778q11 30 -15 30h-36q-134 2 -208 -207l-89 -241q-94 -271 -99 -356.5t46 -138.5l-15 -15q-80 29 -76.5 149t103.5 373l95 261q79 221 263 217h70q177 -2 89 -275l-241 -683h180zM1630 -200l9 -29q-246 -60 -385 -218
t-140 -413q5 -135 86.5 -212.5t260.5 -83.5q152 3 279.5 70t134 201.5t-115 147t-234.5 -49.5l-5 34q358 138 1028 220t1231.5 -34t633.5 -430l-18 -13q-185 235 -814 350.5t-1115.5 58t-664.5 -101.5q137 -37 124 -188t-148 -227t-324 -80q-253 -6 -376.5 89t-137.5 261
q-5 279 186 447.5t505 200.5z" />
    <glyph glyph-name="uniA9C5" unicode="&#xa9c5;" horiz-adv-x="4302" 
d="M1867 -1682q16 116 -44.5 167t-159.5 12t-423.5 -148t-650 -62.5t-534.5 361t-145 829.5t399.5 916t932.5 605l6 -18q-476 -230 -774.5 -629.5t-357.5 -904.5t72.5 -785.5t425.5 -327.5t624 63t424.5 144t164 -7.5t72.5 -123.5l875 2477q35 106 143 109h117
q111 -2 66 -150l-582 -1650q-43 -134 -167.5 -493t-88.5 -458l-42 -18q-71 144 -60 347t158 622l622 1758h-40q-66 -1 -97 -108l-914 -2589l-38 17zM3267 -1682q16 116 -44.5 167t-169 4t-239 -132t-209.5 -87q-211 1 -222 215q9 295 173 453t348 170.5t264 -73.5l-10 -22
q-79 58 -170 58q-132 0 -268.5 -156t-162.5 -394q-2 -200 53 -208t206.5 92.5t246 134.5t164 -7.5t72.5 -123.5l875 2477q35 106 143 109h117q111 -2 66 -150l-582 -1650q-43 -134 -167.5 -493t-88.5 -458l-42 -18q-71 144 -60 347t158 622l622 1758h-40q-66 -1 -97 -108
l-914 -2589l-38 17zM2411 957q-136 1 -249 -133q-20 134 -124 134q-105 0 -161.5 -90.5t-30.5 -183.5l-12 -11q-38 61 -13.5 156t104.5 137t159 22t98 -100q114 107 275 108q90 0 104 -65.5t-22 -163.5l-38 -110l-76 -219l-153 -438h-200zM1683 37q-31 65 18 192h16
q29 -111 221 -203l-7 -31h-523q-111 2 -66 150l274 778q11 30 -15 30h-36q-134 2 -208 -207l-89 -241q-94 -271 -99 -356.5t46 -138.5l-15 -15q-80 29 -76.5 149t103.5 373l95 261q79 221 263 217h70q177 -2 89 -275l-241 -683h180zM1630 -200l9 -29q-246 -60 -385 -218
t-140 -413q5 -135 86.5 -212.5t260.5 -83.5q152 3 279.5 70t134 201.5t-115 147t-234.5 -49.5l-5 34q358 138 1028 220t1231.5 -34t633.5 -430l-18 -13q-185 235 -814 350.5t-1115.5 58t-664.5 -101.5q137 -37 124 -188t-148 -227t-324 -80q-253 -6 -376.5 89t-137.5 261
q-5 279 186 447.5t505 200.5z" />
    <glyph glyph-name="uniA9C6" unicode="&#xa9c6;" horiz-adv-x="943" 
d="M187 132.5q-56 136.5 -25 308t109 298t189.5 203.5t258 70.5t222.5 -95t76 -227t-45 -265.5q-81 -235 -223 -343t-324 -97t-238 147.5zM224.5 163q48.5 -117 162.5 -128.5t192 73t140 226t93 293.5t3 240t-130.5 97.5t-188.5 -48.5t-170 -185t-117 -289t15.5 -279z" />
    <glyph glyph-name="uniA9C7" unicode="&#xa9c7;" horiz-adv-x="609" 
d="M419 658q-46 3 -72 29t-26 63t26 63t63 26t63 -26t26 -63q0 -19 -4 -29q82 26 169 118l23 -20q-104 -169 -268 -161zM259 178q-46 3 -72 29t-26 63t26 63t63 26t63 -26t26 -63q0 -19 -4 -29q82 26 169 118l23 -20q-104 -169 -268 -161z" />
    <glyph glyph-name="uniA9C8" unicode="&#xa9c8;" horiz-adv-x="900" 
d="M831 -4l-24 -9l-317 240l20 26l311 -101q14 44 -1 223t-120.5 318t-336.5 257l11 23q251 -108 360.5 -248t133.5 -345t-37 -384z" />
    <glyph glyph-name="uniA9C9" unicode="&#xa9c9;" horiz-adv-x="1257" 
d="M831 -4l-24 -9l-317 240l20 26l311 -101q14 44 -1 223t-120.5 318t-336.5 257l11 23q251 -108 360.5 -248t133.5 -345t-37 -384zM1181 -4l-24 -9l-317 240l20 26l311 -101q14 44 -1 223t-120.5 318t-336.5 257l11 23q251 -108 360.5 -248t133.5 -345t-37 -384z" />
    <glyph glyph-name="uniA9CA" unicode="&#xa9ca;" horiz-adv-x="450" 
d="M265 995h217q111 -2 66 -150l-298 -845q-43 -134 -167.5 -493t-88.5 -458l-42 -18q-71 144 -60 347t158 622l338 953h-140z" />
    <glyph glyph-name="uniA9CB" unicode="&#xa9cb;" horiz-adv-x="820" 
d="M265 995h217q111 -2 66 -150l-298 -845q-43 -134 -167.5 -493t-88.5 -458l-42 -18q-71 144 -60 347t158 622l338 953h-140zM635 995h217q111 -2 66 -150l-298 -845q-43 -134 -167.5 -493t-88.5 -458l-42 -18q-71 144 -60 347t158 622l338 953h-140z" />
    <glyph glyph-name="uniA9CC" unicode="&#xa9cc;" horiz-adv-x="450" 
d="M265 995h217q111 -2 66 -150l-298 -845q-43 -134 -167.5 -493t-88.5 -458l-42 -18q-71 144 -60 347t158 622l338 953h-140zM902.5 1655.5q-15.5 62.5 -122.5 32t-170.5 -52t-129 -39.5t-96 14t-5.5 119.5t178 214.5t309 165l8 -22q-138 -56 -246.5 -140t-161 -159
t-48 -115t49.5 -33.5t138.5 41.5t204.5 62t190 -19.5t53 -171t-233 -258t-460 -215.5l-11 23q165 103 366.5 297t186 256.5z" />
    <glyph glyph-name="uniA9CD" unicode="&#xa9cd;" horiz-adv-x="450" 
d="M386 145h-217q-111 2 -66 150l298 845q43 134 167.5 493t88.5 458l42 18q71 -144 60 -347t-158 -622l-338 -953h140zM-251.5 -515.5q15.5 -62.5 122.5 -32t170.5 52t129 39.5t96 -14t5.5 -119.5t-178 -214.5t-309 -165l-8 22q138 56 246.5 140t161 159t48 115t-49.5 33.5
t-138.5 -41.5t-204.5 -62t-190 19.5t-53 171t233 258t460 215.5l11 -23q-165 -103 -366.5 -297t-186 -256.5z" />
    <glyph glyph-name="uniA9CF" unicode="&#xa9cf;" horiz-adv-x="689" 
d="M215 1011h528l-11 -49h-345q133 -524 -142 -964l-33 1q160 466 -30 966z" />
    <glyph glyph-name="uniA9D0" unicode="&#xa9d0;" horiz-adv-x="943" 
d="M187 132.5q-56 136.5 -25 308t109 298t189.5 203.5t258 70.5t222.5 -95t76 -227t-45 -265.5q-81 -235 -223 -343t-324 -97t-238 147.5zM224.5 163q48.5 -117 162.5 -128.5t192 73t140 226t93 293.5t3 240t-130.5 97.5t-188.5 -48.5t-170 -185t-117 -289t15.5 -279z" />
    <glyph glyph-name="uniA9D1" unicode="&#xa9d1;" horiz-adv-x="1669" 
d="M1170 953h-173q-66 -1 -97 -108l-259 -732q-39 -113 -158 -113h-189l183 518l43 119l21 59l10 30q11 30 -15 30h-36q-134 2 -208 -207l-19 -44q-94 -271 -99 -356.5t46 -138.5l-15 -15q-80 29 -76.5 149t103.5 373l25 64q79 221 263 217h70q177 -2 89 -275l-166 -470
q60 -7 85 69l273 764q35 106 143 109h250q111 -2 66 -150l-279 -792q60 -7 85 69l273 764q35 106 143 109h250q111 -2 66 -150l-298 -845h-200l338 953h-173q-66 -1 -97 -108l-259 -732q-39 -113 -158 -113h-189z" />
    <glyph glyph-name="uniA9D2" unicode="&#xa9d2;" horiz-adv-x="2007" 
d="M1439 957q-136 1 -249 -133q-20 134 -124 134q-105 0 -161.5 -90.5t-30.5 -183.5l-12 -11q-38 61 -13.5 156t104.5 137t159 22t98 -100q114 107 275 108q90 0 104 -65.5t-22 -163.5l-38 -110l-76 -219l-153 -438h-200zM711 37q-31 65 18 192h16q29 -111 221 -203l-7 -31
h-523q-111 2 -66 150l274 778q11 30 -15 30h-36q-134 2 -208 -207l-89 -241q-94 -271 -99 -356.5t46 -138.5l-15 -15q-80 29 -76.5 149t103.5 373l95 261q79 221 263 217h70q177 -2 89 -275l-241 -683h180zM535 -930q-176 -52 -326.5 25t-152.5 268.5t148 352.5t394 180.5
t511.5 -59.5t474.5 -82l-3 -24q-248 -11 -495.5 67t-467.5 57t-356.5 -146t-150.5 -311t106 -259.5t296 -33.5q263 78 587 895h200q-206 -558 -390.5 -719t-374.5 -211z" />
    <glyph glyph-name="uniA9D3" unicode="&#xa9d3;" horiz-adv-x="1850" 
d="M1339 957q-136 1 -249 -133q-20 134 -124 134q-105 0 -161.5 -90.5t-30.5 -183.5l-12 -11q-38 61 -13.5 156t104.5 137t159 22t98 -100q114 107 275 108q90 0 104 -65.5t-22 -163.5l-38 -110l-76 -219l-153 -438h-200zM611 37q-31 65 18 192h16q29 -111 221 -203l-7 -31
h-523q-111 2 -66 150l274 778q11 30 -15 30h-36q-134 2 -208 -207l-89 -241q-94 -271 -99 -356.5t46 -138.5l-15 -15q-80 29 -76.5 149t103.5 373l95 261q79 221 263 217h70q177 -2 89 -275l-241 -683h180zM945 -124q25 44 55 124h200q-79 -232 -213 -178t-217 54
q-132 0 -268.5 -156t-162.5 -394q-2 -200 53 -208t206.5 92.5t246 134.5t164 -7.5t72.5 -123.5l591 1672q35 106 143 109h117q111 -2 66 -150l-298 -845q-43 -134 -167.5 -493t-88.5 -458l-42 -18q-71 144 -60 347t158 622l338 953h-40q-66 -1 -97 -108l-630 -1784l-38 17
l16 45q16 116 -44.5 167t-169 4t-239 -132t-209.5 -87q-211 1 -222 215q9 295 173 453t348 171q146 8 259 -38z" />
    <glyph glyph-name="uniA9D4" unicode="&#xa9d4;" horiz-adv-x="1100" 
d="M1026 1161q-277 8 -453 -131t-248 -378t-2.5 -403.5t200 -207t225 -4t121.5 182t-32.5 234.5t-133.5 105l8 30q85 -5 147 27t85 143.5t-17.5 149.5t-97.5 24.5t-103 -78.5l-19 8q25 80 105 110.5t192 1.5t138 -129.5t-33.5 -188t-222.5 -98.5q146 -44 175 -196
t-52 -262.5t-273 -123.5q-296 -16 -415.5 171.5t-52.5 467.5t265.5 433t495.5 135z" />
    <glyph glyph-name="uniA9D5" unicode="&#xa9d5;" horiz-adv-x="1306" 
d="M1447.5 957q126.5 -194 1.5 -534l-149 -423q-43 -134 -167.5 -493t-88.5 -458l-42 -18q-71 144 -60 347t158 622l169 477q108 261 55 454.5t-302 219.5q-274 17 -449 -121q-176 -139 -248 -378t-2.5 -403.5t200 -207t225 -4t121.5 182t-32.5 234.5t-133.5 105l8 30
q85 -5 147 27t85 143.5t-17.5 149.5t-97.5 24.5t-103 -78.5l-19 8q25 80 105 110.5t192 1.5t138 -129.5t-33.5 -188t-222.5 -98.5q146 -44 175 -196t-52 -262.5t-273 -123.5q-296 -16 -415.5 171.5t-52.5 467.5t265.5 433t495.5 125q293 -23 419.5 -217z" />
    <glyph glyph-name="uniA9D6" unicode="&#xa9d6;" horiz-adv-x="1152" 
d="M524 670q-142 -206 -216 -444q-42 -200 11.5 -208t240.5 82.5t312 130t184 -13t-15 -225.5l-25 6q5 88 -125.5 118.5t-328 -54.5t-276.5 -87q-211 1 -179 215q68 295 258.5 511.5t363.5 264t221 -13.5t-0.5 -146t-187.5 -151l-7 22q87 66 128.5 131t8.5 115t-134.5 -12
t-233.5 -241z" />
    <glyph glyph-name="uniA9D7" unicode="&#xa9d7;" horiz-adv-x="1749" 
d="M1031 37h172q66 1 107 108l262 741q35 106 143 109h117q111 -2 66 -150l-298 -845h-200l338 953h-40q-66 -1 -97 -108l-261 -741q-35 -106 -143 -109v2q-20 -4 -43 -2h-218q-111 2 -66 150l201 570l43 119l21 59l10 30q11 30 -15 30h-102q-134 2 -208 -206l-122 -333
q-52 -132 -53 -231t110 -166l-5 -17h-493l169 476l84 239l43 119l21 59l10 30q11 30 -15 30h-36q-134 2 -208 -206l-89 -242q-94 -271 -99 -356.5t46 -138.5l-15 -15q-80 29 -76.5 149t103.5 373l95 261q79 221 263 217h70q177 -2 89 -275l-241 -682h203q-73 48 -70 148.5
t53 239.5l128 352q79 221 263 217h136q166 -2 99 -242z" />
    <glyph glyph-name="uniA9D8" unicode="&#xa9d8;" horiz-adv-x="1401" 
d="M1134 531q-30 38 -64 76q-115 121 -136 223.5t17.5 141t102.5 12t104 -145t18 -290.5q76 -84 149 -178q106 -138 66 -305t-266 -280l-25 15q97 106 132.5 254.5t8.5 256t-74 175.5q-30 -162 -116 -311q-96 -167 -249 -175q-16 -1 -40 3q-79 20 -98 100
q-114 -107 -275 -108q-90 0 -104 65.5t22 164.5l244 699q11 30 -15 30h-36q-134 2 -208 -207l-89 -241q-94 -271 -99 -356.5t46 -138.5l-15 -15q-80 29 -76.5 149t103.5 373l95 261q79 221 263 217h70q177 -2 89 -275l-244 -687q137 -1 249 133q20 -133 122 -134
q133 12 221 176q81 152 107 322zM975.5 951q-23.5 -31 -2 -120.5t133.5 -206.5q17 -18 35 -37q16 160 -22.5 253.5t-79.5 117.5t-64.5 -7z" />
    <glyph glyph-name="uniA9D9" unicode="&#xa9d9;" horiz-adv-x="1700" 
d="M1158 953h-40q-66 -1 -97 -108l-261 -741q-35 -106 -156 -109h-248q-111 2 -66 150l274 778q11 30 -15 30h-36q-134 2 -208 -207l-89 -241q-94 -271 -99 -356.5t46 -138.5l-15 -15q-80 29 -76.5 149t103.5 373l95 261q79 221 263 217h70q177 -2 89 -275l-241 -683h172
q66 1 107 108l262 741q35 106 143 109h117q111 -2 66 -150l-285 -809h172q66 1 107 108l262 741q35 106 143 109h117q111 -2 66 -150l-298 -845h-200l338 953h-40q-66 -1 -97 -108l-261 -741q-35 -106 -156 -109h-248q-111 2 -66 150z" />
    <glyph glyph-name="uniA9DE" unicode="&#xa9de;" horiz-adv-x="943" 
d="M177 142.5q-66 146.5 20.5 363.5t521.5 507q241 -338 216.5 -580.5t-176.5 -350.5t-334 -97t-248 157.5zM214.5 173q58.5 -127 172.5 -138.5t202 73t114.5 301.5t-48.5 506q-324 -213 -411.5 -414t-29 -328z" />
    <glyph glyph-name="uniA9DF" unicode="&#xa9df;" horiz-adv-x="1100" 
d="M984 995h250q111 -2 66 -150l-298 -845h-200l338 953h-40h-133q-66 -1 -97 -108l-258 -731q-40 -114 -159 -114h-189l253 715l43 119l21 59l10 30q11 30 -15 30h-36q-134 2 -208 -207l-89 -241q-94 -271 -99 -356.5t46 -138.5l-15 -15q-80 29 -76.5 149t103.5 373l95 261
q79 221 263 217h70q177 -2 89 -275l-236 -667q60 -7 86 70l272 763q35 106 143 109z" />
    <glyph glyph-name="uniA98F_uniA9BF" unicode="&#xe098;" horiz-adv-x="2049" 
d="M1192 1498l7 -22q-171 -63 -325 -215.5t-320.5 -462t-233 -538t-83 -446t53.5 -268.5t156 -51q115 0 266.5 85t272.5 203l12 -24q-69 -82 -238.5 -192.5t-360.5 -107.5q-180 16 -260.5 127t-54 355.5t146.5 549.5q214 476 478.5 714.5t482.5 292.5zM1176 340l-54 -150
q-24 -89 2 -126t66.5 -23t48 85t-5 126t-57.5 88zM769 746l-89 -241q-94 -271 -99 -356.5t46 -138.5l-15 -15q-80 29 -76.5 149t103.5 373l95 261q79 221 263 217h70q177 -2 89 -275l-116 -327q42 10 105 -1l179 494q35 106 143 109h260q111 -2 66 -150l-279 -792
q60 -7 86 69l272 764q35 106 143 109h117q111 -2 66 -150l-298 -845h-200l338 953h-40q-66 -1 -97 -108l-258 -732q-40 -113 -159 -113h-189l64 179l21 61l86 240l167 473h-172q-66 -1 -108 -108l-166 -472q87 -55 96 -166.5t-23.5 -160t-93 -49t-88.5 52t9 173.5l49 139
q-61 11 -105 2h-1l-129 -364h-200l169 476l84 239l43 119l21 59l10 30q11 30 -15 30h-36q-134 2 -208 -207z" />
    <glyph glyph-name="uniA990_uniA9BF" unicode="&#xe099;" horiz-adv-x="2049" 
d="M1192 1498l7 -22q-171 -63 -325 -215.5t-320.5 -462t-233 -538t-83 -446t53.5 -268.5t156 -51q115 0 266.5 85t272.5 203l12 -24q-69 -82 -238.5 -192.5t-360.5 -107.5q-180 16 -260.5 127t-54 355.5t146.5 549.5q214 476 478.5 714.5t482.5 292.5zM1176 340l-54 -150
q-24 -89 2 -126t66.5 -23t48 85t-5 126t-57.5 88zM769 746l-89 -241q-94 -271 -99 -356.5t46 -138.5l-15 -15q-80 29 -76.5 149t103.5 373l95 261q79 221 263 217h70q177 -2 89 -275l-116 -327q42 10 105 -1l179 494q35 106 143 109h260q111 -2 66 -150l-279 -792
q60 -7 86 69l272 764q35 106 143 109h117q111 -2 66 -150l-298 -845h-200l338 953h-40q-66 -1 -97 -108l-258 -732q-40 -113 -159 -113h-189l64 179l21 61l86 240l167 473h-172q-66 -1 -108 -108l-166 -472q87 -55 96 -166.5t-23.5 -160t-93 -49t-88.5 52t9 173.5l49 139
q-61 11 -105 2h-1l-129 -364h-200l169 476l84 239l43 119l21 59l10 30q11 30 -15 30h-36q-134 2 -208 -207zM1352.5 -644.5q-15.5 62.5 -122.5 32t-170.5 -52t-129 -39.5t-96 14t-5.5 119.5t178 214.5t309 165l8 -22q-138 -56 -246.5 -140t-161 -159t-48 -115t49.5 -33.5
t138.5 41.5t204.5 62t190 -19.5t53 -171t-233 -258t-460 -215.5l-11 23q165 103 366.5 297t186 256.5z" />
    <glyph glyph-name="uniA991_uniA9BF" unicode="&#xe09a;" horiz-adv-x="2102" 
d="M1192 1498l7 -22q-171 -63 -325 -215.5t-320.5 -462t-233 -538t-83 -446t53.5 -268.5t156 -51q115 0 266.5 85t272.5 203l12 -24q-69 -82 -238.5 -192.5t-360.5 -107.5q-180 16 -260.5 127t-54 355.5t146.5 549.5q214 476 478.5 714.5t482.5 292.5zM1193 340l-54 -150
q-24 -89 2 -126t66.5 -23t48 85t-5 126t-57.5 88zM1671 449l-140 -396q140 -7 406.5 516t474.5 426l-2 -26q-181 83 -445.5 -443t-463.5 -526h-189l64 179l21 61l86 240l167 473h-172q-66 -1 -108 -108l-166 -472q87 -55 96 -166.5t-23.5 -160t-93 -49t-88.5 52t9 173.5
l49 139q-61 11 -105 2h-1l-129 -364h-200l169 476l84 239l43 119l21 59l10 30q11 30 -15 30h-36q-134 2 -208 -207l-89 -241q-94 -271 -99 -356.5t46 -138.5l-15 -15q-80 29 -76.5 149t103.5 373l95 261q79 221 263 217h70q177 -2 89 -275l-116 -327q42 10 105 -1l179 494
q35 106 143 109h260q111 -2 66 -150z" />
    <glyph glyph-name="uniA992_uniA9BF" unicode="&#xe09b;" horiz-adv-x="2150" 
d="M1192 1498l7 -22q-171 -63 -325 -215.5t-320.5 -462t-233 -538t-83 -446t53.5 -268.5t156 -51q115 0 266.5 85t272.5 203l12 -24q-69 -82 -238.5 -192.5t-360.5 -107.5q-180 16 -260.5 127t-54 355.5t146.5 549.5q214 476 478.5 714.5t482.5 292.5zM1602 953h-173
q-66 -1 -97 -108l-259 -732q-39 -113 -158 -113h-189l183 518l43 119l21 59l10 30q11 30 -15 30h-36q-134 2 -208 -207l-19 -44q-94 -271 -99 -356.5t46 -138.5l-15 -15q-80 29 -76.5 149t103.5 373l25 64q79 221 263 217h70q177 -2 89 -275l-166 -470q60 -7 85 69l273 764
q35 106 143 109h250q111 -2 66 -150l-279 -792q60 -7 85 69l273 764q35 106 143 109h250q111 -2 66 -150l-298 -845h-200l338 953h-173q-66 -1 -97 -108l-259 -732q-39 -113 -158 -113h-189z" />
    <glyph glyph-name="uniA993_uniA9BF" unicode="&#xe09c;" horiz-adv-x="2558" 
d="M1192 1498l7 -22q-171 -63 -325 -215.5t-320.5 -462t-233 -538t-83 -446t53.5 -268.5t156 -51q115 0 266.5 85t272.5 203l12 -24q-69 -82 -238.5 -192.5t-360.5 -107.5q-180 16 -260.5 127t-54 355.5t146.5 549.5q214 476 478.5 714.5t482.5 292.5zM1528 953
q-134 2 -208 -206l-122 -333q-52 -132 -53 -231t110 -166l-5 -17h-493l169 476l84 239l43 119l21 59l10 30q11 30 -15 30h-36q-134 2 -208 -206l-89 -242q-94 -271 -99 -356.5t46 -138.5l-15 -15q-80 29 -76.5 149t103.5 373l95 261q79 221 263 217h70q177 -2 89 -275
l-241 -682h203q-73 48 -70 148.5t53 239.5l128 352q79 221 263 217h141q177 -2 89 -275l-243 -686q137 -1 249 133q20 -133 122 -134q133 12 221 176q87 163 111 347t-25.5 272t-126.5 125h-143l17 42h672q111 -2 66 -150l-298 -845h-200l338 953h-398q68 -29 114 -133.5
t20 -290t-123 -354.5q-96 -167 -249 -175q-16 -1 -40 3q-79 20 -98 100q-114 -107 -275 -108q-90 0 -104 65.5t22 164.5l243 698q11 30 -15 30h-107z" />
    <glyph glyph-name="uniA994_uniA9BF" unicode="&#xe09d;" horiz-adv-x="1854" 
d="M1192 1498l7 -22q-171 -63 -325 -215.5t-320.5 -462t-233 -538t-83 -446t53.5 -268.5t156 -51q115 0 266.5 85t272.5 203l12 -24q-69 -82 -238.5 -192.5t-360.5 -107.5q-180 16 -260.5 127t-54 355.5t146.5 549.5q214 476 478.5 714.5t482.5 292.5zM1839 957
q-136 1 -249 -133q-20 134 -124 134q-105 0 -161.5 -90.5t-30.5 -183.5l-12 -11q-38 61 -13.5 156t104.5 137t159 22t98 -100q114 107 275 108q90 0 104 -65.5t-22 -163.5l-38 -110l-76 -219l-153 -438h-200zM1111 37q-31 65 18 192h16q29 -111 221 -203l-7 -31h-523
q-111 2 -66 150l274 778q11 30 -15 30h-36q-134 2 -208 -207l-89 -241q-94 -271 -99 -356.5t46 -138.5l-15 -15q-80 29 -76.5 149t103.5 373l95 261q79 221 263 217h70q177 -2 89 -275l-241 -683h180z" />
    <glyph glyph-name="uniA995_uniA9BF" unicode="&#xe09e;" horiz-adv-x="2042" 
d="M1192 1498l7 -22q-171 -63 -325 -215.5t-320.5 -462t-233 -538t-83 -446t53.5 -268.5t156 -51q115 0 266.5 85t272.5 203l12 -24q-69 -82 -238.5 -192.5t-360.5 -107.5q-180 16 -260.5 127t-54 355.5t146.5 549.5q214 476 478.5 714.5t482.5 292.5zM914 132l33 99
q-51 -15 -77.5 -40t-36.5 -60.5t-2.5 -65.5t27.5 -28t44 62zM1134 200q-37 -96 -89.5 -150t-127 -60t-105.5 30.5t-22 99t63.5 103.5t108.5 45l201 566l21 59l10 30q11 30 -15 30h-136q-134 2 -208 -206l-89 -242q-94 -271 -99 -356.5t46 -138.5l-15 -15q-80 29 -76.5 149
t103.5 373l95 261q79 221 263 217h170q177 -2 89 -275l-168 -480q76 -131 148 -178.5t164 -12t170 179t102 327.5t-25.5 272t-126.5 125h-143l17 42h672q111 -2 66 -150l-298 -845h-200l338 953h-398q68 -29 114 -133.5t20 -290t-123.5 -355t-244.5 -175.5q-92 -6 -167 65
t-105 136z" />
    <glyph glyph-name="uniA996_uniA9BF" unicode="&#xe09f;" horiz-adv-x="2503" 
d="M1192 1498l7 -22q-171 -63 -325 -215.5t-320.5 -462t-233 -538t-83 -446t53.5 -268.5t156 -51q115 0 266.5 85t272.5 203l12 -24q-69 -82 -238.5 -192.5t-360.5 -107.5q-180 16 -260.5 127t-54 355.5t146.5 549.5q214 476 478.5 714.5t482.5 292.5zM867 53q99 -2 168 186
l230 647q35 106 143 109h150q111 -2 66 -150l-279 -792q60 -7 86 69l272 764q35 106 143 109h150q111 -2 66 -150l-279 -792q60 -7 86 69l253 708q40 106 124.5 140t196.5 5t138 -129.5t-33.5 -188t-222.5 -98.5q146 -44 175 -196t-52 -262.5t-269 -105.5v29
q103 52 130 195.5t-32.5 234.5t-133.5 105l8 30q85 -5 147 27t85 143.5t-17.5 149.5t-103.5 20t-104 -122l-246 -694q-40 -113 -159 -113h-189l338 953h-73q-66 -1 -97 -108l-258 -732q-40 -113 -159 -113h-189l338 953h-73q-66 -1 -97 -108l-216 -615q-82 -230 -231 -230
h-19q-254 -1 -254 253.5t190.5 471t521.5 312.5l9 -23q-240 -142 -377 -334.5t-165.5 -406t114.5 -220.5z" />
    <glyph glyph-name="uniA997_uniA9BF" unicode="&#xe0a0;" horiz-adv-x="1799" 
d="M1192 1498l7 -22q-171 -63 -325 -215.5t-320.5 -462t-233 -538t-83 -446t53.5 -268.5t156 -51q115 0 266.5 85t272.5 203l12 -24q-69 -82 -238.5 -192.5t-360.5 -107.5q-180 16 -260.5 127t-54 355.5t146.5 549.5q214 476 478.5 714.5t482.5 292.5zM1231 513l-10 53
q181 162 548 387h-91q-334 2 -454 -330l-76 -209q-52 -132 -53 -231t110 -166l-5 -17h-493l169 476l84 239l43 119l21 59l10 30q11 30 -15 30h-36q-134 2 -208 -206l-89 -242q-94 -271 -99 -356.5t46 -138.5l-15 -15q-80 29 -76.5 149t103.5 373l95 261q79 221 263 217h70
q177 -2 89 -275l-241 -682h203q-73 48 -70 148.5t53 239.5l82 228q125 345 509 341h326l18 -42q-491 -309 -661 -436q322 -47 358 -244.5t-214 -487.5l-25 15q110 268 35.5 470t-304.5 243z" />
    <glyph glyph-name="uniA998_uniA9BF" unicode="&#xe0a1;" horiz-adv-x="1799" 
d="M1192 1498l7 -22q-171 -63 -325 -215.5t-320.5 -462t-233 -538t-83 -446t53.5 -268.5t156 -51q115 0 266.5 85t272.5 203l12 -24q-69 -82 -238.5 -192.5t-360.5 -107.5q-180 16 -260.5 127t-54 355.5t146.5 549.5q214 476 478.5 714.5t482.5 292.5zM1231 513l-10 53
q181 162 548 387h-91q-334 2 -454 -330l-76 -209q-52 -132 -53 -231t110 -166l-5 -17h-493l169 476l84 239l43 119l21 59l10 30q11 30 -15 30h-36q-134 2 -208 -206l-89 -242q-94 -271 -99 -356.5t46 -138.5l-15 -15q-80 29 -76.5 149t103.5 373l95 261q79 221 263 217h70
q177 -2 89 -275l-241 -682h203q-73 48 -70 148.5t53 239.5l82 228q125 345 509 341h326l18 -42q-491 -309 -661 -436q322 -47 358 -244.5t-214 -487.5l-25 15q110 268 35.5 470t-304.5 243zM1352.5 -644.5q-15.5 62.5 -122.5 32t-170.5 -52t-129 -39.5t-96 14t-5.5 119.5
t178 214.5t309 165l8 -22q-138 -56 -246.5 -140t-161 -159t-48 -115t49.5 -33.5t138.5 41.5t204.5 62t190 -19.5t53 -171t-233 -258t-460 -215.5l-11 23q165 103 366.5 297t186 256.5z" />
    <glyph glyph-name="uniA999_uniA9BF" unicode="&#xe0a2;" horiz-adv-x="2541" 
d="M1192 1498l7 -22q-171 -63 -325 -215.5t-320.5 -462t-233 -538t-83 -446t53.5 -268.5t156 -51q115 0 266.5 85t272.5 203l12 -24q-69 -82 -238.5 -192.5t-360.5 -107.5q-180 16 -260.5 127t-54 355.5t146.5 549.5q214 476 478.5 714.5t482.5 292.5zM2139 957
q-136 1 -249 -133q-20 134 -124 134q-105 0 -161.5 -90.5t-30.5 -183.5l-12 -11q-38 61 -13.5 156t104.5 137t159 22t98 -100q114 107 275 108q90 0 104 -65.5t-22 -163.5l-38 -110l-76 -219l-153 -438h-200zM1411 37q-31 65 18 192h16q29 -111 221 -203l-7 -31h-523
q-111 2 -66 150l274 778q11 30 -15 30h-36q-134 2 -208 -207l-89 -241q-94 -271 -99 -356.5t46 -138.5l-15 -15q-80 29 -76.5 149t103.5 373l95 261q79 221 263 217h70q177 -2 89 -275l-241 -683h180zM1745 -124q25 44 55 124h200q-79 -232 -213 -178t-217 54
q-132 0 -268.5 -156t-162.5 -394q-2 -200 53 -208t206.5 92.5t246 134.5t164 -7.5t72.5 -123.5l591 1672l29 -41l-630 -1784l-38 17l16 45q16 116 -44.5 167t-169 4t-239 -132t-209.5 -87q-211 1 -222 215q9 295 173 453t348 171q146 8 259 -38zM2474 881q-30 38 -64 76
q-115 121 -136 223.5t17.5 141t102.5 12t104 -145t18 -290.5q76 -84 149 -178q106 -138 66 -305t-266 -280l-25 15q97 106 132.5 254.5t8.5 256t-74 175.5zM2315.5 1301q-23.5 -31 -2 -120.5t133.5 -206.5q17 -18 35 -37q16 160 -22.5 253.5t-79.5 117.5t-64.5 -7z" />
    <glyph glyph-name="uniA99A_uniA9BF" unicode="&#xe0a3;" horiz-adv-x="2696" 
d="M1192 1498l7 -22q-171 -63 -325 -215.5t-320.5 -462t-233 -538t-83 -446t53.5 -268.5t156 -51q115 0 266.5 85t272.5 203l12 -24q-69 -82 -238.5 -192.5t-360.5 -107.5q-180 16 -260.5 127t-54 355.5t146.5 549.5q214 476 478.5 714.5t482.5 292.5zM1106 37
q-31 65 18 192h16q29 -111 221 -203l-7 -31h-523q-111 2 -66 150l274 778q11 30 -15 30h-36q-134 2 -208 -207l-89 -241q-94 -271 -99 -356.5t46 -138.5l-15 -15q-80 29 -76.5 149t103.5 373l95 261q79 221 263 217h70q177 -2 89 -275l-241 -683h180zM2107 53q60 -7 86 69
l272 764q35 106 143 109h117q111 -2 66 -150l-298 -845h-200l338 953h-40q-66 -1 -97 -108l-258 -732q-40 -113 -159 -113h-189l338 953h-40q-66 -1 -97 -108l-258 -732q-40 -113 -159 -113h-189l341 957q-116 1 -249 -133q-20 134 -124 134q-105 0 -161.5 -90.5
t-30.5 -183.5l-12 -11q-38 61 -13.5 156t104.5 137t159 22t98 -100q114 107 275 108q90 0 104 -65.5t-22 -163.5l-38 -110l-212 -604q60 -7 86 69l272 764q35 106 143 109h117q111 -2 66 -150z" />
    <glyph glyph-name="uniA99B_uniA9BF" unicode="&#xe0a4;" horiz-adv-x="1948" 
d="M1192 1498l7 -22q-171 -63 -325 -215.5t-320.5 -462t-233 -538t-83 -446t53.5 -268.5t156 -51q115 0 266.5 85t272.5 203l12 -24q-69 -82 -238.5 -192.5t-360.5 -107.5q-180 16 -260.5 127t-54 355.5t146.5 549.5q214 476 478.5 714.5t482.5 292.5zM1939 957
q-136 1 -249 -133q-20 134 -124 134q-105 0 -161.5 -90.5t-30.5 -183.5l-12 -11q-38 61 -13.5 156t104.5 137t159 22t98 -100q114 107 275 108q90 0 104 -65.5t-22 -163.5l-38 -110l-76 -219l-153 -438h-200zM936 -5q-111 2 -66 150l274 778q11 30 -15 30h-36
q-134 2 -208 -207l-89 -241q-94 -271 -99 -356.5t46 -138.5l-15 -15q-80 29 -76.5 149t103.5 373l95 261q79 221 263 217h70q177 -2 89 -275l-241 -683h78q122 10 163 35l68 54q42 41 65.5 29t2.5 -55t-126 -86q-190 -197 -197.5 -370t138 -178t244.5 87l29 -20
q-146 -210 -333 -206q-103 0 -165 80.5t-22.5 226t250.5 378.5q-50 -13 -147 -17h-143z" />
    <glyph glyph-name="uniA99C_uniA9BF" unicode="&#xe0a5;" horiz-adv-x="1867" 
d="M1192 1498l7 -22q-171 -63 -325 -215.5t-320.5 -462t-233 -538t-83 -446t53.5 -268.5t156 -51q115 0 266.5 85t272.5 203l12 -24q-69 -82 -238.5 -192.5t-360.5 -107.5q-180 16 -260.5 127t-54 355.5t146.5 549.5q214 476 478.5 714.5t482.5 292.5zM1839 957
q-136 1 -249 -133q-20 134 -124 134q-105 0 -161.5 -90.5t-30.5 -183.5l-12 -11q-38 61 -13.5 156t104.5 137t159 22t98 -100q114 107 275 108q90 0 104 -65.5t-22 -163.5l-38 -110l-76 -219l-153 -438h-200zM836 -5q-111 2 -66 150l274 778q11 30 -15 30h-36
q-134 2 -208 -207l-89 -241q-94 -271 -99 -356.5t46 -138.5l-15 -15q-80 29 -76.5 149t103.5 373l95 261q79 221 263 217h70q177 -2 89 -275l-241 -683h78l-30 -42h-143zM1142 -5h-237l45 42h180q111 2 133.5 47.5t1 74.5t-78 14.5t-70.5 -83.5l-20 2q9 106 88.5 123.5
t120 -35t2.5 -118t-165 -67.5z" />
    <glyph glyph-name="uniA99D_uniA9BF" unicode="&#xe0a6;" horiz-adv-x="1861" 
d="M1192 1498l7 -22q-171 -63 -325 -215.5t-320.5 -462t-233 -538t-83 -446t53.5 -268.5t156 -51q115 0 266.5 85t272.5 203l12 -24q-69 -82 -238.5 -192.5t-360.5 -107.5q-180 16 -260.5 127t-54 355.5t146.5 549.5q214 476 478.5 714.5t482.5 292.5zM1232 3
q-79 20 -98 100q-114 -107 -275 -108q-90 0 -104 65.5t22 164.5l244 699q11 30 -15 30h-36q-134 2 -208 -207l-89 -241q-94 -271 -99 -356.5t46 -138.5l-15 -15q-80 29 -76.5 149t103.5 373l95 261q79 221 263 217h70q177 -2 89 -275l-244 -687q137 -1 249 133
q20 -134 124 -134h23q68 5 109 112l262 741q35 106 143 109h117q111 -2 66 -150l-298 -845h-200l338 953h-40q-66 -1 -97 -108l-261 -741q-24 -61 -75 -87.5t-133 -13.5z" />
    <glyph glyph-name="uniA99E_uniA9BF" unicode="&#xe0a7;" horiz-adv-x="1738" 
d="M1192 1498l7 -22q-171 -63 -325 -215.5t-320.5 -462t-233 -538t-83 -446t53.5 -268.5t156 -51q115 0 266.5 85t272.5 203l12 -24q-69 -82 -238.5 -192.5t-360.5 -107.5q-180 16 -260.5 127t-54 355.5t146.5 549.5q214 476 478.5 714.5t482.5 292.5zM1406 33
q133 12 221 176q87 163 111 322t-20.5 282t-155.5 171l13 18q143 -58 184 -197.5t15 -300t-123 -329.5q-96 -167 -249 -175q-16 -1 -40 3q-79 20 -98 100q-114 -107 -275 -108q-90 0 -104 65.5t22 164.5l244 699q11 30 -15 30h-36q-134 2 -208 -207l-89 -241
q-94 -271 -99 -356.5t46 -138.5l-15 -15q-80 29 -76.5 149t103.5 373l95 261q79 221 263 217h70q177 -2 89 -275l-244 -687q137 -1 249 133q20 -133 122 -134z" />
    <glyph glyph-name="uniA99F_uniA9BF" unicode="&#xe0a8;" horiz-adv-x="2686" 
d="M1192 1498l7 -22q-171 -63 -325 -215.5t-320.5 -462t-233 -538t-83 -446t53.5 -268.5t156 -51q115 0 266.5 85t272.5 203l12 -24q-69 -82 -238.5 -192.5t-360.5 -107.5q-180 16 -260.5 127t-54 355.5t146.5 549.5q214 476 478.5 714.5t482.5 292.5zM2102 953h-173
q-66 -1 -97 -108l-258 -732q-40 -113 -159 -113h-189l338 953h-173q-66 -1 -97 -108l-258 -732q-40 -113 -159 -113h-189l183 518l43 119l21 59l10 30q11 30 -15 30h-36q-134 2 -208 -207l-19 -44q-94 -271 -99 -356.5t46 -138.5l-15 -15q-80 29 -76.5 149t103.5 373l25 64
q79 221 263 217h70q177 -2 89 -275l-166 -470q60 -7 86 69l272 764q35 106 143 109h250q111 -2 66 -150l-279 -792q60 -7 86 69l272 764q35 106 143 109h250q111 -2 66 -150l-279 -792q60 -7 86 69l272 764q35 106 143 109h250q111 -2 66 -150l-298 -845h-200l338 953h-173
q-66 -1 -97 -108l-258 -732q-40 -113 -159 -113h-189z" />
    <glyph glyph-name="uniA9A0_uniA9BF" unicode="&#xe0a9;" horiz-adv-x="2497" 
d="M1192 1498l7 -22q-171 -63 -325 -215.5t-320.5 -462t-233 -538t-83 -446t53.5 -268.5t156 -51q115 0 266.5 85t272.5 203l12 -24q-69 -82 -238.5 -192.5t-360.5 -107.5q-180 16 -260.5 127t-54 355.5t146.5 549.5q214 476 478.5 714.5t482.5 292.5zM1717 995h407
q111 -2 66 -150l-279 -792q60 -7 86 70l272 763q35 106 143 109h117q111 -2 66 -150l-298 -845h-200l338 953h-40q-66 -1 -97 -108l-258 -731q-40 -114 -159 -114h-189l64 179l21 61l86 240l167 473h-312q-117 -1 -205 -63.5t-109.5 -183t67.5 -196.5l126 -104
q114 -92 80.5 -250t-213.5 -161h-528q-111 2 -66 150l274 778q11 30 -15 30h-36q-134 2 -208 -207l-89 -241q-94 -271 -99 -356.5t46 -138.5l-15 -15q-80 29 -76.5 149t103.5 373l95 261q79 221 263 217h70q177 -2 89 -275l-241 -683h452q89 6 122.5 64.5t32 138.5
t-73.5 141l-110 94q-114 79 -95 223t127 220.5t231 76.5z" />
    <glyph glyph-name="uniA9A1_uniA9BF" unicode="&#xe0aa;" horiz-adv-x="1901" 
d="M1192 1498l7 -22q-171 -63 -325 -215.5t-320.5 -462t-233 -538t-83 -446t53.5 -268.5t156 -51q115 0 266.5 85t272.5 203l12 -24q-69 -82 -238.5 -192.5t-360.5 -107.5q-180 16 -260.5 127t-54 355.5t146.5 549.5q214 476 478.5 714.5t482.5 292.5zM1156 -5h-318
q-111 2 -66 150l274 778q11 30 -15 30h-36q-134 2 -208 -207l-89 -241q-94 -271 -99 -356.5t46 -138.5l-15 -15q-80 29 -76.5 149t103.5 373l95 261q79 221 263 217h70q177 -2 89 -275l-241 -683h251q155 8 242.5 171.5t111.5 347.5t-25.5 272t-126.5 125h-143l17 42h672
q111 -2 66 -150l-298 -845h-200l338 953h-398q68 -29 114 -133.5t20 -290t-123.5 -355t-294.5 -179.5zM1204 180q37 77 -14.5 91.5t-93.5 -48.5l-8 7q26 69 83.5 72t82 -32t-11.5 -105t-98 -169.5t-59.5 -164.5t62 -69.5t105.5 16.5l4 -19q-61 -40 -133.5 -24.5t-79 88
t58.5 176.5t102 181z" />
    <glyph glyph-name="uniA9A2_uniA9BF" unicode="&#xe0ab;" horiz-adv-x="1954" 
d="M1192 1498l7 -22q-171 -63 -325 -215.5t-320.5 -462t-233 -538t-83 -446t53.5 -268.5t156 -51q115 0 266.5 85t272.5 203l12 -24q-69 -82 -238.5 -192.5t-360.5 -107.5q-180 16 -260.5 127t-54 355.5t146.5 549.5q214 476 478.5 714.5t482.5 292.5zM1473 340l-54 -150
q-24 -89 2 -126t66.5 -23t48 85t-5 126t-57.5 88zM1083.5 180q106.5 117 185.5 172t176 40l179 494q35 106 143 109h265q111 -2 66 -150l-298 -845h-200l338 953h-177q-66 -1 -108 -108l-166 -472q87 -55 96 -166.5t-23.5 -160t-93 -49t-88.5 52t9 173.5l49 139
q-62 16 -142 -36.5t-200.5 -193t-237.5 -137.5q-121 2 -76 150l137 389q137 385 302 419h-216q-134 2 -208 -207l-89 -241q-94 -271 -99 -356.5t46 -138.5l-15 -15q-80 29 -76.5 149t103.5 373l95 261q79 221 263 217h370l3 -30q-136 -47 -272 -412l-176 -503
q29 13 135.5 130z" />
    <glyph glyph-name="uniA9A3_uniA9BF" unicode="&#xe0ac;" horiz-adv-x="1954" 
d="M1192 1498l7 -22q-171 -63 -325 -215.5t-320.5 -462t-233 -538t-83 -446t53.5 -268.5t156 -51q115 0 266.5 85t272.5 203l12 -24q-69 -82 -238.5 -192.5t-360.5 -107.5q-180 16 -260.5 127t-54 355.5t146.5 549.5q214 476 478.5 714.5t482.5 292.5zM1306 33
q133 12 221 176q87 163 111 347t-25.5 272t-126.5 125h-143l17 42h672q111 -2 66 -150l-298 -845h-200l338 953h-398q68 -29 114 -133.5t20 -290t-123 -354.5q-96 -167 -249 -175q-16 -1 -40 3q-79 20 -98 100q-114 -107 -275 -108q-90 0 -104 65.5t22 164.5l244 699
q11 30 -15 30h-36q-134 2 -208 -207l-89 -241q-94 -271 -99 -356.5t46 -138.5l-15 -15q-80 29 -76.5 149t103.5 373l95 261q79 221 263 217h70q177 -2 89 -275l-244 -687q137 -1 249 133q20 -133 122 -134z" />
    <glyph glyph-name="uniA9A4_uniA9BF" unicode="&#xe0ad;" horiz-adv-x="1602" 
d="M1192 1498l7 -22q-171 -63 -325 -215.5t-320.5 -462t-233 -538t-83 -446t53.5 -268.5t156 -51q115 0 266.5 85t272.5 203l12 -24q-69 -82 -238.5 -192.5t-360.5 -107.5q-180 16 -260.5 127t-54 355.5t146.5 549.5q214 476 478.5 714.5t482.5 292.5zM1193 340l-54 -150
q-24 -89 2 -126t66.5 -23t48 85t-5 126t-57.5 88zM789 746l-89 -241q-94 -271 -99 -356.5t46 -138.5l-15 -15q-80 29 -76.5 149t103.5 373l95 261q79 221 263 217h70q177 -2 89 -275l-116 -327q42 10 105 -1l179 494q35 106 143 109h148h117q111 -2 66 -150l-298 -845h-200
l338 953h-40h-137q-66 -1 -108 -108l-166 -472q87 -55 96 -166.5t-23.5 -160t-93 -49t-88.5 52t9 173.5l49 139q-61 11 -105 2h-1l-129 -364h-200l169 476l84 239l43 119l21 59l10 30q11 30 -15 30h-36q-134 2 -208 -207z" />
    <glyph glyph-name="uniA9A5_uniA9BF" unicode="&#xe0ae;" horiz-adv-x="1602" 
d="M1192 1498l7 -22q-171 -63 -325 -215.5t-320.5 -462t-233 -538t-83 -446t53.5 -268.5t156 -51q115 0 266.5 85t272.5 203l12 -24q-69 -82 -238.5 -192.5t-360.5 -107.5q-180 16 -260.5 127t-54 355.5t146.5 549.5q214 476 478.5 714.5t482.5 292.5zM931 37h172
q66 1 107 108l262 741q35 106 143 109h117q111 -2 66 -150l-298 -845h-200l338 953h-40q-66 -1 -97 -108l-261 -741q-35 -106 -156 -109h-248q-111 2 -66 150l274 778q11 30 -15 30h-36q-134 2 -208 -207l-89 -241q-94 -271 -99 -356.5t46 -138.5l-15 -15q-80 29 -76.5 149
t103.5 373l95 261q79 221 263 217h70q177 -2 89 -275z" />
    <glyph glyph-name="uniA9A6_uniA9BF" unicode="&#xe0af;" horiz-adv-x="1997" 
d="M1192 1498l7 -22q-171 -63 -325 -215.5t-320.5 -462t-233 -538t-83 -446t53.5 -268.5t156 -51q115 0 266.5 85t272.5 203l12 -24q-69 -82 -238.5 -192.5t-360.5 -107.5q-180 16 -260.5 127t-54 355.5t146.5 549.5q214 476 478.5 714.5t482.5 292.5zM1634 531
q-30 38 -64 76q-115 121 -136 223.5t17.5 141t102.5 12t104 -145t18 -290.5q76 -84 149 -178q106 -138 66 -305t-266 -280l-25 15q97 106 132.5 254.5t8.5 256t-74 175.5q-30 -162 -116 -311q-96 -167 -249 -175q-16 -1 -40 3q-79 20 -98 100q-114 -107 -275 -108
q-90 0 -104 65.5t22 164.5l244 699q11 30 -15 30h-36q-134 2 -208 -207l-89 -241q-94 -271 -99 -356.5t46 -138.5l-15 -15q-80 29 -76.5 149t103.5 373l95 261q79 221 263 217h70q177 -2 89 -275l-244 -687q137 -1 249 133q20 -133 122 -134q133 12 221 176q81 152 107 322z
M1475.5 951q-23.5 -31 -2 -120.5t133.5 -206.5q17 -18 35 -37q16 160 -22.5 253.5t-79.5 117.5t-64.5 -7z" />
    <glyph glyph-name="uniA9A7_uniA9BF" unicode="&#xe0b0;" horiz-adv-x="2300" 
d="M1192 1498l7 -22q-171 -63 -325 -215.5t-320.5 -462t-233 -538t-83 -446t53.5 -268.5t156 -51q115 0 266.5 85t272.5 203l12 -24q-69 -82 -238.5 -192.5t-360.5 -107.5q-180 16 -260.5 127t-54 355.5t146.5 549.5q214 476 478.5 714.5t482.5 292.5zM1101 37
q-31 65 18 192h16q29 -111 221 -203l-7 -31h-523q-111 2 -66 150l274 778q11 30 -15 30h-36q-134 2 -208 -207l-89 -241q-94 -271 -99 -356.5t46 -138.5l-15 -15q-80 29 -76.5 149t103.5 373l95 261q79 221 263 217h70q177 -2 89 -275l-241 -683h180zM1707 53q60 -7 86 69
l272 764q35 106 143 109h117q111 -2 66 -150l-298 -845h-200l338 953h-40q-66 -1 -97 -108l-258 -732q-40 -113 -159 -113h-189l341 957q-116 1 -249 -133q-20 134 -124 134q-105 0 -161.5 -90.5t-30.5 -183.5l-12 -11q-38 61 -13.5 156t104.5 137t159 22t98 -100
q114 107 275 108q90 0 104 -65.5t-22 -163.5l-38 -110z" />
    <glyph glyph-name="uniA9A8_uniA9BF" unicode="&#xe0b1;" horiz-adv-x="1923" 
d="M1192 1498l7 -22q-171 -63 -325 -215.5t-320.5 -462t-233 -538t-83 -446t53.5 -268.5t156 -51q115 0 266.5 85t272.5 203l12 -24q-69 -82 -238.5 -192.5t-360.5 -107.5q-180 16 -260.5 127t-54 355.5t146.5 549.5q214 476 478.5 714.5t482.5 292.5zM1210 449
q-357 6 -420.5 45.5t-57 103t59.5 110.5l9 -10q-18 -52 -12 -98t58 -76.5t455 -40.5q318 -9 417 -58t120 -152q36 -198 -214 -488l-25 15q110 268 36 470q-39 105 -123 140t-303 39zM1572 886q35 106 143 109h427l-3 -32q-173 -125 -314 -233l-18 10l81 213h-190
q-66 -1 -97 -108l-237 -664q-68 -189 -212 -185h-40l-310 222l6 35q242 20 305 189l61 171l120 341h-229q30 -65 -19 -192h-16q-29 111 -221 203l7 31h573q111 -2 66 -150l-68 -194l-69 -195q-82 -244 -410 -262l218 -157h46q94 -2 157 175z" />
    <glyph glyph-name="uniA9A9_uniA9BF" unicode="&#xe0b2;" horiz-adv-x="1756" 
d="M1192 1498l7 -22q-171 -63 -325 -215.5t-320.5 -462t-233 -538t-83 -446t53.5 -268.5t156 -51q115 0 266.5 85t272.5 203l12 -24q-69 -82 -238.5 -192.5t-360.5 -107.5q-180 16 -260.5 127t-54 355.5t146.5 549.5q214 476 478.5 714.5t482.5 292.5zM683.5 45
q-52.5 53 -43.5 171t94 224t300 151q-86 37 -81 142t174 187q-202 -59 -341 -222.5t-216.5 -358t-46 -343t179.5 -181.5l-4 -21q-175 7 -213.5 181t49 390t233.5 371.5t310 209t372 47.5l-1 -41q-181 -2 -261.5 -72t-72 -176.5t177.5 -103.5l1 -28q-199 -3 -312 -68
t-161 -191t-20 -199t100 -77h302q66 1 107 108l262 741q35 106 143 109h117q111 -2 66 -150l-298 -845h-200l338 953h-40q-66 -1 -97 -108l-261 -741q-35 -106 -156 -109h-368q-80 -3 -132.5 50z" />
    <glyph glyph-name="uniA9AA_uniA9BF" unicode="&#xe0b3;" horiz-adv-x="2256" 
d="M1192 1498l7 -22q-171 -63 -325 -215.5t-320.5 -462t-233 -538t-83 -446t53.5 -268.5t156 -51q115 0 266.5 85t272.5 203l12 -24q-69 -82 -238.5 -192.5t-360.5 -107.5q-180 16 -260.5 127t-54 355.5t146.5 549.5q214 476 478.5 714.5t482.5 292.5zM1658 953h-40
q-66 -1 -97 -108l-261 -741q-35 -106 -156 -109h-248q-111 2 -66 150l274 778q11 30 -15 30h-36q-134 2 -208 -207l-89 -241q-94 -271 -99 -356.5t46 -138.5l-15 -15q-80 29 -76.5 149t103.5 373l95 261q79 221 263 217h70q177 -2 89 -275l-241 -683h172q66 1 107 108
l262 741q35 106 143 109h117q111 -2 66 -150l-285 -809h172q66 1 107 108l262 741q35 106 143 109h117q111 -2 66 -150l-298 -845h-200l338 953h-40q-66 -1 -97 -108l-261 -741q-35 -106 -156 -109h-248q-111 2 -66 150z" />
    <glyph glyph-name="uniA9AB_uniA9BF" unicode="&#xe0b4;" horiz-adv-x="2053" 
d="M1192 1498l7 -22q-171 -63 -325 -215.5t-320.5 -462t-233 -538t-83 -446t53.5 -268.5t156 -51q115 0 266.5 85t272.5 203l12 -24q-69 -82 -238.5 -192.5t-360.5 -107.5q-180 16 -260.5 127t-54 355.5t146.5 549.5q214 476 478.5 714.5t482.5 292.5zM2133 995
q111 -2 66 -150l-298 -845h-200l338 953h-341q-66 -1 -97 -108l-237 -664q-68 -189 -212 -185h-40l-310 222l6 35q242 20 305 189l61 171l120 341h-229q30 -65 -19 -192h-16q-29 111 -221 203l7 31h573q111 -2 66 -150l-68 -194l-69 -195q-82 -244 -410 -262l218 -157h46
q94 -2 157 175l243 673q35 106 143 109h418z" />
    <glyph glyph-name="uniA9AC_uniA9BF" unicode="&#xe0b5;" horiz-adv-x="3131" 
d="M1192 1498l7 -22q-171 -63 -325 -215.5t-320.5 -462t-233 -538t-83 -446t53.5 -268.5t156 -51q115 0 266.5 85t272.5 203l12 -24q-69 -82 -238.5 -192.5t-360.5 -107.5q-180 16 -260.5 127t-54 355.5t146.5 549.5q214 476 478.5 714.5t482.5 292.5zM2734 995
q111 -2 66 -150l-139 -396l-140 -396q140 -7 406.5 516t474.5 426l-2 -26q-181 83 -445.5 -443t-463.5 -526h-189l64 179l21 61l86 240l167 473h-173q-66 -1 -97 -108l-258 -732q-40 -113 -159 -113h-189l338 953h-173q-66 -1 -97 -108l-258 -732q-40 -113 -159 -113h-189
l338 953h-173q-66 -1 -97 -108l-258 -732q-40 -113 -159 -113h-189l183 518l43 119l21 59l10 30q11 30 -15 30h-36q-134 2 -208 -207l-19 -44q-94 -271 -99 -356.5t46 -138.5l-15 -15q-80 29 -76.5 149t103.5 373l25 64q79 221 263 217h70q177 -2 89 -275l-166 -470
q60 -7 86 69l272 764q35 106 143 109h250q111 -2 66 -150l-279 -792q60 -7 86 69l272 764q35 106 143 109h250q111 -2 66 -150l-279 -792q60 -7 86 69l272 764q35 106 143 109h250z" />
    <glyph glyph-name="uniA9AD_uniA9BF" unicode="&#xe0b6;" horiz-adv-x="2256" 
d="M1192 1498l7 -22q-171 -63 -325 -215.5t-320.5 -462t-233 -538t-83 -446t53.5 -268.5t156 -51q115 0 266.5 85t272.5 203l12 -24q-69 -82 -238.5 -192.5t-360.5 -107.5q-180 16 -260.5 127t-54 355.5t146.5 549.5q214 476 478.5 714.5t482.5 292.5zM1531 37h172
q66 1 107 108l262 741q35 106 143 109h117q111 -2 66 -150l-298 -845h-200l338 953h-40q-66 -1 -97 -108l-261 -741q-35 -106 -143 -109v2q-20 -4 -43 -2h-218q-111 2 -66 150l201 570l43 119l21 59l10 30q11 30 -15 30h-102q-134 2 -208 -206l-122 -333q-52 -132 -53 -231
t110 -166l-5 -17h-493l169 476l84 239l43 119l21 59l10 30q11 30 -15 30h-36q-134 2 -208 -206l-89 -242q-94 -271 -99 -356.5t46 -138.5l-15 -15q-80 29 -76.5 149t103.5 373l95 261q79 221 263 217h70q177 -2 89 -275l-241 -682h203q-73 48 -70 148.5t53 239.5l128 352
q79 221 263 217h136q166 -2 99 -242z" />
    <glyph glyph-name="uniA9AE_uniA9BF" unicode="&#xe0b7;" horiz-adv-x="1901" 
d="M1192 1498l7 -22q-171 -63 -325 -215.5t-320.5 -462t-233 -538t-83 -446t53.5 -268.5t156 -51q115 0 266.5 85t272.5 203l12 -24q-69 -82 -238.5 -192.5t-360.5 -107.5q-180 16 -260.5 127t-54 355.5t146.5 549.5q214 476 478.5 714.5t482.5 292.5zM1156 -5h-318
q-111 2 -66 150l274 778q11 30 -15 30h-36q-134 2 -208 -207l-89 -241q-94 -271 -99 -356.5t46 -138.5l-15 -15q-80 29 -76.5 149t103.5 373l95 261q79 221 263 217h70q177 -2 89 -275l-241 -683h251q155 8 242.5 171.5t111.5 347.5t-25.5 272t-126.5 125h-143l17 42h672
q111 -2 66 -150l-298 -845h-200l338 953h-398q68 -29 114 -133.5t20 -290t-123.5 -355t-294.5 -179.5z" />
    <glyph glyph-name="uniA9AF_uniA9BF" unicode="&#xe0b8;" horiz-adv-x="2152" 
d="M1192 1498l7 -22q-171 -63 -325 -215.5t-320.5 -462t-233 -538t-83 -446t53.5 -268.5t156 -51q115 0 266.5 85t272.5 203l12 -24q-69 -82 -238.5 -192.5t-360.5 -107.5q-180 16 -260.5 127t-54 355.5t146.5 549.5q214 476 478.5 714.5t482.5 292.5zM1856 267l-22 1
q20 138 -180 153t-258.5 54.5t-52 103t49.5 100.5l9 -10q-28 -52 -22 -98t63 -76.5t259.5 -41t153.5 -186.5zM1602 953h-173q-66 -1 -97 -108l-259 -732q-39 -113 -158 -113h-189l183 518l43 119l21 59l10 30q11 30 -15 30h-36q-134 2 -208 -207l-19 -44
q-94 -271 -99 -356.5t46 -138.5l-15 -15q-80 29 -76.5 149t103.5 373l25 64q79 221 263 217h70q177 -2 89 -275l-166 -470q60 -7 85 69l273 764q35 106 143 109h250q111 -2 66 -150l-279 -792q60 -7 85 69l273 764q35 106 143 109h250q111 -2 66 -150l-298 -845h-200
l338 953h-173q-66 -1 -97 -108l-259 -732q-39 -113 -158 -113h-189z" />
    <glyph glyph-name="uniA9B0_uniA9BF" unicode="&#xe0b9;" horiz-adv-x="2097" 
d="M1192 1498l7 -22q-171 -63 -325 -215.5t-320.5 -462t-233 -538t-83 -446t53.5 -268.5t156 -51q115 0 266.5 85t272.5 203l12 -24q-69 -82 -238.5 -192.5t-360.5 -107.5q-180 16 -260.5 127t-54 355.5t146.5 549.5q214 476 478.5 714.5t482.5 292.5zM931 37h572
q66 1 107 108l262 741q35 106 143 109h117q111 -2 66 -150l-298 -845h-200l338 953h-40q-66 -1 -97 -108l-261 -741q-35 -106 -143 -109h-661q-111 2 -66 150l274 778q11 30 -15 30h-36q-134 2 -208 -207l-89 -241q-94 -271 -99 -356.5t46 -138.5l-15 -15q-80 29 -76.5 149
t103.5 373l95 261q79 221 263 217h70q177 -2 89 -275zM1366 911l12 -12q-27 -51 -22.5 -100.5t97.5 -165.5t129 -236t-36 -242h-13q-24 0 -13 24q5 34 -8 56.5t-146.5 154t-126.5 275.5t127 246z" />
    </font>
</defs>
</svg>
