<svg xmlns="http://www.w3.org/2000/svg">
<defs>
<font id="amuktipalapa" horiz-adv-x="0" >
  <font-face 
    font-family="amukti palapa"
    font-weight="400"
    font-stretch="normal"
    units-per-em="2048"
    panose-1="2 0 5 0 0 0 0 0 0 0"
    ascent="1638"
    descent="-410"
    x-height="1037"
    cap-height="1494"
    bbox="-3367 -2310 4834 2609"
    underline-thickness="150"
    underline-position="-442"
    unicode-range="U+001D-FDF2"
  />
<missing-glyph horiz-adv-x="1624" 
d="M765 1361l-21 -8q-25 61 -76 114q-13 14 -67 59q9 42 46 42t58 -36q31 -57 36 -69q17 -42 24 -102zM945 1315q0 -72 -26.5 -125.5t-67.5 -53.5q-23 0 -41.5 5.5t-41.5 18.5q-12 -30 -37 -54q-32 -31 -65 -31q-42 0 -63 27t-21 72q0 18 4 40.5t6 34.5l30 12
q0 -48 14.5 -65.5t46.5 -17.5q21 0 44.5 42.5t29.5 82.5l23 6q11 -40 17 -47q14 -19 52 -19q27 0 46 41q12 27 20 65l25 6q5 -20 5 -40zM1235 474q0 -37 -5 -68q-8 -50 -28 -88l-13 -25q-119 0 -195 35q-61 28 -107 87q-40 -68 -96 -97q-48 -25 -111 -25q-65 0 -126.5 38
t-83.5 98q-40 -59 -96 -97.5t-109 -38.5q-112 0 -178 16.5t-66 42.5q0 84 114 190.5t278 182.5q-4 15 -9.5 41t-5.5 41q0 34 23 76q19 34 51 72q13 -82 27 -164q21 -123 43 -229q12 -55 45.5 -79t90.5 -24q46 0 71.5 12.5t64.5 72.5l-59 273q-7 32 -10 52q-7 39 -7 56
q0 35 23 77q19 34 51 71q9 -51 20.5 -110.5t34.5 -173.5l36 -172q16 -73 48 -111q39 -46 105 -46q28 0 45.5 22.5t22.5 61.5l-58 273q-7 42 -9 52q-7 41 -7 56q0 34 23 77q20 37 49 71q4 -25 34 -160q36 -164 52 -248q27 -142 27 -191zM449 500l-19 111q-88 -32 -134 -63
q-52 -35 -87 -91q22 -9 49.5 -14t77.5 -5q28 0 58 16.5t55 45.5zM1538 548q0 -80 -29 -155q-15 -40 -65 -127l-18 10q3 29 5.5 67t2.5 51q0 104 -16.5 290.5t-39.5 389.5q-14 123 -31 251q20 44 45.5 95t48.5 96q16 -114 40.5 -312t38.5 -357q18 -198 18 -299z" />
    <glyph glyph-name="uni1B8A.conj" unicode="&#x1bab;&#x1b8a;" horiz-adv-x="1458" 
d="M715 112l-428 -1272h-198l474 1163h-548l72 246h534q139 5 94 -137zM1398 112l-429 -1272h-198l474 1163h-465l72 246h452q139 5 94 -137z" />
    <glyph glyph-name="uni1B8B.conj" unicode="&#x1bab;&#x1b8b;" horiz-adv-x="1809" 
d="M477 3l-263 -1163h-199l345 1163h-121l71 246h1296q140 5 109 -138l-287 -1271h-199l345 1163h-502l-262 -1163h-200l346 1163h-479z" />
    <glyph glyph-name="uni1B8C.conj" unicode="&#x1bab;&#x1b8c;" horiz-adv-x="1283" 
d="M15 -1160l474 1163h-466l73 246h451q140 5 95 -137l-348 -1032h577l188 378h-439l72 246h425q151 5 94 -135l-263 -729h-933z" />
    <glyph glyph-name="uni1B8D.conj" unicode="&#x1bab;&#x1b8d;" horiz-adv-x="1105" 
d="M935 -915l-275 341l71 174l379 -506l-138 -254h-957l534 1163h-512l72 246h528q140 5 95 -137l-437 -1027h640z" />
    <glyph glyph-name="uni1B8E.conj" unicode="&#x1bab;&#x1b8e;" horiz-adv-x="1480" 
d="M1022 -799l145 1048h198l-306 -1356q-49 -202 -525 236q-176 -289 -467 -315q-52 807 396 575l250 614h-252h-337l73 246h574q140 5 95 -137l-279 -826q428 -231 435 -85zM175.5 -786q-59.5 -157 219.5 20q-160 137 -219.5 -20z" />
    <glyph glyph-name="uni1B8F.conj" unicode="&#x1bab;&#x1b8f;" horiz-adv-x="1374" 
d="M647 -386q71 181 255 -32l366 -411l-166 -167l-339 487q-102 142 -116 123zM481 -920l46 209q85 165 201 11l299 -422l-146 -153l-264 509l-52 -392l-550 -2l339 1265q23 149 193 144h362l-68 -246h-395l-203 -923h238z" />
    <glyph glyph-name="uni1B90.conj" unicode="&#x1bab;&#x1b90;" horiz-adv-x="1285" 
d="M700 -542l65 -360l-88 -258h-662l474 1163h-466l73 246h451q140 5 95 -137l-347 -1027h325l-15 288q-47 325 198 331h199q238 5 186 -264l-111 -600h-185l185 618h-377z" />
    <glyph glyph-name="uni1B91.conj" unicode="&#x1bab;&#x1b91;" horiz-adv-x="1943" 
d="M419 3h-374l85 246h570l-461 -1164h468l101 312q59 136 161 38l349 -407l361 927l-533 48l-67 -194h-167l150 440h714q152 5 95 -137l-432 -1346l-569 392l-66 -322l2 4h-639q-152 -6 -95 136z" />
    <glyph glyph-name="uni1B92.conj" unicode="&#x1bab;&#x1b92;" horiz-adv-x="1524" 
d="M916 216h261q152 6 94 -136l-191 -722h-146l183 613h-281l-202 -613h-567l321 613h-373l72 245h357q139 6 94 -136l-197 -482h233l333 1169h191z" />
    <glyph glyph-name="uni1B93.conj" unicode="&#x1bab;&#x1b93;" horiz-adv-x="1262" 
d="M520 -920l103 317q58 136 161 38l363 -437l-114 -231l-376 451l-51 -376l-591 -2l339 1265q23 149 193 144h362l-68 -246h-381l-190 -923h250z" />
    <glyph glyph-name="uni1B94.conj" unicode="&#x1bab;&#x1b94;" horiz-adv-x="902" 
d="M37 -1160l504 1163h-496l72 246h522q140 5 95 -137l-399 -1032h610l-56 -240h-852z" />
    <glyph glyph-name="uni1B95.conj" unicode="&#x1bab;&#x1b95;" horiz-adv-x="1404" 
d="M15 -1160l474 1163h-466l73 246h451q140 5 95 -137l-348 -1032h578l305 923h-396l72 246h384q152 5 94 -137l-383 -1272h-933z" />
    <glyph glyph-name="uni1B96.conj" unicode="&#x1bab;&#x1b96;" horiz-adv-x="1409" 
d="M15 -1160l474 1163h-466l73 246h451q140 5 95 -137l-348 -1032h593l279 1169h198l-416 -1409h-933z" />
    <glyph glyph-name="uni1B97.conj" unicode="&#x1bab;&#x1b97;" horiz-adv-x="1380" 
d="M15 -1160l434 1409h201l-423 -1169h662l278 1169h198l-416 -1409h-934z" />
    <glyph glyph-name="uni1B98.conj" unicode="&#x1bab;&#x1b98;" horiz-adv-x="1943" 
d="M804 -1164l2 4h-639q-152 -6 -95 136l429 1273h380l-69 -246h-210l-363 -918h468l101 312q59 136 161 38l349 -407l386 975h-558l-81 -194h-153l150 440h714q152 5 95 -137l-432 -1345l-569 447z" />
    <glyph glyph-name="uni1B99.conj" unicode="&#x1bab;&#x1b99;" horiz-adv-x="1384" 
d="M67 -1160l321 613h-373l72 245h357q139 6 94 -136l-197 -482h512l305 923h-628l72 246h616q151 5 94 -137l-384 -1272h-861z" />
    <glyph glyph-name="uni1B9A.conj" unicode="&#x1bab;&#x1b9a;" horiz-adv-x="1556" 
d="M727 -328l-103 -314h-557l321 613h-373l72 245h357q139 6 94 -136l-197 -482h223l333 1169h191l-276 -837l178 -383l73 669h218l-215 -861q-59 -135 -161 -37z" />
    <glyph glyph-name="uni1B9B.conj" unicode="&#x1bab;&#x1b9b;" horiz-adv-x="945" 
d="M590 -781h-489l57 191h544l113 224h-782l57 191h769q140 6 94 -163l-116 -252h128l-61 -191h-160l-152 -379h-196zM15 30l72 219h1023l-77 -219h-1018z" />
    <glyph glyph-name="uni1B9C.conj" unicode="&#x1bab;&#x1b9c;" horiz-adv-x="1464" 
d="M651 -920h311l209 1169h198l-347 -1409h-655l408 1168h-283l-279 -1168h-198l416 1409h327q221 0 153 -226z" />
    <glyph glyph-name="uni1B9D.conj" unicode="&#x1bab;&#x1b9d;" horiz-adv-x="1339" 
d="M440 103q65 151 210 146h440l-112 -246h-452l-230 -923h631l158 378h-439l72 246h425q151 5 94 -135l-233 -729h-989z" />
    <glyph glyph-name="uni1B9E.conj" unicode="&#x1bab;&#x1b9e;" horiz-adv-x="1390" 
d="M337 -549h-267l72 246h296l125 306h-548l72 246h534q139 5 94 -137l-140 -415h139l-75 -246h-146l-206 -611h-198zM912 -549h-186l72 246h215l124 306h-397l72 246h384q139 5 94 -137l-141 -415h109l-53 -246h-138l-206 -611h-198z" />
    <glyph glyph-name="uni1B9F.conj" unicode="&#x1bab;&#x1b9f;" horiz-adv-x="1417" 
d="M425 -344l138 347h-548l72 246h1146q139 5 94 -137l-429 -1272h-198l249 611h-456l-206 -611h-198l248 611h-267l58 205h297zM679 3l-118 -347h475l138 347h-495z" />
    <glyph glyph-name="uni1BA0.conj" unicode="&#x1bab;&#x1ba0;" horiz-adv-x="1445" 
d="M1258 767q152 5 93 -137l-306 -1272h-201l353 1163h-297l-246 -1163h-614l334 613h-359l72 245h357q139 6 94 -135l-225 -483h269l196 1169h480z" />
    <glyph glyph-name="uni1BAE.conj" unicode="&#x1bab;&#x1bae;" horiz-adv-x="2030" 
d="M900 228q139 5 94 -137l-141 -414h218q139 6 94 -135l-225 -483h269l167 1169h449q152 5 93 -137l-326 -1272h-200l372 1163h-267l-216 -1163h-614l334 613h-229l-207 -613h-198l474 1163h-217l-392 -1163h-198l474 1163h-493l72 246h813z" />
    <glyph glyph-name="uni1BAF.conj" unicode="&#x1bab;&#x1baf;" horiz-adv-x="1870" 
d="M599 -2l-64 -306h203l84 306h-223zM793 -552l-186 -613h-198l228 611h-184l-166 -611h-198l208 611h-227l72 246h256l85 306h-468l72 246h794q139 5 94 -137l-100 -414h199q127 6 93 -136l-187 -482h182l243 1169h191l-206 -836l151 -394l65 679h218l-205 -861
q-59 -135 -160 -38l-151 362l-86 -321h-519l314 613h-224z" />
    <glyph glyph-name="uni1BBD.conj" unicode="&#x1bab;&#x1bbd;" horiz-adv-x="1910" 
d="M902 -925l308 1024q45 150 191 145h481l6 9l-175 -684q-3 -97 -106 -91h-215l67 226h182l33 294h-366l-204 -924h498l-94 -239h-1476l95 239h330l350 924h-362l-157 -294h170l-78 -226h-222q-96 -4 -41 84l261 682v0h515q140 5 95 -137l-322 -1032h236z" />
    <glyph glyph-name="uniFDF2" unicode="&#xfdf2;" horiz-adv-x="1624" arabic-form="isolated" 
d="M765 1361l-21 -8q-25 61 -76 114q-13 14 -67 59q9 42 46 42t58 -36q31 -57 36 -69q17 -42 24 -102zM945 1315q0 -72 -26.5 -125.5t-67.5 -53.5q-23 0 -41.5 5.5t-41.5 18.5q-12 -30 -37 -54q-32 -31 -65 -31q-42 0 -63 27t-21 72q0 18 4 40.5t6 34.5l30 12
q0 -48 14.5 -65.5t46.5 -17.5q21 0 44.5 42.5t29.5 82.5l23 6q11 -40 17 -47q14 -19 52 -19q27 0 46 41q12 27 20 65l25 6q5 -20 5 -40zM1235 474q0 -37 -5 -68q-8 -50 -28 -88l-13 -25q-119 0 -195 35q-61 28 -107 87q-40 -68 -96 -97q-48 -25 -111 -25q-65 0 -126.5 38
t-83.5 98q-40 -59 -96 -97.5t-109 -38.5q-112 0 -178 16.5t-66 42.5q0 84 114 190.5t278 182.5q-4 15 -9.5 41t-5.5 41q0 34 23 76q19 34 51 72q13 -82 27 -164q21 -123 43 -229q12 -55 45.5 -79t90.5 -24q46 0 71.5 12.5t64.5 72.5l-59 273q-7 32 -10 52q-7 39 -7 56
q0 35 23 77q19 34 51 71q9 -51 20.5 -110.5t34.5 -173.5l36 -172q16 -73 48 -111q39 -46 105 -46q28 0 45.5 22.5t22.5 61.5l-58 273q-7 42 -9 52q-7 41 -7 56q0 34 23 77q20 37 49 71q4 -25 34 -160q36 -164 52 -248q27 -142 27 -191zM449 500l-19 111q-88 -32 -134 -63
q-52 -35 -87 -91q22 -9 49.5 -14t77.5 -5q28 0 58 16.5t55 45.5zM1538 548q0 -80 -29 -155q-15 -40 -65 -127l-18 10q3 29 5.5 67t2.5 51q0 104 -16.5 290.5t-39.5 389.5q-14 123 -31 251q20 44 45.5 95t48.5 96q16 -114 40.5 -312t38.5 -357q18 -198 18 -299z" />
    <glyph glyph-name=".notdef" horiz-adv-x="1624" 
d="M765 1361l-21 -8q-25 61 -76 114q-13 14 -67 59q9 42 46 42t58 -36q31 -57 36 -69q17 -42 24 -102zM945 1315q0 -72 -26.5 -125.5t-67.5 -53.5q-23 0 -41.5 5.5t-41.5 18.5q-12 -30 -37 -54q-32 -31 -65 -31q-42 0 -63 27t-21 72q0 18 4 40.5t6 34.5l30 12
q0 -48 14.5 -65.5t46.5 -17.5q21 0 44.5 42.5t29.5 82.5l23 6q11 -40 17 -47q14 -19 52 -19q27 0 46 41q12 27 20 65l25 6q5 -20 5 -40zM1235 474q0 -37 -5 -68q-8 -50 -28 -88l-13 -25q-119 0 -195 35q-61 28 -107 87q-40 -68 -96 -97q-48 -25 -111 -25q-65 0 -126.5 38
t-83.5 98q-40 -59 -96 -97.5t-109 -38.5q-112 0 -178 16.5t-66 42.5q0 84 114 190.5t278 182.5q-4 15 -9.5 41t-5.5 41q0 34 23 76q19 34 51 72q13 -82 27 -164q21 -123 43 -229q12 -55 45.5 -79t90.5 -24q46 0 71.5 12.5t64.5 72.5l-59 273q-7 32 -10 52q-7 39 -7 56
q0 35 23 77q19 34 51 71q9 -51 20.5 -110.5t34.5 -173.5l36 -172q16 -73 48 -111q39 -46 105 -46q28 0 45.5 22.5t22.5 61.5l-58 273q-7 42 -9 52q-7 41 -7 56q0 34 23 77q20 37 49 71q4 -25 34 -160q36 -164 52 -248q27 -142 27 -191zM449 500l-19 111q-88 -32 -134 -63
q-52 -35 -87 -91q22 -9 49.5 -14t77.5 -5q28 0 58 16.5t55 45.5zM1538 548q0 -80 -29 -155q-15 -40 -65 -127l-18 10q3 29 5.5 67t2.5 51q0 104 -16.5 290.5t-39.5 389.5q-14 123 -31 251q20 44 45.5 95t48.5 96q16 -114 40.5 -312t38.5 -357q18 -198 18 -299z" />
    <glyph glyph-name=".null" 
 />
    <glyph glyph-name="glyph2" horiz-adv-x="1024" 
d="M100 0v1434h824v-1434h-824zM150 50h724v1334h-724v-1334zM325 1148q31 28 58 43q53 30 112 30q92 0 148 -47.5t56 -127.5q0 -49 -23 -98.5t-87 -129.5q-63 -80 -99 -132t-36 -99q0 -38 24 -133h-32q-35 97 -35 148q0 76 81.5 218t81.5 217q0 57 -33 90t-91 33
q-38 0 -69 -17q-26 -15 -56 -40v45zM389 334l57 58q11 10 20 10q10 0 22 -11l56 -60q9 -11 9 -20q0 -11 -10 -22l-56 -62q-14 -14 -21 -14q-11 0 -20 10l-61 71q-7 9 -7 18q0 10 11 22z" />
    <glyph glyph-name="uni0008" 
 />
    <glyph glyph-name="space" unicode=" " horiz-adv-x="508" 
 />
    <glyph glyph-name="exclam" unicode="!" horiz-adv-x="487" 
d="M331 1516v-1113q0 -89 -89 -89t-89 89q0 41 -2.5 122.5t-2.5 121.5q0 145 2.5 434.5t2.5 434.5q0 89 89 89t89 -89zM332 23q0 -36 -28.5 -62.5t-64.5 -26.5q-40 0 -80 52q-39 49 -39 90q0 36 28.5 62t65.5 26q39 0 80 -52q38 -49 38 -89z" />
    <glyph glyph-name="quotedbl" unicode="&#x22;" horiz-adv-x="869" 
d="M294 1116q0 -17 5 -49.5t5 -48.5q0 -37 -27 -61.5t-65 -24.5q-96 0 -96 171q0 66 3 198t3 198q0 39 25 64t64 25t64 -25t25 -64q0 -64 -3 -191.5t-3 -191.5zM687 1495q0 -16 -3 -45t-3 -42l-9 -390q-2 -90 -89 -90q-38 0 -64 25t-25 63l9 397q2 79 13 111q21 60 82 60
q39 0 64 -25.5t25 -63.5z" />
    <glyph glyph-name="numbersign" unicode="#" horiz-adv-x="1726" 
d="M552 577h500l113 415h-488zM365 577l122 415h-267q-95 0 -95 100q0 76 148 76h264q26 116 79 316q29 92 117 92q33 0 54.5 -26.5t21.5 -58.5q0 -40 -26 -132q-44 -159 -51 -191h485q34 121 93 323q26 85 98 85q84 0 84 -78q0 -68 -83 -330h195q102 0 102 -75
q0 -105 -113 -105q-15 0 -46.5 2t-46.5 2h-146l-106 -415h204q73 0 103 -11q52 -20 52 -80q0 -92 -87 -92h-322l-90 -325q-27 -97 -112 -97q-82 0 -82 79q0 59 33 172q46 157 49 171h-500q-30 -117 -105 -344q-29 -71 -98 -71q-80 0 -80 79q0 39 23 113q35 112 70 223h-191
q-83 0 -83 99q0 39 34 63q29 21 70 21h229z" />
    <glyph glyph-name="dollar" unicode="$" horiz-adv-x="1420" 
d="M588 887v359q-199 -75 -199 -232q0 -97 199 -127zM766 676v-520q106 36 177 106q79 80 79 173q0 174 -256 241zM766 1636v-169h4q96 0 219 -33q161 -43 161 -110q0 -88 -89 -88q-40 0 -140.5 21.5t-154.5 20.5v-407q221 -20 346 -145q114 -116 114 -280q0 -201 -139 -333
q-123 -116 -321 -153v-266q0 -39 -25.5 -64.5t-64.5 -25.5q-88 0 -88 88v255q-488 7 -488 253q0 90 83 90q47 0 90 -37q64 -55 97 -72q80 -40 218 -46v567h-8q-155 6 -268 76q-140 86 -140 239q0 137 128 258q118 112 288 163v192q0 39 26.5 65t65.5 26q86 0 86 -85z" />
    <glyph glyph-name="percent" unicode="%" horiz-adv-x="1680" 
d="M443 1041q-140 0 -221 97q-75 91 -75 232q0 98 102 187q98 85 197 85q145 0 231 -96q82 -93 82 -239q0 -122 -102 -197q-91 -69 -214 -69zM1234 1468q-37 -60 -79 -159l-71 -162l-198 -425l-224 -472q-31 -77 -101 -227q-28 -53 -75 -53q-33 0 -59.5 23.5t-26.5 58.5
q0 15 6 33q49 135 158 353q129 257 168 349l270 600q54 133 99 182q31 34 64 34q34 0 60.5 -25.5t26.5 -59.5q0 -22 -18 -50zM1260 -19q-136 0 -226 81q-94 85 -94 221q0 148 84 245q88 104 234 104q136 0 238 -76q113 -85 113 -218q0 -153 -98 -255t-251 -102zM443 1474
q-46 0 -86 -30q-43 -33 -43 -74q0 -80 32.5 -120.5t96.5 -40.5q54 0 98 24q50 28 50 74q0 84 -37 125.5t-111 41.5zM1258 464q-72 0 -113 -54q-37 -50 -37 -127q0 -67 43.5 -101t130.5 -34q80 0 119.5 47.5t39.5 142.5q0 58 -62 95q-54 31 -121 31z" />
    <glyph glyph-name="ampersand" unicode="&#x26;" horiz-adv-x="1340" 
d="M684 1084q128 106 128 210q0 46 -15.5 68.5t-46.5 22.5q-18 0 -54.5 -63.5t-36.5 -84.5q0 -67 25 -153zM608 811q-172 -115 -234 -177q-121 -121 -121 -255q0 -109 87 -178q81 -63 193 -63q202 0 349 171q-76 113 -274 502zM481 1237q0 100 83 210q89 117 186 117
q114 0 179 -80q61 -73 61 -190q0 -203 -241 -384q77 -169 237 -425q20 55 30 114q16 102 23 127q26 82 80 82q42 0 66 -45q20 -37 20 -83q0 -203 -104 -376q167 -262 167 -311q0 -36 -28.5 -61.5t-64.5 -25.5q-45 0 -77 51l-115 199q-201 -196 -450 -196q-187 0 -319 115
q-139 120 -139 304q0 194 147 353q85 92 310 242q-51 135 -51 263z" />
    <glyph glyph-name="quotesingle" unicode="'" horiz-adv-x="795" 
d="M462 1446q0 -30 5 -89t5 -89q0 -128 -90 -128q-62 0 -79 44q-8 23 -8 95q0 28 -5.5 83.5t-5.5 83.5q0 100 8 135q20 79 88 79q38 0 64 -24.5t26 -62.5q0 -21 -4 -63.5t-4 -63.5z" />
    <glyph glyph-name="parenleft" unicode="(" horiz-adv-x="750" 
d="M696 1513q0 -35 -62 -102q-46 -46 -91 -92q-111 -126 -174 -360q-55 -204 -55 -401q0 -508 230 -745q46 -36 93 -72q58 -46 58 -91q0 -33 -26 -57.5t-60 -24.5q-30 0 -72 23q-423 237 -423 990q0 271 109 549q122 309 320 448q40 28 63 28q36 0 63 -28.5t27 -64.5z" />
    <glyph glyph-name="parenright" unicode=")" horiz-adv-x="750" 
d="M696 581q0 -753 -424 -990q-41 -23 -71 -23q-34 0 -60 24.5t-26 57.5q0 45 58 91q46 36 93 72q230 237 230 745q0 197 -55 401q-64 234 -174 360q-46 46 -91 92q-62 67 -62 102q0 36 26.5 64.5t62.5 28.5q23 0 64 -28q198 -139 320 -448q109 -278 109 -549z" />
    <glyph glyph-name="asterisk" unicode="*" horiz-adv-x="1085" 
d="M97 834q0 44 26 79t62 35q24 0 271 -116q-8 167 -8 230q0 47 25.5 77t63.5 30q39 0 64.5 -30t25.5 -77q0 -66 6 -203q240 43 294 43q37 0 61.5 -31.5t24.5 -77.5q0 -84 -75 -103q-70 -18 -247 -43q58 -64 126 -163q89 -133 89 -184q0 -43 -28 -75t-64 -32q-38 0 -69 43
q-61 99 -199 282q-206 -279 -279 -279q-36 0 -63.5 33.5t-27.5 76.5q0 41 32 79q64 65 186 208q-82 31 -240 104q-57 30 -57 94z" />
    <glyph glyph-name="plus" unicode="+" horiz-adv-x="984" 
d="M913 643q0 -37 -24.5 -64.5t-61.5 -27.5q-12 0 -36 4t-37 4l-100 -2q-61 -2 -100 0v-235q0 -90 -89 -90q-44 0 -66.5 22.5t-22.5 67.5l-1 115l-1 116q-121 -7 -171 -7q-155 0 -155 92q0 65 55 81q19 5 100 5q50 0 171 7l-1 117q0 91 9 126q10 36 31 54t54 18
q38 0 64.5 -24.5t26.5 -62.5q0 -17 -3.5 -54t-3.5 -56l1 -114l75 -3q20 0 61 2.5t61 2.5q164 0 164 -94z" />
    <glyph glyph-name="comma" unicode="," horiz-adv-x="567" 
d="M285 -344q-35 0 -61 27t-26 62q0 29 62 172q54 124 83 177q26 48 69 48q36 0 61.5 -27.5t25.5 -62.5q0 -24 -142 -342q-23 -54 -72 -54z" />
    <glyph glyph-name="hyphen" unicode="-" horiz-adv-x="853" 
d="M679 475q-136 -14 -484 -14q-84 0 -84 78t84 78q79 0 237 7t237 7q89 0 89 -78q0 -69 -79 -78z" />
    <glyph glyph-name="period" unicode="." horiz-adv-x="510" 
d="M267 -93q-52 0 -88 36t-36 88q0 51 36 87.5t88 36.5q51 0 87.5 -36.5t36.5 -87.5q0 -52 -36.5 -88t-87.5 -36z" />
    <glyph glyph-name="slash" unicode="/" horiz-adv-x="1048" 
d="M177 -90q-37 0 -65 25t-28 62q0 16 7 34q78 215 294 619.5t295 620.5q131 358 198 355q37 -1 65 -26.5t28 -61.5q0 -23 -11 -55l-112 -272q-67 -185 -191 -427l-218 -414l-181 -401q-27 -59 -81 -59z" />
    <glyph glyph-name="zero" unicode="0" horiz-adv-x="1250" 
d="M611 -39q-304 0 -444 278q-106 214 -106 557q0 290 138 506q163 253 443 253q263 0 410 -224q127 -194 127 -473q0 -448 -142 -672.5t-426 -224.5zM641 1362q-186 0 -295 -189q-91 -158 -91 -361q0 -329 89 -494t267 -165q212 0 304 242q64 168 64 426q0 271 -84.5 406
t-253.5 135z" />
    <glyph glyph-name="one" unicode="1" horiz-adv-x="922" 
d="M704 -1h-199l-198 1q-70 0 -98 9q-51 18 -51 76q0 101 157 101l48 -1l41 -2q0 48 -8.5 142t-8.5 141q0 127 23 386q22 255 21 387q-134 -104 -171 -104q-40 0 -69.5 30t-29.5 69q0 47 86 114q54 38 153 122q88 89 168 89q67 0 67 -77q0 -23 -6 -68.5t-6 -68.5
q0 -33 3.5 -100t3.5 -100q0 -114 -24 -340t-24 -339q0 -58 8 -141t9 -136l105 2q42 0 69.5 -27.5t27.5 -68.5q0 -42 -27.5 -69t-69.5 -27z" />
    <glyph glyph-name="two" unicode="2" horiz-adv-x="1250" 
d="M1008 -2q-25 0 -70.5 15.5t-69.5 15.5q-51 0 -153 -6t-154 -6q-39 0 -115.5 -10t-115.5 -10q-11 0 -32 4t-32 4q-69 0 -90 67q-12 35 -12 120q0 233 127 375q58 65 313 240q143 98 191 153q86 96 86 225q0 64 -83 114q-73 45 -143 45q-92 0 -175 -53l-143 -112
q-43 -34 -69 -34q-103 0 -103 82q0 47 38 81q117 110 203 159q121 69 249 69q162 0 289 -88q142 -99 142 -254q0 -102 -29 -188t-88 -157q-75 -90 -254 -201q-188 -118 -247 -179q-111 -115 -109 -279l206 19q212 12 303 12q76 0 144 -26q90 -35 90 -97q0 -39 -27 -69.5
t-67 -30.5z" />
    <glyph glyph-name="three" unicode="3" horiz-adv-x="1250" 
d="M605 -46q-151 0 -271 63q-135 73 -182 205q-6 18 -6 35q0 40 30.5 66.5t70.5 26.5t69 -37l46 -69q36 -49 97 -73.5t146 -24.5q109 0 191 68q87 72 87 176q0 151 -111 241q-98 78 -260 95q-111 11 -111 90q0 59 87 90l239 59q69 25 104 67.5t36 103.5q2 88 -68 142
q-73 56 -205 56q-68 0 -132 -33l-113 -71q-33 -21 -53 -21q-40 0 -68.5 30.5t-28.5 69.5q0 79 153 152q133 65 219 65q215 0 341 -95q135 -102 135 -291q0 -235 -190 -310q-17 -7 -39 -14q133 -49 199 -146.5t66 -243.5q0 -197 -139 -334.5t-339 -137.5z" />
    <glyph glyph-name="four" unicode="4" horiz-adv-x="1250" 
d="M964 437v-370q0 -93 -91 -93q-106 0 -106 145q0 18 2 51t2 45l-1 227l-441 11q-137 0 -190 9q-91 15 -91 71q0 45 55 114l86 102l492 718q67 93 170 93q113 0 113 -98v-831q17 1 41 1q184 0 184 -99q0 -72 -76 -91q-34 -9 -149 -5zM770 1283q-267 -426 -417 -638l417 -10
v648z" />
    <glyph glyph-name="five" unicode="5" horiz-adv-x="1250" 
d="M562 -63q-284 0 -418 210q-18 29 -18 56q0 39 31 67.5t70 28.5q41 0 78 -44q53 -64 80 -82q65 -44 177 -44q173 0 287 132q109 126 109 303q0 146 -48 237q-62 115 -191 115q-107 0 -175 -29q-54 -23 -109 -79l-109 -119q-44 -45 -90 -45q-40 0 -68 28.5t-28 68.5
q0 20 16 178q34 315 34 414q0 35 -17.5 76.5t-17.5 61.5q0 61 105 61q20 0 60.5 -3.5t60.5 -3.5q58 0 174 4t174 4q27 0 82 -2t82 -2q19 0 55 7.5t54 7.5q39 0 69 -29t30 -67q0 -112 -237 -112q-31 0 -78 2t-57 2l-169 -3l-169 -5q0 -45 -37 -333q137 109 365 109
q220 0 336 -172q98 -146 98 -372q0 -270 -158 -445q-164 -182 -433 -182z" />
    <glyph glyph-name="six" unicode="6" horiz-adv-x="1250" 
d="M597 -72q-261 0 -384 191q-102 157 -102 419q0 494 401 857l94 95q69 66 104 66q40 0 70 -28.5t31 -67.5q2 -36 -102 -139l-204 -199q-81 -82 -139 -248q87 40 152 59.5t107 19.5q234 0 359 -125t125 -353q0 -239 -135 -390q-141 -157 -377 -157zM597 749q-86 0 -154 -30
q-26 -12 -131 -77q-6 -53 -6 -104q0 -179 60 -292q76 -144 237 -144q151 0 234 108q77 100 77 265q0 137 -79 205.5t-238 68.5z" />
    <glyph glyph-name="seven" unicode="7" horiz-adv-x="1250" 
d="M1154 1306l-91 -106q-130 -152 -239 -368l-182 -399q-19 -44 -84 -231q-52 -148 -97 -221q-28 -47 -80 -47q-40 0 -70.5 28t-30.5 67q0 38 64 195l225 551q149 327 306 504l19 21l-502 10l-225 6q-97 9 -97 96q0 42 28 69t70 27q126 0 378.5 -8t378.5 -8h183
q106 0 106 -63q0 -47 -60 -123z" />
    <glyph glyph-name="eight" unicode="8" horiz-adv-x="1250" 
d="M614 -54q-211 0 -341 92q-148 104 -151 305q-4 323 227 440q-178 108 -178 307q0 189 137 314q131 120 318 122q420 4 420 -415q0 -120 -48 -185q-39 -54 -151 -111q149 -75 209 -162q70 -102 70 -281q0 -204 -151 -320q-140 -106 -361 -106zM623 1347q-129 0 -197 -73
q-61 -68 -60 -184q1 -140 230 -199q120 35 172 70q83 56 83 150q0 136 -61 191q-52 45 -167 45zM605 714q-159 -74 -212 -128q-83 -83 -78 -234q4 -125 115 -187q81 -44 184 -44q176 0 246 83q56 66 56 200q0 131 -102 211q-68 55 -209 99z" />
    <glyph glyph-name="nine" unicode="9" horiz-adv-x="1250" 
d="M784 121q-73 -54 -234 -130q-179 -86 -249 -86q-41 0 -67.5 30t-26.5 70q0 59 68 89l167 57q155 63 245 145t164 233l43 86q-56 -32 -144 -59t-143 -27q-189 0 -327 105q-168 128 -168 364q0 279 172 419q147 119 386 119q184 0 330 -150q154 -159 155 -384
q1 -254 -94 -493q-102 -258 -277 -388zM642 1365q-168 0 -252.5 -87t-85.5 -262q0 -147 103 -228q91 -71 229 -71q80 0 167 48q40 22 144 99q13 87 13 138q-1 125 -105.5 244t-212.5 119z" />
    <glyph glyph-name="colon" unicode=":" horiz-adv-x="612" 
d="M414 226q0 -45 -29 -74t-74 -29t-73 29q-29 29 -29 74q0 19 -6.5 55.5t-6.5 54.5q0 42 31.5 70t74.5 28q112 0 112 -208zM397 956q0 -45 -28.5 -74t-73.5 -29t-74 29t-29 74q0 12 -4.5 36.5t-4.5 37.5q0 43 30 71t74 28q110 0 110 -173z" />
    <glyph glyph-name="semicolon" unicode=";" horiz-adv-x="612" 
d="M411 950q0 -44 -29 -73t-73 -29t-73 29t-29 73q0 13 -5 37.5t-5 36.5q0 43 30.5 71.5t73.5 28.5q110 0 110 -174zM171 -194q-90 0 -90 94q0 65 86 192q89 132 147 132q36 0 64 -27t28 -63t-70 -118q-72 -86 -77 -125q-10 -85 -88 -85z" />
    <glyph glyph-name="semicolon" unicode="&#x37e;" horiz-adv-x="612" 
d="M411 950q0 -44 -29 -73t-73 -29t-73 29t-29 73q0 13 -5 37.5t-5 36.5q0 43 30.5 71.5t73.5 28.5q110 0 110 -174zM171 -194q-90 0 -90 94q0 65 86 192q89 132 147 132q36 0 64 -27t28 -63t-70 -118q-72 -86 -77 -125q-10 -85 -88 -85z" />
    <glyph glyph-name="less" unicode="&#x3c;" horiz-adv-x="781" 
d="M298 614q56 -41 138 -127q97 -101 133 -132t36 -68t-27 -65t-63 -28q-28 0 -56 21q-40 29 -171 166q-100 105 -193 141q-76 28 -76 83q0 50 69 83q93 45 204 162q155 162 184.5 186.5t59.5 24.5q36 0 63.5 -27.5t27.5 -64.5q0 -34 -30 -64q-96 -102 -299 -291z" />
    <glyph glyph-name="equal" unicode="=" horiz-adv-x="1045" 
d="M324 999l467 -1q89 0 89 -89t-89 -89l-468 1q-23 0 -68.5 -2.5t-67.5 -2.5q-39 0 -63.5 26t-24.5 64q0 72 84 88q22 5 141 5zM381 462q66 0 198 -3t198 -3q89 0 89 -89t-89 -89q-66 0 -198 3t-198 3q-30 0 -90 -4t-89 -4q-92 0 -92 89q0 82 86 89q111 8 185 8z" />
    <glyph glyph-name="greater" unicode="&#x3e;" horiz-adv-x="781" 
d="M736 663q0 -36 -37 -71q-238 -221 -499 -388q-28 -18 -53 -18q-36 0 -62.5 28.5t-26.5 64.5q0 40 39 70l388 296q-89 59 -220 181q-160 151 -160 209q0 36 28 63t64 27q37 0 67 -34q228 -255 413 -351q59 -30 59 -77z" />
    <glyph glyph-name="question" unicode="?" horiz-adv-x="1073" 
d="M371 308q-41 0 -72 31.5t-31 71.5q0 69 128 170l239 180q129 111 129 203q0 116 -109 214q-105 95 -223 95q-63 0 -160 -64.5t-120 -64.5q-41 0 -70.5 33t-29.5 74q0 79 153 157q137 70 227 70q201 0 365 -157t164 -357q0 -146 -94 -259q-56 -68 -208 -176
q-153 -111 -213 -180q-35 -41 -75 -41zM316 -72q-44 0 -79.5 29.5t-35.5 71.5q0 62 33 112q37 56 95 56q96 0 96 -118q0 -55 -26 -99q-32 -52 -83 -52z" />
    <glyph glyph-name="at" unicode="@" horiz-adv-x="1907" 
d="M1306 412q-106 0 -183 31t-124 92q-54 -53 -105.5 -80t-100.5 -27q-111 0 -209.5 90.5t-98.5 198.5q0 185 145.5 338t330.5 153q42 0 70 -31t28 -75q0 -60 -100 -89q-133 -38 -188 -87q-81 -71 -81 -209q0 -29 27 -56q31 -30 77 -28q87 4 161 162q67 138 119 138
q42 0 68 -31t26 -76q0 -20 -6.5 -60t-6.5 -60q0 -65 56 -82q22 -7 95 -7q137 0 192 67q50 60 50 199q0 245 -197 400q-180 142 -430 142q-291 0 -456 -220q-149 -196 -149 -493q0 -274 175 -462q182 -196 468 -196q81 0 183 31l175 65q44 16 57 16q41 0 71 -32.5t30 -75.5
q0 -95 -213 -154q-161 -44 -301 -44q-141 0 -288.5 54.5t-252.5 145.5q-310 268 -310 652t212 642q225 276 599 276q338 0 579 -203q253 -215 253 -544q0 -225 -110 -346q-115 -125 -337 -125z" />
    <glyph glyph-name="A" unicode="A" horiz-adv-x="1498" 
d="M1250 -30q-92 0 -160 236q-26 90 -65 315q-102 -14 -267 -50l-266 -55q-50 -131 -171 -383q-32 -56 -87 -56q-40 0 -71.5 29t-31.5 72q0 48 151 365q-17 26 -17 60q0 81 98 104q114 214 288 492q237 379 295 379q79 0 108 -110l63 -336l149 -695l57 -158q29 -81 29 -108
q0 -43 -31 -72t-71 -29zM897 1113l-286 -461q121 31 367 75z" />
    <glyph glyph-name="B" unicode="B" horiz-adv-x="1291" 
d="M886 40q-225 -88 -575 -88q-43 0 -81.5 40.5t-38.5 83.5v291q0 143 18 408q20 286 22 414q-1 92 11 274q7 50 33 66q136 42 309 42q176 0 338 -120q187 -138 187 -341q0 -257 -200 -405q150 -64 224.5 -142t74.5 -170q0 -121 -131 -234q-91 -80 -191 -119zM584 1367
q-109 0 -153 -7l-2 -175l-20 -387q142 -12 152 -11q151 12 247 94q103 89 103 229q0 95 -105 176t-222 81zM696 566l-106 17q-13 0 -39.5 -1.5t-40.5 -1.5q-54 0 -115 9q-6 -126 -6 -225v-207q262 9 427 74q70 27 134 84q61 52 61 78q0 47 -128 106q-96 45 -187 67z" />
    <glyph glyph-name="C" unicode="C" horiz-adv-x="1234" 
d="M1104 1122q-64 0 -96 75q-28 64 -52 78q-21 11 -104 11q-145 0 -322 -222q-240 -298 -240 -565q0 -129 83 -222q85 -96 205 -96q103 0 207 53q58 30 178 118q57 42 86 42q43 0 72 -32.5t29 -72.5q0 -45 -38 -79q-264 -234 -534 -234q-207 0 -350 159q-138 154 -138 364
q0 339 284 695q237 297 478 297q49 0 88 -4.5t69 -14.5q35 51 91 51q69 0 87 -91q16 -81 16 -199q0 -41 -22 -72q-27 -39 -77 -39z" />
    <glyph glyph-name="D" unicode="D" horiz-adv-x="1478" 
d="M1076 7q-155 -106 -445 -106q-73 0 -167 23q-113 27 -170 70h-10q-43 0 -72 30t-29 73q0 105 9.5 314.5t9.5 314.5q0 117 -4.5 349.5t-4.5 349.5q0 41 42 86t84 45q24 0 160 -67q154 -75 178 -83q284 -97 484 -298q235 -237 235 -521q0 -171 -80.5 -328t-219.5 -252z
M866 1065q-102 67 -471 230l5 -288l3 -287l-16 -546q7 -3 21 -13q88 -59 222 -59q228 0 332 70q97 66 154.5 177.5t57.5 232.5q0 282 -308 483z" />
    <glyph glyph-name="E" unicode="E" horiz-adv-x="1279" 
d="M1115 1346q-14 0 -31 5q-169 48 -326 48q-82 0 -179 -15t-209 -46q9 -65 9 -104q0 -139 -17 -382l438 42q193 20 237 20t74 -28t30 -75q0 -91 -92 -102l-238 -21l-462 -42q-4 -71 -6.5 -134.5t-2.5 -118.5q0 -221 32 -260q24 -28 157 -28q62 0 186.5 3.5t187.5 3.5
q20 0 59 6.5t58 6.5q106 0 106 -104q0 -84 -85 -101q-94 -19 -407 -19q-310 0 -398 82q-96 89 -96 410q0 64 3 140t8 164q-11 23 -11 49q0 34 19 61q20 289 20 427q0 37 -10 108.5t-10 108.5q0 119 100 119q42 0 72 -29q120 32 226.5 48t200.5 16q243 0 388 -58
q67 -27 67 -96q0 -40 -26 -71q-29 -34 -72 -34z" />
    <glyph glyph-name="F" unicode="F" horiz-adv-x="1243" 
d="M1106 1314q-18 0 -38 8q-124 46 -328 46q-66 0 -154.5 -9.5t-198.5 -29.5l-2 -432q193 51 290 51q154 0 319 -18q94 -10 94 -102q0 -45 -29 -74.5t-72 -29.5q-52 0 -156 9t-156 9q-68 0 -294 -58l-9 -688q0 -43 -28 -72.5t-71 -29.5t-71.5 29.5t-28.5 72.5
q0 197 7.5 591.5t7.5 591.5q0 44 -1.5 132.5t-1.5 132.5t27.5 74t71.5 30q33 0 59 -18q124 22 223 32.5t174 10.5q115 0 263 -33q201 -46 201 -120q0 -40 -26 -71q-29 -35 -72 -35z" />
    <glyph glyph-name="G" unicode="G" horiz-adv-x="1392" 
d="M1300 605q-62 -307 -260.5 -490.5t-468.5 -183.5q-246 0 -369 137.5t-123 412.5q0 259 122.5 533.5t314.5 443.5q128 113 271 113q91 0 240 -60q182 -72 182 -159q0 -41 -30 -73t-72 -32q-22 0 -62 25q-153 93 -258 93q-75 0 -157 -78q-41 -39 -118 -142
q-231 -306 -231 -664q0 -188 58 -263q63 -82 232 -82q179 0 311 113q139 120 194 343q-277 -14 -475 -107q-23 -11 -45 -11q-44 0 -73 34q-27 31 -27 72q0 55 53 88q216 132 745 132q43 0 72 -29t29 -73q0 -65 -55 -93z" />
    <glyph glyph-name="H" unicode="H" horiz-adv-x="1573" 
d="M1456 1409q-15 -42 -15 -123q0 -30 2 -89t2 -89q0 -100 -17.5 -298t-17.5 -298q0 -76 11 -228t11 -229q0 -41 -27.5 -69t-68.5 -28q-40 0 -68 28t-28 69q0 77 -11 229t-11 228q0 73 5 148q-171 -3 -423 -51l-420 -82q0 -90 -18 -255.5t-18 -256.5q0 -41 -27.5 -69.5
t-68.5 -28.5t-68.5 28.5t-27.5 69.5q0 106 17.5 316.5t17.5 316.5q0 55 -4 166t-4 167q0 79 10 237.5t10 237.5q0 42 27.5 70t68.5 28t68.5 -28t27.5 -70q0 -80 -10.5 -239.5t-10.5 -239.5l6 -253l429 81q257 48 433 50q11 143 11 431q0 76 25 154q33 107 93 107
q38 0 68 -27.5t30 -69.5q0 -15 -9 -41z" />
    <glyph glyph-name="I" unicode="I" horiz-adv-x="1119" 
d="M957 1246q-64 0 -161 13l-161 21q-23 -291 -23 -556q0 -70 4 -173t4 -173q0 -94 -7 -171l315 4q42 0 70.5 -29.5t28.5 -72.5q0 -44 -28.5 -73.5t-70.5 -29.5q-56 0 -168 -2.5t-168 -2.5q-66 0 -197.5 -18.5t-198.5 -18.5q-42 0 -70.5 29.5t-28.5 72.5t28.5 73t70.5 30
q65 0 215 21q10 81 10 185q0 69 -6.5 168.5t-6.5 167.5q0 231 28 577l-130 -4l-130 -3q-43 0 -72 29t-29 74q0 93 94 102q81 8 303 8q199 0 499 -43q89 -13 89 -107q0 -47 -34 -75q-30 -23 -69 -23z" />
    <glyph glyph-name="J" unicode="J" horiz-adv-x="1362" 
d="M1197 1294q-18 0 -61.5 7.5t-67.5 7.5q-49 0 -115 -3l5 -119q0 -744 -99 -1083q-66 -224 -231 -224q-174 0 -345 126q-189 140 -189 321q0 123 101 123t101 -121q0 -83 118 -165q113 -78 214 -78q82 0 114 503q15 238 15 598q0 28 -5 108l-61 -1q-39 0 -117.5 2.5
t-118.5 2.5q-44 0 -74 28t-30 76q0 103 139 103q34 0 101 -3t100 -3q63 0 188.5 7.5t188.5 7.5q228 0 228 -116q0 -40 -27 -71q-29 -34 -72 -34z" />
    <glyph glyph-name="K" unicode="K" horiz-adv-x="1251" 
d="M1153 -41q-152 0 -433 267l-299 301v-14l-1 -524q0 -99 -87 -99q-57 0 -91 50q-28 41 -28 89q0 234 14 700t14 699q0 43 28.5 73t70.5 30q43 0 71.5 -30t28.5 -73q0 -97 -12 -302q-12 -198 -11 -303q134 127 303 319l287 333q34 39 76 39q40 0 71 -30t31 -73
q0 -66 -258 -352q-178 -195 -368 -382q120 -126 376 -362l105 -88q57 -44 123 -66q79 -26 79 -99q0 -34 -21 -65q-26 -38 -69 -38z" />
    <glyph glyph-name="L" unicode="L" horiz-adv-x="1128" 
d="M1025 41q-113 -53 -355 -95q-223 -39 -364 -39q-101 0 -145 31q-60 42 -60 154l20 331q26 458 26 1016q0 43 28.5 73t70.5 30q43 0 71.5 -30t28.5 -73q0 -565 -27 -1028l-13 -152q-8 -83 -6 -147q261 -3 660 123q17 5 32 5q43 0 72 -34q25 -31 25 -71q0 -64 -64 -94z" />
    <glyph glyph-name="M" unicode="M" horiz-adv-x="1808" 
d="M1625 -83q-54 0 -89 56q-30 48 -54 160l-36 172q-41 160 -130 706l-200 -603l-59 -190q-36 -113 -75 -185q-42 -76 -113 -76q-59 0 -93 64q-22 42 -40 107l-29 111q-101 353 -178 756l-36 -179l-129 -528q-8 -93 -50 -275q-30 -78 -99 -78q-49 0 -78 35q-25 30 -25 74
q0 167 69 410l110 403l58 315q44 221 93 289q40 58 99 58q65 0 97 -74q39 -89 84 -363q53 -329 165 -712q148 385 256 802l30 146q18 88 47 142q39 74 107 74q86 0 131 -166q16 -57 39 -236q59 -452 147 -772l49 -172q38 -138 38 -170q0 -43 -32.5 -72t-73.5 -29z" />
    <glyph glyph-name="N" unicode="N" horiz-adv-x="1632" 
d="M1541 222q0 -48 -16 -160q-16 -101 -107 -101q-55 0 -131 72q-407 385 -934 1111l-5 -227l-3 -228q0 -83 3.5 -249t3.5 -250q0 -269 -104 -269q-55 0 -87 35q-29 31 -29 74q0 42 6.5 127t6.5 127q0 62 4 185.5t4 185.5q0 66 -3 199.5t-3 199.5q0 63 -12 187.5t-12 187.5
q0 46 39.5 84t89.5 38q53 0 131 -116q249 -373 448 -620q237 -293 520 -560q3 43 0 127l-3 126q0 439 -34 699q-4 26 -27 105q-20 68 -20 106q0 116 106 116q174 0 174 -649q0 -111 -3 -331.5t-3 -331.5z" />
    <glyph glyph-name="O" unicode="O" horiz-adv-x="1635" 
d="M802 -61q-282 0 -478 169q-208 180 -208 464q0 346 205 629q229 314 571 314q329 0 489 -148q167 -154 167 -486q0 -346 -188 -624q-216 -318 -558 -318zM892 1310q-245 0 -415 -244q-157 -224 -157 -494q0 -193 143 -314q137 -114 339 -114q243 0 401 245
q141 219 141 492q0 239 -107 336q-102 93 -345 93z" />
    <glyph glyph-name="P" unicode="P" horiz-adv-x="1066" 
d="M413 587q-28 0 -122 13q-8 -151 -8 -529q0 -40 -26 -67.5t-65 -27.5q-40 0 -66 27.5t-26 67.5v294q0 147 18 414q20 289 22 414v138q0 99 12 144q23 88 98 76q32 10 91 15t145 5q183 0 343 -125q176 -138 176 -332q0 -248 -188 -395q-168 -132 -404 -132zM463 1381
q-44 0 -78.5 -2t-58.5 -6l-2 -184l-21 -398l110 -13q168 0 283 85q126 93 126 251q0 112 -120 193q-111 74 -239 74z" />
    <glyph glyph-name="Q" unicode="Q" horiz-adv-x="1795" 
d="M1646 -438q-44 0 -237 171l-239 219q-169 -68 -335 -68q-301 0 -529.5 240t-228.5 543q0 357 266 606q260 242 615 242q374 0 567 -280q164 -240 164 -621q0 -331 -324 -557l218 -201l129 -110q38 -36 38 -78q0 -41 -30.5 -73.5t-73.5 -32.5zM958 1308q-274 0 -472 -183
q-204 -188 -204 -458q0 -219 169 -396q170 -180 384 -180q69 0 142 17q-193 168 -193 265q0 44 32.5 73t72.5 29q48 0 85 -48q99 -129 224 -231q285 166 285 418q0 297 -121 482q-138 212 -404 212z" />
    <glyph glyph-name="R" unicode="R" horiz-adv-x="1287" 
d="M1126 -11q-38 0 -71 32q-331 327 -736 440l8 -196l5 -197q0 -44 -28.5 -73.5t-71.5 -29.5t-71.5 29.5t-28.5 73.5q0 79 -7.5 235.5t-7.5 235.5q0 92 20 274t20 273q0 51 -9.5 151t-9.5 151q0 57 32 100q38 53 105 48l241 -19q137 -17 231 -67q405 -215 405 -525
q0 -152 -138 -269q-111 -94 -277 -143q311 -167 465 -352q26 -32 26 -68q0 -42 -30.5 -73t-71.5 -31zM489 1311l-148 12l10 -121q7 -74 7 -121q0 -80 -13 -199l-21 -199q14 0 43.5 -1t44.5 -1q255 0 382 68q56 31 104 81q53 56 53 95q0 139 -158 259q-145 110 -304 127z" />
    <glyph glyph-name="S" unicode="S" horiz-adv-x="1420" 
d="M134 249q-1 42 28.5 68.5t72.5 26.5q49 0 86 -56q51 -76 91 -103q85 -56 247 -56q155 0 288 67q170 86 170 239q0 126 -143 199q-121 63 -299 68q-158 6 -269 69q-142 81 -142 232q0 178 202 325q193 139 399 139q97 0 219 -33q162 -43 162 -110q0 -88 -90 -88
q-40 0 -140 21.5t-155 20.5q-156 -2 -265 -77q-112 -77 -112 -187q0 -83 148 -117q55 -13 213 -24q229 -17 358 -144q118 -116 118 -283q0 -238 -220 -380q-191 -123 -443 -123q-183 0 -335 70q-186 86 -189 236z" />
    <glyph glyph-name="T" unicode="T" horiz-adv-x="1392" 
d="M1362 1263q-74 0 -228 12q-150 11 -228 10h-71q3 -138 27 -448q22 -289 22 -449q0 -35 7 -106t7 -107q0 -68 -22 -117q-28 -66 -87 -66q-40 0 -72 28t-32 72q0 15 5 45t5 45q0 49 -6.5 147t-6.5 148q0 143 -23 402q-24 280 -27 402l-91 -1q-219 0 -344 32q-81 21 -81 99
q0 41 26 72q30 35 77 32q35 -2 160 -18q100 -12 162 -12q60 0 182 2.5t182 2.5q77 0 228.5 -11t228.5 -11q43 0 72 -29.5t29 -73.5q0 -43 -29 -72.5t-72 -29.5z" />
    <glyph glyph-name="U" unicode="U" horiz-adv-x="1509" 
d="M790 -40q-311 0 -464 179q-124 144 -156 426q-15 127 -15 507q0 140 6 226q6 91 18 127q25 73 90 73q92 0 92 -169v-587q0 -606 424 -606q399 0 399 1020v98q-1 60 -1 80q0 62 22 109q28 60 83 60q100 0 100 -137q0 -41 1 -124v-124q0 -1158 -599 -1158z" />
    <glyph glyph-name="V" unicode="V" horiz-adv-x="1331" 
d="M1306 1371q-62 -93 -101 -195l-76 -219l-269 -727q-47 -128 -110 -250q-32 -60 -90 -60q-77 0 -108 78q-121 304 -269 875l-79 275q-59 208 -59 272q0 45 32 74q29 27 70 27q76 0 98 -82l37 -174l96 -340q96 -372 187 -641l6 16l268 726l85 245q57 148 121 224
q33 40 78 40q40 0 71.5 -30.5t31.5 -73.5q0 -30 -20 -60z" />
    <glyph glyph-name="W" unicode="W" horiz-adv-x="2129" 
d="M1423 -96q-46 0 -81 26q-40 30 -40 74q-46 121 -58 197t-79 431q-51 269 -68 432q-89 -330 -191 -559q-118 -265 -153 -415q12 -23 12 -45q0 -45 -40 -74q-36 -27 -82 -27q-135 0 -135 121l-31 127l-109 490q-65 248 -222 711q-7 22 -7 40q0 93 105 93q65 0 100 -71
q18 -36 73 -207q59 -181 118 -436l97 -442q107 248 213 604q65 217 99 301q90 221 175 221q70 0 99 -71q36 -86 73 -410q20 -164 68 -394l86 -393q134 322 335 871q11 30 50 189q29 117 71 182q36 55 94 55q101 0 101 -100q0 -17 -32 -100l-40 -108l-55 -178l-297 -722
q-41 -119 -141 -346q-36 -67 -108 -67z" />
    <glyph glyph-name="X" unicode="X" horiz-adv-x="1482" 
d="M1379 1349q-134 -162 -206 -267l-125 -184q-73 -104 -137 -175l220 -322q131 -191 233 -312q27 -33 27 -69q0 -42 -30.5 -73t-72.5 -31q-38 0 -71 31q-74 70 -154 190l-134 206l-157 225l-344 -398l-184 -206q-33 -33 -73 -33q-41 0 -72 31t-31 73q0 36 26 68l180 201
l375 435q-110 147 -234 295l-116 157q-70 94 -130 144q-42 35 -42 81q0 41 29 73t72 32q85 0 217 -181q41 -61 125 -173q114 -136 217 -273l228 318q222 309 288 309q41 0 72 -31t31 -73q0 -35 -27 -68z" />
    <glyph glyph-name="Y" unicode="Y" horiz-adv-x="1301" 
d="M1172 1279q-24 -38 -64 -117l-172 -425q-100 -239 -188 -418l-125 -223l-53 -108q-33 -58 -89 -58q-39 0 -71 29t-32 72q0 34 94 213l123 225q-179 231 -232 364q-45 113 -150 271q-144 216 -169 261q-15 27 -15 54q0 43 31.5 72.5t71.5 29.5q49 0 82 -47l80 -124
q106 -157 140 -214q75 -123 117 -228q33 -83 141 -227l229 558q39 69 108 213q28 68 93 68q40 0 71.5 -28t31.5 -72q0 -46 -53 -141z" />
    <glyph glyph-name="Z" unicode="Z" horiz-adv-x="1420" 
d="M1266 1251l-135 -92q-182 -141 -412 -451l-351 -511q-25 -38 -49 -70l389 15q255 12 390 12q132 0 195 -12q81 -16 84 -82q2 -49 -32 -78q-30 -25 -75 -25q-29 0 -87 3.5t-87 3.5q-152 0 -456.5 -7.5t-456.5 -7.5q-115 0 -115 101q0 66 62 166l107 149l361 502
q223 295 415 458l-350 -20h-404q-11 0 -32.5 -1.5t-31.5 -1.5q-106 0 -106 103q0 68 54 90q33 14 109 14q69 0 205.5 -14.5t205.5 -14.5q77 0 230.5 10t231.5 10q257 0 257 -97q0 -66 -116 -152z" />
    <glyph glyph-name="bracketleft" unicode="[" horiz-adv-x="771" 
d="M440 -412q-22 0 -67 -2.5t-68 -2.5q-129 0 -129 117q0 183 14.5 703.5t14.5 703.5l-16 303l-1 14q-2 38 23.5 67t65.5 29q30 0 90.5 -2.5t90.5 -2.5q19 0 56.5 2.5t56.5 2.5q92 0 92 -97q0 -89 -84 -97t-203 -3q6 -90 6 -203l-13 -671l-16 -670l87 3q29 0 87.5 -2.5
t87.5 -2.5q40 0 63.5 -28.5t23.5 -68.5t-23.5 -68.5t-63.5 -28.5q-29 0 -87.5 2.5t-87.5 2.5z" />
    <glyph glyph-name="backslash" unicode="\" horiz-adv-x="1126" 
d="M920 -141q-50 0 -80 51q-38 63 -117 250l-291 745q-64 151 -239 469q-16 29 -16 53q0 39 29.5 68t67.5 29q45 0 76 -46q114 -171 247 -488l205 -515q107 -272 201 -473q12 -25 12 -47q0 -39 -28.5 -67.5t-66.5 -28.5z" />
    <glyph glyph-name="bracketright" unicode="]" horiz-adv-x="771" 
d="M438 -412q23 0 68 -2.5t67 -2.5q129 0 129 117q0 183 -14.5 703.5t-14.5 703.5l16 303l1 14q2 38 -23.5 67t-64.5 29q-31 0 -91.5 -2.5t-90.5 -2.5q-19 0 -56.5 2.5t-56.5 2.5q-92 0 -92 -97q0 -89 84 -97t204 -3q-7 -90 -7 -203l13 -671l16 -670l-87 3q-29 0 -87.5 -2.5
t-87.5 -2.5q-39 0 -63 -28.5t-24 -68.5t24 -68.5t63 -28.5q29 0 87.5 2.5t87.5 2.5z" />
    <glyph glyph-name="asciicircum" unicode="^" horiz-adv-x="1190" 
d="M594 1646q55 0 132 -68q24 -21 110 -111l158 -170q27 -30 27 -61q0 -37 -28 -64.5t-64 -27.5q-33 0 -63 29q-80 90 -251 260q-254 -311 -326 -311q-36 0 -63.5 28t-27.5 64q0 35 31 64q55 54 304 337q27 31 61 31z" />
    <glyph glyph-name="underscore" unicode="_" horiz-adv-x="1284" 
d="M973 -345q-71 0 -213 5t-213 5h-445q-23 0 -69 -5t-68 -5v185q100 0 300 1.5t300 1.5q71 0 211.5 -5.5t211.5 -5.5l335 8v-185h-350z" />
    <glyph glyph-name="grave" unicode="`" horiz-adv-x="1139" 
d="M577 1267q0 -36 -28.5 -62.5t-64.5 -26.5q-43 0 -72 42l-100 149q-53 73 -124 128q-39 30 -39 71q0 36 26.5 64.5t62.5 28.5q62 0 202 -166q137 -164 137 -228z" />
    <glyph glyph-name="a" unicode="a" horiz-adv-x="1048" 
d="M920 -66q-19 0 -69 44q-45 41 -67 73q-96 -52 -169 -78.5t-122 -26.5q-234 0 -341 132q-101 124 -101 380q0 242 166.5 414t397.5 172q87 0 195 -45q136 -56 136 -135q0 -27 -20 -48q-10 -38 -15.5 -125t-6.5 -223q-1 -124 17 -196q10 -44 63 -176q7 -18 23 -53l6 -17
q0 -40 -28 -66t-65 -26zM712 629q0 43 5.5 93.5t16.5 107.5q-37 19 -63.5 28t-42.5 9q-155 0 -267.5 -126.5t-112.5 -291.5q0 -164 58 -246t174 -82q96 0 163 35q36 19 101 76q-32 265 -32 397z" />
    <glyph glyph-name="b" unicode="b" horiz-adv-x="1215" 
d="M606 -42q-153 0 -278 60q-32 -48 -78 -48q-38 0 -64.5 26.5t-26.5 66.5q0 26 2.5 77t2.5 77q0 106 -5.5 317.5t-5.5 317.5q0 73 1 276.5t1 277.5q0 60 25 108q33 61 91 61q75 0 75 -87q0 -14 -5 -41t-5 -41l-3 -219l-2 -255q87 59 165.5 88.5t147.5 29.5q215 0 349 -165
q126 -155 126 -381q0 -228 -147 -387t-366 -159zM644 861q-82 0 -168 -46q-42 -23 -144 -99l-2 -173l1 -156l1 -164q48 -22 135 -56q62 -19 139 -19q145 0 238 102t93 254q0 149 -75 249q-81 108 -218 108z" />
    <glyph glyph-name="c" unicode="c" horiz-adv-x="1052" 
d="M591 -63q-205 0 -342 124q-144 130 -144 343q0 203 135 419q150 240 338 240q98 0 219 -46q153 -59 153 -144q0 -38 -25 -67.5t-62 -29.5q-29 0 -50.5 17.5t-41.5 34.5q-59 47 -193 47q-102 0 -202 -182q-91 -167 -91 -289q0 -132 90 -208q84 -71 216 -71q60 0 128 32
l116 62q30 16 43 16q37 0 64 -29.5t27 -67.5q0 -73 -154 -141q-135 -60 -224 -60z" />
    <glyph glyph-name="d" unicode="d" horiz-adv-x="1203" 
d="M1060 883q-12 -147 -12 -294q0 -333 31 -503q2 -14 2 -23q0 -40 -28 -66t-65 -26q-62 0 -91 90q-72 -53 -149.5 -80t-161.5 -27q-207 0 -343 138q-140 141 -140 362q0 267 141.5 428t367.5 161q116 0 179 -36l94 -69q14 421 33 567q13 89 91 89q91 0 91 -97
q0 -139 -40 -614zM616 857q-168 0 -252 -99.5t-84 -299.5q0 -129 91.5 -222t214.5 -93q84 0 142 31q34 18 111 83q15 13 29 31l-3 173l1 116l2 118q-38 81 -101 121.5t-151 40.5z" />
    <glyph glyph-name="e" unicode="e" horiz-adv-x="1122" 
d="M606 -46q-226 0 -366 113q-153 125 -153 350q0 260 126 436q137 192 366 192q166 0 271 -56q129 -69 129 -212q0 -100 -113 -182q-50 -36 -212 -112l-382 -181q56 -83 139.5 -125t194.5 -42q69 0 162 26q118 33 152 86.5t73 53.5q35 0 62.5 -26.5t27.5 -61.5
q0 -111 -179 -191q-153 -68 -298 -68zM579 865q-122 0 -203 -94.5t-121 -284.5l307 146q181 88 258 153q-86 80 -241 80z" />
    <glyph glyph-name="f" unicode="f" horiz-adv-x="1041" 
d="M811 1406q-242 0 -271 -336l-3 -62q170 12 220 12q159 0 159 -100q0 -73 -78 -87q-34 -6 -79.5 -4.5t-230.5 -13.5l-8 -228q0 -62 4 -186t4 -185q0 -190 -22 -296q-17 -80 -93 -80q-41 0 -70 26.5t-29 66.5q0 8 2 20q21 130 21 283l-3 273v290q-125 -10 -158 -10
q-101 0 -101 97q0 99 175 104l96 3q3 56 15 152q26 222 112 327q104 127 325 127q143 0 143 -97q0 -96 -130 -96z" />
    <glyph glyph-name="g" unicode="g" horiz-adv-x="1087" 
d="M962 431l-23 -336q-6 -200 -41 -327q-45 -162 -144 -239q-120 -93 -347 -93q-133 0 -223 18q-126 25 -126 104q0 89 87 89q36 0 120 -17.5t186 -15.5q192 3 265 186q48 122 51 375q-54 -100 -128.5 -150t-170.5 -50q-181 0 -294.5 123.5t-113.5 320.5q0 270 155 435
q160 170 436 170q93 0 156 -24t96 -72q107 -3 107 -119q0 -71 -21 -190q-23 -138 -27 -188zM641 864q-190 0 -294 -131q-93 -118 -93 -300q0 -145 55 -218t165 -73q101 0 196 114q86 105 98 208q21 108 45 339q-40 31 -83 46t-89 15z" />
    <glyph glyph-name="h" unicode="h" horiz-adv-x="1183" 
d="M976 -62q-71 0 -93 76q-23 82 -42 233q-18 145 -18 238q0 26 2.5 79t2.5 79q0 188 -94 188q-127 0 -227 -115q-51 -59 -140 -225q0 -381 -32 -451q-28 -62 -87 -62q-41 0 -72 28t-31 68q0 14 9 44q8 25 11 146l3 148l3 735q7 124 7 167q0 51 -9.5 96.5t-9.5 94.5
q0 42 29 69.5t71 27.5q82 0 96 -88q16 -97 16 -175q0 -105 -7 -219q-6 -109 -5 -219l1 -88q82 110 175.5 164.5t198.5 54.5q166 0 228 -108q44 -76 50 -256l8 -191l20 -208q14 -117 34 -206q4 -17 4 -29q0 -41 -30 -68.5t-72 -27.5z" />
    <glyph glyph-name="i" unicode="i" horiz-adv-x="574" 
d="M330 1266q-48 0 -83 34t-35 82t35 82t83 34t82.5 -34t34.5 -82t-34.5 -82t-82.5 -34zM375 454q0 -60 3.5 -179.5t3.5 -179.5q0 -44 -27 -72t-71 -28q-43 0 -70.5 28t-27.5 72q0 60 -3.5 179.5t-3.5 179.5q0 94 10 234.5t10 234.5q0 45 27.5 73t70.5 28t70.5 -28t27.5 -73
q0 -94 -10 -234.5t-10 -234.5z" />
    <glyph glyph-name="j" unicode="j" horiz-adv-x="826" 
d="M467 1265q-48 0 -82.5 34t-34.5 81q0 48 34.5 82t82.5 34t83 -34t35 -82q0 -47 -35 -81t-83 -34zM459 -232q1 117 -34 599l-34 551q0 50 28.5 89t72.5 39q34 0 68 -25t36 -51l33 -576l27 -616q0 -139 -83 -252q-90 -123 -219 -123q-215 0 -360 331q-12 27 -12 48
q0 40 31.5 69t71.5 29q59 0 123 -130q16 -34 56 -98q39 -50 90 -50q44 0 75 66q24 50 30 100z" />
    <glyph glyph-name="k" unicode="k" horiz-adv-x="1106" 
d="M972 -41q-55 0 -85 58q-52 101 -157 239l-177 241q-58 -46 -180 -129q-11 -155 -11 -302q0 -45 -27.5 -73t-70.5 -28q-101 0 -101 136q0 83 11.5 248.5t11.5 248.5q0 152 4.5 347.5t4.5 345.5q0 45 -4.5 106t-4.5 106t27.5 73t70.5 28t70.5 -28t27.5 -73q0 -46 5 -108.5
t5 -108.5l-7 -322q-5 -174 -3 -348q136 104 262 228l220 227q33 34 71 34q39 0 70.5 -31t31.5 -72q0 -34 -29 -67q-123 -144 -303 -309l218 -297q153 -209 153 -272q0 -40 -31.5 -69t-72.5 -29z" />
    <glyph glyph-name="l" unicode="l" horiz-adv-x="561" 
d="M393 786l-15 -497q0 -79 -8 -232q-10 -100 -98 -100q-98 0 -98 102q0 121 11 363.5t11 363.5q0 158 5 361.5t5 361.5q0 100 98 100q99 0 99 -100q0 -158 -5 -361.5t-5 -361.5z" />
    <glyph glyph-name="m" unicode="m" horiz-adv-x="1591" 
d="M1409 -83q-82 0 -96 87q-18 110 -36 310l-34 310q-10 69 -34 135q-34 90 -74 90q-37 0 -138 -63q-96 -58 -126 -93q-1 -94 5 -188l30 -267q19 -158 19 -261q0 -44 -27.5 -72.5t-70.5 -28.5t-70.5 28.5t-27.5 72.5q0 121 -24.5 357.5t-24.5 357.5q0 106 -30 165
q-70 -32 -142 -104l-118 -132q-16 -24 -51 -63q0 -60 -11 -177t-11 -173q0 -30 9.5 -84t9.5 -78q0 -41 -30.5 -69t-71.5 -28q-113 0 -113 257q0 60 11 179t11 179q0 53 -9.5 159t-9.5 160q0 227 102 227q39 0 71.5 -34t32.5 -74q0 -19 -5 -59t-5 -61l2 -105
q52 107 153 193.5t172 86.5q157 0 216 -156q55 73 131 109.5t174 36.5q167 0 228 -180q12 -36 41 -281q28 -172 72 -573q3 -40 -27 -68t-73 -28z" />
    <glyph glyph-name="n" unicode="n" horiz-adv-x="1072" 
d="M906 -71q-86 0 -97 94l-28 219q-14 117 -14 219q0 28 3.5 95t3.5 95q0 216 -80 216q-112 0 -214 -133q-92 -121 -144 -306q-2 -39 -9 -98q-6 -50 -6 -97q0 -30 6 -90t6 -90q0 -45 -27.5 -73t-70.5 -28q-44 0 -71 28t-27 73q0 30 -6.5 90t-6.5 90q0 103 14.5 285.5
t14.5 285.5q0 32 -3.5 95t-3.5 95q0 43 28.5 70.5t70.5 27.5q92 0 101 -130l3 -117q168 224 345 224q160 0 223 -141q43 -94 47 -278v-101l-1 -93q0 -83 21.5 -214.5t21.5 -213.5q0 -44 -28.5 -71.5t-71.5 -27.5z" />
    <glyph glyph-name="o" unicode="o" horiz-adv-x="1077" 
d="M514 -59q-168 0 -289 124q-135 138 -142 371q-6 226 114 398q140 203 390 203q200 0 303 -183q82 -148 79 -356q-3 -222 -116 -379q-128 -178 -339 -178zM574 834q-147 1 -229 -140q-65 -113 -65 -258t79 -226q66 -67 155 -67q104 0 179 76q85 84 90 227q14 387 -209 388
z" />
    <glyph glyph-name="p" unicode="p" horiz-adv-x="1095" 
d="M564 -35q-100 0 -220 32l-2 -478q0 -44 -27.5 -72t-70.5 -28t-70.5 28t-27.5 72l3 400v399q-3 219 -15 399l-15 203q0 71 26 120q30 59 87 59q39 0 65.5 -27.5t26.5 -67.5q0 -9 -3 -33q-5 -31 -7 -57q86 59 166 88.5t153 29.5q205 0 300 -182q75 -144 75 -381
q0 -216 -116 -356q-123 -148 -328 -148zM633 832q-92 0 -166 -41q-53 -29 -134 -106q13 -227 13 -477q109 -42 218 -42q125 0 191 93q57 81 57 210q0 182 -44.5 272.5t-134.5 90.5z" />
    <glyph glyph-name="q" unicode="q" horiz-adv-x="1065" 
d="M909 315l-46 -384q-25 -214 -25 -387q0 -44 -27 -72t-71 -28q-92 0 -98 101q-3 44 5 111l13 111l19 221q-86 -23 -121 -23q-218 0 -353 113q-145 121 -145 335q0 293 165 470q169 182 460 180q55 0 83 -43q43 38 76 38q40 0 69.5 -32t29.5 -73q0 -295 -34 -638zM614 890
q-184 -33 -278 -187q-76 -125 -76 -294q0 -118 72 -192q79 -82 219 -78q95 3 139 103q48 112 51 381l14 267q-20 -7 -70 -3q-55 6 -71 3z" />
    <glyph glyph-name="r" unicode="r" horiz-adv-x="984" 
d="M917 739q-7 -125 -100 -125q-86 0 -86 99q0 19 -3 70l-3 84q-158 -19 -253 -89q-89 -65 -148 -196l2 -548q0 -101 -99 -101q-88 0 -88 101v702q0 33 2.5 99t2.5 99q0 101 88 101q98 0 99 -166q192 185 426 185q81 0 121 -61t40 -184q0 -52 -1 -70z" />
    <glyph glyph-name="s" unicode="s" horiz-adv-x="997" 
d="M814 770q-55 0 -77 37q-15 26 -26 108q-75 -19 -231 -70q-161 -64 -162 -158q30 -11 59 -16q230 -41 342 -113q163 -105 163 -304q0 -163 -141 -246q-117 -68 -296 -68q-131 0 -250 44q-154 56 -154 156q0 40 31.5 70t71.5 30q31 0 80 -48q24 -23 108 -38q67 -12 113 -12
q84 0 148 20q93 29 93 92q0 136 -190 184l-104 23q-133 29 -189 68q-81 56 -81 169q0 209 197 298q60 27 192 64.5t189 63.5q41 18 89 18q43 0 70.5 -28t27.5 -73q0 -29 12.5 -85t12.5 -85q0 -45 -27.5 -73t-70.5 -28z" />
    <glyph glyph-name="t" unicode="t" horiz-adv-x="965" 
d="M808 852q-21 0 -49.5 2t-49.5 2q-23 0 -136 -15l19 -591l1 -44l1 -51q4 -219 -105 -219q-40 0 -69.5 26t-29.5 65q0 38 3 114t3 114l-20 584q-73 3 -222 17q-89 12 -89 99q0 44 27 73t69 29l210 -17q0 51 -4.5 136.5t-4.5 123.5q0 42 29 69.5t71 27.5q90 0 105 -147
q3 -37 3 -89l-2 -58l-1 -62q124 16 142 16q104 0 136 -10q61 -20 61 -94q0 -44 -27.5 -72.5t-70.5 -28.5z" />
    <glyph glyph-name="u" unicode="u" horiz-adv-x="1065" 
d="M955 584q0 -72 1 -216t1 -216q0 -22 3.5 -67t3.5 -67q0 -43 -29 -70.5t-71 -27.5q-77 0 -98 95q-125 -65 -288 -65q-131 0 -217 58q-95 64 -113 187q-39 265 -39 472q0 137 30 312q14 87 95 87q43 0 72 -27.5t29 -70.5q0 -46 -14.5 -147t-14.5 -154q0 -167 11 -286
t33 -191q33 -18 65 -27.5t63 -9.5q134 0 283 43l-1 203l-2 194q0 216 19 375q11 92 97 92q43 0 72 -28t27 -70z" />
    <glyph glyph-name="v" unicode="v" horiz-adv-x="996" 
d="M600 52q-3 -92 -91 -92q-73 0 -106 86l-153 406l-178 459q-10 26 -10 46q0 41 31 70t72 29q60 0 86 -61l254 -699q75 160 189 464q27 80 85 226q31 64 88 64q41 0 72 -29t31 -69q0 -38 -165 -428z" />
    <glyph glyph-name="w" unicode="w" horiz-adv-x="1401" 
d="M1336 895q-78 -326 -204 -737q-28 -91 -93 -187q-35 -53 -95 -52q-109 2 -170 271q-20 86 -41 234l-33 223l-82 -191l-152 -413q-13 -38 -38 -58q-30 -58 -96 -60q-76 -3 -147 298q-36 155 -72 420l-24 150q-13 90 -13 151q0 42 29.5 69.5t71.5 27.5q76 0 94 -83
q13 -59 21 -146l15 -147l59 -449q111 308 230 710q33 111 115 111q79 0 107 -124q26 -117 65 -360q40 -252 71 -393l73 272l129 545q15 61 86 61q42 0 73 -28.5t31 -68.5q0 -5 -10 -46z" />
    <glyph glyph-name="x" unicode="x" horiz-adv-x="1209" 
d="M1058 858l-146 -137l-178 -177l326 -426q25 -32 25 -63q0 -39 -30 -69t-68 -30t-69 37q-92 107 -324 412l-195 -201q-59 -53 -172 -165q-32 -36 -69 -36q-38 0 -67.5 30t-29.5 69q0 31 25 63q28 37 87 89q69 61 91 84l213 223l-131 189q-79 113 -138 165q-38 34 -38 74
t28.5 71t65.5 31q59 0 178 -154l173 -239l196 180q122 115 165 180q32 47 76 47q39 0 69 -29t30 -67q0 -55 -93 -151z" />
    <glyph glyph-name="y" unicode="y" horiz-adv-x="1066" 
d="M1011 892l-346 -748q-128 -273 -196 -457l-66 -194q-26 -72 -90 -72q-42 0 -72.5 27.5t-30.5 68.5q0 100 216 579l-358 689l-45 73q-27 46 -27 77q0 41 31.5 72t70.5 31q46 0 71 -35q170 -236 365 -672l148 345q80 179 154 308q32 56 84 56q41 0 72.5 -29t31.5 -69
q0 -22 -13 -50z" />
    <glyph glyph-name="z" unicode="z" horiz-adv-x="1102" 
d="M964 809q-89 -107 -228 -310q-161 -236 -236 -334q105 5 183 5q39 0 116 -15t116 -15q44 0 71.5 -28.5t27.5 -72.5q0 -45 -27.5 -73t-71.5 -28q-39 0 -116 15t-116 15q-225 0 -427 -41q-21 -4 -37 -4q-97 0 -97 85q0 50 50 96q261 236 568 735q-133 -8 -193 -8
q-148 0 -304 23q-89 13 -89 99q0 44 27 73.5t68 29.5q49 0 148 -11.5t150 -11.5q68 0 204 9.5t204 9.5q85 0 85 -70q0 -81 -76 -173z" />
    <glyph glyph-name="braceleft" unicode="{" horiz-adv-x="623" 
d="M283 763q65 -68 87 -139q37 -77 20 -275.5t-3 -267.5q15 -148 167 -138l-117 -164q-179 48 -239 278q-32 100 -8.5 272.5t-3.5 235.5q-15 66 -139 126l-2 115q152 -10 167 136q13 71 -3.5 240.5t20.5 247.5q39 126 224 245l98 -123q-123 -60 -138 -124q-27 -64 -3.5 -208
t-8.5 -242q-38 -142 -118 -215z" />
    <glyph glyph-name="bar" unicode="|" horiz-adv-x="863" 
d="M445 1715q86 0 86 -89v-1871q-2 -117 -87 -117q-59 0 -80 76q-11 40 -11 311v1601q0 39 26 64t66 25z" />
    <glyph glyph-name="braceright" unicode="}" horiz-adv-x="613" 
d="M321 691q-66 68 -88 138q-39 78 -21.5 276t3.5 269q-15 146 -170 137l119 164q184 -48 244 -278q33 -100 9 -272.5t3 -237.5q16 -64 142 -124l2 -114q-155 9 -170 -137q-15 -71 3 -240.5t-21 -246.5q-39 -127 -228 -246l-100 123q126 60 141 124q27 64 3 207.5t9 243.5
q38 141 120 214z" />
    <glyph glyph-name="asciitilde" unicode="~" horiz-adv-x="1224" 
d="M467 934q87 0 158 -71l110 -133q66 -74 137 -80q41 -3 79.5 120t100.5 123q38 0 64 -24.5t26 -62.5q1 -132 -80 -234q-82 -105 -193 -105t-203 75q-52 43 -123 139q-55 75 -76 75q-87 0 -197 -189q-29 -51 -77 -51q-36 0 -64.5 25.5t-28.5 61.5q0 19 10 42
q54 117 141 196q103 93 216 93z" />
    <glyph glyph-name="uni00A0" unicode="&#xa0;" 
 />
    <glyph glyph-name="exclamdown" unicode="&#xa1;" horiz-adv-x="501" 
d="M296 1126h-202l-39 233h290zM100 1002h194l13 -1062h-263z" />
    <glyph glyph-name="cent" unicode="&#xa2;" horiz-adv-x="1276" 
d="M1107 609q-131 -327 -450 -334l1 -57q0 -186 -92 -186q-84 0 -84 88q0 87 4 184q-210 70 -291 211q-70 122 -70 358q0 189 121 362.5t300 225.5q-2 71 4 211q8 68 76 68q35 0 61.5 -25t26.5 -61l-2 -177q110 -11 204 -69q30 66 104 66q63 0 63 -65q0 -54 -31 -149
q-36 -111 -76 -111q-17 0 -45 25q-77 70 -99 86q-57 40 -123 48q-4 -173 -21 -433l-28 -432q120 5 186 74l110 161q34 48 72 48q34 0 60 -23.5t26 -57.5q0 -17 -7 -36zM291 873q0 -172 31 -242q40 -92 172 -151l49 801q-107 -52 -179.5 -170.5t-72.5 -237.5z" />
    <glyph glyph-name="sterling" unicode="&#xa3;" horiz-adv-x="1625" 
d="M234 890l72 1q-2 28 -2 55q0 274 141 458q158 206 437 206q161 0 294 -69q161 -84 161 -229q0 -36 -28 -61t-65 -25q-51 0 -81 60q-45 89 -119 123q-63 28 -175 28q-193 0 -297 -152q-90 -133 -90 -339q0 -21 1 -42q150 12 231 12q58 0 174 -6t174 -6q39 0 64 -25t25 -64
t-25 -64t-64 -25q-58 0 -174 6t-174 6q-79 0 -203 -10q61 -266 61 -351q0 -124 -40 -231h27q97 2 233 -58t232 -60q170 0 224 70q18 24 37 130q13 71 84 71q90 0 90 -96q0 -53 -21 -119q-76 -234 -414 -234q-98 0 -237 59t-237 59q-72 0 -158.5 -42t-100.5 -42
q-35 0 -61 26.5t-26 61.5q0 30 49 81q66 67 91 114q50 88 50 210q0 88 -58 338q-73 -4 -151 -4q-148 0 -148 93q0 38 25 64t62 26q19 0 55.5 -2t54.5 -2z" />
    <glyph glyph-name="currency" unicode="&#xa4;" horiz-adv-x="1614" 
d="M550 789q22 -211 180 -355q77 -54 151 -54h2q167 0 178 229q0 35 -3 60q-19 193 -162 340q-80 68 -171 68h-4q-157 0 -174 -220q0 -41 3 -68zM1181 1058l214 176l174 -170l-302 -123q46 -99 46 -213q0 -131 -47 -226l303 -125l-174 -171l-219 180q-88 -75 -228 -109
q-67 -12 -122 -12h-34q-220 0 -354 121l-220 -180l-173 171l303 124q-53 101 -53 232v8q0 116 42 204l-292 119l173 170l208 -170q75 69 195 109q81 19 149 19h60q219 0 351 -134z" />
    <glyph glyph-name="yen" unicode="&#xa5;" horiz-adv-x="1302" 
d="M575 573v36q-28 40 -91 140q-33 0 -223 20q-78 8 -78 83q0 78 84 78q56 0 119 -6q-253 434 -253 451q0 34 26.5 58.5t59.5 24.5q42 0 69 -41q83 -128 123 -207q52 -106 119 -215l123 -207q130 154 275 458q30 50 82 152q24 54 75 54q34 0 60.5 -23.5t26.5 -58.5
q0 -29 -103 -214l-130 -233l111 13q83 0 83 -83q0 -84 -83 -84q-35 0 -103 -10t-101 -11q-38 -46 -110 -144v-46q44 -2 120 -2q19 0 56.5 5.5t56.5 5.5q35 0 57.5 -25t22.5 -60q0 -66 -67 -81q-49 -11 -246 -3v-203q0 -29 4.5 -82.5t4.5 -81.5q0 -84 -82 -84q-83 0 -83 84
q0 31 -3 94.5t-3 94.5v180q-72 7 -128 8q-170 2 -171 92q-2 80 103 80q17 0 47.5 -2t41.5 -2q78 0 108 -3z" />
    <glyph glyph-name="brokenbar" unicode="&#xa6;" horiz-adv-x="314" 
d="M304 1781l-60 -768l-170 -16l18 766zM304 438l-60 -768l-170 -17l18 766z" />
    <glyph glyph-name="section" unicode="&#xa7;" horiz-adv-x="1300" 
d="M1005 517q93 -104 93 -238q0 -179 -140 -274q-122 -82 -313 -82q-230 0 -368 94q-160 109 -160 321q0 90 89 90q59 0 83 -55l31 -105q61 -186 326 -186q111 0 184 42q90 52 90 155q0 136 -187 198l-348 112q-94 49 -141 129t-47 191q0 67 28.5 124.5t85.5 106.5
q-48 78 -48 181q0 154 134 243q116 77 278 77q233 0 383 -160q34 -37 34 -74q0 -35 -24 -62.5t-59 -27.5q-26 0 -133.5 79t-197.5 79q-78 0 -146 -36q-84 -43 -84 -117q0 -118 182 -209l292 -131q178 -107 178 -309q0 -48 -29 -97.5t-66 -58.5zM375 909q0 -108 103 -169
q64 -38 224.5 -79t213.5 -72q1 7 6.5 33t5.5 42q0 108 -196 211l-291 139q-22 -9 -44 -44.5t-22 -60.5z" />
    <glyph glyph-name="dieresis" unicode="&#xa8;" horiz-adv-x="542" 
d="M212 1285h-167l1 161h177zM486 1285h-167v161h178z" />
    <glyph glyph-name="copyright" unicode="&#xa9;" horiz-adv-x="1629" 
d="M945 1438q-301 2 -491 -148q-186 -148 -186 -379q0 -265 147 -380q131 -104 403 -102q221 1 382 201q143 177 143 363q0 198 -93 314q-104 130 -305 131zM903 1620q289 0 458 -186q161 -177 161 -461q0 -248 -202 -475q-218 -244 -502 -247q-728 -8 -728 660
q0 272 248 490.5t565 218.5zM893 1139q-114 0 -204 -55q-93 -58 -93 -140q0 -57 65 -96q57 -34 118 -34q74 0 151.5 61.5t98.5 61.5q37 0 64 -28.5t27 -64.5q0 -70 -113.5 -138t-227.5 -70q-136 -3 -245 83q-116 91 -116 225q0 157 159 270q146 104 309 104q56 0 97 -28
q47 -32 47 -85q0 -77 -78 -77q-11 0 -30 5.5t-29 5.5z" />
    <glyph glyph-name="ordfeminine" unicode="&#xaa;" horiz-adv-x="762" 
d="M380 1702q198 0 254 -177l6 -50v-429l-137 8l-3 27q-74 -42 -161 -42q-191 0 -257 175l-8 50q0 140 173 199q111 32 254 0q9 156 -152 156q-65 0 -159 -75l-54 113q129 45 244 45zM240 1264q21 -128 137.5 -138.5t123.5 82.5v34q0 158 -115 158q-101 0 -146 -108v-28z
M45 965h632v-95h-632v95z" />
    <glyph glyph-name="guillemotleft" unicode="&#xab;" horiz-adv-x="1183" 
d="M298 614q56 -41 138 -127q97 -101 133 -132t36 -68t-27 -65t-63 -28q-28 0 -56 21q-40 29 -171 166q-100 105 -193 141q-76 28 -76 83q0 50 69 83q93 45 204 162q155 162 184.5 186.5t59.5 24.5q36 0 63.5 -27.5t27.5 -64.5q0 -34 -30 -64q-96 -102 -299 -291zM752 592
q56 -41 138 -126q96 -101 132 -132.5t36 -68.5q0 -36 -27 -64.5t-63 -28.5q-27 0 -55 21q-40 29 -172 167q-100 105 -193 140q-75 29 -75 83q0 51 68 84q94 44 205 161q154 162 184 187t60 25q36 0 63.5 -28t27.5 -64q0 -34 -31 -65q-96 -102 -298 -291z" />
    <glyph glyph-name="logicalnot" unicode="&#xac;" horiz-adv-x="1054" 
d="M1009 448h-291q47 363 47 367l-720 -16l33 155h931v-506z" />
    <glyph glyph-name="uni00AD" unicode="&#xad;" horiz-adv-x="782" 
d="M45 605l3 203h689l-9 -203h-683z" />
    <glyph glyph-name="registered" unicode="&#xae;" horiz-adv-x="1629" 
d="M269 844q0 -231 145 -351q131 -108 355 -108q220 0 394 148q194 165 195 421q1 200 -121 346q-129 154 -325 154q-321 0 -482 -152.5t-161 -457.5zM929 1631q261 0 439 -209q171 -200 171 -465q0 -328 -248 -547q-229 -203 -522 -203q-298 0 -481 159q-197 171 -197 478
q0 367 209 572q218 215 629 215zM664 1011q156 20 191 29q136 34 136 100q-45 33 -221 33h-39q-28 0 -46 -5q-5 -52 -21 -157zM851 858q57 -66 73 -81q42 -39 93 -57q70 -25 70 -85q0 -37 -25 -64.5t-61 -27.5q-74 0 -143 55q-41 32 -115 118q-72 82 -112 112
q-11 -71 -40 -211q-19 -73 -86 -73q-37 0 -64 24.5t-27 61.5q0 8 2 19l87 503q24 174 108 176q15 0 52.5 11.5t69.5 11.5q185 0 275 -26q162 -47 162 -184q0 -226 -319 -283z" />
    <glyph glyph-name="macron" unicode="&#xaf;" horiz-adv-x="1105" 
d="M45 1623l4 129h1010l-15 -129h-999z" />
    <glyph glyph-name="degree" unicode="&#xb0;" horiz-adv-x="797" 
d="M321 1674h36q172 0 253 -144q31 -62 31 -137q0 -217 -214 -272q-41 -7 -73 -7h-20q-177 0 -258 139q-34 63 -34 144v5q0 195 191 260q48 12 88 12zM201 1434q0 -138 81 -231q40 -35 82 -35h3q94 0 113 148q2 24 2 39q0 126 -72 222q-42 44 -94 44h-2q-88 0 -111 -144
q-2 -26 -2 -43z" />
    <glyph glyph-name="plusminus" unicode="&#xb1;" horiz-adv-x="984" 
d="M913 643q0 -37 -24.5 -64.5t-61.5 -27.5q-12 0 -36.5 4t-36.5 4l-100 -2q-61 -2 -100 0q2 -41 2 -78q0 -123 -6 -153q-19 -94 -95 -94q-79 0 -79 90l-1 116l-1 115q-118 -7 -171 -7q-155 0 -155 92q0 64 51 80q21 6 104 6q54 0 171 7l-1 151q-1 164 94 164q37 0 64 -25
t27 -62q0 -18 -3.5 -54.5t-3.5 -55.5l1 -114l75 -3q20 0 61 2.5t61 2.5q164 0 164 -94zM755 -114q12 0 36 -4t36 -4q37 0 61.5 27.5t24.5 64.5q0 93 -164 93q-33 0 -98.5 -1t-98.5 -1q-65 0 -196 -5t-197 -5q-111 0 -111 -87q0 -92 155 -92q92 0 276 7t276 7z" />
    <glyph glyph-name="uni00B2" unicode="&#xb2;" horiz-adv-x="1333" 
d="M551 1056l84 -2l84 -2q33 0 97.5 10t95.5 10t51.5 -23t20.5 -54q0 -92 -268 -92q-34 0 -100.5 2t-100.5 2q-53 0 -90 23q-44 28 -44 78q0 132 106 226l196 133q106 70 106 144q0 29 -38 65t-68 36q-69 0 -108 -41l-48 -78q-25 -41 -63 -41q-31 0 -54 20.5t-23 51.5
q0 96 103 163q92 61 197 61q94 0 172.5 -73.5t78.5 -163.5q0 -129 -70 -207q-37 -42 -156 -115q-112 -68 -161 -133z" />
    <glyph glyph-name="uni00B3" unicode="&#xb3;" horiz-adv-x="1333" 
d="M852 1314q95 -69 95 -231q0 -114 -112 -177q-92 -51 -217 -51q-204 0 -204 97q0 31 22 54.5t52 23.5q10 0 54 -12.5t76 -12.5q54 0 106 15q74 23 74 63q0 101 -64 126l-118 14q-64 9 -64 70q0 56 104.5 83.5t104.5 89.5q0 85 -153 85q-14 0 -42 -8.5t-43 -8.5
q-63 0 -63 59q0 52 50 82q43 26 98 26q123 0 206 -54q96 -64 96 -181q0 -91 -58 -152z" />
    <glyph glyph-name="acute" unicode="&#xb4;" horiz-adv-x="482" 
d="M223 1233h-178l157 269h235z" />
    <glyph glyph-name="mu" unicode="&#xb5;" horiz-adv-x="1084" 
d="M117 433l-12 682h247l-5 -684q-21 -225 139 -249q202 13 247 165l38 767h205l4 -1043l-255 -3l-3 60q-123 -88 -277 -90q-87 0 -150 19q-8 -73 -4 -117q4 -164 177 -202l-150 -139q-199 106 -247 375q-26 116 18 295q24 97 28 164z" />
    <glyph glyph-name="mu" unicode="&#x2219;" horiz-adv-x="1084" 
d="M117 433l-12 682h247l-5 -684q-21 -225 139 -249q202 13 247 165l38 767h205l4 -1043l-255 -3l-3 60q-123 -88 -277 -90q-87 0 -150 19q-8 -73 -4 -117q4 -164 177 -202l-150 -139q-199 106 -247 375q-26 116 18 295q24 97 28 164z" />
    <glyph glyph-name="paragraph" unicode="&#xb6;" horiz-adv-x="883" 
d="M838 1297l-26 -90l-116 12l13 -1476h-131v1476h-100v-1474h-128l8 969q-105 -16 -209 76.5t-100 262.5q53 256 264 244h525z" />
    <glyph glyph-name="periodcentered" unicode="&#xb7;" horiz-adv-x="352" 
d="M77 1030h205v-197h-247z" />
    <glyph glyph-name="cedilla" unicode="&#xb8;" horiz-adv-x="603" 
d="M366 -281q-38 -6 -86 -6q-161 0 -235 110l160 47q13 -80 89 -95h1q63 0 65 73q5 81 -45 111q-49 15 -105 -30l-143 30l-4 193l176 -2l-21 -121q88 12 218 -24q122 -42 109 -172h1q-34 -102 -180 -114z" />
    <glyph glyph-name="uni00B9" unicode="&#xb9;" horiz-adv-x="1333" 
d="M518 1035h86v453q-70 -43 -120 -43q-72 0 -72 68q0 57 56 77q26 10 118 76q81 58 108 58q45 0 56 -42q3 -12 3 -78v-569l45 1q81 2 98 0q62 -9 62 -54q0 -32 -21.5 -55.5t-53.5 -23.5h-408q-31 0 -52 22.5t-21 53.5q0 44 40 54q10 2 76 2z" />
    <glyph glyph-name="ordmasculine" unicode="&#xba;" horiz-adv-x="765" 
d="M337 1701h37q180 0 265 -169q31 -74 31 -160q0 -256 -223 -321q-43 -9 -76 -9h-22q-184 0 -269 163q-35 75 -35 171v5q0 230 199 306q50 14 93 14zM198 1415q4 -151 96 -252q45 -39 90 -39h2q102 0 119 163q2 26 1 42q-3 138 -86 242q-46 49 -102 49h-3q-96 0 -116 -157
q-1 -28 -1 -48zM48 971h632v-96h-632v96z" />
    <glyph glyph-name="guillemotright" unicode="&#xbb;" horiz-adv-x="1183" 
d="M802 614q-56 -41 -138 -127q-97 -101 -132.5 -132t-35.5 -68t27 -65t63 -28q27 0 55 21q40 29 171 166q101 105 193 141q76 28 76 83q0 50 -69 83q-93 45 -204 162q-155 162 -184.5 186.5t-59.5 24.5q-36 0 -63.5 -27.5t-27.5 -64.5q0 -34 31 -64q95 -102 298 -291z
M348 592q-56 -41 -137 -126q-97 -101 -133 -132.5t-36 -68.5q0 -36 27 -64.5t63 -28.5q27 0 55 21q40 29 172 167q100 105 193 140q75 29 75 83q0 51 -68 84q-94 44 -205 161q-154 162 -184 187t-60 25q-36 0 -63.5 -28t-27.5 -64q0 -34 31 -65q96 -102 298 -291z" />
    <glyph glyph-name="onequarter" unicode="&#xbc;" horiz-adv-x="1333" 
d="M518 1035h86v453q-70 -43 -120 -43q-72 0 -72 68q0 57 56 77q26 10 118 76q81 58 108 58q45 0 56 -42q3 -12 3 -78v-569l45 1q81 2 98 0q62 -9 62 -54q0 -32 -21.5 -55.5t-53.5 -23.5h-408q-31 0 -52 22.5t-21 53.5q0 44 40 54q10 2 76 2zM509 741l464 -14q57 1 167 -9
q71 -13 71 -74q0 -75 -79 -75l-204 11q-212 11 -419 11q-45 0 -136 -3t-136 -3q-75 0 -75 75t75 75q45 0 136 3t136 3zM673 18l2 225q-118 -137 -200 -224q31 3 72 3zM813 306l4 -291l57 1q127 1 127 -73q0 -48 -65 -48q-23 0 -59 4l-58 7l2 -173q0 -75 -75 -75t-75 75
l1 171l-323 -16q-79 0 -79 77q0 47 43 91q67 67 178 202q117 144 175 204q38 40 94 40q30 0 54 -21.5t24 -51.5q0 -21 -12.5 -61.5t-12.5 -61.5z" />
    <glyph glyph-name="onehalf" unicode="&#xbd;" horiz-adv-x="1333" 
d="M518 1035h86v453q-70 -43 -120 -43q-72 0 -72 68q0 57 56 77q26 10 118 76q81 58 108 58q46 0 56 -45q3 -10 3 -82v-562l45 1q81 2 98 0q62 -9 62 -54q0 -32 -21.5 -55.5t-53.5 -23.5h-408q-31 0 -52 22.5t-21 53.5q0 44 40 54q10 2 76 2zM509 741l464 -14q57 1 167 -9
q71 -13 71 -74q0 -75 -79 -75l-204 11q-212 11 -419 11q-45 0 -136 -3t-136 -3q-75 0 -75 75t75 75q45 0 136 3t136 3zM551 -205l84 -2l84 -2q33 0 97.5 10t95.5 10t51.5 -23t20.5 -54q0 -92 -268 -92q-33 0 -100 2t-101 2q-53 0 -90 23q-44 28 -44 78q0 132 106 226
l196 133q106 70 106 144q0 29 -38 65t-68 36q-69 0 -108 -41l-48 -77q-25 -42 -63 -42q-32 0 -54.5 20.5t-22.5 51.5q0 96 103 164q92 60 197 60q94 0 172.5 -73.5t78.5 -163.5q0 -129 -70 -207q-37 -42 -156 -115q-112 -68 -161 -133z" />
    <glyph glyph-name="threequarters" unicode="&#xbe;" horiz-adv-x="1333" 
d="M852 1314q95 -69 95 -231q0 -114 -112 -177q-92 -51 -217 -51q-204 0 -204 97q0 31 22 54.5t52 23.5q10 0 54 -12.5t76 -12.5q54 0 106 15q74 23 74 63q0 101 -64 126l-118 14q-64 9 -64 70q0 56 104.5 83.5t104.5 89.5q0 85 -153 85q-14 0 -42 -8.5t-43 -8.5
q-63 0 -63 59q0 52 50 82q43 26 98 26q123 0 206 -54q96 -64 96 -181q0 -91 -58 -152zM509 741q200 0 464 -14q57 -1 167 -9q71 -8 71 -74q0 -75 -79 -75l-204 11q-232 11 -419 11q-45 0 -136 -3t-136 -3q-75 0 -75 75t75 75q45 0 136 3t136 3zM673 18l2 225
q-118 -137 -200 -224q30 3 72 3zM813 306l4 -291l48 1q136 1 136 -73q0 -48 -65 -48q-22 0 -59 4q-44 6 -58 7l2 -173q0 -75 -75 -75t-75 75l1 171l-323 -16q-79 0 -79 77q0 51 43 91q81 74 182 198l171 208q34 40 94 40q30 0 54 -21t24 -52q0 -15 -12.5 -55.5t-12.5 -67.5z
" />
    <glyph glyph-name="questiondown" unicode="&#xbf;" horiz-adv-x="1073" 
d="M642 1098q41 0 72 -31.5t31 -71.5q0 -69 -128 -170l-239 -180q-129 -111 -129 -203q0 -116 109 -214q105 -95 223 -95q63 0 160 64.5t120 64.5q41 0 70.5 -33t29.5 -74q0 -79 -153 -157q-137 -70 -227 -70q-201 0 -365 157t-164 357q0 146 94 259q56 68 208 176
q153 111 213 180q35 41 75 41zM697 1478q44 0 79.5 -29.5t35.5 -71.5q0 -62 -33 -112q-37 -56 -95 -56q-96 0 -96 118q0 55 26 99q32 52 83 52z" />
    <glyph glyph-name="Agrave" unicode="&#xc0;" horiz-adv-x="1498" 
d="M1250 -30q-92 0 -160 236q-26 90 -65 315q-102 -14 -267 -50l-266 -55q-50 -131 -171 -383q-32 -56 -87 -56q-40 0 -71.5 29t-31.5 72q0 48 151 365q-17 26 -17 60q0 81 98 104q114 214 288 492q237 379 295 379q79 0 108 -110l63 -336l149 -695l57 -158q29 -81 29 -108
q0 -43 -31 -72t-71 -29zM897 1113l-286 -461q121 31 367 75zM1099 1727q0 -36 -28.5 -62.5t-64.5 -26.5q-43 0 -72 42l-100 149q-53 73 -124 128q-39 30 -39 71q0 36 26.5 64.5t62.5 28.5q62 0 202 -166q137 -164 137 -228z" />
    <glyph glyph-name="Aacute" unicode="&#xc1;" horiz-adv-x="1498" 
d="M1250 -30q-92 0 -160 236q-26 90 -65 315q-102 -14 -267 -50l-266 -55q-50 -131 -171 -383q-32 -56 -87 -56q-40 0 -71.5 29t-31.5 72q0 48 151 365q-17 26 -17 60q0 81 98 104q114 214 288 492q237 379 295 379q79 0 108 -110l63 -336l149 -695l57 -158q29 -81 29 -108
q0 -43 -31 -72t-71 -29zM897 1113l-286 -461q121 31 367 75zM931 1630q-36 0 -63.5 28t-27.5 64q0 34 31 65q43 42 131 159q66 86 147 143q27 19 53 19q36 0 63 -28.5t27 -64.5q0 -40 -38 -70q-70 -56 -135 -145q-68 -94 -129 -145q-28 -25 -59 -25z" />
    <glyph glyph-name="Acircumflex" unicode="&#xc2;" horiz-adv-x="1498" 
d="M1250 -30q-92 0 -160 236q-26 90 -65 315q-102 -14 -267 -50l-266 -55q-50 -131 -171 -383q-32 -56 -87 -56q-40 0 -71.5 29t-31.5 72q0 48 151 365q-17 26 -17 60q0 81 98 104q114 214 288 492q237 379 295 379q79 0 108 -110l63 -336l149 -695l57 -158q29 -81 29 -108
q0 -43 -31 -72t-71 -29zM897 1113l-286 -461q121 31 367 75zM913 2090q55 0 132 -67q24 -21 109 -112l159 -170q26 -30 26 -61q0 -36 -27.5 -63.5t-64.5 -27.5q-33 0 -63 29q-80 90 -250 260q-254 -312 -326 -312q-36 0 -63.5 28t-27.5 64q0 35 30 65q56 54 305 336
q27 31 61 31z" />
    <glyph glyph-name="Atilde" unicode="&#xc3;" horiz-adv-x="1498" 
d="M1250 -30q-92 0 -160 236q-26 90 -65 315q-102 -14 -267 -50l-266 -55q-50 -131 -171 -383q-32 -56 -87 -56q-40 0 -71.5 29t-31.5 72q0 48 151 365q-17 26 -17 60q0 81 98 104q114 214 288 492q237 379 295 379q79 0 108 -110l63 -336l149 -695l57 -158q29 -81 29 -108
q0 -43 -31 -72t-71 -29zM897 1113l-286 -461q121 31 367 75zM805 2005q100 0 161 -58l83 -106q47 -58 112 -58q57 0 85 37l46 88l20 59q14 29 60 29q75 0 75 -74q0 -36 -43 -121q-40 -80 -69 -110q-56 -57 -143 -57q-131 0 -205 57q-27 21 -88 107q-42 57 -94 57
q-31 0 -55.5 -11.5t-42.5 -34.5l-44 -85q-25 -45 -65 -45q-31 0 -54 20.5t-23 51.5q0 11 3 23q28 102 101 165q78 66 180 66z" />
    <glyph glyph-name="Adieresis" unicode="&#xc4;" horiz-adv-x="1498" 
d="M1250 -30q-92 0 -160 236q-26 90 -65 315q-102 -14 -267 -50l-266 -55q-50 -131 -171 -383q-32 -56 -87 -56q-40 0 -71.5 29t-31.5 72q0 48 151 365q-17 26 -17 60q0 81 98 104q114 214 288 492q237 379 295 379q79 0 108 -110l63 -336l149 -695l57 -158q29 -81 29 -108
q0 -43 -31 -72t-71 -29zM897 1113l-286 -461q121 31 367 75zM702 1822q131 0 131 -105q0 -30 -44 -58q-40 -25 -75 -25q-123 0 -123 103q0 29 37.5 57t73.5 28zM1136 1809q34 0 69 -31.5t35 -61.5q0 -92 -143 -92q-41 0 -73 21q-36 24 -36 63q0 69 45 89q25 12 103 12z" />
    <glyph glyph-name="Aring" unicode="&#xc5;" horiz-adv-x="1498" 
d="M1250 -30q-92 0 -160 236q-26 90 -65 315q-102 -14 -267 -50l-266 -55q-50 -131 -171 -383q-32 -56 -87 -56q-40 0 -71.5 29t-31.5 72q0 48 151 365q-17 26 -17 60q0 81 98 104q114 214 288 492q237 379 295 379q79 0 108 -110l63 -336l149 -695l57 -158q29 -81 29 -108
q0 -43 -31 -72t-71 -29zM897 1113l-286 -461q121 31 367 75zM965 1576q86 3 126 24q67 36 67 132q0 58 -54 91q-45 29 -107 29q-217 0 -213 -160q1 -46 61 -82t120 -34zM634 1692q0 145 103 229q99 80 260 80q125 0 214 -70q97 -77 97 -199q0 -148 -89.5 -224t-268.5 -79
q-136 -2 -226 76q-90 77 -90 187z" />
    <glyph glyph-name="AE" unicode="&#xc6;" horiz-adv-x="2226" 
d="M1152 672q-106 -3 -272 -19l-272 -25q-87 -119 -257 -385l-121 -185q-33 -46 -80 -46q-40 0 -72 29.5t-32 69.5q0 27 19 57q311 508 539 774l272 346q180 219 316 282q34 16 70 16q42 0 72 -29q120 32 226.5 48t200.5 16q262 0 388 -58q67 -31 67 -96q0 -42 -28.5 -73.5
t-69.5 -31.5q-12 0 -31 5q-187 48 -326 48q-82 0 -179 -15t-209 -46q9 -63 9 -104q0 -140 -17 -382l438 42q186 20 237 20q45 0 74 -29.5t29 -74.5q0 -84 -91 -102l-238 -20l-462 -43q-9 -142 -9 -252q0 -226 32 -260q27 -28 157 -28q62 0 186.5 3.5t187.5 3.5q19 0 58 6
t59 6q106 0 106 -103q0 -79 -85 -101t-216 -23l-218 2q-291 0 -381 97q-86 93 -86 397q0 114 9 263zM781 844q245 24 384 27q17 242 17 379q0 30 -5 68q-92 -84 -206 -230z" />
    <glyph glyph-name="Ccedilla" unicode="&#xc7;" horiz-adv-x="1234" 
d="M375 23q-142 83 -213.5 202t-71.5 274q0 337 284 695q236 297 478 297q48 0 87.5 -4.5t69.5 -14.5q35 51 91 51q71 0 93 -116q10 -51 10 -174q0 -46 -26 -77q-28 -34 -73 -34q-63 0 -96 75q-30 66 -56 79q-19 10 -100 10q-145 0 -322 -222q-240 -299 -240 -565
q0 -125 81 -219q84 -99 207 -99q102 0 209 55q54 28 158 102q77 56 104 56q41 0 71 -32t30 -73q0 -77 -168 -179q-139 -84 -244 -112q54 -67 54 -140q0 -165 -140 -225q-93 -40 -283 -40q-130 0 -130 78q0 75 73 75q18 0 56 -2t57 -2q217 0 217 116q0 68 -106 109l-67 23z
" />
    <glyph glyph-name="Egrave" unicode="&#xc8;" horiz-adv-x="1279" 
d="M1115 1346q-14 0 -31 5q-169 48 -326 48q-82 0 -179 -15t-209 -46q9 -65 9 -104q0 -139 -17 -382l438 42q193 20 237 20t74 -28t30 -75q0 -91 -92 -102l-238 -21l-462 -42q-4 -71 -6.5 -134.5t-2.5 -118.5q0 -221 32 -260q24 -28 157 -28q62 0 186.5 3.5t187.5 3.5
q20 0 59 6.5t58 6.5q106 0 106 -104q0 -84 -85 -101q-94 -19 -407 -19q-310 0 -398 82q-96 89 -96 410q0 64 3 140t8 164q-11 23 -11 49q0 34 19 61q20 289 20 427q0 37 -10 108.5t-10 108.5q0 119 100 119q42 0 72 -29q120 32 226.5 48t200.5 16q243 0 388 -58
q67 -27 67 -96q0 -40 -26 -71q-29 -34 -72 -34zM798 1762q0 -36 -28.5 -62.5t-64.5 -26.5q-43 0 -72 42l-100 149q-53 73 -124 128q-39 30 -39 71q0 36 26.5 64.5t62.5 28.5q62 0 202 -166q137 -164 137 -228z" />
    <glyph glyph-name="Eacute" unicode="&#xc9;" horiz-adv-x="1279" 
d="M1115 1346q-14 0 -31 5q-169 48 -326 48q-82 0 -179 -15t-209 -46q9 -65 9 -104q0 -139 -17 -382l438 42q193 20 237 20t74 -28t30 -75q0 -91 -92 -102l-238 -21l-462 -42q-4 -71 -6.5 -134.5t-2.5 -118.5q0 -221 32 -260q24 -28 157 -28q62 0 186.5 3.5t187.5 3.5
q20 0 59 6.5t58 6.5q106 0 106 -104q0 -84 -85 -101q-94 -19 -407 -19q-310 0 -398 82q-96 89 -96 410q0 64 3 140t8 164q-11 23 -11 49q0 34 19 61q20 289 20 427q0 37 -10 108.5t-10 108.5q0 119 100 119q42 0 72 -29q120 32 226.5 48t200.5 16q243 0 388 -58
q67 -27 67 -96q0 -40 -26 -71q-29 -34 -72 -34zM517 1711q-36 0 -63.5 28t-27.5 64q0 34 31 65q43 42 131 159q66 86 147 143q27 19 53 19q36 0 63 -28.5t27 -64.5q0 -40 -38 -70q-70 -56 -135 -145q-68 -94 -129 -145q-28 -25 -59 -25z" />
    <glyph glyph-name="Ecircumflex" unicode="&#xca;" horiz-adv-x="1279" 
d="M1115 1346q-14 0 -31 5q-169 48 -326 48q-82 0 -179 -15t-209 -46q9 -65 9 -104q0 -139 -17 -382l438 42q193 20 237 20t74 -28t30 -75q0 -91 -92 -102l-238 -21l-462 -42q-4 -71 -6.5 -134.5t-2.5 -118.5q0 -221 32 -260q24 -28 157 -28q62 0 186.5 3.5t187.5 3.5
q20 0 59 6.5t58 6.5q106 0 106 -104q0 -84 -85 -101q-94 -19 -407 -19q-310 0 -398 82q-96 89 -96 410q0 64 3 140t8 164q-11 23 -11 49q0 34 19 61q20 289 20 427q0 37 -10 108.5t-10 108.5q0 119 100 119q42 0 72 -29q120 32 226.5 48t200.5 16q243 0 388 -58
q67 -27 67 -96q0 -40 -26 -71q-29 -34 -72 -34zM625 2257q55 0 132 -67q24 -21 109 -112l159 -170q26 -30 26 -61q0 -36 -27.5 -63.5t-64.5 -27.5q-33 0 -63 29q-80 90 -250 260q-254 -312 -326 -312q-36 0 -63.5 28t-27.5 64q0 35 30 65q56 54 305 336q27 31 61 31z" />
    <glyph glyph-name="Edieresis" unicode="&#xcb;" horiz-adv-x="1279" 
d="M1115 1346q-14 0 -31 5q-169 48 -326 48q-82 0 -179 -15t-209 -46q9 -65 9 -104q0 -139 -17 -382l438 42q193 20 237 20t74 -28t30 -75q0 -91 -92 -102l-238 -21l-462 -42q-4 -71 -6.5 -134.5t-2.5 -118.5q0 -221 32 -260q24 -28 157 -28q62 0 186.5 3.5t187.5 3.5
q20 0 59 6.5t58 6.5q106 0 106 -104q0 -84 -85 -101q-94 -19 -407 -19q-310 0 -398 82q-96 89 -96 410q0 64 3 140t8 164q-11 23 -11 49q0 34 19 61q20 289 20 427q0 37 -10 108.5t-10 108.5q0 119 100 119q42 0 72 -29q120 32 226.5 48t200.5 16q243 0 388 -58
q67 -27 67 -96q0 -40 -26 -71q-29 -34 -72 -34zM480 1950q131 0 131 -105q0 -30 -44 -58q-40 -25 -75 -25q-123 0 -123 103q0 29 37.5 57t73.5 28zM936 1948q34 0 69 -31.5t35 -61.5q0 -92 -143 -92q-41 0 -73 21q-36 24 -36 63q0 69 45 89q25 12 103 12z" />
    <glyph glyph-name="Igrave" unicode="&#xcc;" horiz-adv-x="1119" 
d="M957 1246q-64 0 -161 13l-161 21q-23 -291 -23 -556q0 -70 4 -173t4 -173q0 -94 -7 -171l315 4q42 0 70.5 -29.5t28.5 -72.5q0 -44 -28.5 -73.5t-70.5 -29.5q-56 0 -168 -2.5t-168 -2.5q-66 0 -197.5 -18.5t-198.5 -18.5q-42 0 -70.5 29.5t-28.5 72.5t28.5 73t70.5 30
q65 0 215 21q10 81 10 185q0 69 -6.5 168.5t-6.5 167.5q0 231 28 577l-130 -4l-130 -3q-43 0 -72 29t-29 74q0 93 94 102q81 8 303 8q199 0 499 -43q89 -13 89 -107q0 -47 -34 -75q-30 -23 -69 -23zM754 1767q0 -36 -28.5 -62.5t-64.5 -26.5q-43 0 -72 42l-100 149
q-53 73 -124 128q-39 30 -39 71q0 36 26.5 64.5t62.5 28.5q62 0 202 -166q137 -164 137 -228z" />
    <glyph glyph-name="Iacute" unicode="&#xcd;" horiz-adv-x="1119" 
d="M957 1246q-64 0 -161 13l-161 21q-23 -291 -23 -556q0 -70 4 -173t4 -173q0 -94 -7 -171l315 4q42 0 70.5 -29.5t28.5 -72.5q0 -44 -28.5 -73.5t-70.5 -29.5q-56 0 -168 -2.5t-168 -2.5q-66 0 -197.5 -18.5t-198.5 -18.5q-42 0 -70.5 29.5t-28.5 72.5t28.5 73t70.5 30
q65 0 215 21q10 81 10 185q0 69 -6.5 168.5t-6.5 167.5q0 231 28 577l-130 -4l-130 -3q-43 0 -72 29t-29 74q0 93 94 102q81 8 303 8q199 0 499 -43q89 -13 89 -107q0 -47 -34 -75q-30 -23 -69 -23zM524 1657q-36 0 -63.5 28t-27.5 64q0 34 31 65q43 42 131 159
q66 86 147 143q27 19 53 19q36 0 63 -28.5t27 -64.5q0 -40 -38 -70q-70 -56 -135 -145q-68 -94 -129 -145q-28 -25 -59 -25z" />
    <glyph glyph-name="Icircumflex" unicode="&#xce;" horiz-adv-x="1119" 
d="M957 1246q-64 0 -161 13l-161 21q-23 -291 -23 -556q0 -70 4 -173t4 -173q0 -94 -7 -171l315 4q42 0 70.5 -29.5t28.5 -72.5q0 -44 -28.5 -73.5t-70.5 -29.5q-56 0 -168 -2.5t-168 -2.5q-66 0 -197.5 -18.5t-198.5 -18.5q-42 0 -70.5 29.5t-28.5 72.5t28.5 73t70.5 30
q65 0 215 21q10 81 10 185q0 69 -6.5 168.5t-6.5 167.5q0 231 28 577l-130 -4l-130 -3q-43 0 -72 29t-29 74q0 93 94 102q81 8 303 8q199 0 499 -43q89 -13 89 -107q0 -47 -34 -75q-30 -23 -69 -23zM574 2177q55 0 132 -67q24 -21 109 -112l159 -170q26 -30 26 -61
q0 -36 -27.5 -63.5t-64.5 -27.5q-33 0 -63 29q-80 90 -250 260q-254 -312 -326 -312q-36 0 -63.5 28t-27.5 64q0 35 30 65q56 54 305 336q27 31 61 31z" />
    <glyph glyph-name="Idieresis" unicode="&#xcf;" horiz-adv-x="1119" 
d="M957 1246q-64 0 -161 13l-161 21q-23 -291 -23 -556q0 -70 4 -173t4 -173q0 -94 -7 -171l315 4q42 0 70.5 -29.5t28.5 -72.5q0 -44 -28.5 -73.5t-70.5 -29.5q-56 0 -168 -2.5t-168 -2.5q-66 0 -197.5 -18.5t-198.5 -18.5q-42 0 -70.5 29.5t-28.5 72.5t28.5 73t70.5 30
q65 0 215 21q10 81 10 185q0 69 -6.5 168.5t-6.5 167.5q0 231 28 577l-130 -4l-130 -3q-43 0 -72 29t-29 74q0 93 94 102q81 8 303 8q199 0 499 -43q89 -13 89 -107q0 -47 -34 -75q-30 -23 -69 -23zM334 1842q131 0 131 -105q0 -30 -44 -58q-40 -25 -75 -25q-123 0 -123 103
q0 29 37.5 57t73.5 28zM873 1850q34 0 69 -31.5t35 -61.5q0 -92 -143 -92q-41 0 -73 21q-36 24 -36 63q0 69 45 89q25 12 103 12z" />
    <glyph glyph-name="Eth" unicode="&#xd0;" horiz-adv-x="1478" 
d="M631 -99q-80 0 -176 25q-106 27 -161 68h-10q-101 0 -101 103q0 97 7 249l10 249q-13 0 -45.5 -1.5t-50.5 -1.5q-148 0 -148 103q0 102 149 102q18 0 51 -1.5t46 -1.5l-5 315l-4 316q0 42 42 86.5t84 44.5q24 0 160 -66q158 -77 178 -84q297 -109 490 -304
q229 -232 229 -515q0 -171 -80 -327q-81 -159 -220 -253q-156 -106 -445 -106zM395 1295l8 -501q43 0 130.5 -8.5t131.5 -8.5t72 -27.5t28 -71.5q0 -43 -28 -71t-71 -28q-45 0 -133 8t-132 8l-14 -421q132 -72 243 -72q227 0 332 70q98 66 155 178t57 232q0 189 -133 337
q-104 117 -306 221q-54 29 -340 155z" />
    <glyph glyph-name="Ntilde" unicode="&#xd1;" horiz-adv-x="1632" 
d="M1541 222q0 -48 -16 -160q-16 -101 -107 -101q-55 0 -131 72q-407 385 -934 1111l-5 -227l-3 -228q0 -83 3.5 -249t3.5 -250q0 -269 -104 -269q-55 0 -87 35q-29 31 -29 74q0 42 6.5 127t6.5 127q0 62 4 185.5t4 185.5q0 66 -3 199.5t-3 199.5q0 63 -12 187.5t-12 187.5
q0 46 39.5 84t89.5 38q53 0 131 -116q249 -373 448 -620q237 -293 520 -560q3 43 0 127l-3 126q0 439 -34 699q-4 26 -27 105q-20 68 -20 106q0 116 106 116q174 0 174 -649q0 -111 -3 -331.5t-3 -331.5zM655 2024q100 0 161 -58l83 -106q47 -58 112 -58q57 0 85 37l46 88
l20 59q14 29 60 29q75 0 75 -74q0 -36 -43 -121q-40 -80 -69 -110q-56 -57 -143 -57q-131 0 -205 57q-27 21 -88 107q-42 57 -94 57q-31 0 -55.5 -11.5t-42.5 -34.5l-44 -85q-25 -45 -65 -45q-31 0 -54 20.5t-23 51.5q0 11 3 23q28 102 101 165q78 66 180 66z" />
    <glyph glyph-name="Ograve" unicode="&#xd2;" horiz-adv-x="1635" 
d="M802 -61q-282 0 -478 169q-208 180 -208 464q0 346 205 629q229 314 571 314q329 0 489 -148q167 -154 167 -486q0 -346 -188 -624q-216 -318 -558 -318zM892 1310q-245 0 -415 -244q-157 -224 -157 -494q0 -193 143 -314q137 -114 339 -114q243 0 401 245
q141 219 141 492q0 239 -107 336q-102 93 -345 93zM1221 1737q0 -36 -28.5 -62.5t-64.5 -26.5q-43 0 -72 42l-100 149q-53 73 -124 128q-39 30 -39 71q0 36 26.5 64.5t62.5 28.5q62 0 202 -166q137 -164 137 -228z" />
    <glyph glyph-name="Oacute" unicode="&#xd3;" horiz-adv-x="1635" 
d="M802 -61q-282 0 -478 169q-208 180 -208 464q0 346 205 629q229 314 571 314q329 0 489 -148q167 -154 167 -486q0 -346 -188 -624q-216 -318 -558 -318zM892 1310q-245 0 -415 -244q-157 -224 -157 -494q0 -193 143 -314q137 -114 339 -114q243 0 401 245
q141 219 141 492q0 239 -107 336q-102 93 -345 93zM969 1637q-36 0 -63.5 28t-27.5 64q0 34 31 65q43 42 131 159q66 86 147 143q27 19 53 19q36 0 63 -28.5t27 -64.5q0 -40 -38 -70q-70 -56 -135 -145q-68 -94 -129 -145q-28 -25 -59 -25z" />
    <glyph glyph-name="Ocircumflex" unicode="&#xd4;" horiz-adv-x="1635" 
d="M802 -61q-282 0 -478 169q-208 180 -208 464q0 346 205 629q229 314 571 314q329 0 489 -148q167 -154 167 -486q0 -346 -188 -624q-216 -318 -558 -318zM892 1310q-245 0 -415 -244q-157 -224 -157 -494q0 -193 143 -314q137 -114 339 -114q243 0 401 245
q141 219 141 492q0 239 -107 336q-102 93 -345 93zM980 2140q55 0 132 -67q24 -21 109 -112l159 -170q26 -30 26 -61q0 -36 -27.5 -63.5t-64.5 -27.5q-33 0 -63 29q-80 90 -250 260q-254 -312 -326 -312q-36 0 -63.5 28t-27.5 64q0 35 30 65q56 54 305 336q27 31 61 31z" />
    <glyph glyph-name="Otilde" unicode="&#xd5;" horiz-adv-x="1635" 
d="M802 -61q-282 0 -478 169q-208 180 -208 464q0 346 205 629q229 314 571 314q329 0 489 -148q167 -154 167 -486q0 -346 -188 -624q-216 -318 -558 -318zM892 1310q-245 0 -415 -244q-157 -224 -157 -494q0 -193 143 -314q137 -114 339 -114q243 0 401 245
q141 219 141 492q0 239 -107 336q-102 93 -345 93zM811 2007q100 0 161 -58l83 -106q47 -58 112 -58q57 0 85 37l46 88l20 59q14 29 60 29q75 0 75 -74q0 -36 -43 -121q-40 -80 -69 -110q-56 -57 -143 -57q-131 0 -205 57q-27 21 -88 107q-42 57 -94 57q-31 0 -55.5 -11.5
t-42.5 -34.5l-44 -85q-25 -45 -65 -45q-31 0 -54 20.5t-23 51.5q0 11 3 23q28 102 101 165q78 66 180 66z" />
    <glyph glyph-name="Odieresis" unicode="&#xd6;" horiz-adv-x="1635" 
d="M802 -61q-282 0 -478 169q-208 180 -208 464q0 346 205 629q229 314 571 314q329 0 489 -148q167 -154 167 -486q0 -346 -188 -624q-216 -318 -558 -318zM892 1310q-245 0 -415 -244q-157 -224 -157 -494q0 -193 143 -314q137 -114 339 -114q243 0 401 245
q141 219 141 492q0 239 -107 336q-102 93 -345 93zM682 1848q131 0 131 -105q0 -30 -44 -58q-40 -25 -75 -25q-123 0 -123 103q0 29 37.5 57t73.5 28zM1180 1856q34 0 69 -31.5t35 -61.5q0 -92 -143 -92q-41 0 -73 21q-36 24 -36 63q0 69 45 89q25 12 103 12z" />
    <glyph glyph-name="multiply" unicode="&#xd7;" horiz-adv-x="943" 
d="M45 437l654 616l158 -142l-682 -589zM64 889l168 157l666 -595l-176 -151z" />
    <glyph glyph-name="Oslash" unicode="&#xd8;" horiz-adv-x="1635" 
d="M1328 1099q-115 -108 -275 -280l-266 -288l-280 -295q131 -92 309 -92q250 0 407 253q135 219 135 484q0 132 -30 218zM388 363l414 442l418 437q-103 68 -314 68q-250 0 -420 -251q-152 -225 -152 -487q0 -115 54 -209zM177 -90q-37 0 -65.5 27.5t-28.5 64.5
q0 25 70 103l94 101q-117 158 -117 366q0 351 209 633q229 310 567 310q299 0 458 -122q146 149 173 149q37 0 65.5 -26t28.5 -62q0 -38 -150 -197q81 -144 81 -376q0 -352 -192 -630q-216 -312 -554 -312q-261 0 -452 148l-92 -102q-69 -75 -95 -75z" />
    <glyph glyph-name="Ugrave" unicode="&#xd9;" horiz-adv-x="1509" 
d="M797 -40q-311 0 -464 179q-124 144 -156 426q-15 127 -15 507q0 140 6 226q6 91 18 127q25 73 90 73q92 0 92 -169v-587q0 -606 424 -606q399 0 399 1020v98q-1 60 -1 80q0 62 22 109q28 60 83 60q100 0 100 -137q0 -41 1 -124v-124q0 -1158 -599 -1158zM934 1723
q0 -36 -28.5 -62.5t-64.5 -26.5q-43 0 -72 42l-100 149q-53 73 -124 128q-39 30 -39 71q0 36 26.5 64.5t62.5 28.5q62 0 202 -166q137 -164 137 -228z" />
    <glyph glyph-name="Uacute" unicode="&#xda;" horiz-adv-x="1509" 
d="M797 -40q-311 0 -464 179q-124 144 -156 426q-15 127 -15 507q0 140 6 226q6 91 18 127q25 73 90 73q92 0 92 -169v-587q0 -606 424 -606q399 0 399 1020v98q-1 60 -1 80q0 62 22 109q28 60 83 60q100 0 100 -137q0 -41 1 -124v-124q0 -1158 -599 -1158zM774 1643
q-36 0 -63.5 28t-27.5 64q0 34 31 65q43 42 131 159q66 86 147 143q27 19 53 19q36 0 63 -28.5t27 -64.5q0 -40 -38 -70q-70 -56 -135 -145q-68 -94 -129 -145q-28 -25 -59 -25z" />
    <glyph glyph-name="Ucircumflex" unicode="&#xdb;" horiz-adv-x="1509" 
d="M797 -40q-311 0 -464 179q-124 144 -156 426q-15 127 -15 507q0 140 6 226q6 91 18 127q25 73 90 73q92 0 92 -169v-587q0 -606 424 -606q399 0 399 1020v98q-1 60 -1 80q0 62 22 109q28 60 83 60q100 0 100 -137q0 -41 1 -124v-124q0 -1158 -599 -1158zM825 2146
q55 0 132 -67q24 -21 109 -112l159 -170q26 -30 26 -61q0 -36 -27.5 -63.5t-64.5 -27.5q-33 0 -63 29q-80 90 -250 260q-254 -312 -326 -312q-36 0 -63.5 28t-27.5 64q0 35 30 65q56 54 305 336q27 31 61 31z" />
    <glyph glyph-name="Udieresis" unicode="&#xdc;" horiz-adv-x="1509" 
d="M790 -40q-311 0 -464 179q-124 144 -156 426q-15 127 -15 507q0 140 6 226q6 91 18 127q25 73 90 73q92 0 92 -169v-587q0 -606 424 -606q399 0 399 1020v98q-1 60 -1 80q0 62 22 109q28 60 83 60q100 0 100 -137q0 -41 1 -124v-124q0 -1158 -599 -1158zM571 1825
q131 0 131 -105q0 -30 -44 -58q-40 -25 -75 -25q-123 0 -123 103q0 29 37.5 57t73.5 28zM1110 1833q34 0 69 -31.5t35 -61.5q0 -92 -143 -92q-41 0 -73 21q-36 24 -36 63q0 69 45 89q25 12 103 12z" />
    <glyph glyph-name="Yacute" unicode="&#xdd;" horiz-adv-x="1301" 
d="M1172 1279q-24 -38 -64 -117l-172 -425q-100 -239 -188 -418l-125 -223l-53 -108q-33 -58 -89 -58q-39 0 -71 29t-32 72q0 34 94 213l123 225q-179 231 -232 364q-45 113 -150 271q-144 216 -169 261q-15 27 -15 54q0 43 31.5 72.5t71.5 29.5q49 0 82 -47l80 -124
q106 -157 140 -214q75 -123 117 -228q33 -83 141 -227l229 558q39 69 108 213q28 68 93 68q40 0 71.5 -28t31.5 -72q0 -46 -53 -141zM614 1456q-36 0 -63.5 28t-27.5 64q0 34 31 65q43 42 131 159q66 86 147 143q27 19 53 19q36 0 63 -28.5t27 -64.5q0 -40 -38 -70
q-70 -56 -135 -145q-68 -94 -129 -145q-28 -25 -59 -25z" />
    <glyph glyph-name="Thorn" unicode="&#xde;" horiz-adv-x="1066" 
d="M323 1169l-33 -586q103 -17 129 -17q168 0 283 85q126 94 126 251q0 112 -120 193q-111 74 -239 74h-146zM325 1371v-21l167 8q150 7 311 -93q208 -131 208 -363q0 -248 -188 -395q-168 -131 -404 -131q-37 0 -134 16l-2 -321q0 -40 -26 -67.5t-65 -27.5q-40 0 -66 27.5
t-26 67.5v294q0 147 18 414q20 289 22 414v138q0 99 12 144q21 77 98 76q79 -1 79 -126q0 -28 -4 -54z" />
    <glyph glyph-name="germandbls" unicode="&#xdf;" horiz-adv-x="897" 
d="M796 210q83 -28 159 -28q55 0 93 19.5t59.5 54.5t25.5 82t-7 104q-24 118 -104 175t-271 68l-41 155q94 35 134 100t22 153.5t-57 122t-110 25.5t-100 -98l52 -1000l-236 -54l13 1104q36 123 158 160t186.5 29t145.5 -33t151 -124q46 -144 -26 -264q-60 -99 -145 -153
l68 -11q141 -16 271.5 -102.5t152.5 -256.5q0 -165 -63 -243t-139.5 -104.5t-167.5 -26.5q-130 0 -248 41q-32 10 -66 30l26 109q34 -23 64 -34z" />
    <glyph glyph-name="agrave" unicode="&#xe0;" horiz-adv-x="1048" 
d="M935 -66q-19 0 -69 44q-45 41 -67 73q-96 -52 -169 -78.5t-122 -26.5q-234 0 -341 132q-101 124 -101 380q0 242 166.5 414t397.5 172q87 0 195 -45q136 -56 136 -135q0 -27 -20 -48q-10 -38 -15.5 -125t-6.5 -223q-1 -124 17 -196q10 -44 63 -176q7 -18 23 -53l6 -17
q0 -40 -28 -66t-65 -26zM727 629q0 43 5.5 93.5t16.5 107.5q-37 19 -63.5 28t-42.5 9q-155 0 -267.5 -126.5t-112.5 -291.5q0 -164 58 -246t174 -82q96 0 163 35q36 19 101 76q-32 265 -32 397zM748 1260q0 -36 -28.5 -62.5t-64.5 -26.5q-43 0 -72 42l-100 149
q-53 73 -124 128q-39 30 -39 71q0 36 26.5 64.5t62.5 28.5q62 0 202 -166q137 -164 137 -228z" />
    <glyph glyph-name="aacute" unicode="&#xe1;" horiz-adv-x="1048" 
d="M935 -66q-19 0 -69 44q-45 41 -67 73q-96 -52 -169 -78.5t-122 -26.5q-234 0 -341 132q-101 124 -101 380q0 242 166.5 414t397.5 172q87 0 195 -45q136 -56 136 -135q0 -27 -20 -48q-10 -38 -15.5 -125t-6.5 -223q-1 -124 17 -196q10 -44 63 -176q7 -18 23 -53l6 -17
q0 -40 -28 -66t-65 -26zM727 629q0 43 5.5 93.5t16.5 107.5q-37 19 -63.5 28t-42.5 9q-155 0 -267.5 -126.5t-112.5 -291.5q0 -164 58 -246t174 -82q96 0 163 35q36 19 101 76q-32 265 -32 397zM583 1187q-36 0 -63.5 28t-27.5 64q0 34 31 65q43 42 131 159q66 86 147 143
q27 19 53 19q36 0 63 -28.5t27 -64.5q0 -40 -38 -70q-70 -56 -135 -145q-68 -94 -129 -145q-28 -25 -59 -25z" />
    <glyph glyph-name="acircumflex" unicode="&#xe2;" horiz-adv-x="1048" 
d="M935 -66q-19 0 -69 44q-45 41 -67 73q-96 -52 -169 -78.5t-122 -26.5q-234 0 -341 132q-101 124 -101 380q0 242 166.5 414t397.5 172q87 0 195 -45q136 -56 136 -135q0 -27 -20 -48q-10 -38 -15.5 -125t-6.5 -223q-1 -124 17 -196q10 -44 63 -176q7 -18 23 -53l6 -17
q0 -40 -28 -66t-65 -26zM727 629q0 43 5.5 93.5t16.5 107.5q-37 19 -63.5 28t-42.5 9q-155 0 -267.5 -126.5t-112.5 -291.5q0 -164 58 -246t174 -82q96 0 163 35q36 19 101 76q-32 265 -32 397zM559 1698q55 0 132 -67q24 -21 109 -112l159 -170q26 -30 26 -61
q0 -36 -27.5 -63.5t-64.5 -27.5q-33 0 -63 29q-80 90 -250 260q-254 -312 -326 -312q-36 0 -63.5 28t-27.5 64q0 35 30 65q56 54 305 336q27 31 61 31z" />
    <glyph glyph-name="atilde" unicode="&#xe3;" horiz-adv-x="1048" 
d="M935 -66q-19 0 -69 44q-45 41 -67 73q-96 -52 -169 -78.5t-122 -26.5q-234 0 -341 132q-101 124 -101 380q0 242 166.5 414t397.5 172q87 0 195 -45q136 -56 136 -135q0 -27 -20 -48q-10 -38 -15.5 -125t-6.5 -223q-1 -124 17 -196q10 -44 63 -176q7 -18 23 -53l6 -17
q0 -40 -28 -66t-65 -26zM727 629q0 43 5.5 93.5t16.5 107.5q-37 19 -63.5 28t-42.5 9q-155 0 -267.5 -126.5t-112.5 -291.5q0 -164 58 -246t174 -82q96 0 163 35q36 19 101 76q-32 265 -32 397zM425 1534q100 0 161 -58l83 -106q47 -58 112 -58q57 0 85 37l46 88l20 59
q14 29 60 29q75 0 75 -74q0 -36 -43 -121q-40 -80 -69 -110q-56 -57 -143 -57q-131 0 -205 57q-27 21 -88 107q-42 57 -94 57q-31 0 -55.5 -11.5t-42.5 -34.5l-44 -85q-25 -45 -65 -45q-31 0 -54 20.5t-23 51.5q0 11 3 23q28 102 101 165q78 66 180 66z" />
    <glyph glyph-name="adieresis" unicode="&#xe4;" horiz-adv-x="1048" 
d="M935 -66q-19 0 -69 44q-45 41 -67 73q-96 -52 -169 -78.5t-122 -26.5q-234 0 -341 132q-101 124 -101 380q0 242 166.5 414t397.5 172q87 0 195 -45q136 -56 136 -135q0 -27 -20 -48q-10 -38 -15.5 -125t-6.5 -223q-1 -124 17 -196q10 -44 63 -176q7 -18 23 -53l6 -17
q0 -40 -28 -66t-65 -26zM727 629q0 43 5.5 93.5t16.5 107.5q-37 19 -63.5 28t-42.5 9q-155 0 -267.5 -126.5t-112.5 -291.5q0 -164 58 -246t174 -82q96 0 163 35q36 19 101 76q-32 265 -32 397zM345 1372q131 0 131 -105q0 -30 -44 -58q-40 -25 -75 -25q-123 0 -123 103
q0 29 37.5 57t73.5 28zM779 1380q34 0 69 -31.5t35 -61.5q0 -92 -143 -92q-41 0 -73 21q-36 24 -36 63q0 69 45 89q25 12 103 12z" />
    <glyph glyph-name="aring" unicode="&#xe5;" horiz-adv-x="1048" 
d="M935 -66q-19 0 -69 44q-45 41 -67 73q-96 -52 -169 -78.5t-122 -26.5q-234 0 -341 132q-101 124 -101 380q0 242 166.5 414t397.5 172q87 0 195 -45q136 -56 136 -135q0 -27 -20 -48q-10 -38 -15.5 -125t-6.5 -223q-1 -124 17 -196q10 -44 63 -176q7 -18 23 -53l6 -17
q0 -40 -28 -66t-65 -26zM727 629q0 43 5.5 93.5t16.5 107.5q-37 19 -63.5 28t-42.5 9q-155 0 -267.5 -126.5t-112.5 -291.5q0 -164 58 -246t174 -82q96 0 163 35q36 19 101 76q-32 265 -32 397zM610 1333q86 3 126 24q67 36 67 132q0 58 -54 91q-45 29 -107 29
q-217 0 -213 -160q1 -46 61 -82t120 -34zM279 1449q0 145 103 229q99 80 260 80q125 0 214 -70q97 -77 97 -199q0 -148 -89.5 -224t-268.5 -79q-136 -2 -226 76q-90 77 -90 187z" />
    <glyph glyph-name="ae" unicode="&#xe6;" horiz-adv-x="1867" 
d="M1289 865q-245 0 -324 -379l292 133q173 82 273 166q-86 80 -241 80zM806 54q-42 -40 -114 -71q-76 -32 -136 -32q-217 0 -355 147q-134 143 -134 362q0 235 179 405q175 167 412 167q103 0 242 -49q32 -11 39 -113q56 82 156 130q94 45 194 45q160 0 265 -53
q135 -70 135 -215q0 -102 -117 -185q-47 -33 -208 -109l-382 -181q112 -167 334 -167q81 0 169 27q105 32 145 85.5t73 53.5q35 0 62.5 -26.5t27.5 -61.5q0 -116 -188 -195q-153 -64 -289 -64q-232 0 -339 113q5 -20 10 -68q4 -41 -77 -41q-53 0 -75 26q-13 15 -29 70z
M790 828l-70 35q-19 7 -77 7q-158 0 -272 -134q-108 -127 -108 -288q0 -126 86 -228q91 -107 215 -107q67 0 123.5 25.5t102.5 76.5q-22 126 -22 168q0 281 22 445z" />
    <glyph glyph-name="ccedilla" unicode="&#xe7;" horiz-adv-x="1052" 
d="M770 -196q0 -124 -60.5 -186.5t-181.5 -62.5q-85 0 -161 32q-96 42 -96 115q0 54 68 54q36 0 81.5 -24.5t96.5 -24.5q49 1 73 24t24 68q0 48 -37.5 86t-113.5 67q-159 36 -255 152q-103 123 -103 300q0 203 135 419q150 240 338 240q98 0 219 -46q153 -59 153 -144
q0 -38 -25 -67.5t-62 -29.5q-29 0 -50.5 17.5t-41.5 34.5q-59 47 -193 47q-102 0 -202 -182q-91 -167 -91 -289q0 -132 90 -208q84 -71 216 -71q60 0 128 32l116 62q30 16 43 16q37 0 64 -29.5t27 -67.5q0 -103 -256 -178q29 -38 43 -77t14 -79z" />
    <glyph glyph-name="egrave" unicode="&#xe8;" horiz-adv-x="1122" 
d="M606 -46q-226 0 -366 113q-153 125 -153 350q0 260 126 436q137 192 366 192q166 0 271 -56q129 -69 129 -212q0 -100 -113 -182q-50 -36 -212 -112l-382 -181q56 -83 139.5 -125t194.5 -42q69 0 162 26q118 33 152 86.5t73 53.5q35 0 62.5 -26.5t27.5 -61.5
q0 -111 -179 -191q-153 -68 -298 -68zM579 865q-122 0 -203 -94.5t-121 -284.5l307 146q181 88 258 153q-86 80 -241 80zM735 1267q0 -36 -28.5 -62.5t-64.5 -26.5q-43 0 -72 42l-100 149q-53 73 -124 128q-39 30 -39 71q0 36 26.5 64.5t62.5 28.5q62 0 202 -166
q137 -164 137 -228z" />
    <glyph glyph-name="eacute" unicode="&#xe9;" horiz-adv-x="1122" 
d="M606 -46q-226 0 -366 113q-153 125 -153 350q0 260 126 436q137 192 366 192q166 0 271 -56q129 -69 129 -212q0 -100 -113 -182q-50 -36 -212 -112l-382 -181q56 -83 139.5 -125t194.5 -42q69 0 162 26q118 33 152 86.5t73 53.5q35 0 62.5 -26.5t27.5 -61.5
q0 -111 -179 -191q-153 -68 -298 -68zM579 865q-122 0 -203 -94.5t-121 -284.5l307 146q181 88 258 153q-86 80 -241 80zM595 1187q-36 0 -63.5 28t-27.5 64q0 34 31 65q43 42 131 159q66 86 147 143q27 19 53 19q36 0 63 -28.5t27 -64.5q0 -40 -38 -70q-70 -56 -135 -145
q-68 -94 -129 -145q-28 -25 -59 -25z" />
    <glyph glyph-name="ecircumflex" unicode="&#xea;" horiz-adv-x="1122" 
d="M606 -46q-226 0 -366 113q-153 125 -153 350q0 260 126 436q137 192 366 192q166 0 271 -56q129 -69 129 -212q0 -100 -113 -182q-50 -36 -212 -112l-382 -181q56 -83 139.5 -125t194.5 -42q69 0 162 26q118 33 152 86.5t73 53.5q35 0 62.5 -26.5t27.5 -61.5
q0 -111 -179 -191q-153 -68 -298 -68zM579 865q-122 0 -203 -94.5t-121 -284.5l307 146q181 88 258 153q-86 80 -241 80zM585 1690q55 0 132 -67q24 -21 109 -112l159 -170q26 -30 26 -61q0 -36 -27.5 -63.5t-64.5 -27.5q-33 0 -63 29q-80 90 -250 260q-254 -312 -326 -312
q-36 0 -63.5 28t-27.5 64q0 35 30 65q56 54 305 336q27 31 61 31z" />
    <glyph glyph-name="edieresis" unicode="&#xeb;" horiz-adv-x="1122" 
d="M606 -46q-226 0 -366 113q-153 125 -153 350q0 260 126 436q137 192 366 192q166 0 271 -56q129 -69 129 -212q0 -100 -113 -182q-50 -36 -212 -112l-382 -181q56 -83 139.5 -125t194.5 -42q69 0 162 26q118 33 152 86.5t73 53.5q35 0 62.5 -26.5t27.5 -61.5
q0 -111 -179 -191q-153 -68 -298 -68zM579 865q-122 0 -203 -94.5t-121 -284.5l307 146q181 88 258 153q-86 80 -241 80zM441 1407q131 0 131 -105q0 -30 -44 -58q-40 -25 -75 -25q-123 0 -123 103q0 29 37.5 57t73.5 28zM823 1403q34 0 69 -31.5t35 -61.5q0 -92 -143 -92
q-41 0 -73 21q-36 24 -36 63q0 69 45 89q25 12 103 12z" />
    <glyph glyph-name="igrave" unicode="&#xec;" horiz-adv-x="574" 
d="M375 454q0 -60 3.5 -179.5t3.5 -179.5q0 -44 -27 -72t-71 -28q-43 0 -70.5 28t-27.5 72q0 60 -3.5 179.5t-3.5 179.5q0 94 10 234.5t10 234.5q0 45 27.5 73t70.5 28t70.5 -28t27.5 -73q0 -94 -10 -234.5t-10 -234.5zM453 1267q0 -36 -28.5 -62.5t-64.5 -26.5
q-43 0 -72 42l-100 149q-53 73 -124 128q-39 30 -39 71q0 36 26.5 64.5t62.5 28.5q62 0 202 -166q137 -164 137 -228z" />
    <glyph glyph-name="iacute" unicode="&#xed;" horiz-adv-x="574" 
d="M375 454q0 -60 3.5 -179.5t3.5 -179.5q0 -44 -27 -72t-71 -28q-43 0 -70.5 28t-27.5 72q0 60 -3.5 179.5t-3.5 179.5q0 94 10 234.5t10 234.5q0 45 27.5 73t70.5 28t70.5 -28t27.5 -73q0 -94 -10 -234.5t-10 -234.5zM187 1187q-36 0 -63.5 28t-27.5 64q0 34 31 65
q43 42 131 159q66 86 147 143q27 19 53 19q36 0 63 -28.5t27 -64.5q0 -40 -38 -70q-70 -56 -135 -145q-68 -94 -129 -145q-28 -25 -59 -25z" />
    <glyph glyph-name="icircumflex" unicode="&#xee;" horiz-adv-x="574" 
d="M375 454q0 -60 3.5 -179.5t3.5 -179.5q0 -44 -27 -72t-71 -28q-43 0 -70.5 28t-27.5 72q0 60 -3.5 179.5t-3.5 179.5q0 94 10 234.5t10 234.5q0 45 27.5 73t70.5 28t70.5 -28t27.5 -73q0 -94 -10 -234.5t-10 -234.5zM254 1640q55 0 132 -67q24 -21 109 -112l159 -170
q26 -30 26 -61q0 -36 -27.5 -63.5t-64.5 -27.5q-33 0 -63 29q-80 90 -250 260q-254 -312 -326 -312q-36 0 -63.5 28t-27.5 64q0 35 30 65q56 54 305 336q27 31 61 31z" />
    <glyph glyph-name="idieresis" unicode="&#xef;" horiz-adv-x="574" 
d="M375 454q0 -60 3.5 -179.5t3.5 -179.5q0 -44 -27 -72t-71 -28q-43 0 -70.5 28t-27.5 72q0 60 -3.5 179.5t-3.5 179.5q0 94 10 234.5t10 234.5q0 45 27.5 73t70.5 28t70.5 -28t27.5 -73q0 -94 -10 -234.5t-10 -234.5zM145 1372q131 0 131 -105q0 -30 -44 -58
q-40 -25 -75 -25q-123 0 -123 103q0 29 37.5 57t73.5 28zM475 1380q34 0 69 -31.5t35 -61.5q0 -92 -143 -92q-41 0 -73 21q-36 24 -36 63q0 69 45 89q25 12 103 12z" />
    <glyph glyph-name="eth" unicode="&#xf0;" horiz-adv-x="1042" 
d="M364 359q0 -78 56 -148q60 -74 137 -74q144 0 208 141q48 104 48 267q0 57 -57 218q-53 -13 -157 -46q-235 -93 -235 -358zM459 1280l-91 75q-59 51 -59 91q0 36 27.5 64t63.5 28q61 0 208 -174q174 91 238 91q41 0 67.5 -26.5t26.5 -67.5q0 -35 -29 -57l-65 -37
l-122 -56q267 -389 267 -666q0 -239 -95 -396q-115 -190 -339 -190q-151 0 -263 126q-109 121 -109 274q0 212 149 372q142 152 355 193q-53 113 -112 205l-117 -71q-93 -54 -120 -54q-38 0 -65.5 30t-27.5 69q0 45 47 78q26 18 165 99z" />
    <glyph glyph-name="ntilde" unicode="&#xf1;" horiz-adv-x="1072" 
d="M906 -71q-86 0 -97 94l-28 219q-14 117 -14 219q0 28 3.5 95t3.5 95q0 216 -80 216q-112 0 -214 -133q-92 -121 -144 -306q-2 -39 -9 -98q-6 -50 -6 -97q0 -30 6 -90t6 -90q0 -45 -27.5 -73t-70.5 -28q-44 0 -71 28t-27 73q0 30 -6.5 90t-6.5 90q0 103 14.5 285.5
t14.5 285.5q0 32 -3.5 95t-3.5 95q0 43 28.5 70.5t70.5 27.5q92 0 101 -130l3 -117q168 224 345 224q160 0 223 -141q43 -94 47 -278v-101l-1 -93q0 -83 21.5 -214.5t21.5 -213.5q0 -44 -28.5 -71.5t-71.5 -27.5zM432 1554q100 0 161 -58l83 -106q47 -58 112 -58q57 0 85 37
l46 88l20 59q14 29 60 29q75 0 75 -74q0 -36 -43 -121q-40 -80 -69 -110q-56 -57 -143 -57q-131 0 -205 57q-27 21 -88 107q-42 57 -94 57q-31 0 -55.5 -11.5t-42.5 -34.5l-44 -85q-25 -45 -65 -45q-31 0 -54 20.5t-23 51.5q0 11 3 23q28 102 101 165q78 66 180 66z" />
    <glyph glyph-name="ograve" unicode="&#xf2;" horiz-adv-x="1077" 
d="M520 -59q-168 0 -289 124q-135 138 -142 371q-6 226 114 398q140 203 390 203q200 0 303 -183q82 -148 79 -356q-3 -222 -116 -379q-128 -178 -339 -178zM580 834q-147 1 -229 -140q-65 -113 -65 -258t79 -226q66 -67 155 -67q104 0 179 76q85 84 90 227q14 387 -209 388
zM808 1267q0 -36 -28.5 -62.5t-64.5 -26.5q-43 0 -72 42l-100 149q-53 73 -124 128q-39 30 -39 71q0 36 26.5 64.5t62.5 28.5q62 0 202 -166q137 -164 137 -228z" />
    <glyph glyph-name="oacute" unicode="&#xf3;" horiz-adv-x="1077" 
d="M520 -59q-168 0 -289 124q-135 138 -142 371q-6 226 114 398q140 203 390 203q200 0 303 -183q82 -148 79 -356q-3 -222 -116 -379q-128 -178 -339 -178zM580 834q-147 1 -229 -140q-65 -113 -65 -258t79 -226q66 -67 155 -67q104 0 179 76q85 84 90 227q14 387 -209 388
zM582 1187q-36 0 -63.5 28t-27.5 64q0 34 31 65q43 42 131 159q66 86 147 143q27 19 53 19q36 0 63 -28.5t27 -64.5q0 -40 -38 -70q-70 -56 -135 -145q-68 -94 -129 -145q-28 -25 -59 -25z" />
    <glyph glyph-name="ocircumflex" unicode="&#xf4;" horiz-adv-x="1077" 
d="M520 -59q-168 0 -289 124q-135 138 -142 371q-6 226 114 398q140 203 390 203q200 0 303 -183q82 -148 79 -356q-3 -222 -116 -379q-128 -178 -339 -178zM580 834q-147 1 -229 -140q-65 -113 -65 -258t79 -226q66 -67 155 -67q104 0 179 76q85 84 90 227q14 387 -209 388
zM568 1690q55 0 132 -67q24 -21 109 -112l159 -170q26 -30 26 -61q0 -36 -27.5 -63.5t-64.5 -27.5q-33 0 -63 29q-80 90 -250 260q-254 -312 -326 -312q-36 0 -63.5 28t-27.5 64q0 35 30 65q56 54 305 336q27 31 61 31z" />
    <glyph glyph-name="otilde" unicode="&#xf5;" horiz-adv-x="1077" 
d="M520 -59q-168 0 -289 124q-135 138 -142 371q-6 226 114 398q140 203 390 203q200 0 303 -183q82 -148 79 -356q-3 -222 -116 -379q-128 -178 -339 -178zM580 834q-147 1 -229 -140q-65 -113 -65 -258t79 -226q66 -67 155 -67q104 0 179 76q85 84 90 227q14 387 -209 388
zM451 1554q100 0 161 -58l83 -106q47 -58 112 -58q57 0 85 37l46 88l20 59q14 29 60 29q75 0 75 -74q0 -36 -43 -121q-40 -80 -69 -110q-56 -57 -143 -57q-131 0 -205 57q-27 21 -88 107q-42 57 -94 57q-31 0 -55.5 -11.5t-42.5 -34.5l-44 -85q-25 -45 -65 -45
q-31 0 -54 20.5t-23 51.5q0 11 3 23q28 102 101 165q78 66 180 66z" />
    <glyph glyph-name="odieresis" unicode="&#xf6;" horiz-adv-x="1077" 
d="M520 -59q-168 0 -289 124q-135 138 -142 371q-6 226 114 398q140 203 390 203q200 0 303 -183q82 -148 79 -356q-3 -222 -116 -379q-128 -178 -339 -178zM580 834q-147 1 -229 -140q-65 -113 -65 -258t79 -226q66 -67 155 -67q104 0 179 76q85 84 90 227q14 387 -209 388
zM376 1372q131 0 131 -105q0 -30 -44 -58q-40 -25 -75 -25q-123 0 -123 103q0 29 37.5 57t73.5 28zM769 1369q34 0 69 -31.5t35 -61.5q0 -92 -143 -92q-41 0 -73 21q-36 24 -36 63q0 69 45 89q25 12 103 12z" />
    <glyph glyph-name="divide" unicode="&#xf7;" horiz-adv-x="1208" 
d="M506 304h241v-232h-291zM486 1090h242v-233h-291zM53 396l4 203h916l-16 -203h-904z" />
    <glyph glyph-name="oslash" unicode="&#xf8;" horiz-adv-x="1098" 
d="M487 1151h56q273 0 402 -281q48 -123 48 -268q0 -426 -339 -534q-64 -15 -115 -15h-32q-280 0 -409 272q-53 124 -53 284v9q0 383 302 510q76 23 140 23zM277 674q6 -251 146 -420q67 -64 135 -64h5q154 0 180 271q2 43 1 70q-5 229 -131 404q-70 81 -154 81h-4
q-146 0 -176 -262q-2 -47 -2 -80zM161 -37l511 1319h220l-577 -1319h-154z" />
    <glyph glyph-name="ugrave" unicode="&#xf9;" horiz-adv-x="1065" 
d="M955 584q0 -72 1 -216t1 -216q0 -22 3.5 -67t3.5 -67q0 -43 -29 -70.5t-71 -27.5q-77 0 -98 95q-125 -65 -288 -65q-131 0 -217 58q-95 64 -113 187q-39 265 -39 472q0 137 30 312q14 87 95 87q43 0 72 -27.5t29 -70.5q0 -46 -14.5 -147t-14.5 -154q0 -167 11 -286
t33 -191q33 -18 65 -27.5t63 -9.5q134 0 283 43l-1 203l-2 194q0 216 19 375q11 92 97 92q43 0 72 -28t27 -70zM766 1275q0 -36 -28.5 -62.5t-64.5 -26.5q-43 0 -72 42l-100 149q-53 73 -124 128q-39 30 -39 71q0 36 26.5 64.5t62.5 28.5q62 0 202 -166q137 -164 137 -228z
" />
    <glyph glyph-name="uacute" unicode="&#xfa;" horiz-adv-x="1065" 
d="M955 584q0 -72 1 -216t1 -216q0 -22 3.5 -67t3.5 -67q0 -43 -29 -70.5t-71 -27.5q-77 0 -98 95q-125 -65 -288 -65q-131 0 -217 58q-95 64 -113 187q-39 265 -39 472q0 137 30 312q14 87 95 87q43 0 72 -27.5t29 -70.5q0 -46 -14.5 -147t-14.5 -154q0 -167 11 -286
t33 -191q33 -18 65 -27.5t63 -9.5q134 0 283 43l-1 203l-2 194q0 216 19 375q11 92 97 92q43 0 72 -28t27 -70zM570 1187q-36 0 -63.5 28t-27.5 64q0 34 31 65q43 42 131 159q66 86 147 143q27 19 53 19q36 0 63 -28.5t27 -64.5q0 -40 -38 -70q-70 -56 -135 -145
q-68 -94 -129 -145q-28 -25 -59 -25z" />
    <glyph glyph-name="ucircumflex" unicode="&#xfb;" horiz-adv-x="1065" 
d="M955 584q0 -72 1 -216t1 -216q0 -22 3.5 -67t3.5 -67q0 -43 -29 -70.5t-71 -27.5q-77 0 -98 95q-125 -65 -288 -65q-131 0 -217 58q-95 64 -113 187q-39 265 -39 472q0 137 30 312q14 87 95 87q43 0 72 -27.5t29 -70.5q0 -46 -14.5 -147t-14.5 -154q0 -167 11 -286
t33 -191q33 -18 65 -27.5t63 -9.5q134 0 283 43l-1 203l-2 194q0 216 19 375q11 92 97 92q43 0 72 -28t27 -70zM520 1690q55 0 132 -67q24 -21 109 -112l159 -170q26 -30 26 -61q0 -36 -27.5 -63.5t-64.5 -27.5q-33 0 -63 29q-80 90 -250 260q-254 -312 -326 -312
q-36 0 -63.5 28t-27.5 64q0 35 30 65q56 54 305 336q27 31 61 31z" />
    <glyph glyph-name="udieresis" unicode="&#xfc;" horiz-adv-x="1065" 
d="M955 584q0 -72 1 -216t1 -216q0 -22 3.5 -67t3.5 -67q0 -43 -29 -70.5t-71 -27.5q-77 0 -98 95q-125 -65 -288 -65q-131 0 -217 58q-95 64 -113 187q-39 265 -39 472q0 137 30 312q14 87 95 87q43 0 72 -27.5t29 -70.5q0 -46 -14.5 -147t-14.5 -154q0 -167 11 -286
t33 -191q33 -18 65 -27.5t63 -9.5q134 0 283 43l-1 203l-2 194q0 216 19 375q11 92 97 92q43 0 72 -28t27 -70zM331 1464q131 0 131 -105q0 -30 -44 -58q-40 -25 -75 -25q-123 0 -123 103q0 29 37.5 57t73.5 28zM870 1472q34 0 69 -31.5t35 -61.5q0 -92 -143 -92
q-41 0 -73 21q-36 24 -36 63q0 69 45 89q25 12 103 12z" />
    <glyph glyph-name="yacute" unicode="&#xfd;" horiz-adv-x="1066" 
d="M1011 892l-346 -748q-128 -273 -196 -457l-66 -194q-26 -72 -90 -72q-42 0 -72.5 27.5t-30.5 68.5q0 100 216 579l-358 689l-45 73q-27 46 -27 77q0 41 31.5 72t70.5 31q46 0 71 -35q170 -236 365 -672l148 345q80 179 154 308q32 56 84 56q41 0 72.5 -29t31.5 -69
q0 -22 -13 -50zM427 1187q-36 0 -63.5 28t-27.5 64q0 34 31 65q43 42 131 159q66 86 147 143q27 19 53 19q36 0 63 -28.5t27 -64.5q0 -40 -38 -70q-70 -56 -135 -145q-68 -94 -129 -145q-28 -25 -59 -25z" />
    <glyph glyph-name="thorn" unicode="&#xfe;" horiz-adv-x="1095" 
d="M564 -35q-100 0 -220 32l-2 -478q0 -44 -27.5 -72t-70.5 -28t-70.5 28t-27.5 72l3 400v399q-3 219 -15 399q-22 334 -22 597q0 72 26 121q30 59 87 59q38 0 64.5 -27.5t26.5 -67.5l-2 -485q172 118 319 118q205 0 300 -182q75 -144 75 -381q0 -216 -116 -356
q-123 -148 -328 -148zM633 832q-92 0 -166 -41q-53 -29 -134 -106q13 -227 13 -477q109 -42 218 -42q125 0 191 93q57 81 57 210q0 363 -179 363z" />
    <glyph glyph-name="ydieresis" unicode="&#xff;" horiz-adv-x="883" 
d="M1011 892l-346 -748q-128 -273 -196 -457l-66 -194q-26 -72 -90 -72q-42 0 -72.5 27.5t-30.5 68.5q0 100 216 579l-358 689l-45 73q-27 46 -27 77q0 41 31.5 72t70.5 31q46 0 71 -35q170 -236 365 -672l148 345q80 179 154 308q32 56 84 56q41 0 72.5 -29t31.5 -69
q0 -22 -13 -50zM243 1372q131 0 131 -105q0 -30 -44 -58q-40 -25 -75 -25q-123 0 -123 103q0 29 37.5 57t73.5 28zM782 1380q34 0 69 -31.5t35 -61.5q0 -92 -143 -92q-41 0 -73 21q-36 24 -36 63q0 69 45 89q25 12 103 12z" />
    <glyph glyph-name="Amacron" unicode="&#x100;" horiz-adv-x="1498" 
d="M1250 -30q-92 0 -160 236q-26 90 -65 315q-102 -14 -267 -50l-266 -55q-50 -131 -171 -383q-32 -56 -87 -56q-40 0 -71.5 29t-31.5 72q0 48 151 365q-17 26 -17 60q0 81 98 104q114 214 288 492q237 379 295 379q79 0 108 -110l63 -336l149 -695l57 -158q29 -81 29 -108
q0 -43 -31 -72t-71 -29zM897 1113l-286 -461q121 31 367 75zM753 1794q39 0 118.5 -4.5t118.5 -4.5q41 0 122 2t121 2q78 0 78 -75q0 -60 -65 -73l-112 -5h-155q-48 0 -144 3t-145 3q-72 0 -72 76q0 51 46 67q24 9 89 9z" />
    <glyph glyph-name="amacron" unicode="&#x101;" horiz-adv-x="1048" 
d="M920 -66q-19 0 -69 44q-45 41 -67 73q-96 -52 -169 -78.5t-122 -26.5q-234 0 -341 132q-101 124 -101 380q0 242 166.5 414t397.5 172q87 0 195 -45q136 -56 136 -135q0 -27 -20 -48q-10 -38 -15.5 -125t-6.5 -223q-1 -124 17 -196q10 -44 63 -176q7 -18 23 -53l6 -17
q0 -40 -28 -66t-65 -26zM712 629q0 43 5.5 93.5t16.5 107.5q-37 19 -63.5 28t-42.5 9q-155 0 -267.5 -126.5t-112.5 -291.5q0 -164 58 -246t174 -82q96 0 163 35q36 19 101 76q-32 265 -32 397zM393 1344q39 0 118.5 -4.5t118.5 -4.5q41 0 122 2t121 2q78 0 78 -75
q0 -60 -65 -73l-112 -5h-155q-48 0 -144 3t-145 3q-72 0 -72 76q0 51 46 67q24 9 89 9z" />
    <glyph glyph-name="Ebreve" unicode="&#x114;" horiz-adv-x="1292" 
d="M300 1992l105 26q10 -82 55 -128t170 -46t189 36.5t65 144.5l120 -6q-31 -161 -125.5 -258.5t-250.5 -89.5q-128 0 -221.5 89t-106.5 232zM1115 1346q-14 0 -31 5q-169 48 -326 48q-82 0 -179 -15t-209 -46q9 -65 9 -104q0 -139 -17 -382l438 42q193 20 237 20t74 -28
t30 -75q0 -91 -92 -102l-238 -21l-462 -42q-4 -71 -6.5 -134.5t-2.5 -118.5q0 -221 32 -260q24 -28 157 -28q62 0 186.5 3.5t187.5 3.5q20 0 59 6.5t58 6.5q106 0 106 -104q0 -84 -85 -101q-94 -19 -407 -19q-310 0 -398 82q-96 89 -96 410q0 64 3 140t8 164q-11 23 -11 49
q0 34 19 61q20 289 20 427q0 37 -10 108.5t-10 108.5q0 119 100 119q42 0 72 -29q120 32 226.5 48t200.5 16q243 0 388 -58q67 -27 67 -96q0 -40 -26 -71q-29 -34 -72 -34z" />
    <glyph glyph-name="ebreve" unicode="&#x115;" horiz-adv-x="1122" 
d="M606 -46q-226 0 -366 113q-153 125 -153 350q0 260 126 436q137 192 366 192q166 0 271 -56q129 -69 129 -212q0 -100 -113 -182q-50 -36 -212 -112l-382 -181q56 -83 139.5 -125t194.5 -42q69 0 162 26q118 33 152 86.5t73 53.5q35 0 62.5 -26.5t27.5 -61.5
q0 -111 -179 -191q-153 -68 -298 -68zM579 865q-122 0 -203 -94.5t-121 -284.5l307 146q181 88 258 153q-86 80 -241 80zM234 1440l105 26q10 -82 55 -128t170 -46t189 36.5t65 144.5l120 -6q-31 -161 -125.5 -258.5t-250.5 -89.5q-128 0 -221.5 89t-106.5 232z" />
    <glyph glyph-name="Ecaron" unicode="&#x11a;" horiz-adv-x="1279" 
d="M1115 1346q-14 0 -31 5q-169 48 -326 48q-82 0 -179 -15t-209 -46q9 -65 9 -104q0 -139 -17 -382l438 42q193 20 237 20t74 -28t30 -75q0 -91 -92 -102l-238 -21l-462 -42q-4 -71 -6.5 -134.5t-2.5 -118.5q0 -221 32 -260q24 -28 157 -28q62 0 186.5 3.5t187.5 3.5
q20 0 59 6.5t58 6.5q106 0 106 -104q0 -84 -85 -101q-94 -19 -407 -19q-310 0 -398 82q-96 89 -96 410q0 64 3 140t8 164q-11 23 -11 49q0 34 19 61q20 289 20 427q0 37 -10 108.5t-10 108.5q0 119 100 119q42 0 72 -29q120 32 226.5 48t200.5 16q243 0 388 -58
q67 -27 67 -96q0 -40 -26 -71q-29 -34 -72 -34zM575 1743q-249 282 -305 336q-30 30 -30 65q0 36 27.5 64t63.5 28q72 0 326 -312q170 170 250 260q30 29 63 29q37 0 64.5 -27.5t27.5 -63.5q0 -31 -26 -61l-159 -170q-85 -91 -109 -112q-77 -67 -132 -67q-34 0 -61 31z" />
    <glyph glyph-name="ecaron" unicode="&#x11b;" horiz-adv-x="1122" 
d="M606 -46q-226 0 -366 113q-153 125 -153 350q0 260 126 436q137 192 366 192q166 0 271 -56q129 -69 129 -212q0 -100 -113 -182q-50 -36 -212 -112l-382 -181q56 -83 139.5 -125t194.5 -42q69 0 162 26q118 33 152 86.5t73 53.5q35 0 62.5 -26.5t27.5 -61.5
q0 -111 -179 -191q-153 -68 -298 -68zM579 865q-122 0 -203 -94.5t-121 -284.5l307 146q181 88 258 153q-86 80 -241 80zM524 1197q-249 282 -305 336q-30 30 -30 65q0 36 27.5 64t63.5 28q72 0 326 -312q170 170 250 260q30 29 63 29q37 0 64.5 -27.5t27.5 -63.5
q0 -31 -26 -61l-159 -170q-85 -91 -109 -112q-77 -67 -132 -67q-34 0 -61 31z" />
    <glyph glyph-name="Imacron" unicode="&#x12a;" horiz-adv-x="1068" 
d="M957 1246q-64 0 -161 13l-161 21q-23 -291 -23 -556q0 -70 4 -173t4 -173q0 -94 -7 -171l315 4q42 0 70.5 -29.5t28.5 -72.5q0 -44 -28.5 -73.5t-70.5 -29.5q-56 0 -168 -2.5t-168 -2.5q-66 0 -197.5 -18.5t-198.5 -18.5q-42 0 -70.5 29.5t-28.5 72.5t28.5 73t70.5 30
q65 0 215 21q10 81 10 185q0 69 -6.5 168.5t-6.5 167.5q0 231 28 577l-130 -4l-130 -3q-43 0 -72 29t-29 74q0 93 94 102q81 8 303 8q199 0 499 -43q89 -13 89 -107q0 -47 -34 -75q-30 -23 -69 -23zM353 1829q39 0 118.5 -4.5t118.5 -4.5q41 0 122 2t121 2q78 0 78 -75
q0 -60 -65 -73l-112 -5h-155q-48 0 -144 3t-145 3q-72 0 -72 76q0 51 46 67q24 9 89 9z" />
    <glyph glyph-name="imacron" unicode="&#x12b;" horiz-adv-x="570" 
d="M375 454q0 -60 3.5 -179.5t3.5 -179.5q0 -44 -27 -72t-71 -28q-43 0 -70.5 28t-27.5 72q0 60 -3.5 179.5t-3.5 179.5q0 94 10 234.5t10 234.5q0 45 27.5 73t70.5 28t70.5 -28t27.5 -73q0 -94 -10 -234.5t-10 -234.5zM107 1334q39 0 118.5 -4.5t118.5 -4.5q41 0 122 2
t121 2q78 0 78 -75q0 -60 -65 -73l-112 -5h-155q-48 0 -144 3t-145 3q-72 0 -72 76q0 51 46 67q24 9 89 9z" />
    <glyph glyph-name="dotlessi" unicode="&#x131;" horiz-adv-x="344" 
d="M299 1114l-46 -1039h-205l-3 1039h254z" />
    <glyph glyph-name="Lslash" unicode="&#x141;" horiz-adv-x="1128" 
d="M335 746l-16 -335l-12 -138q-8 -84 -7 -138v-23h16q231 -2 644 123q17 5 32 5q41 0 69 -31.5t28 -73.5q0 -64 -64 -94q-112 -53 -352 -95q-223 -39 -367 -39q-107 0 -153 37q-52 42 -52 148q0 96 12 251l17 251q-124 -91 -160 -91q-40 0 -69.5 31.5t-29.5 72.5
q0 47 45 80l223 161l8 591q0 43 28.5 73t70.5 30q43 0 71.5 -30t28.5 -73l-5 -453q130 77 174 77q41 0 69 -31.5t28 -72.5q0 -58 -60 -88q-121 -58 -217 -125z" />
    <glyph glyph-name="lslash" unicode="&#x142;" horiz-adv-x="465" 
d="M338 683l-12 -436q0 -64 -6 -190q-12 -92 -94 -92q-95 0 -95 96q0 91 7 234l10 234q-103 -67 -143 -67q-38 0 -65 30t-27 68q0 52 53 82q100 54 184 125l5 329l3 329q0 41 26.5 67.5t67.5 26.5t67.5 -26.5t26.5 -67.5l-5 -470l53 62q34 33 69 33q38 0 68 -28.5t30 -66.5
q0 -64 -223 -272z" />
    <glyph glyph-name="Eng" unicode="&#x14a;" horiz-adv-x="1392" 
d="M1148 -6q-6 22 -10 52l-38 274q-20 146 -20 274q0 35 5 118.5t5 118.5q4 338 -162 362q-233 -32 -425 -290q-119 -151 -147 -351q-2 -48 -12 -122q-8 -62 -8 -121q0 -38 8 -113t8 -112q0 -56 -14 -85t-61 -41q-61 0 -98 35t-37 91q0 37 -9 112t-9 113q0 128 20 356.5
t20 356.5q0 40 -5 119t-5 119q0 53 39.5 87.5t85.5 22.5q81 -20 81 -150l12 -235q294 368 538 368q220 0 307 -176q60 -117 65 -347v-126l-1 -117q0 -103 30 -267q27 -154 29 -253h1l11 -249q0 -139 -83 -252q-90 -123 -219 -123q-215 0 -360 331q-12 27 -12 48
q0 40 31.5 69t71.5 29q59 0 123 -130q16 -34 56 -98q39 -50 90 -50q44 0 75 66q24 50 30 100q1 54 -7 186z" />
    <glyph glyph-name="eng" unicode="&#x14b;" horiz-adv-x="1028" 
d="M1006 28l10 -226q0 -139 -83 -252q-90 -123 -219 -123q-215 0 -360 331q-12 27 -12 48q0 40 31.5 69t71.5 29q59 0 123 -130q16 -34 56 -98q39 -50 90 -50q44 0 75 66q24 50 30 100q1 62 -9 224q-1 3 -1 7l-28 219q-14 117 -14 219q0 28 3.5 95t3.5 95q0 216 -80 216
q-112 0 -214 -133q-92 -121 -144 -306q-2 -39 -9 -98q-6 -50 -6 -97q0 -30 6 -90t6 -90q0 -45 -27.5 -73t-70.5 -28q-44 0 -71 28t-27 73q0 30 -6.5 90t-6.5 90q0 103 14.5 285.5t14.5 285.5q0 32 -3.5 95t-3.5 95q0 43 28.5 70.5t70.5 27.5q92 0 101 -130l3 -117
q168 224 345 224q160 0 223 -141q43 -94 47 -278v-101l-1 -93q0 -83 22 -214q21 -132 21 -214z" />
    <glyph glyph-name="Omacron" unicode="&#x14c;" horiz-adv-x="1635" 
d="M802 -61q-282 0 -478 169q-208 180 -208 464q0 346 205 629q229 314 571 314q329 0 489 -148q167 -154 167 -486q0 -346 -188 -624q-216 -318 -558 -318zM892 1310q-245 0 -415 -244q-157 -224 -157 -494q0 -193 143 -314q137 -114 339 -114q243 0 401 245
q141 219 141 492q0 239 -107 336q-102 93 -345 93zM773 1794q39 0 118.5 -4.5t118.5 -4.5q41 0 122 2t121 2q78 0 78 -75q0 -60 -65 -73l-112 -5h-155q-48 0 -144 3t-145 3q-72 0 -72 76q0 51 46 67q24 9 89 9z" />
    <glyph glyph-name="omacron" unicode="&#x14d;" horiz-adv-x="1077" 
d="M514 -59q-168 0 -289 124q-135 138 -142 371q-6 226 114 398q140 203 390 203q200 0 303 -183q82 -148 79 -356q-3 -222 -116 -379q-128 -178 -339 -178zM574 834q-147 1 -229 -140q-65 -113 -65 -258t79 -226q66 -67 155 -67q104 0 179 76q85 84 90 227q14 387 -209 388
zM373 1344q39 0 118.5 -4.5t118.5 -4.5q41 0 122 2t121 2q78 0 78 -75q0 -60 -65 -73l-112 -5h-155q-48 0 -144 3t-145 3q-72 0 -72 76q0 51 46 67q24 9 89 9z" />
    <glyph glyph-name="OE" unicode="&#x152;" horiz-adv-x="2445" 
d="M906 1310q-245 0 -415 -244q-157 -224 -157 -494q0 -193 143 -314q137 -114 339 -114q243 0 401 245q141 219 141 492q0 239 -107 336q-102 93 -345 93zM2332 1369q-14 0 -31 5q-169 48 -327 48q-164 0 -388 -61q5 -33 7 -59t2 -45q0 -140 -16 -382l438 41q192 20 237 20
q44 0 73.5 -28t29.5 -75q0 -90 -91 -102l-239 -20l-462 -43q-8 -143 -8 -253q0 -220 32 -259q23 -28 156 -28q62 0 187 3.5t187 3.5q20 0 59 6t58 6q107 0 107 -103q0 -84 -86 -101q-94 -19 -406 -19q-270 0 -362 54q-105 63 -125 264q-107 -151 -244 -227t-304 -76
q-282 0 -478 169q-208 180 -208 464q0 346 205 629q229 314 571 314q159 0 278.5 -34.5t199.5 -103.5q-8 61 -8 96q0 120 99 120q43 0 72 -30q240 65 427 65q243 0 389 -59q67 -27 67 -95q0 -40 -26 -71q-29 -34 -72 -34z" />
    <glyph glyph-name="oe" unicode="&#x153;" horiz-adv-x="1837" 
d="M876 153q-129 -212 -362 -212q-168 0 -289 124q-135 138 -142 371q-6 226 114 398q140 203 390 203q219 0 319 -216q138 224 388 224q166 0 271 -56q129 -70 129 -212q0 -100 -113 -182q-50 -36 -212 -112l-382 -181q112 -167 334 -167q69 0 162 26q118 33 152 86.5
t73 53.5q35 0 62.5 -26.5t27.5 -61.5q0 -111 -179 -191q-153 -68 -298 -68q-310 0 -445 199zM1535 785q-86 80 -241 80q-244 0 -324 -379l307 146q181 88 258 153zM783 446q14 387 -209 388q-147 1 -228 -140q-66 -113 -66 -258t79 -226q66 -67 155 -67q104 0 179 76
q85 84 90 227z" />
    <glyph glyph-name="Scircumflex" unicode="&#x15c;" horiz-adv-x="1420" 
d="M105 249q-1 42 28.5 68.5t72.5 26.5q49 0 86 -56q51 -76 91 -103q85 -56 247 -56q155 0 288 67q170 86 170 239q0 126 -143 199q-121 63 -299 68q-158 6 -269 69q-142 81 -142 232q0 178 202 325q193 139 399 139q97 0 219 -33q162 -43 162 -110q0 -88 -90 -88
q-40 0 -140 21.5t-155 20.5q-156 -2 -265 -77q-112 -77 -112 -187q0 -83 148 -117q55 -13 213 -24q229 -17 358 -144q118 -116 118 -283q0 -238 -220 -380q-191 -123 -443 -123q-183 0 -335 70q-186 86 -189 236zM862 1790l-220 -197q-24 -20 -49 -20q-30 0 -53 23.5
t-23 53.5t26 55q285 268 328 268q31 0 66 -37l50 -62l117 -134q83 -103 83 -144q0 -30 -24 -52t-55 -22q-39 0 -63 40q-33 55 -183 228z" />
    <glyph glyph-name="scircumflex" unicode="&#x15d;" horiz-adv-x="826" 
d="M816 770q-55 0 -77 37q-15 26 -26 108q-75 -19 -231 -70q-161 -64 -162 -158q30 -11 59 -16q230 -41 342 -113q163 -105 163 -304q0 -163 -141 -246q-117 -68 -296 -68q-131 0 -250 44q-154 56 -154 156q0 40 31.5 70t71.5 30q31 0 80 -48q24 -23 108 -38q67 -12 113 -12
q84 0 148 20q93 29 93 92q0 136 -190 184l-104 23q-133 29 -189 68q-81 56 -81 169q0 209 197 298q60 27 192 64.5t189 63.5q41 18 89 18q43 0 70.5 -28t27.5 -73q0 -29 12.5 -85t12.5 -85q0 -45 -27.5 -73t-70.5 -28zM610 1477l-220 -197q-24 -20 -49 -20q-30 0 -53 23.5
t-23 53.5t26 55q285 268 328 268q31 0 66 -37l50 -62l117 -134q83 -103 83 -144q0 -30 -24 -52t-55 -22q-39 0 -63 40q-33 55 -183 228z" />
    <glyph glyph-name="Scaron" unicode="&#x160;" horiz-adv-x="1420" 
d="M105 249q-1 42 28.5 68.5t72.5 26.5q49 0 86 -56q51 -76 91 -103q85 -56 247 -56q155 0 288 67q170 86 170 239q0 126 -143 199q-121 63 -299 68q-158 6 -269 69q-142 81 -142 232q0 178 202 325q193 139 399 139q97 0 219 -33q162 -43 162 -110q0 -88 -90 -88
q-40 0 -140 21.5t-155 20.5q-156 -2 -265 -77q-112 -77 -112 -187q0 -83 148 -117q55 -13 213 -24q229 -17 358 -144q118 -116 118 -283q0 -238 -220 -380q-191 -123 -443 -123q-183 0 -335 70q-186 86 -189 236zM852 1810l220 197q24 20 49 20q30 0 53 -23.5t23 -53.5
t-26 -55q-285 -268 -328 -268q-31 0 -66 37l-50 62l-117 134q-83 103 -83 144q0 30 24 52t55 22q39 0 63 -40q33 -55 183 -228z" />
    <glyph glyph-name="scaron" unicode="&#x161;" horiz-adv-x="826" 
d="M816 770q-55 0 -77 37q-15 26 -26 108q-75 -19 -231 -70q-161 -64 -162 -158q30 -11 59 -16q230 -41 342 -113q163 -105 163 -304q0 -163 -141 -246q-117 -68 -296 -68q-131 0 -250 44q-154 56 -154 156q0 40 31.5 70t71.5 30q31 0 80 -48q24 -23 108 -38q67 -12 113 -12
q84 0 148 20q93 29 93 92q0 136 -190 184l-104 23q-133 29 -189 68q-81 56 -81 169q0 209 197 298q60 27 192 64.5t189 63.5q41 18 89 18q43 0 70.5 -28t27.5 -73q0 -29 12.5 -85t12.5 -85q0 -45 -27.5 -73t-70.5 -28zM514 1359l220 197q24 20 49 20q30 0 53 -23.5t23 -53.5
t-26 -55q-285 -268 -328 -268q-31 0 -66 37l-50 62l-117 134q-83 103 -83 144q0 30 24 52t55 22q39 0 63 -40q33 -55 183 -228z" />
    <glyph glyph-name="Umacron" unicode="&#x16a;" horiz-adv-x="1410" 
d="M790 -40q-311 0 -464 179q-124 144 -156 426q-15 127 -15 507q0 140 6 226q6 91 18 127q25 73 90 73q92 0 92 -169v-587q0 -606 424 -606q399 0 399 1020v98q-1 60 -1 80q0 62 22 109q28 60 83 60q100 0 100 -137q0 -41 1 -124v-124q0 -1158 -599 -1158zM562 1799
q39 0 118.5 -4.5t118.5 -4.5q41 0 122 2t121 2q78 0 78 -75q0 -60 -65 -73l-112 -5h-155q-48 0 -144 3t-145 3q-72 0 -72 76q0 51 46 67q24 9 89 9z" />
    <glyph glyph-name="umacron" unicode="&#x16b;" horiz-adv-x="1220" 
d="M955 584q0 -72 1 -216t1 -216q0 -22 3.5 -67t3.5 -67q0 -43 -29 -70.5t-71 -27.5q-77 0 -98 95q-125 -65 -288 -65q-131 0 -217 58q-95 64 -113 187q-39 265 -39 472q0 137 30 312q14 87 95 87q43 0 72 -27.5t29 -70.5q0 -46 -14.5 -147t-14.5 -154q0 -167 11 -286
t33 -191q33 -18 65 -27.5t63 -9.5q134 0 283 43l-1 203l-2 194q0 216 19 375q11 92 97 92q43 0 72 -28t27 -70zM393 1344q39 0 118.5 -4.5t118.5 -4.5q41 0 122 2t121 2q78 0 78 -75q0 -60 -65 -73l-112 -5h-155q-48 0 -144 3t-145 3q-72 0 -72 76q0 51 46 67q24 9 89 9z
" />
    <glyph glyph-name="Ydieresis" unicode="&#x178;" horiz-adv-x="1301" 
d="M1172 1279q-24 -38 -64 -117l-172 -425q-100 -239 -188 -418l-125 -223l-53 -108q-33 -58 -89 -58q-39 0 -71 29t-32 72q0 34 94 213l123 225q-179 231 -232 364q-45 113 -150 271q-144 216 -169 261q-15 27 -15 54q0 43 31.5 72.5t71.5 29.5q49 0 82 -47l80 -124
q106 -157 140 -214q75 -123 117 -228q33 -83 141 -227l229 558q39 69 108 213q28 68 93 68q40 0 71.5 -28t31.5 -72q0 -46 -53 -141zM417 1827q131 0 131 -105q0 -30 -44 -58q-40 -25 -75 -25q-123 0 -123 103q0 29 37.5 57t73.5 28zM956 1835q34 0 69 -31.5t35 -61.5
q0 -92 -143 -92q-41 0 -73 21q-36 24 -36 63q0 69 45 89q25 12 103 12z" />
    <glyph glyph-name="Zdotaccent" unicode="&#x17b;" horiz-adv-x="1420" 
d="M1266 1251l-135 -92q-182 -141 -412 -451l-351 -511q-25 -38 -49 -70l389 15q255 12 390 12q132 0 195 -12q81 -16 84 -82q2 -49 -32 -78q-30 -25 -75 -25q-29 0 -87 3.5t-87 3.5q-152 0 -456.5 -7.5t-456.5 -7.5q-115 0 -115 101q0 66 62 166l107 149l361 502
q223 295 415 458l-350 -20h-404q-11 0 -32.5 -1.5t-31.5 -1.5q-106 0 -106 103q0 68 54 90q33 14 109 14q69 0 205.5 -14.5t205.5 -14.5q77 0 230.5 10t231.5 10q257 0 257 -97q0 -66 -116 -152zM785 1887q40 0 81.5 -37.5t41.5 -72.5q0 -110 -170 -110q-48 0 -86 25
q-43 29 -43 75q0 82 53 106q30 14 123 14z" />
    <glyph glyph-name="zdotaccent" unicode="&#x17c;" horiz-adv-x="1102" 
d="M964 809q-89 -107 -228 -310q-161 -236 -236 -334q105 5 183 5q39 0 116 -15t116 -15q44 0 71.5 -28.5t27.5 -72.5q0 -45 -27.5 -73t-71.5 -28q-39 0 -116 15t-116 15q-225 0 -427 -41q-21 -4 -37 -4q-97 0 -97 85q0 50 50 96q261 236 568 735q-133 -8 -193 -8
q-148 0 -304 23q-89 13 -89 99q0 44 27 73.5t68 29.5q49 0 148 -11.5t150 -11.5q68 0 204 9.5t204 9.5q85 0 85 -70q0 -81 -76 -173zM691 1385q40 0 81.5 -37.5t41.5 -72.5q0 -110 -170 -110q-48 0 -86 25q-43 29 -43 75q0 82 53 106q30 14 123 14z" />
    <glyph glyph-name="Zcaron" unicode="&#x17d;" horiz-adv-x="1420" 
d="M1266 1251l-135 -92q-182 -141 -412 -451l-351 -511q-25 -38 -49 -70l389 15q255 12 390 12q132 0 195 -12q81 -16 84 -82q2 -49 -32 -78q-30 -25 -75 -25q-29 0 -87 3.5t-87 3.5q-152 0 -456.5 -7.5t-456.5 -7.5q-115 0 -115 101q0 66 62 166l107 149l361 502
q223 295 415 458l-350 -20h-404q-11 0 -32.5 -1.5t-31.5 -1.5q-106 0 -106 103q0 68 54 90q33 14 109 14q69 0 205.5 -14.5t205.5 -14.5q77 0 230.5 10t231.5 10q257 0 257 -97q0 -66 -116 -152zM764 1907l220 197q24 20 49 20q30 0 53 -23.5t23 -53.5t-26 -55
q-285 -268 -328 -268q-31 0 -66 37l-50 62l-117 134q-83 103 -83 144q0 30 24 52t55 22q39 0 63 -40q33 -55 183 -228z" />
    <glyph glyph-name="zcaron" unicode="&#x17e;" horiz-adv-x="1102" 
d="M964 809q-89 -107 -228 -310q-161 -236 -236 -334q105 5 183 5q39 0 116 -15t116 -15q44 0 71.5 -28.5t27.5 -72.5q0 -45 -27.5 -73t-71.5 -28q-39 0 -116 15t-116 15q-225 0 -427 -41q-21 -4 -37 -4q-97 0 -97 85q0 50 50 96q261 236 568 735q-133 -8 -193 -8
q-148 0 -304 23q-89 13 -89 99q0 44 27 73.5t68 29.5q49 0 148 -11.5t150 -11.5q68 0 204 9.5t204 9.5q85 0 85 -70q0 -81 -76 -173zM507 1359l220 197q24 20 49 20q30 0 53 -23.5t23 -53.5t-26 -55q-285 -268 -328 -268q-31 0 -66 37l-50 62l-117 134q-83 103 -83 144
q0 30 24 52t55 22q39 0 63 -40q33 -55 183 -228z" />
    <glyph glyph-name="florin" unicode="&#x192;" horiz-adv-x="1013" 
d="M576 108q-28 -340 -353 -408q-186 -28 -302 0l95 233q95 -70 167 -70h33q95 0 104 115l76 987l-228 3l23 116h212q34 380 311 445q149 26 254 12l-38 -225q-127 66 -184 66h-28q-76 0 -83 -107l-12 -190h241l-24 -148l-223 11z" />
    <glyph glyph-name="uni0226" unicode="&#x226;" horiz-adv-x="1410" 
d="M1250 -30q-92 0 -160 236q-26 90 -65 315q-102 -14 -267 -50l-266 -55q-50 -131 -171 -383q-32 -56 -87 -56q-40 0 -71.5 29t-31.5 72q0 48 151 365q-17 26 -17 60q0 81 98 104q114 214 288 492q237 379 295 379q79 0 108 -110l63 -336l149 -695l57 -158q29 -81 29 -108
q0 -43 -31 -72t-71 -29zM897 1113l-286 -461q121 31 367 75zM984 1835q40 0 81.5 -37.5t41.5 -72.5q0 -110 -170 -110q-48 0 -86 25q-43 29 -43 75q0 82 53 106q30 14 123 14z" />
    <glyph glyph-name="uni0227" unicode="&#x227;" horiz-adv-x="1040" 
d="M628 1459q40 0 81.5 -37.5t41.5 -72.5q0 -110 -170 -110q-48 0 -86 25q-43 29 -43 75q0 82 53 106q30 14 123 14zM920 -66q-19 0 -69 44q-45 41 -67 73q-96 -52 -169 -78.5t-122 -26.5q-234 0 -341 132q-101 124 -101 380q0 242 166.5 414t397.5 172q87 0 195 -45
q136 -56 136 -135q0 -27 -20 -48q-10 -38 -15.5 -125t-6.5 -223q-1 -124 17 -196q10 -44 63 -176q7 -18 23 -53l6 -17q0 -40 -28 -66t-65 -26zM712 629q0 43 5.5 93.5t16.5 107.5q-37 19 -63.5 28t-42.5 9q-155 0 -267.5 -126.5t-112.5 -291.5q0 -164 58 -246t174 -82
q96 0 163 35q36 19 101 76q-32 265 -32 397z" />
    <glyph glyph-name="circumflex" unicode="&#x2c6;" horiz-adv-x="1241" 
d="M45 1492l7 204h1144l-20 -204h-1131z" />
    <glyph glyph-name="circumflex" unicode="&#x2012;" horiz-adv-x="1241" 
d="M45 1492l7 204h1144l-20 -204h-1131z" />
    <glyph glyph-name="caron" unicode="&#x2c7;" horiz-adv-x="1241" 
d="M45 605l6 203h1145l-20 -203h-1131z" />
    <glyph glyph-name="caron" unicode="&#x2013;" horiz-adv-x="1241" 
d="M45 605l6 203h1145l-20 -203h-1131z" />
    <glyph glyph-name="emdash" unicode="&#x2c9;" horiz-adv-x="1548" 
d="M45 605l7 203h1451l-26 -203h-1432z" />
    <glyph glyph-name="emdash" unicode="&#x2014;" horiz-adv-x="1548" 
d="M45 605l7 203h1451l-26 -203h-1432z" />
    <glyph glyph-name="breve" unicode="&#x2d8;" horiz-adv-x="2277" 
d="M45 605l12 203h2175l-39 -203h-2148z" />
    <glyph glyph-name="breve" unicode="&#x2015;" horiz-adv-x="2277" 
d="M45 605l12 203h2175l-39 -203h-2148z" />
    <glyph glyph-name="dotaccent" unicode="&#x2d9;" 
d="M-790 1902h204v-204h-204v204z" />
    <glyph glyph-name="ring" unicode="&#x2da;" horiz-adv-x="388" 
d="M182 1301l-63 153q75 38 89 75h-163l49 232h242v-232q7 -102 -154 -228z" />
    <glyph glyph-name="ring" unicode="&#x2019;" horiz-adv-x="388" 
d="M182 1301l-63 153q75 38 89 75h-163l49 232h242v-232q7 -102 -154 -228z" />
    <glyph glyph-name="ogonek" unicode="&#x2db;" horiz-adv-x="388" 
d="M206 337l63 -153q-75 -38 -89 -75h163l-49 -232h-242v232q-7 103 154 228z" />
    <glyph glyph-name="ogonek" unicode="&#x201a;" horiz-adv-x="388" 
d="M206 337l63 -153q-75 -38 -89 -75h163l-49 -232h-242v232q-7 103 154 228z" />
    <glyph glyph-name="tilde" unicode="&#x2dc;" horiz-adv-x="781" 
d="M206 1658l63 -153q-75 -39 -89 -75h163l-49 -233h-242v233q-7 102 154 228zM206 1658l63 -153q-75 -39 -89 -75h163l-49 -233h-242v233q-7 102 154 228zM599 1658l63 -153q-75 -39 -89 -75h163l-49 -233h-242v233q-7 102 154 228z" />
    <glyph glyph-name="tilde" unicode="&#x201c;" horiz-adv-x="781" 
d="M206 1658l63 -153q-75 -39 -89 -75h163l-49 -233h-242v233q-7 102 154 228zM206 1658l63 -153q-75 -39 -89 -75h163l-49 -233h-242v233q-7 102 154 228zM599 1658l63 -153q-75 -39 -89 -75h163l-49 -233h-242v233q-7 102 154 228z" />
    <glyph glyph-name="hungarumlaut" unicode="&#x2dd;" horiz-adv-x="778" 
d="M179 1301l-63 153q75 38 89 75h-163l49 232h242v-232q7 -102 -154 -228zM179 1301l-63 153q75 38 89 75h-163l49 232h242v-232q7 -102 -154 -228zM572 1290l-63 153q75 38 89 75h-162l49 232h241v-232q7 -102 -154 -228z" />
    <glyph glyph-name="hungarumlaut" unicode="&#x201d;" horiz-adv-x="778" 
d="M179 1301l-63 153q75 38 89 75h-163l49 232h242v-232q7 -102 -154 -228zM179 1301l-63 153q75 38 89 75h-163l49 232h242v-232q7 -102 -154 -228zM572 1290l-63 153q75 38 89 75h-162l49 232h241v-232q7 -102 -154 -228z" />
    <glyph glyph-name="uni0308" unicode="&#x308;" 
d="M-720 1260q0 42 29 71t71 29t71 -29t29 -71t-29 -71t-71 -29t-71 29t-29 71zM-1060 1260q0 42 29 71t71 29t71 -29t29 -71t-29 -71t-71 -29t-71 29t-29 71z" />
    <glyph glyph-name="dotbelowcomb" unicode="&#x323;" 
d="M-606 -141h184v-234h-184v234z" />
    <glyph glyph-name="uni035C" unicode="&#x35c;" 
d="M-760 -310l42 50q63 -51 140.5 -88.5t166 -62.5t187 -37t204.5 -12t204.5 12t187 37t166 62.5t140.5 88.5l42 -50q-59 -70 -136.5 -124t-171.5 -91t-202.5 -56t-229.5 -19t-230 19t-202.5 56t-171 91t-136.5 124z" />
    <glyph glyph-name="uni0394" unicode="&#x394;" horiz-adv-x="1627" 
d="M862 1663q61 0 113 -101l66 -158l255 -560q147 -328 238 -568q67 -176 67 -230q0 -118 -155 -118q-68 0 -172 11l-172 18q-100 8 -227 8q-74 0 -221 -2t-221 -2q-42 0 -127 -7t-127 -7q-81 0 -81 71q0 44 126 310l159 338l235 586q33 99 112 291q57 120 132 120z
M1398 125q-92 257 -254 607l-280 596q-137 -368 -261 -662l-110 -256q-68 -154 -122 -251l506 4q175 0 295 -12q75 -11 226 -26z" />
    <glyph glyph-name="uni03A9" unicode="&#x3a9;" horiz-adv-x="1966" 
d="M161 -140q-41 0 -68.5 30t-27.5 72q0 75 80 95q66 17 362 50l-144 352q-60 178 -60 380q0 329 313 569q290 222 630 222q298 0 421 -176q100 -144 100 -443q0 -270 -92 -494q-84 -205 -269 -423q321 0 408 -17t87 -97q0 -42 -27.5 -71.5t-69.5 -29.5q-56 0 -171.5 8.5
t-173.5 8.5q-31 0 -92.5 -2.5t-91.5 -2.5q-48 0 -87 53q-37 49 -37 99q0 53 99 174l140 167q179 256 179 713q0 173 -74 253q-77 81 -249 81q-255 0 -489 -166q-255 -182 -255 -426q0 -173 55 -332l124 -309q5 -13 42 -74q28 -47 28 -72q0 -111 -89 -127q-369 -65 -501 -65z
" />
    <glyph glyph-name="uni03BC" unicode="&#x3bc;" horiz-adv-x="1025" 
d="M117 433l-12 682h247l-5 -684q-21 -225 139 -249q202 13 247 165l38 767h205l4 -1043l-255 -3l-3 60q-123 -88 -277 -90q-87 0 -150 19q-8 -73 -4 -117q4 -164 177 -202l-150 -139q-199 106 -247 375q-26 116 18 295q24 97 28 164z" />
    <glyph glyph-name="uni03BC" unicode="&#x2215;" horiz-adv-x="1025" 
d="M117 433l-12 682h247l-5 -684q-21 -225 139 -249q202 13 247 165l38 767h205l4 -1043l-255 -3l-3 60q-123 -88 -277 -90q-87 0 -150 19q-8 -73 -4 -117q4 -164 177 -202l-150 -139q-199 106 -247 375q-26 116 18 295q24 97 28 164z" />
    <glyph glyph-name="pi" unicode="&#x3c0;" horiz-adv-x="1219" 
d="M1006 971l3 -896h-255l65 896h-213l-3 -327q-25 -376 -296 -521q-117 -64 -216 -64l-46 185q219 -38 267 53.5t42 266.5l-2 407h-277l23 143h1076l-23 -143h-145z" />
    <glyph glyph-name="pi" unicode="&#x20a3;" horiz-adv-x="1219" 
d="M1006 971l3 -896h-255l65 896h-213l-3 -327q-25 -376 -296 -521q-117 -64 -216 -64l-46 185q219 -38 267 53.5t42 266.5l-2 407h-277l23 143h1076l-23 -143h-145z" />
    <glyph glyph-name="uni1A00" unicode="&#x1a00;" horiz-adv-x="1456" 
d="M718 883q26 -27 132 -227q-415 -164 -595 -415h-26q-17 0 -212 151q144 258 701 491zM1168 704q105 -206 105 -236q-380 -122 -581 -406h-27q-17 0 -225 160q261 331 728 482z" />
    <glyph glyph-name="uni1A01" unicode="&#x1a01;" horiz-adv-x="1599" 
d="M991 957q304 -160 430 -441q-419 -315 -527 -376l-258 387h-21q-190 -79 -387 -355q-42 -64 -54 -64h-11q-150 142 -150 172q138 270 516 494l419 -451l258 139q-85 175 -312 334q-54 7 -54 32v11q125 111 151 118zM507 366h11q11 0 118 -140q-107 -116 -107 -140h-22
q-10 0 -107 129v22q72 108 107 129z" />
    <glyph glyph-name="uni1A02" unicode="&#x1a02;" horiz-adv-x="1151" 
d="M297 1002q196 -271 688 -806v-21q0 -14 -97 -97q-228 336 -279 387q-248 -111 -441 -419h-11q-13 0 -161 161v11q168 293 462 451q0 11 -236 236q57 96 75 97z" />
    <glyph glyph-name="uni1A03" unicode="&#x1a03;" horiz-adv-x="1283" 
d="M758 930q365 -559 365 -580l-86 -65q-209 396 -225 409h-11q-172 -71 -226 -129q0 -11 237 -237q-54 -108 -54 -129h-22l-247 312q-144 -145 -322 -419q-15 0 -151 161q87 280 527 591q146 70 215 86z" />
    <glyph glyph-name="uni1A04" unicode="&#x1a04;" horiz-adv-x="1609" 
d="M1003 896q184 -80 398 -366l32 -53v-11q-488 -387 -527 -387l-258 387q-212 -60 -462 -419q-161 142 -161 172q122 258 516 494l419 -451q238 117 258 150q-139 219 -366 355v21z" />
    <glyph glyph-name="uni1A05" unicode="&#x1a05;" horiz-adv-x="1151" 
d="M498 1050q419 -476 419 -505v-11q-9 0 -65 -64h-10q-249 355 -269 355q-189 -81 -189 -190q143 -186 559 -634v-11q0 -14 -97 -96q-19 3 -279 386q-135 0 -387 -376q-13 0 -172 172q142 269 398 419q-232 199 -237 237q54 176 307 318h22z" />
    <glyph glyph-name="uni1A06" unicode="&#x1a06;" horiz-adv-x="1202" 
d="M868 843l172 -194q-164 -309 -559 -548q-49 49 -494 570v21q0 15 107 108q277 -428 290 -430q293 154 452 440q0 16 32 33z" />
    <glyph glyph-name="uni1A07" unicode="&#x1a07;" horiz-adv-x="1569" 
d="M935 1022l462 -570v-11q-263 -301 -494 -376l-280 398q-237 -102 -451 -430q-14 0 -161 161q82 233 440 462h11v11q0 7 -226 226v11q51 86 65 86q12 -2 333 -409l247 -258q163 50 312 247v11q-323 314 -323 333q49 108 65 108z" />
    <glyph glyph-name="uni1A08" unicode="&#x1a08;" horiz-adv-x="1232" 
d="M569 907q417 -481 484 -569v-11q-69 -98 -97 -108q-31 19 -290 420l-21 10q-338 -210 -452 -473h-10q-14 0 -183 183q172 342 559 548h10z" />
    <glyph glyph-name="uni1A09" unicode="&#x1a09;" horiz-adv-x="1253" 
d="M892 837l172 -194q-202 -362 -570 -548l-494 581q0 14 107 107q15 -1 301 -419h11q295 164 462 473h11zM494 826h11q107 -111 107 -140q-30 -66 -118 -139q-97 101 -118 139q21 43 118 140z" />
    <glyph glyph-name="uni1A0A" unicode="&#x1a0a;" horiz-adv-x="1202" 
d="M523 915h11q170 -181 505 -581q0 -14 -108 -107h-21q-46 99 -280 419q-292 -139 -472 -473h-11q0 18 -172 193q142 297 548 549zM544 463q65 -65 119 -140q-107 -139 -119 -139h-10q-108 122 -108 129v21q37 62 118 129z" />
    <glyph glyph-name="uni1A0B" unicode="&#x1a0b;" horiz-adv-x="1609" 
d="M954 985h22q284 -179 419 -462l-505 -344h-11q-153 207 -269 408q-200 -51 -419 -333q0 -33 -43 -64q-161 159 -161 193q169 300 527 451q333 -387 397 -483l269 129q-100 207 -376 397zM556 426l194 -269v-21q-38 -65 -54 -65q-96 194 -107 194q-136 -96 -247 -258
l-86 107q0 120 279 312h21z" />
    <glyph glyph-name="uni1A0C" unicode="&#x1a0c;" horiz-adv-x="1589" 
d="M905 1030h22q461 -530 462 -569q-227 -285 -559 -398l-226 333l65 43h21q11 0 118 -129q182 53 377 279v11q0 11 -323 323q43 75 43 107zM690 815q247 -268 301 -322v-11q-17 -43 -75 -43q-110 112 -129 150q-309 -145 -591 -505q-11 -20 -11 -32h-21q-162 143 -162 172
q207 284 570 537q80 54 118 54z" />
    <glyph glyph-name="uni1A0D" unicode="&#x1a0d;" horiz-adv-x="1640" 
d="M976 1007h10q452 -516 452 -569q-256 -280 -484 -366q-89 89 -301 387l-32 22q-223 -168 -398 -441h-10q-162 137 -162 183q419 526 849 731q0 12 76 53zM696 545q212 -215 237 -215q105 22 311 247v11q-180 161 -204 161q-140 -64 -344 -204z" />
    <glyph glyph-name="uni1A0E" unicode="&#x1a0e;" horiz-adv-x="1874" 
d="M568 906l269 -237q288 226 355 226l505 -570q-86 -118 -118 -118l-355 451q-104 -37 -333 -236q-220 229 -247 247q-302 -180 -452 -505h-10q-183 163 -183 194q139 291 569 548zM1170 497l119 -107v-22q-190 -248 -441 -344l-365 355l96 86h11q7 0 247 -247
q174 106 333 279z" />
    <glyph glyph-name="uni1A0F" unicode="&#x1a0f;" horiz-adv-x="1844" 
d="M567 921q217 -212 269 -236q148 139 333 236l516 -580q0 -15 -107 -108h-11q-344 416 -344 441q-82 0 -226 -151q61 -39 226 -204v-11q-79 -99 -108 -107l-236 226q-183 -161 -183 -226h-21q-140 112 -140 140q22 65 183 247v11q-45 61 -97 86q-293 -199 -451 -495h-11
q-14 0 -172 172q128 311 580 559z" />
    <glyph glyph-name="uni1A10" unicode="&#x1a10;" horiz-adv-x="1823" 
d="M1227 892q472 -567 472 -602q-85 -66 -85 -96h-33q0 15 -258 429q-259 -135 -408 -419l-22 -10h-10q-84 158 -269 429q-257 -148 -451 -472q-162 163 -162 193q113 267 506 537h21q13 0 290 -344q280 303 409 355zM1194 452q61 -65 119 -140q-107 -140 -119 -140h-10
q-10 0 -108 129v22q36 61 118 129zM485 441h11q10 0 107 -118v-22l-118 -140q-107 117 -107 162q25 54 107 118z" />
    <glyph glyph-name="uni1A11" unicode="&#x1a11;" horiz-adv-x="1192" 
d="M564 1010q462 -506 462 -537l-97 -86l-290 387q-269 -157 -441 -430q-13 0 -161 161q113 289 527 505zM628 613l366 -463v-32q0 -16 -76 -75h-10l-194 344q-161 -38 -365 -376h-22q0 17 -107 139q77 236 408 463z" />
    <glyph glyph-name="uni1A12" unicode="&#x1a12;" horiz-adv-x="1711" 
d="M1150 934q25 -14 366 -548v-22q0 -13 -76 -64q-54 54 -215 408q-217 -47 -397 -290q-129 161 -129 193q101 193 419 323h32zM462 697q311 -396 387 -472l204 204q86 -56 86 -65q-278 -235 -354 -290q-44 41 -248 387h-10q-211 -112 -398 -419q-64 48 -150 161
q187 365 483 494z" />
    <glyph glyph-name="uni1A13" unicode="&#x1a13;" horiz-adv-x="1874" 
d="M551 877q269 -344 279 -344q268 284 398 344h11q53 -43 472 -581q-79 -107 -96 -107h-22l-258 430q-244 -133 -419 -430h-11q-10 0 -268 419h-22q-311 -191 -419 -462h-21q-121 120 -162 182v11q229 400 538 538z" />
    <glyph glyph-name="uni1A14" unicode="&#x1a14;" horiz-adv-x="1161" 
d="M537 999q124 -144 452 -483v-11q-192 -321 -538 -473q-314 347 -451 484v11q195 324 537 472zM237 441l128 -183q168 59 387 322v11l-129 183q-146 -46 -386 -312v-21z" />
    <glyph glyph-name="uni1A15" unicode="&#x1a15;" horiz-adv-x="1854" 
d="M517 882h11l290 -344q267 284 398 344h11q84 -84 472 -580q-79 -107 -96 -107h-22l-258 429q-233 -118 -419 -429h-11q-64 75 -268 429q-319 -182 -441 -472h-21q-73 58 -162 182q136 308 516 548zM1184 442h10q62 -47 119 -129v-11l-119 -140q-26 12 -118 140v11
q0 16 108 129z" />
    <glyph glyph-name="uni1A16" unicode="&#x1a16;" horiz-adv-x="1721" 
d="M471 943q243 -222 311 -268q293 247 355 247q398 -454 398 -462q-205 -263 -430 -377q-14 0 -312 301h-11q-322 -301 -376 -301l-419 473q320 340 484 387zM256 470q119 -150 129 -150q145 93 301 269q-70 83 -172 129q-148 -77 -258 -248zM879 460q57 -62 183 -162
q89 29 247 205q-140 171 -140 182q-150 -71 -290 -225z" />
    <glyph glyph-name="uni1A17" unicode="&#x1a17;" 
d="M-1492 1471l118 -140q-76 -37 -215 -204h-10q-13 2 -108 129v21q158 194 215 194z" />
    <glyph glyph-name="uni1A18" unicode="&#x1a18;" 
d="M-618 -179h10q8 -1 119 -129q-215 -203 -215 -215q-33 18 -119 140v11q155 171 205 193z" />
    <glyph glyph-name="uni1A19" unicode="&#x1a19;" horiz-adv-x="886" 
d="M356 796q161 -151 161 -161q-176 -99 -225 -194q26 -37 429 -322q0 -5 22 -32l-107 -97q-499 453 -581 548q195 237 301 258z" />
    <glyph glyph-name="uni1A1A" unicode="&#x1a1a;" horiz-adv-x="968" 
d="M307 762h11q17 -7 494 -549v-10q0 -14 -86 -86h-11l-311 419q-80 -37 -237 -183l-140 161v22q107 125 280 226z" />
    <glyph glyph-name="uni1A1B" unicode="&#x1a1b;" 
d="M-1926 1544q25 -7 462 -440v-11q-166 -220 -301 -247q-160 135 -161 150q119 56 226 183v21q-331 235 -334 248z" />
    <glyph glyph-name="uni1A1E" unicode="&#x1a1e;" horiz-adv-x="1069" 
d="M197 946h11q13 0 118 -129v-11q-77 -52 -215 -204q-26 12 -118 140q0 39 204 204zM498 699h11q16 0 118 -129v-21q-40 0 -215 -194q-107 110 -107 161q145 160 193 183zM799 452h22q9 0 107 -118v-33q-37 0 -215 -193l-107 140v10q0 37 193 194z" />
    <glyph glyph-name="uni1A1F" unicode="&#x1a1f;" horiz-adv-x="1019" 
d="M466 1177h11q0 -70 -11 -215l365 -344q0 -16 -75 -75q-238 279 -258 279q-137 -44 -344 -290q-118 107 -118 118v11q132 185 355 312q-22 61 -33 172q56 32 108 32zM79 532q232 -280 258 -280q92 0 333 280h11q118 -98 118 -108v-10q-163 -223 -355 -312q33 -142 33 -172
q-41 -27 -119 -43q0 11 -10 11q21 153 21 215q-311 276 -365 344q0 15 75 75z" />
    <glyph glyph-name="uni1A20" unicode="&#x1a20;" horiz-adv-x="1201" 
d="M556 768q90 -70 133 -163t37 -273v-330l-140 -1l1 339q-2 128 -16 216.5t-70 178.5zM324 860q-97 -54 5.5 -149t-5 -302t-62 -264.5t121.5 -84.5l-25 -63q-166 6 -235.5 114.5t58 294.5t22 284t-59.5 184l113 90h481q184 -5 279 -128.5t89 -303.5v-530l-140 -1l1 539
q-2 128 -57.5 222.5t-185.5 97.5h-400z" />
    <glyph glyph-name="uni1A21" unicode="&#x1a21;" horiz-adv-x="1245" 
d="M324 860q-97 -54 5.5 -149t-5 -302t-62 -264.5t121.5 -84.5l-25 -63q-166 6 -235.5 114.5t58 294.5t22 284t-59.5 184l113 90h381l-14 -104h-300zM966.5 746.5q-88.5 110.5 -202.5 113.5h-278l-80 104h372q174 -5 288.5 -145t105.5 -377.5t-104 -338.5t-209 -106h-69
q-231 22 -235 283t286 375l23 -25q-194 -168 -179 -354.5t160 -174.5q74 3 133 82t68 266t-79.5 297.5z" />
    <glyph glyph-name="uni1A22" unicode="&#x1a22;" horiz-adv-x="1201" 
d="M1038 367q-138 66 -463 4l-16 35q321 202 494 5zM208 878q23 108 196 104.5t270 -121.5q29 102 169.5 124.5t218 -67.5t-7.5 -238l-29 2q13 188 -95.5 201t-155 -24.5t-28.5 -134.5l-64 -21q-65 130 -227 167q-99 9 -107 -49t69 -134t88 -154q8 -127 -95.5 -217.5
t-81 -155.5t137.5 -59h612v-104h-692q-165 -2 -200 121t68.5 208t123.5 150t-86.5 179.5t-83.5 222.5zM1032 -356.5q-5 -183.5 -220 -214.5l-10 16q137 96 123 208t-222.5 131t-314 -49t-106 -159t71 -94t107.5 49l26 -10q-18 -103 -143 -102t-143 137t123.5 240.5t427 67.5
t280.5 -220.5z" />
    <glyph glyph-name="uni1A23" unicode="&#x1a23;" horiz-adv-x="1201" 
d="M324 860q-97 -54 5.5 -149t-5 -302t-62 -264.5t121.5 -84.5l-25 -63q-166 6 -235.5 114.5t58 294.5t22 284t-59.5 184l113 90h481q184 -5 279 -128.5t89 -303.5v-530l-140 -1l1 539q-2 128 -57.5 222.5t-185.5 97.5h-400z" />
    <glyph glyph-name="uni1A24" unicode="&#x1a24;" horiz-adv-x="1201" 
d="M556 768q90 -70 133 -163t37 -273v-330l-140 -1l1 339q-2 128 -16 216.5t-70 178.5zM324 860q-97 -54 5.5 -149t-5 -302t-62 -264.5t121.5 -84.5l-25 -63q-166 6 -235.5 114.5t58 294.5t22 284t-59.5 184l113 90h481q184 -5 279 -128.5t89 -303.5v-530l-140 -1l1 539
q-2 128 -57.5 222.5t-185.5 97.5h-400zM1012 -356.5q-5 -183.5 -220 -214.5l-10 16q137 96 123 208t-222.5 131t-314 -49t-106 -159t71 -94t107.5 49l26 -10q-18 -103 -143 -102t-143 137t123.5 240.5t427 67.5t280.5 -220.5z" />
    <glyph glyph-name="uni1A25" unicode="&#x1a25;" horiz-adv-x="2072" 
d="M908 957q123 29 246 27t191.5 -83.5t38.5 -190.5l-29 2q-16 128 -139.5 141t-283.5 -9zM204 874q46 86 173 90h173q99 -6 167.5 -75.5t87 -210.5t-20 -318t-15.5 -221t107 -38h78q114 3 164.5 128.5t31.5 301.5t-115 306l35 17q190 -107 217.5 -324.5t-59 -372.5
t-260.5 -160h-112q-170 -7 -219 96t-6.5 278.5t31.5 273.5t-39 153t-96 62h-123q-115 0 -45 -180t-11 -329t-35.5 -206.5t121.5 -84.5l-25 -63q-166 6 -235.5 114.5t18.5 240.5t27 284t-15 238zM1558 957q123 29 246 27t191.5 -83.5t38.5 -190.5l-29 2q-16 128 -139.5 141
t-283.5 -9zM1675 837l35 17q149 -78 166 -262v-253q-4 -145 -84 -246t-250 -103q-140 6 -276 162l34 51q109 -91 185 -99q123 -10 177 61.5t64 217.5v185q-6 168 -51 269z" />
    <glyph glyph-name="uni1A26" unicode="&#x1a26;" horiz-adv-x="1199" 
d="M208 878q23 108 196 104.5t270 -121.5q29 102 169.5 124.5t218 -67.5t-7.5 -238l-29 2q13 188 -95.5 201t-155 -24.5t-28.5 -134.5l-64 -21q-65 130 -227 167q-99 9 -107 -49t69 -134t88 -154q8 -127 -95.5 -217.5t-81 -155.5t137.5 -59h612v-104h-692q-165 -2 -200 121
t68.5 208t123.5 150t-86.5 179.5t-83.5 222.5z" />
    <glyph glyph-name="uni1A27" unicode="&#x1a27;" horiz-adv-x="1300" 
d="M218 898q152 104 479.5 126.5t422 -91.5t64.5 -223l-29 2q-5 179 -384 178t-539 -46zM271 220q85 77 139 171q63 110 36 227q-20 124 -121 219l35 17q185 -72 216 -212q40 -138 -19 -276q-44 -101 -178 -167l26 -10q211 -85 377 -85t230 94t19 248t-276 136l-4 68
q346 38 413.5 -181.5t-37.5 -343t-309.5 -133.5t-418.5 72t-339 35l-18 32q101 96 229 89z" />
    <glyph glyph-name="uni1A28" unicode="&#x1a28;" horiz-adv-x="1474" 
d="M915 734q90 206 246 227t224.5 -60.5t38.5 -190.5l-29 2q-16 128 -139.5 141t-300.5 -129zM956 -3q-250 -7 -319 112.5t-16.5 278.5t41.5 257t-39 153t-96 62h-123q-115 0 -45 -180t-11 -329t-35.5 -206.5t121.5 -84.5l-25 -63q-166 6 -235.5 114.5t18.5 240.5t27 284
t-15 238t173 90h173q99 -6 167.5 -75.5t87 -210.5t-30 -274.5t-15.5 -221t217 -81.5q158 -2 235 83t76 181t-33 156t-116 63q-112 8 -149 -161l-36 -10q-61 253 160 275h39q114 -5 182 -87t68.5 -227t-103 -260.5t-343.5 -116.5z" />
    <glyph glyph-name="uni1A29" unicode="&#x1a29;" horiz-adv-x="1201" 
d="M1038 367q-138 66 -463 4l-16 35q321 202 494 5zM208 878q23 108 196 104.5t270 -121.5q29 102 169.5 124.5t218 -67.5t-7.5 -238l-29 2q13 188 -95.5 201t-155 -24.5t-28.5 -134.5l-64 -21q-65 130 -227 167q-99 9 -107 -49t69 -134t88 -154q8 -127 -95.5 -217.5
t-81 -155.5t137.5 -59h612v-104h-692q-165 -2 -200 121t68.5 208t123.5 150t-86.5 179.5t-83.5 222.5z" />
    <glyph glyph-name="uni1A2B" unicode="&#x1a2b;" horiz-adv-x="1954" 
d="M1478 957q123 29 246 27t191.5 -83.5t38.5 -190.5l-29 2q-16 128 -139.5 141t-283.5 -9zM1595 837l35 17q149 -78 166 -262v-253q-4 -145 -84 -246t-250 -103q-140 6 -276 162l34 51q109 -91 185 -99q123 -10 177 61.5t64 217.5v185q-6 168 -51 269zM489 91q79 13 123 42
t33 114t-101 210l39 50q139 -51 179.5 -199.5t-40.5 -229t-214 -81.5h-192q-165 -2 -200 121t68.5 208t123.5 150t-86.5 179.5t-83.5 222.5t196 104.5t270 -121.5q68 137 231.5 129t244 -104t84.5 -228v-659l-129 2v615q6 95 -38 171t-139.5 99.5t-152.5 -37.5
q-47 -38 -29 -125l-64 -21q-65 130 -227 167q-99 9 -107 -49t69 -134t88 -154q8 -127 -95.5 -217.5t-81 -155.5t137.5 -69h93z" />
    <glyph glyph-name="uni1A2C" unicode="&#x1a2c;" horiz-adv-x="1666" 
d="M1072 894q57 103 194 96q163 -8 243.5 -104t84.5 -228v-659l-129 2v615q6 95 -38 171t-130 99.5t-128 -20.5q-30 -32 -29 -83q22 -58 24 -125v-659l-129 2v615q6 95 -38 171t-139.5 99.5t-152.5 -37.5q-47 -38 -29 -125l-64 -21q-65 130 -227 167q-99 9 -107 -49t69 -134
t88 -154q8 -127 -95.5 -217.5t-81 -155.5t137.5 -69h93q79 13 123 42t33 114t-101 210l39 50q139 -51 179.5 -199.5t-40.5 -229t-214 -81.5h-192q-165 -2 -200 121t68.5 208t123.5 150t-86.5 179.5t-83.5 222.5t196 104.5t270 -121.5q68 137 232 129q156 -8 236 -96z" />
    <glyph glyph-name="uni1A2D" unicode="&#x1a2d;" horiz-adv-x="1199" 
d="M334 877q-126 -12 -202 -33l-14 54q152 104 479.5 126.5t422 -91.5t64.5 -223l-29 2q-5 179 -384 178q-186 0 -319 -12l12 -21q-52 -108 50.5 -215t91 -186.5t-108.5 -162t-69 -144.5t157 -52q162 57 177 187l64 -21q2 -77 48.5 -124.5t155.5 -34.5q66 8 85 82l10 45
q-3 104 -74 104.5t-105 -53.5l-26 10q13 103 138.5 106.5t148.5 -131.5q9 -56 -1 -107t-44 -91q-78 -90 -218.5 -67.5t-169.5 124.5q-91 -118 -267 -121.5t-215.5 117.5t83.5 222.5t109.5 150t-91.5 151.5q-74 98 41 231z" />
    <glyph glyph-name="uni1A2E" unicode="&#x1a2e;" horiz-adv-x="1753" 
d="M706 241l1 349q-2 128 -57.5 197.5t-165.5 72.5h-160q-97 -54 5.5 -149t-5 -302t-62 -264.5t121.5 -84.5l-25 -63q-166 6 -235.5 114.5t58 294.5t22 284t-59.5 184l113 90h241q164 -5 259 -103.5t89 -278.5v-365q5 -84 41 -112t76 1.5t42 137.5v515q3 112 102.5 165.5
t240.5 45.5t221.5 -104t84.5 -228v-639l-129 2v595q6 95 -38 171t-120 99.5t-160 -6.5t-73 -119v-509q-4 -147 -108 -206.5t-209.5 -9.5t-110.5 225z" />
    <glyph glyph-name="uni1A2F" unicode="&#x1a2f;" horiz-adv-x="1199" 
d="M384.5 494.5q-13.5 48.5 -91.5 151.5t53 244l18 -33q-52 -108 50.5 -215t91 -186.5t-108.5 -162t-69 -144.5t157 -52q162 57 177 187l64 -21q2 -77 48.5 -124.5t155 -34.5t95.5 201l29 2q85 -148 7.5 -238t-218 -67.5t-169.5 124.5q-91 -118 -267 -121.5t-215.5 117.5
t83.5 222.5t109.5 150zM118 898q152 104 479.5 126.5t422 -91.5t64.5 -223l-29 2q-5 179 -384 178t-539 -46z" />
    <glyph glyph-name="uni1A30" unicode="&#x1a30;" horiz-adv-x="1199" 
d="M318 855l38 -16q-45 -82 46.5 -175t102.5 -171q18 -107 -92 -197.5t-87.5 -155t130.5 -48.5t215 177t270.5 136.5t195.5 -389.5l-44 -11q-71 263 -168.5 281.5t-212.5 -135.5t-260 -154h-66q-165 -2 -197 116t68.5 201t120.5 135t-86.5 166.5t26.5 239.5zM118 898
q152 104 479.5 126.5t422 -91.5t64.5 -223l-29 2q-5 179 -384 178t-539 -46z" />
    <glyph glyph-name="uni1A31" unicode="&#x1a31;" horiz-adv-x="1334" 
d="M844 2q-141 22 -170 124q-91 -118 -267 -121.5t-215.5 117.5t83.5 222.5t109.5 150t-91.5 151.5t53 244l18 -33q-52 -108 50.5 -215t91 -186.5t-108.5 -162t-69 -144.5t157 -52q162 57 177 187l64 -21q2 -77 48.5 -124.5t155.5 -44.5q74 5 139.5 63t71 151t-31.5 153
t-122 87t-202 10l-12 30q79 54 238 36q97 -11 174 -88t71 -214.5t-84.5 -215.5t-174 -97.5t-153.5 -6.5zM118 898q152 104 479.5 126.5t422 -91.5t64.5 -223l-29 2q-5 179 -384 178t-539 -46z" />
    <glyph glyph-name="uni1A32" unicode="&#x1a32;" horiz-adv-x="1199" 
d="M318 855l38 -16q-45 -82 46.5 -175t102.5 -171q18 -107 -92 -197.5t-86 -145.5t139 -49h582v-104h-662q-165 -2 -197 116t68.5 201t120.5 135t-86.5 166.5t26.5 239.5zM118 898q152 104 479.5 126.5t422 -91.5t64.5 -223l-29 2q-5 179 -384 178t-539 -46z" />
    <glyph glyph-name="uni1A33" unicode="&#x1a33;" horiz-adv-x="1199" 
d="M118 898q152 104 479.5 126.5t422 -91.5t64.5 -223l-29 2q-5 179 -384 178t-539 -46zM714 101h10q165 3 166.5 88.5t-84.5 71.5t-91 -150q-1 -5 -1 -10zM644 -3h-138q-265 -2 -313.5 135.5t56 276t97.5 209.5q-20 124 -121 219l35 17q175 -72 206 -212
q27 -105 -73.5 -261.5t-66 -221t179.5 -58.5h103q0 15 1 32q19 223 216 218t172 -177q-24 -162 -233 -176q63 -58 202 -98l-12 -42q-236 33 -311 139z" />
    <glyph glyph-name="uni1A34" unicode="&#x1a34;" horiz-adv-x="1302" 
d="M586 200q64 91 66 246.5t-104 313.5l70 50q142 -113 163.5 -314t-74 -347.5t-285 -150t-249.5 109t17 252t-7.5 284t-38.5 230.5l113 90h581q184 -5 279 -113.5t89 -228.5v-620l-140 -1l1 629q-2 68 -57.5 147.5t-185.5 82.5h-500q-97 -54 -15.5 -195.5t15 -297
t-20.5 -212.5q39 -62 129 -54t154 99z" />
    <glyph glyph-name="uni1A35" unicode="&#x1a35;" horiz-adv-x="1152" 
d="M118 898q152 104 479.5 126.5t422 -91.5t64.5 -223l-29 2q-5 179 -384 178t-539 -46zM768 -3h-362q-165 -2 -213.5 135.5t56 276t97.5 209.5q-20 124 -121 219l35 17q185 -72 216 -212q27 -105 -73.5 -261.5t-66 -221t149.5 -58.5h268q114 3 168 97t9 248t-276 136l-4 68
q346 38 413.5 -181.5t-27.5 -343t-269 -128.5zM801 215q-93 125 -168.5 128.5t-111.5 -67.5l-53 15q5 156 165 157t219 -192z" />
    <glyph glyph-name="uni1A36" unicode="&#x1a36;" horiz-adv-x="1199" 
d="M1077 886h-592q-115 6 -149.5 -58.5t73.5 -246.5t86 -356q-34 -188 -172.5 -227t-185.5 91.5t155 247.5l33 -50q-114 -100 -91 -166.5t65.5 -47t65.5 175.5q-13 191 -117.5 329.5t-56 276t213.5 135.5h672v-104zM586 341l-24 67q237 150 402.5 103t179.5 -219.5t-76 -250
t-248 -12.5l2 29q188 -13 201 120.5t-98.5 198t-338.5 -35.5z" />
    <glyph glyph-name="uni1A37" unicode="&#x1a37;" horiz-adv-x="1242" 
d="M703 91h119q200 3 213 230v295q6 95 -38 171t-139.5 99.5t-152.5 -37.5q-47 -38 -29 -125l-64 -21q-65 130 -227 167q-99 9 -107 -49t69 -134t88 -154q8 -127 -95.5 -217.5t-81 -155.5t137.5 -69h219q138 109 144 189q6 91 -60.5 103t-117.5 -94l-29 14q14 87 69.5 131
t150.5 16.5t86 -157.5q-8 -101 -155 -202zM316 -3q-165 -2 -200 121t68.5 208t123.5 150t-86.5 179.5t-83.5 222.5t196 104.5t270 -121.5q68 137 231.5 129t244 -104t84.5 -228v-329q-14 -327 -328 -332h-520z" />
    <glyph glyph-name="uni1A38" unicode="&#x1a38;" horiz-adv-x="1300" 
d="M108 957q123 29 246 27t191.5 -83.5t38.5 -190.5l-29 2q-16 128 -139.5 141t-283.5 -9zM738 -3h-332q-165 -2 -213.5 135.5t56 276t97.5 209.5q-20 124 -121 219l35 17q185 -72 216 -212q27 -105 -73.5 -261.5t-66 -221t149.5 -58.5h238q114 3 173 97t54 251.5t-76 387.5
l35 17q165 -207 178.5 -406t-81.5 -322.5t-269 -128.5zM708 957q123 29 246 27t191.5 -83.5t38.5 -190.5l-29 2q-16 128 -139.5 141t-283.5 -9z" />
    <glyph glyph-name="uni1A39" unicode="&#x1a39;" horiz-adv-x="1300" 
d="M108 957q123 29 246 27t191.5 -83.5t38.5 -190.5l-29 2q-16 128 -139.5 141t-283.5 -9zM1098 624q-94 -34 -192 -20q-32 4 -64 13q-142 40 -132.5 192.5t200.5 174.5h29q114 -5 199 -106q23 -27 40 -64q47 63 94 164l50 -25q-43 -163 -110 -247q16 -76 20 -176
q9 -248 -105.5 -388t-288.5 -145h-432q-165 -2 -213.5 135.5t56 276t97.5 209.5q-20 124 -121 219l35 17q185 -72 216 -212q27 -105 -73.5 -261.5t-66 -221t149.5 -58.5h338q114 3 202.5 113.5t79.5 307.5q-3 56 -8 102zM905 693q87 -20 174 28q-12 47 -31 77
q-49 79 -123 82q-93 8 -105.5 -76.5t80.5 -108.5q2 -1 5 -2z" />
    <glyph glyph-name="uni1A3D" unicode="&#x1a3d;" horiz-adv-x="1101" 
d="M406 540q14 -117 -16 -240q-34 -143 -139 -317l-60 10q68 197 79 321.5t-2 236.5t-61 237q-87 204 108 202h642v-104h-622q-65 -4 -8 -87q43 -79 67 -189q218 95 389 14q175 -84 189 -296.5t-76 -290t-248 -12.5l2 29q188 -13 201 180.5t-108 275.5q-119 79 -337 30z" />
    <glyph glyph-name="uni1A3E" unicode="&#x1a3e;" horiz-adv-x="1300" 
d="M708 957q123 29 246 27t191.5 -83.5t38.5 -190.5l-29 2q-16 128 -139.5 141t-283.5 -9zM499 536q70 -10 116 -49l-20 -69q-201 46 -257 -53t-11.5 -184.5t159.5 -79.5h238q114 3 173 97t54 251.5t-76 387.5l35 17q165 -207 178.5 -406t-81.5 -322.5t-269 -128.5h-332
q-165 -2 -223.5 145.5t18.5 266.5q56 86 143 116q-88 46 -126 121q-63 119 -25 229.5t194.5 121.5t234 -79t-7.5 -238l-29 2q13 188 -130 188q-99 9 -122.5 -49t4 -118.5t163.5 -163.5z" />
    <glyph glyph-name="uni1A3F" unicode="&#x1a3f;" horiz-adv-x="1819" 
d="M108 957q123 29 221 37t166.5 -73.5t38.5 -159.5l-29 2q-16 97 -114.5 100t-258.5 -19zM648 -3h-222q-165 -2 -213.5 135.5t46 276t87.5 209.5q-20 124 -121 219l35 17q185 -72 216 -212q27 -105 -63.5 -261.5t-56 -221t149.5 -58.5h128q94 3 133 97t53.5 272t-46.5 377
l66 7q105 -207 108.5 -406t-61.5 -322.5t-239 -128.5zM1228 957q123 29 246 27t191.5 -83.5t38.5 -190.5l-29 2q-16 128 -139.5 141t-283.5 -9zM1345 837l35 17q149 -78 166 -262v-253q-4 -145 -84 -246t-250 -103q-140 6 -276 162l34 51q109 -91 185 -99q123 -10 177 61.5
t64 217.5v185q-6 168 -51 269zM648 957q123 29 221 37t166.5 -73.5t38.5 -159.5l-29 2q-16 97 -114.5 100t-258.5 -19z" />
    <glyph glyph-name="uni1A40" unicode="&#x1a40;" horiz-adv-x="1536" 
d="M789 91q79 13 123 42t33 114t-101 210l39 50q139 -51 179.5 -199.5t-40.5 -229t-214 -81.5h-192q-165 -2 -200 121t68.5 208t123.5 150t-86.5 179.5t-83.5 222.5t196 104.5t270 -121.5q68 137 231.5 129t244 -104t84.5 -228v-659l-129 2v615q6 95 -38 171t-139.5 99.5
t-152.5 -37.5q-47 -38 -29 -125l-64 -21q-65 130 -227 167q-99 9 -107 -49t69 -134t88 -154q8 -127 -95.5 -217.5t-81 -155.5t137.5 -69h93zM622 1604q428 268 933 44l-21 -55q-503 182 -884 -78t-458 -795t65.5 -820.5t448.5 -296.5t362.5 88t-49.5 103l27 78
q182 -50 113.5 -223t-451 -152.5t-561.5 337.5t-66 909.5t541 860.5z" />
    <glyph glyph-name="uni1A41" unicode="&#x1a41;" horiz-adv-x="804" 
d="M398 740q85 5 159 -45q77 -52 122.5 -202t-23.5 -334.5t-258 -188.5q-172 7 -277 236l18 37q100 -140 224 -150q121 -2 152 122t-5.5 253.5t-104.5 143.5q-45 9 -101 -14l-52 17l24 334q34 16 91 27v2q41 11 98 17q133 12 191 -102t40 -223l-58 -6q17 151 -96 195
q-86 6 -136 -8z" />
    <glyph glyph-name="uni1A42" unicode="&#x1a42;" horiz-adv-x="1300" 
d="M108 957q123 29 246 27t191.5 -83.5t38.5 -190.5l-29 2q-16 128 -139.5 141t-283.5 -9zM738 -3h-332q-165 -2 -213.5 135.5t56 276t97.5 209.5q-20 124 -121 219l35 17q185 -72 216 -212q27 -105 -73.5 -261.5t-66 -221t149.5 -58.5h238q114 3 173 97t54 251.5t-76 387.5
l35 17q165 -207 178.5 -406t-81.5 -322.5t-269 -128.5zM708 957q123 29 246 27t191.5 -83.5t38.5 -190.5l-29 2q-16 128 -139.5 141t-283.5 -9zM1062 -356.5q-5 -183.5 -220 -214.5l-10 16q137 96 123 208t-222.5 131t-314 -49t-106 -159t71 -94t107.5 49l26 -10
q-18 -103 -143 -102t-143 137t123.5 240.5t427 67.5t280.5 -220.5z" />
    <glyph glyph-name="uni1A43" unicode="&#x1a43;" horiz-adv-x="1474" 
d="M908 957q123 29 246 27t191.5 -83.5t38.5 -190.5l-29 2q-16 128 -139.5 141t-283.5 -9zM204 874q46 86 173 90h173q99 -6 167.5 -75.5t87 -210.5t-20 -318t-15.5 -221t107 -38h78q114 3 164.5 128.5t31.5 301.5t-115 306l35 17q190 -107 217.5 -324.5t-59 -372.5
t-260.5 -160h-112q-170 -7 -219 96t-6.5 278.5t31.5 273.5t-39 153t-96 62h-123q-115 0 -45 -180t-11 -329t-35.5 -206.5t121.5 -84.5l-25 -63q-166 6 -235.5 114.5t18.5 240.5t27 284t-15 238z" />
    <glyph glyph-name="uni1A44" unicode="&#x1a44;" horiz-adv-x="1242" 
d="M1009 -241q-94 20 -199 -20q-164 -61 -193 -226.5t82.5 -164t219.5 149.5q60 82 90 261zM1144 -192q2 -2 5 -3q144 -103 126 -279l-41 -2q5 106 -105 181q-37 -208 -111 -300q-140 -174 -346 -159.5t-182 257.5t270 324q149 49 261 30q12 108 14 244v515q6 95 -38 171
t-139.5 99.5t-152.5 -37.5q-47 -38 -29 -125l-64 -21q-65 130 -227 167q-99 9 -107 -49t69 -134t88 -154q8 -127 -95.5 -217.5t-81 -155.5t137.5 -69h93q79 13 123 42t33 114t-101 210l39 50q139 -51 179.5 -199.5t-40.5 -229t-214 -81.5h-192q-165 -2 -200 121t68.5 208
t123.5 150t-86.5 179.5t-83.5 222.5t196 104.5t270 -121.5q68 137 231.5 129t244 -104t84.5 -228v-498q-2 -200 -20 -352z" />
    <glyph glyph-name="uni1A45" unicode="&#x1a45;" horiz-adv-x="1152" 
d="M118 898q152 104 479.5 126.5t422 -91.5t64.5 -223l-29 2q-5 179 -384 178t-539 -46zM768 -3h-362q-165 -2 -213.5 135.5t56 276t97.5 209.5q-20 124 -121 219l35 17q185 -72 216 -212q27 -105 -73.5 -261.5t-66 -221t149.5 -58.5h268q114 3 168 97t9 248t-276 136l-4 68
q346 38 413.5 -181.5t-27.5 -343t-269 -128.5z" />
    <glyph glyph-name="uni1A46" unicode="&#x1a46;" horiz-adv-x="1201" 
d="M324 860q-97 -54 5.5 -149t-5 -302t-62 -264.5t121.5 -84.5l-25 -63q-166 6 -235.5 114.5t58 294.5t22 284t-59.5 184l113 90h481q184 -5 279 -128.5t89 -303.5v-530l-140 -1l1 539q-2 128 -57.5 222.5t-185.5 97.5h-400zM878 367q-138 66 -463 4l-16 35q321 202 494 5z
" />
    <glyph glyph-name="uni1A47" unicode="&#x1a47;" horiz-adv-x="1300" 
d="M108 957q123 29 246 27t191.5 -83.5t38.5 -190.5l-29 2q-16 128 -139.5 141t-283.5 -9zM949 480q-10 149 -74 357l35 17q165 -207 178.5 -406t-81.5 -322.5t-269 -128.5h-332q-165 -2 -213.5 135.5t56 276t97.5 209.5q-20 124 -121 219l35 17q185 -72 216 -212
q27 -105 -73.5 -261.5t-66 -221t149.5 -58.5h238q114 3 173 97q53 84 54 219q-344 -179 -465 27l35 28q87 -93 428 8zM708 957q123 29 246 27t191.5 -83.5t38.5 -190.5l-29 2q-16 128 -139.5 141t-283.5 -9z" />
    <glyph glyph-name="uni1A48" unicode="&#x1a48;" horiz-adv-x="1339" 
d="M208 957q123 29 246 27t191.5 -83.5t38.5 -190.5l-29 2q-16 128 -139.5 141t-283.5 -9zM325 837l35 17q149 -78 166 -262v-273q-4 -145 -69.5 -244t-194.5 -105q-140 6 -184 181l42 22q50 -77 105 -89q73 -10 107 61.5t44 217.5v205q-6 168 -51 269zM828 957
q123 29 246 27t191.5 -83.5t38.5 -190.5l-29 2q-16 128 -139.5 141t-283.5 -9zM945 837l35 17q149 -78 166 -262v-253q-4 -145 -84 -246t-250 -103q-140 6 -276 162l34 51q109 -91 185 -99q123 -10 177 61.5t64 217.5v185q-6 168 -51 269z" />
    <glyph glyph-name="uni1A49" unicode="&#x1a49;" horiz-adv-x="1506" 
d="M108 957q123 29 246 27t191.5 -83.5t38.5 -190.5l-29 2q-16 128 -139.5 141t-283.5 -9zM779 860q162 -128 180 -397q13 -214 -82 -337.5t-269 -128.5h-202q-165 -2 -213.5 135.5t56 276t97.5 209.5q-20 124 -121 219l35 17q185 -72 216 -212q27 -105 -73.5 -261.5
t-66 -221t149.5 -58.5h108q114 3 173 97t54 267q-9 210 -150 432l26 67h421q154 -5 224 -105t64 -247v-610l-140 -1l1 619q-2 95 -32.5 166t-130.5 74h-325z" />
    <glyph glyph-name="uni1A4A" unicode="&#x1a4a;" horiz-adv-x="1242" 
d="M1009 -241q-94 20 -199 -20q-164 -61 -193 -226.5t82.5 -164t219.5 149.5q60 82 90 261zM1144 -191q145 -77 144 -330q-1 -356 -386 -506.5t-753.5 -11t-452.5 515.5l32 12q155 -348 490 -449.5t652.5 17.5t314.5 409q-2 147 -49 234q-4 3 -7 5q-37 -208 -111 -300
q-140 -174 -346 -159.5t-182 257.5t270 324q149 49 261 30q12 108 14 244v515q6 95 -38 171t-139.5 99.5t-152.5 -37.5q-47 -38 -29 -125l-64 -21q-65 130 -227 167q-99 9 -107 -49t69 -134t88 -154q8 -127 -95.5 -217.5t-81 -155.5t137.5 -69h93q79 13 123 42t33 114
t-101 210l39 50q139 -51 179.5 -199.5t-40.5 -229t-214 -81.5h-192q-165 -2 -200 121t68.5 208t123.5 150t-86.5 179.5t-83.5 222.5t196 104.5t270 -121.5q68 137 231.5 129t244 -104t84.5 -228v-498q-2 -200 -20 -351z" />
    <glyph glyph-name="uni1A4B" unicode="&#x1a4b;" horiz-adv-x="1243" 
d="M718 957q123 29 246 27t191.5 -83.5t38.5 -190.5l-29 2q-16 128 -139.5 141t-283.5 -9zM261 483q120 -44 225.5 -142t72 -218t-217.5 -126h-242l14 104h198q95 0 119 39.5t-55.5 126t-249.5 178.5l-3 61q99 52 161.5 102.5t95 101t22.5 115t-109 69.5q-120 -14 -156 -133
l-29 -2q-23 98 50 171.5t211 64.5t167.5 -121t-25 -208.5t-249.5 -182.5zM906 468v100q-6 168 -51 269l35 17q139 -78 156 -262v-592h-140v370q-124 73 -192 49q-72 -25 -79 -104l-54 -6q-44 167 99 218q118 41 226 -59z" />
    <glyph glyph-name="uni1A4D" unicode="&#x1a4d;" horiz-adv-x="1242" 
d="M489 91q79 13 123 42t33 114t-101 210l39 50q139 -51 179.5 -199.5t-40.5 -229t-214 -81.5h-192q-165 -2 -200 121t68.5 208t123.5 150t-86.5 179.5t-83.5 222.5t196 104.5t270 -121.5q68 137 231.5 129t244 -104t84.5 -228v-659l-129 2v615q6 95 -38 171t-139.5 99.5
t-152.5 -37.5q-47 -38 -29 -125l-64 -21q-65 130 -227 167q-99 9 -107 -49t69 -134t88 -154q8 -127 -95.5 -217.5t-81 -155.5t137.5 -69h93zM1062 -356.5q-5 -183.5 -220 -214.5l-10 16q137 96 123 208t-222.5 131t-314 -49t-106 -159t71 -94t107.5 49l26 -10
q-18 -103 -143 -102t-143 137t123.5 240.5t427 67.5t280.5 -220.5z" />
    <glyph glyph-name="uni1A4E" unicode="&#x1a4e;" horiz-adv-x="1556" 
d="M666 2005.5q422 368.5 1014 372.5t890 -392l-48 -20q-269 319 -838 318.5t-967 -364.5t-518 -1015.5t40.5 -971t466.5 -360.5t362.5 88t-33.5 185l11 26q150 -18 95.5 -221t-435 -168.5t-559.5 401.5t-41 1060t560 1061.5zM789 91q79 13 123 42t33 114t-101 210l39 50
q139 -51 179.5 -199.5t-40.5 -229t-214 -81.5h-192q-165 -2 -200 121t68.5 208t123.5 150t-86.5 179.5t-83.5 222.5t196 104.5t270 -121.5q68 137 231.5 129t244 -104t84.5 -228v-659l-129 2v615q6 95 -38 171t-139.5 99.5t-152.5 -37.5q-47 -38 -29 -125l-64 -21
q-65 130 -227 167q-99 9 -107 -49t69 -134t88 -154q8 -127 -95.5 -217.5t-81 -155.5t137.5 -69h93z" />
    <glyph glyph-name="uni1A4F" unicode="&#x1a4f;" horiz-adv-x="980" 
d="M318 805l38 -16q-45 -82 36.5 -215t92.5 -211q18 -104 -133 -261.5t-124.5 -283.5t156 -115.5t189.5 166.5t223.5 131.5t195.5 -389.5l-44 -11q-71 263 -155.5 289t-163 -138.5t-279.5 -153.5q-206 -2 -248 175t92 336t154 211t-71.5 206.5t41.5 279.5zM208 957
q123 29 290 -11.5t241.5 -233.5t44.5 -302l-29 2q-59 292 -211 373t-312 59z" />
    <glyph glyph-name="uni1A50" unicode="&#x1a50;" horiz-adv-x="1242" 
d="M806.5 -597.5q-81.5 45.5 -157.5 -97t-243.5 -164.5t-285.5 85q-117 145 -41.5 336.5t509 288t447.5 420.5v345q6 95 -38 171t-139.5 99.5t-152.5 -37.5q-47 -38 -29 -125l-64 -21q-65 130 -227 167q-99 9 -107 -49t69 -134t88 -154q8 -127 -95.5 -217.5t-81 -155.5
t137.5 -69h93q79 13 123 42t33 114t-101 210l39 50q139 -51 179.5 -199.5t-40.5 -229t-214 -81.5h-192q-165 -2 -200 121t68.5 208t123.5 150t-86.5 179.5t-83.5 222.5t196 104.5t270 -121.5q68 137 231.5 129t244 -104t84.5 -228v-386q-1 -393 -455 -497t-507.5 -253.5
t15.5 -217.5t172.5 -54t178 148.5t200 135.5t244 -140.5t157 -129t17 164.5t-257.5 314l31 44q320 -137 348 -362.5t-94 -269t-223.5 79t-183 168z" />
    <glyph glyph-name="uni1A51" unicode="&#x1a51;" horiz-adv-x="1304" 
d="M674 860q-232 0 -329 -151.5t-95.5 -335.5t102 -280.5t443 -174.5t310.5 -310t-237 -330l-25 40q127 133 141 287t-319 231.5t-439.5 199.5t-111.5 331.5t105.5 393.5t411.5 211l83 4q238 -17 360.5 -146.5t155.5 -342.5t-47.5 -319t-199 -78.5t-163 186t-117 134.5
t-8.5 -283l-49 -17q-117 206 -84.5 315.5t161.5 105.5t186 -161.5t103 -173.5t85.5 60t6.5 238.5t-129.5 262.5t-210.5 103h-90z" />
    <glyph glyph-name="uni1A52" unicode="&#x1a52;" horiz-adv-x="1242" 
d="M1035 271v345q6 95 -38 171t-139.5 99.5t-152.5 -37.5q-47 -38 -29 -125l-64 -21q-65 130 -227 167q-99 9 -107 -49t69 -134t88 -154q8 -127 -95.5 -217.5t-81 -155.5t137.5 -69h93q79 13 123 42t33 114t-101 210l39 50q139 -51 179.5 -199.5t-40.5 -229t-214 -81.5h-192
q-165 -2 -200 121t68.5 208t123.5 150t-86.5 179.5t-83.5 222.5t196 104.5t270 -121.5q68 137 231.5 129t244 -104t84.5 -228v-386q-14 -240 -116.5 -353.5t-303.5 -193.5q-389 -114 -442.5 -258.5t23.5 -189.5t170 4t239.5 205.5t310 82t200.5 -452.5l-44 -11
q-76 276 -173.5 344.5t-232.5 -78t-287 -206t-289 36.5q-116 129 -40.5 315.5t501.5 314.5q271 107 310.5 209.5t44.5 229.5z" />
    <glyph glyph-name="uni1A5B" unicode="&#x1a5b;" 
d="M-754 -593q238 -1 222 -191l-47 -11q-85 151 -212.5 111t-107.5 -216.5t195 -252t334 17t177.5 359.5t-202.5 605l44 36q298 -323 270 -689t-285.5 -466t-481.5 25t-184 399t278 273z" />
    <glyph glyph-name="uni1A60" unicode="&#x1a60;" horiz-adv-x="563" 
d="M155 1037l35 17q149 -78 166 -262v-953q-4 -345 -184 -496t-490 -123.5t-546 383.5l34 51q209 -251 463.5 -305.5t408.5 67t164 467.5v885q-6 168 -51 269z" />
    <glyph glyph-name="uni1A61" unicode="&#x1a61;" horiz-adv-x="600" 
d="M441 615q-83 95 -158.5 98.5t-111.5 -67.5l-53 15q5 156 165 157t209 -162zM441 115q-83 95 -158.5 98.5t-111.5 -67.5l-53 15q5 156 165 157t209 -162z" />
    <glyph glyph-name="uni1A63" unicode="&#x1a63;" horiz-adv-x="762" 
d="M379.5 851.5q-73.5 18.5 -127.5 -21.5t-86 -154l-92 38q-8 85 74 174.5t218.5 81.5t216 -108.5t83.5 -269.5v-273q-4 -145 -69.5 -244t-194.5 -105q-140 6 -184 181l42 22q50 -77 105 -89q73 -10 107 61.5t44 217.5v205q-4 110 -33.5 187.5t-103 96z" />
    <glyph glyph-name="uni1A64" unicode="&#x1a64;" horiz-adv-x="404" 
d="M286 1301v-1302h-150v1278q0 102 -52 173t-292.5 72t-314.5 -35.5t-77 -110.5q-12 -145 196 -204l-8 -68q-280 25 -302 247v39q5 114 106 186.5t392 71.5t388 -85t114 -262z" />
    <glyph glyph-name="uni1A65" unicode="&#x1a65;" 
d="M-1059 1557q88 233 486 233q397 0 485 -234q20 -42 24 -111q-4 -70 -24 -112q-88 -234 -485 -234q-398 0 -486 233q-20 43 -24 112q4 70 24 113zM-180 1444q-28 257 -393 259q-366 -2 -394 -258q28 -257 394 -259q365 2 393 258z" />
    <glyph glyph-name="uni1A66" unicode="&#x1a66;" 
d="M-1059 1557q88 233 486 233q397 0 485 -234q20 -42 24 -111q-4 -70 -24 -112q-88 -234 -485 -234q-398 0 -486 233q-20 43 -24 112q4 70 24 113zM-180 1444q-28 257 -393 259q-366 -2 -394 -258q28 -257 394 -259q365 2 393 258zM-474 1361q-63 86 -114.5 88.5
t-76.5 -46.5l-36 10q4 107 113 107.5t149 -131.5z" />
    <glyph glyph-name="uni1A67" unicode="&#x1a67;" 
d="M-1059 1557q88 233 486 233q397 0 485 -234q20 -42 24 -111q-4 -70 -24 -112q-88 -234 -485 -234q-398 0 -486 233q-20 43 -24 112q4 70 24 113zM-180 1444q-28 257 -393 259q-366 -2 -394 -258q28 -257 394 -259q365 2 393 258zM-654 1361q-63 86 -114.5 88.5
t-76.5 -46.5l-36 10q4 107 113 107.5t149 -131.5zM-294 1361q-63 86 -114.5 88.5t-76.5 -46.5l-36 10q4 107 113 107.5t149 -131.5z" />
    <glyph glyph-name="uni1A69" unicode="&#x1a69;" 
d="M-231 -63l27 17q117 -78 130 -262v-349q-3 -145 -54 -244t-152 -105q-110 6 -144 181l33 22q39 -77 82 -89q57 -10 83.5 61.5t34.5 217.5v281q-5 168 -40 269z" />
    <glyph glyph-name="uni1A6A" unicode="&#x1a6a;" 
d="M-274 -659q-247 164 -361.5 147.5t-121.5 -95.5l-54 -6q-44 167 142 209t427 -198zM-231 -63l27 17q117 -78 130 -262v-349q-3 -145 -54 -244t-152 -105q-110 6 -144 181l33 22q39 -77 82 -89q57 -10 83.5 61.5t34.5 217.5v281q-5 168 -40 269z" />
    <glyph glyph-name="uni1A6E" unicode="&#x1a6e;" horiz-adv-x="824" 
d="M489 91q79 13 123 42t33 114t-101 210l39 50q139 -51 179.5 -199.5t-40.5 -229t-214 -81.5h-192q-165 -2 -200 121t68.5 208t123.5 150t-86.5 179.5t-83.5 222.5t241.5 94t296.5 -248l-64 -21q-65 130 -227 167q-99 9 -107 -49t69 -134t88 -154q8 -127 -95.5 -217.5
t-81 -155.5t137.5 -69h93z" />
    <glyph glyph-name="uni1A71" unicode="&#x1a71;" horiz-adv-x="824" 
d="M489 91q79 13 123 42t33 114t-101 210l39 50q139 -51 179.5 -199.5t-40.5 -229t-214 -81.5h-192q-165 -2 -200 121t68.5 208t123.5 150t-86.5 179.5t-83.5 222.5t241.5 94t296.5 -248l-64 -21q-65 130 -227 167q-99 9 -107 -49t69 -134t88 -154q8 -127 -95.5 -217.5
t-81 -155.5t137.5 -69h93zM120.5 1622.5q85.5 304.5 399.5 419.5l9 -18q-229 -163 -299.5 -421t-8 -357.5t201.5 -76.5t152 113.5t-57 103t-113 -34.5l-23 14q30 100 154.5 81.5t123 -156t-193.5 -191.5t-311.5 82.5t-34 441z" />
    <glyph glyph-name="uni1A73" unicode="&#x1a73;" 
d="M-731 1378q83 -125 163.5 -128.5t146.5 117.5l63 -15q-45 -206 -205 -207t-219 192zM-572 1408q-28 0 -48.5 20t-20.5 49q0 28 20.5 48t48.5 20q29 0 49 -20t20 -48q0 -29 -20 -49t-49 -20z" />
    <glyph glyph-name="uni1A74" unicode="&#x1a74;" 
d="M-449 1145q-93 125 -168.5 128.5t-111.5 -67.5l-53 15q5 156 165 157t219 -192z" />
    <glyph glyph-name="uni1A7A" unicode="&#x1a7a;" 
d="M-470 1161q-29 0 -49 20t-20 48q0 29 20 49t49 20q28 0 48 -20t20 -49q0 -28 -20 -48t-48 -20zM-694 1161q-28 0 -48 20t-20 48q0 29 20 49t48 20q29 0 49 -20t20 -49q0 -28 -20 -48t-49 -20zM-582 1338q-28 0 -48.5 20t-20.5 49q0 28 20.5 48t48.5 20q29 0 49 -20
t20 -48q0 -29 -20 -49t-49 -20z" />
    <glyph glyph-name="uni1A90" unicode="&#x1a90;" horiz-adv-x="1294" 
d="M186 637q85 333 469 333t469 -335q19 -60 23 -159q-4 -99 -23 -160q-85 -334 -469 -334t-469 333q-19 62 -23 160q4 100 23 162zM1008 475q-23 379 -353 381q-332 -2 -354 -380q22 -379 354 -381q330 2 353 380z" />
    <glyph glyph-name="uni1A91" unicode="&#x1a91;" horiz-adv-x="1245" 
d="M678 964q277 -14 370.5 -156t87.5 -383t-196 -428l-35 17q96 210 93.5 409.5t-60 312t-274.5 124.5h-89q-174 -3 -262.5 -113.5t-79.5 -297.5t68 -266t133 -82q145 -12 160 174.5t-179 354.5l23 25q290 -114 286 -375t-235 -283h-69q-114 5 -209 106t-104 338.5
t105.5 377.5t348.5 145h117z" />
    <glyph glyph-name="uni1A92" unicode="&#x1a92;" horiz-adv-x="1245" 
d="M917 -657q-175 -151 -485 -123.5t-546 383.5l34 51q209 -251 463.5 -305.5t411 54t171.5 513.5l1 524q-2 168 -57.5 292.5t-245.5 127.5h-89q-174 -3 -262.5 -113.5t-79.5 -297.5t68 -266t133 -82q145 -12 160 174.5t-179 354.5l23 25q290 -114 286 -375t-235 -283h-69
q-114 5 -209 106t-104 338.5t105.5 377.5t348.5 145h117q244 -5 334 -158.5t84 -373.5v-500q-4 -438 -179 -589z" />
    <glyph glyph-name="uni1A93" unicode="&#x1a93;" horiz-adv-x="1201" 
d="M678 964q277 -14 370.5 -156t87.5 -368t-196 -413l-35 17q96 210 93.5 394.5t-60 297t-274.5 124.5h-89q-174 -3 -262.5 -113.5t-79.5 -297.5t68 -266t133 -82q145 -12 160 174.5t-179 354.5l23 25q290 -114 286 -375t-235 -283h-69q-114 5 -209 106t-104 338.5
t105.5 377.5t348.5 145h117zM942 -683q-180 -125 -490 -97.5t-546 383.5l34 51q209 -251 463.5 -305.5t414 36t187 273t-80.5 322.5l33 31q169 -119 167 -344t-182 -350z" />
    <glyph glyph-name="uni1A94" unicode="&#x1a94;" horiz-adv-x="1102" 
d="M675 787l35 17q83 -48 79.5 -148.5t-220.5 -197.5q212 -38 281.5 -138t14.5 -221.5t-263 -128.5q-240 6 -396 152l24 31q139 -71 315 -89q142 -2 183.5 77t-34.5 158t-364 101v80q215 46 312 139t33 168zM315 831q130 72 278 102.5t266 9.5t186.5 -102.5t38.5 -260.5
l-29 2q-83 172 -191 218.5t-243.5 46t-288.5 -52.5z" />
    <glyph glyph-name="uni1A95" unicode="&#x1a95;" horiz-adv-x="1102" 
d="M315 831q130 72 278 102.5t266 9.5t186.5 -102.5t38.5 -260.5l-29 2q-83 172 -191 218.5t-243.5 46t-288.5 -52.5zM675 787l35 17q83 -48 79.5 -148.5t-220.5 -197.5q212 -38 281.5 -138t14.5 -221.5t-263 -128.5q-240 6 -396 152l24 31q139 -71 315 -89q142 -2 183.5 77
t-34.5 158t-364 101v80q215 46 312 139t33 168zM315 831q130 72 278 102.5t266 9.5t186.5 -102.5t38.5 -260.5l-29 2q-83 172 -191 218.5t-243.5 46t-288.5 -52.5zM149.5 1277q-27.5 238 205.5 377l12 -16q-135 -200 -91 -366.5t253 -178.5t312 60t100 163t-74 91.5
t-105 -53.5l-26 10q13 103 138.5 106.5t148 -132t-115 -245t-434 -82t-324 265.5z" />
    <glyph glyph-name="uni1A96" unicode="&#x1a96;" horiz-adv-x="1152" 
d="M345 708.5q-97 -151.5 -95.5 -325.5t102 -266t443 -74.5t310.5 -214.5t-237 -330l-25 40q127 133 145 266.5t-306.5 123t-443.5 120t-124 330t105.5 383.5t387.5 203h71q174 -5 281.5 -119.5t60 -233.5t-299.5 -177l-7 44q173 75 190.5 170.5t-54 152t-185.5 59.5
q-222 0 -319 -151.5z" />
    <glyph glyph-name="uni1A97" unicode="&#x1a97;" horiz-adv-x="1361" 
d="M232.5 874q74.5 86 194.5 90h103q99 -6 167.5 -75.5t87 -210.5t-10 -318t-5.5 -221t107 -38h58q114 3 164.5 128.5t31.5 361.5t-115 366l35 17q190 -107 217.5 -384.5t-59 -432.5t-260.5 -160h-92q-170 -7 -219 96t-16.5 278.5t21.5 273.5t-39 153t-96 62h-53
q-165 0 -176 -313.5t34.5 -386.5t121.5 -100l-25 -63q-166 6 -225 156t-42.5 392.5t91 328.5zM1119 1308q33 -146 -128 -235t-407.5 -61.5t-394.5 285.5l23 4q237 -191 419 -203t296 45t102.5 136t-168 58t-238.5 29t-63 163t187.5 163t343.5 -12.5t197 -262.5l-23 -4
q-82 148 -215.5 190.5t-256.5 14.5t-123.5 -129.5t208 -68t241.5 -112.5z" />
    <glyph glyph-name="uni1A98" unicode="&#x1a98;" horiz-adv-x="973" 
d="M51.5 1277q-27.5 238 205.5 377l12 -16q-135 -200 -91 -366.5t253 -178.5t312 60t100 163t-74 91.5t-105 -53.5l-26 10q13 103 138.5 106.5t148 -132t-115 -245t-434 -82t-324 265.5zM331 935v-664q3 -166 127 -170h108q84 3 134.5 128.5t31.5 361.5t-115 366l35 17
q190 -107 217.5 -384.5t-59 -432.5t-260.5 -160h-112q-240 13 -247 284v654h140z" />
    <glyph glyph-name="uni1A99" unicode="&#x1a99;" horiz-adv-x="1132" 
d="M149.5 1277q-27.5 238 205.5 377l12 -16q-135 -200 -91 -366.5t253 -178.5t312 60t100 163t-74 91.5t-105 -53.5l-26 10q13 103 138.5 106.5t148 -132t-115 -245t-434 -82t-324 265.5zM559 1000l22 -30q-234 -191 -296.5 -425.5t-3 -352t203.5 -95.5q142 57 157 187
l84 -21q12 -77 58.5 -124.5t150 -34.5t90.5 201l29 2q85 -148 7.5 -238t-218 -67.5t-169.5 124.5q-91 -118 -267 -121.5t-253 146.5t4.5 424t400.5 425z" />
    <glyph glyph-name="uni1AA0" unicode="&#x1aa0;" horiz-adv-x="1678" 
d="M1114 -68q-2 -438 -187 -589t-495 -123.5t-546 383.5l34 51q209 -251 463.5 -305.5t411 54t180.5 537.5v676q6 95 -38 171t-139.5 99.5t-152.5 -37.5q-47 -38 -29 -125l-64 -21q-65 130 -227 167q-99 9 -107 -49t69 -134t88 -154q8 -127 -95.5 -217.5t-81 -155.5
t137.5 -69h93q79 13 123 42t33 114t-101 210l39 50q139 -51 179.5 -199.5t-40.5 -229t-214 -81.5h-192q-165 -2 -200 121t68.5 208t123.5 150t-86.5 179.5t-83.5 222.5t196 104.5t270 -121.5q68 137 231.5 129t249 -104t89.5 -228v-726zM1118 957q123 29 246 27t191.5 -83.5
t38.5 -190.5l-29 2q-16 128 -139.5 141t-283.5 -9zM1306 568q-6 168 -51 269l35 17q139 -78 156 -262v-913q-4 -345 -202 -479l-63 21q115 156 125 502v845z" />
    <glyph glyph-name="uni1AA1" unicode="&#x1aa1;" horiz-adv-x="1678" 
d="M1114 -68q-2 -438 -187 -589t-495 -123.5t-546 383.5l34 51q209 -251 463.5 -305.5t411 54t180.5 537.5v676q6 95 -38 171t-139.5 99.5t-152.5 -37.5q-47 -38 -29 -125l-64 -21q-65 130 -227 167q-99 9 -107 -49t69 -134t88 -154q8 -127 -95.5 -217.5t-81 -155.5
t137.5 -69h93q79 13 123 42t33 114t-101 210l39 50q139 -51 179.5 -199.5t-40.5 -229t-214 -81.5h-192q-165 -2 -200 121t68.5 208t123.5 150t-86.5 179.5t-83.5 222.5t196 104.5t270 -121.5q68 137 231.5 129t249 -104t89.5 -228v-726zM1118 957q123 29 246 27t191.5 -83.5
t38.5 -190.5l-29 2q-16 128 -139.5 141t-283.5 -9zM1306 568q-6 168 -51 269l35 17q139 -78 156 -262v-913q-4 -345 -202 -479l-63 21q115 156 125 502v845zM612.5 -199.5q-27.5 -65.5 58.5 -135.5l-19 -35q-108 30 -132.5 126t45.5 161t197 24t110 -381l-62 9
q-4 249 -87 273t-110.5 -41.5z" />
    <glyph glyph-name="uni1AA2" unicode="&#x1aa2;" horiz-adv-x="1678" 
d="M1114 -68q-2 -438 -187 -589t-495 -123.5t-546 383.5l34 51q209 -251 463.5 -305.5t411 54t180.5 537.5v676q6 95 -38 171t-139.5 99.5t-152.5 -37.5q-47 -38 -29 -125l-64 -21q-65 130 -227 167q-99 9 -107 -49t69 -134t88 -154q8 -127 -95.5 -217.5t-81 -155.5
t137.5 -69h93q79 13 123 42t33 114t-101 210l39 50q139 -51 179.5 -199.5t-40.5 -229t-214 -81.5h-192q-165 -2 -200 121t68.5 208t123.5 150t-86.5 179.5t-83.5 222.5t196 104.5t270 -121.5q68 137 231.5 129t249 -104t89.5 -228v-726zM1118 957q123 29 246 27t191.5 -83.5
t38.5 -190.5l-29 2q-16 128 -139.5 141t-283.5 -9zM1306 568q-6 168 -51 269l35 17q139 -78 156 -262v-913q-4 -345 -202 -479l-63 21q115 156 125 502v845zM612.5 -199.5q-27.5 -65.5 58.5 -135.5l-19 -35q-108 30 -132.5 126t45.5 161t197 24t110 -381l-62 9
q-4 249 -87 273t-110.5 -41.5zM1179 1488q33 -146 -128 -235t-407.5 -61.5t-394.5 285.5l23 4q237 -191 419 -203t296 45t102.5 136t-168 58t-238.5 29t-63 163t187.5 163t343.5 -12.5t197 -262.5l-23 -4q-82 148 -215.5 190.5t-256.5 14.5t-123.5 -129.5t208 -68
t241.5 -112.5z" />
    <glyph glyph-name="uni1AA3" unicode="&#x1aa3;" horiz-adv-x="921" 
d="M138 582q56 218 308 218t307 -220q13 -39 16 -104q-3 -65 -16 -105q-55 -219 -307 -219t-308 218q-12 41 -15 105q3 66 15 107zM634 475q-13 202 -188 203q-176 -1 -188 -202q12 -202 188 -202q175 0 188 201z" />
    <glyph glyph-name="uni1AA5" unicode="&#x1aa5;" horiz-adv-x="323" 
d="M53 1008l27 46q149 -8 166 -192v-1223q-4 -345 -202 -479l-63 21q105 156 115 502v1155q-6 168 -43 170z" />
    <glyph glyph-name="uni1AA7" unicode="&#x1aa7;" horiz-adv-x="879" 
d="M143 1008l27 46q149 -8 166 -192v-1223q-4 -345 -202 -479l-63 21q105 156 115 502v1155q-6 168 -43 170zM543 1008l27 46q149 -8 166 -192v-1223q-4 -345 -202 -479l-63 21q105 156 115 502v1155q-6 168 -43 170z" />
    <glyph glyph-name="uni1AA8" unicode="&#x1aa8;" horiz-adv-x="600" 
d="M441 355q-83 95 -158.5 98.5t-111.5 -67.5l-53 15q5 156 165 157t209 -162z" />
    <glyph glyph-name="uni1AA9" unicode="&#x1aa9;" horiz-adv-x="1112" 
d="M441 355q-83 95 -158.5 98.5t-111.5 -67.5l-53 15q5 156 165 157t209 -162zM961 355q-83 95 -158.5 98.5t-111.5 -67.5l-53 15q5 156 165 157t209 -162z" />
    <glyph glyph-name="uni1AAD" unicode="&#x1aad;" horiz-adv-x="600" 
d="M169 318q83 -95 158.5 -98.5t111.5 67.5l53 -15q-5 -156 -165 -157t-209 162zM169 818q83 -95 158.5 -98.5t111.5 67.5l53 -15q-5 -156 -165 -157t-209 162z" />
    <glyph glyph-name="uni1B00" unicode="&#x1b00;" 
d="M-187.5 1544q27.5 -287 -202.5 -452l-26 24q142 135 117 344.5t-189 269.5t-328.5 0t-194.5 -269.5t122 -344.5l-26 -24q-230 165 -202.5 452t246.5 372t437.5 0t246 -372zM-513 1333q0 -28 -10.5 -52.5t-28.5 -42.5t-43 -29t-53 -11q-27 0 -52 11t-43 29t-29 42.5
t-11 52.5t11 52.5t29 42.5t43 29t52 11q28 0 53 -11t43 -29t28.5 -42.5t10.5 -52.5z" />
    <glyph glyph-name="uni1B01" unicode="&#x1b01;" 
d="M-597 1012q-398 6 -390 419l41 14q7 -158 173 -229q-57 -65 -32.5 124.5t209.5 189.5t213.5 -189.5t-36.5 -124.5q166 71 173 229l41 -14q8 -413 -390 -419h-2zM-772 1216q66 -29 176 -33q102 2 177 34q-42 204 -177 204t-176 -205zM-578 1802l20 -287h-82l20 287h42z
" />
    <glyph glyph-name="uni1B02" unicode="&#x1b02;" 
d="M-763 1186q-96 480 -256 637q-76 -32 -115 -95l-50 21q89 255 153 329q147 -91 239 -393q73 -276 73 -478z" />
    <glyph glyph-name="uni1B03" unicode="&#x1b03;" 
d="M-242 1092q-475 0 -731 283q-219 259 -267 618l164 -44q77 -305 230 -524q198 -272 616 -296z" />
    <glyph glyph-name="uni1B04" unicode="&#x1b04;" horiz-adv-x="753" 
d="M479 -455q-157 -522 37 -921l-36 -29q-350 419 -44 1061q142 420 43 554t-291 166v68q334 -22 334 116t-134.5 136.5t-162.5 -153.5l-44 23q-7 287 201.5 305t230.5 -205.5t-185 -261.5q165 -80 191.5 -220t-140.5 -639z" />
    <glyph glyph-name="uni1B05" unicode="&#x1b05;" horiz-adv-x="2258" 
d="M1883 356q83 -101 134 -192l-21 -33q-67 76 -127 136q-61 -271 -339 -275h-62q-415 -2 -426 399q147 -190 426 -190h61q203 0 266 135q-127 112 -216 136q-39 -53 -40 -113l-41 -5q-40 212 -25 290q133 -4 311 -178l36 -38q3 23 3 49v465q293 -24 303 -360v-582h-63v422
q-6 247 -177 307v-312q-1 -32 -3 -61zM201 593q13 249 120 414q135 217 455 217l5 -50q-280 -65 -401 -203.5t-127 -353.5v-78q4 -327 364 -331q229 1 229 122q0 95 -170 105l-124 -2v71h144q150 8 150 126q-20 107 -148 99q-136 -2 -205 -107l-32 18q60 309 301 298
q206 -42 197 -243q-7 -192 -176 -226q184 -24 176 -238q0 -231 -350 -232q-405 8 -409 490v104h1z" />
    <glyph glyph-name="uni1B06" unicode="&#x1b06;" horiz-adv-x="2804" 
d="M1790 324q-126 -327 -352 -331q-355 -6 -396 399q147 -190 396 -190q214 0 300 167q-104 85 -179 105q-39 -54 -40 -113l-41 -5q-40 213 -25 291q133 -4 311 -179l8 -8q2 5 3 11q111 454 459 471q216 1 321 -76q140 -86 150 -385q0 -210 -135 -359q-135 -146 -332 -146
q-57 0 -155 26l3 81q74 -26 158 -26q171 0 294 116q82 94 92 219q30 181 -137 275q-124 80 -321 53q-262 -46 -342 -277q-5 -17 -11 -35q115 -128 178 -243l-21 -32q-101 114 -186 191zM201 596q13 249 120 414q135 218 455 218l5 -50q-280 -66 -401 -204.5t-127 -353.5v-79
q4 -328 364 -331q229 1 229 122q0 95 -170 105l-124 -2v71h144q150 8 150 126q-20 108 -148 99q-136 -2 -205 -107l-32 19q60 310 301 298q206 -42 197 -243q-7 -193 -176 -227q184 -24 176 -238q0 -232 -350 -233q-405 7 -409 491v105h1z" />
    <glyph glyph-name="uni1B07" unicode="&#x1b07;" horiz-adv-x="1798" 
d="M840 943q121 0 181 -52q80 -65 140 -197q59 132 139 197q60 52 181 52q286 -14 281 -546v-396h-62v394q-1 321 -225 340h-51q-163 -19 -262 -156q-2 1 -3 0v4q-99 133 -262 152h-51q-173 -15 -212 -206q-35 -336 170 -551q-403 47 -405 406q0 84 24 219t-63.5 126.5
t-90 -111t58.5 -183.5l-36 -13q-75 91 -78 233q0 289 167 289q160 -6 121 -218t-39 -289q3 -200 175 -287q-66 68 -80 268q7 512 282 525zM1166 -730q-156 0 -313 193l25 30q173 -100 305 -100q158 0 164 100q-18 70 -222 109q-207 41 -217 175q3 139 192 143q91 0 214 -77
l-5 -38q-122 49 -201 49q-99 5 -118 -72q-19 -92 153 -127q284 -51 272 -193q0 -192 -249 -192z" />
    <glyph glyph-name="uni1B08" unicode="&#x1b08;" horiz-adv-x="2797" 
d="M789 943q121 0 181 -52q80 -65 140 -197q59 132 139 197q60 52 181 52q286 -14 281 -546v-396h-62v394q-1 321 -225 340h-51q-163 -19 -262 -156q-2 1 -3 0v4q-99 133 -262 152h-51q-173 -15 -212 -206q-35 -336 170 -551q-403 47 -405 406q0 84 24 219t-63.5 126.5
t-90 -111t58.5 -182.5l-36 -14q-75 91 -78 233q0 289 167 289q160 -6 121 -218t-39 -288q3 -201 175 -288q-66 68 -80 268q7 512 282 525zM1115 -730q-156 0 -313 193l25 30q173 -100 305 -100q158 0 164 100q-18 70 -222 109q-207 41 -217 175q3 139 192 143q91 0 214 -77
l-5 -38q-122 49 -201 49q-99 5 -118 -72q-19 -92 153 -127q284 -51 272 -193q0 -192 -249 -192zM2334 734h-41q-370 0 -504 -121l-31 24q177 302 534 307h42q393 -59 393 -478q0 -295 -217 -436q-120 -60 -237 -60q-181 0 -181 111q0 210 127 210q29 0 103 -77
q65 -77 123 -77q110 0 172 107q57 95 57 183q-6 283 -340 307z" />
    <glyph glyph-name="uni1B09" unicode="&#x1b09;" horiz-adv-x="1300" 
d="M662 -149q456 179 477 598q-2 279 -314 290q-201 4 -260 -143.5t60 -297.5l-44 -26q-345 193 -301 493l34 10q75 -265 170 -330q-59 163 20 334t320 165q366 -5 377 -461q18 -655 -472 -798q-575 -167 -626 -634h1q1 -361 305 -397q-127 208 -14 419.5t490 211.5
q392 -13 482.5 -293.5t-46.5 -494.5l-32 -2q83 230 -29 397t-375 188q-337 -1 -413.5 -161t48.5 -414q-453 52 -477 545q-11 616 619 801z" />
    <glyph glyph-name="uni1B0A" unicode="&#x1b0a;" horiz-adv-x="2299" 
d="M662 -139q456 179 477 598q-2 279 -314 290q-201 4 -260 -143.5t60 -297.5l-44 -26q-345 193 -301 493l34 10q75 -265 170 -330q-59 163 20 334t320 165q366 -5 377 -461q18 -655 -472 -798q-575 -167 -626 -634h1q1 -361 305 -397q-127 208 -14 419.5t490 211.5
q392 -13 482.5 -293.5t-46.5 -494.5l-32 -2q83 230 -29 397t-375 188q-337 -1 -413.5 -161t48.5 -414q-453 52 -477 545q-11 616 619 801zM1845 749h-41q-370 0 -504 -117l-31 24q177 293 534 298h42q393 -57 393 -465q0 -287 -217 -425q-120 -58 -237 -58q-181 0 -181 108
q0 205 127 205q29 0 103 -75q65 -75 123 -75q110 0 172 104q57 93 57 178q-6 275 -340 298z" />
    <glyph glyph-name="uni1B0B" unicode="&#x1b0b;" horiz-adv-x="1647" 
d="M1312 386q-39 -389 -456 -394h-62q-458 5 -456 473q0 73 14 171t-58.5 90t-75 -110.5t18.5 -182.5l-36 -13q-35 90 -38 232q0 288 167 288q130 -6 101 -181t-29 -260q13 -297 392 -297h61q390 0 394 328v414q292 -24 302 -361v-583h-62v423q-6 248 -177 307v-344z
M895 -730q-156 0 -313 193l25 30q173 -100 305 -100q158 0 164 100q-18 70 -222 109q-207 41 -217 175q3 139 192 143q91 0 214 -77l-5 -38q-122 49 -201 49q-99 5 -118 -72q-19 -92 153 -127q284 -51 272 -193q0 -192 -249 -192z" />
    <glyph glyph-name="uni1B0C" unicode="&#x1b0c;" horiz-adv-x="1647" 
d="M874 -914q147 163 -64 358q-200 246 -1 498h52q-134 -198 65 -361q231 -234 -11 -520zM1312 386q-39 -389 -456 -394h-62q-458 5 -456 473q0 73 14 171t-58.5 90t-75 -110.5t18.5 -182.5l-36 -13q-35 90 -38 232q0 288 167 288q130 -6 101 -181t-29 -260
q13 -297 392 -297h61q390 0 394 328v414q292 -24 302 -361v-583h-62v423q-6 248 -177 307v-344z" />
    <glyph glyph-name="uni1B0D" unicode="&#x1b0d;" horiz-adv-x="1802" 
d="M1105 -418q-237 97 -399 106.5t-238.5 -85t-70.5 -279.5q8 -260 299 -282q486 -41 359 -527q364 445 491 964q-188 0 -441 103zM1639 30v380q-1 312 -225 331h-51q-163 -19 -262 -152q-2 1 -3 0v4q-99 129 -262 148h-51q-173 -15 -212 -201q-35 -326 170 -535
q-403 46 -405 395q0 81 24 212.5t-63.5 123t-90 -108t58.5 -177.5l-36 -13q-75 88 -78 226q0 281 167 281q160 -6 121 -212t-39 -280q3 -195 175 -280q-66 66 -80 260q7 499 282 511q121 0 181 -51q80 -63 140 -191q59 128 139 191q60 51 181 51q287 -13 282 -531v-384h-2
q-6 -255 -51 -452q152 0 269 91l30 -33q-86 -88 -328 -150q-112 -580 -637 -1117l-87 39q169 339 55 465q-95 106 -308 120q-277 44 -326 285q-21 277 129 425.5t444 145.5q176 0 378 -123q171 -123 308 -145q45 158 61 451h2z" />
    <glyph glyph-name="uni1B0E" unicode="&#x1b0e;" horiz-adv-x="1799" 
d="M1105 -418q-237 97 -399 106.5t-238.5 -85t-70.5 -279.5q8 -260 299 -282q486 -41 359 -527q364 445 491 964q-188 0 -441 103zM1768 -475q-53 -25 -124 -35l-24 -6q-112 -580 -637 -1117l-87 39q169 339 55 465q-95 106 -308 120q-277 44 -326 285q-21 277 129 425.5
t444 145.5q176 0 378 -123q168 -121 304 -144l4 -1q45 158 61 451h2v380q-1 312 -225 331h-51q-163 -19 -262 -152q-2 1 -3 0v4q-99 129 -262 148h-51q-173 -15 -212 -201q-35 -326 170 -535q-403 46 -405 395q0 81 24 212.5t-63.5 123t-90 -108t58.5 -177.5l-36 -13
q-75 88 -78 226q0 281 167 281q160 -6 121 -212t-39 -280q3 -195 175 -280q-66 66 -80 260q7 499 282 511q121 0 181 -51q80 -63 140 -191q59 128 139 191q60 51 181 51q287 -13 282 -531v-384h-2q-6 -255 -51 -452h44q53 8 122 47q116 63 238.5 10.5t102 -182.5
t-153.5 -150q222 -68 222 -350q0 -121 -110 -197q-149 -90 -328 -16t-176 420h37q37 -141 86 -199q64 -75 201 -75q192 0 192 200q0 158 -401 158l12 64q164 0 216 27q82 46 67 123t-91 96q-50 12 -98 0q-12 -10 -63 -27z" />
    <glyph glyph-name="uni1B0F" unicode="&#x1b0f;" horiz-adv-x="1497" 
d="M163 349q-31 508 539 663l20 -43q-498 -274 -497 -617q12 -156 204 -192q11 406 426 454q568 -2 506 -617l-42 8q-25 386 -464 397q-456 -4 -345 -397q-300 50 -347 344z" />
    <glyph glyph-name="uni1B10" unicode="&#x1b10;" horiz-adv-x="2501" 
d="M1954 1032q-72 -12 -82 -85q0 -61 87 -99q101 -39 199 -6q-87 190 -204 190zM2239 435q2 154 -25 208l-67 -3q-140 0 -238 78q-111 81 -111 226q0 153 173 157q152 -4 250 -238q163 89 224 269l12 8l25 -31q8 -60 8 -64q0 -219 -204 -361q15 -68 15 -247v-1481
q2 -559 -465 -564q-208 19 -300.5 181.5t-251.5 162.5q-139 -4 -244 -171.5t-296 -172.5q-498 5 -496 564q-16 665 704 754q653 81 687 498q9 516 -225 534h-51q-163 -18 -262 -152q-2 1 -3 0v4q-99 130 -262 148h-51q-173 -14 -212 -200q-35 -327 170 -536
q-403 46 -405 395q0 82 24 213t-63.5 123t-90 -108t58.5 -178l-36 -13q-75 88 -78 227q0 281 167 281q160 -7 121 -213t-39 -280q3 -195 175 -280q-66 66 -80 261q7 498 282 511q121 0 181 -51q80 -63 140 -192q59 129 139 192q60 51 181 51q287 -14 282 -735
q9 -635 -740 -679q-633 -86 -662 -512q-25 -422 444 -422q232 1 303 153t236 150q159 6 237.5 -154t314.5 -149q400 0 404 422v1416z" />
    <glyph glyph-name="uni1B11" unicode="&#x1b11;" horiz-adv-x="1798" 
d="M273 -949h1q1 -361 305 -397q-127 208 -14 419.5t480 211.5q432 -13 522.5 -293.5t-46.5 -494.5l-32 -2q83 230 -29 397t-415 188q-327 -1 -403.5 -161t48.5 -414q-453 52 -477 545q-11 672 709 760q653 82 687 498q9 414 -225 432h-51q-163 -18 -262 -151q-2 1 -3 0v4
q-99 129 -262 147h-51q-173 -14 -212 -200q-35 -327 170 -535q-403 45 -405 394q0 82 24 213t-63.5 123t-90 -107.5t58.5 -178.5l-36 -13q-75 89 -78 227q0 281 167 281q160 -6 121 -212t-39 -281q3 -195 175 -280q-66 67 -80 261q7 499 282 511q121 0 181 -51
q80 -63 140 -191q59 128 139 191q60 51 181 51q287 -13 282 -633q9 -635 -740 -679q-608 -83 -659 -580z" />
    <glyph glyph-name="uni1B12" unicode="&#x1b12;" horiz-adv-x="2745" 
d="M273 -949h1q1 -361 305 -397q-127 208 -14 419.5t480 211.5q432 -13 522.5 -293.5t-46.5 -494.5l-32 -2q83 230 -29 397t-415 188q-327 -1 -403.5 -161t48.5 -414q-453 52 -477 545q-11 672 709 760q653 82 687 498q9 414 -225 432h-51q-163 -18 -262 -151q-2 1 -3 0v4
q-99 129 -262 147h-51q-173 -14 -212 -200q-35 -327 170 -535q-403 45 -405 394q0 82 24 213t-63.5 123t-90 -107.5t58.5 -178.5l-36 -13q-75 89 -78 227q0 281 167 281q160 -6 121 -212t-39 -281q3 -195 175 -280q-66 67 -80 261q7 499 282 511q121 0 181 -51
q80 -63 140 -191q59 128 139 191q60 51 181 51q287 -13 282 -633q9 -635 -740 -679q-608 -83 -659 -580zM2315 739h-41q-370 0 -504 -117l-31 24q177 293 534 298h42q393 -57 393 -465q0 -287 -217 -425q-120 -58 -237 -58q-181 0 -181 108q0 205 127 205q29 0 103 -75
q65 -75 123 -75q110 0 172 104q57 93 57 178q-6 275 -340 298z" />
    <glyph glyph-name="uni1B13" unicode="&#x1b13;" horiz-adv-x="2061" 
d="M1070 251q-189 64 -350 66q-1 -118 92 -205q86 -64 246 -67q110 0 110 93q-8 75 -98 113zM291 138q10 -99 85 -83q89 20 100 253q-170 -27 -185 -170zM532 477l10 3q61 13 107 11v31q24 413 455 418q479 -5 457 -516q2 -289 49 -295q47 6 49 295v520q293 -24 303 -361
v-582h-63v422q-6 248 -177 307v-393q-1 -333 -110 -336h-3q-109 3 -110 336v65q-5 328 -394 328q-381 0 -378 -237q209 -2 420 -89q126 -67 135 -202q-13 -221 -228 -221q-187 -2 -283 89q-122 102 -124 252q-51 6 -110 0q-7 -315 -157 -336q-137 -13 -168 127
q-21 162 107 272q82 64 159 78v76q-2 196 -109 196t-125 -85.5t18 -174.5l-36 -14q-50 94 -48 206q-5 273 182 273q180 -6 172 -356v-107z" />
    <glyph glyph-name="uni1B14" unicode="&#x1b14;" horiz-adv-x="2401" 
d="M1070 254q-189 64 -350 66q-1 -118 92 -205q86 -65 246 -68q110 0 110 94q-8 75 -98 113zM291 141q10 -99 85 -83q89 19 100 253q-170 -27 -185 -170zM478 466v76q-2 196 -109 196t-125 -85.5t18 -174.5l-36 -13q-50 94 -48 205q-5 274 182 274q180 -6 172 -356v-108
l10 4q61 12 107 10v31q24 414 455 419q459 -5 457 -474v-86q6 -309 368 -228.5t456 -220.5l-19 -9q-206 117 -536.5 66.5t-330.5 356.5v56q-5 329 -394 329q-381 0 -378 -238q209 -2 420 -89q126 -66 135 -202q-13 -222 -228 -222q-187 -2 -283 89q-122 102 -124 253
q-51 6 -110 0q-7 -315 -157 -336q-137 -14 -168 127q-21 162 107 273q82 63 159 77z" />
    <glyph glyph-name="uni1B15" unicode="&#x1b15;" horiz-adv-x="1956" 
d="M1618 538q0 -514 -373 -560q125 129 147.5 295t-35 287t-217 167.5t-305 5t-211.5 -146.5t-56.5 -261t181.5 -347q-403 46 -405 400q0 82 24 215t-63.5 125t-90 -109t58.5 -181l-36 -13q-75 90 -78 230q0 284 167 284q160 -6 121 -214.5t-39 -283.5q3 -198 175 -284
q-69 70 -84 218.5t49.5 317.5t248 233.5t383 -5t253.5 -239t38 -299t-62 -208.5q141 63 146 357v412q292 -24 302 -357v-576h-62v417q-6 245 -177 304v-184z" />
    <glyph glyph-name="uni1B16" unicode="&#x1b16;" horiz-adv-x="2266" 
d="M1669 -8q-182 5 -226.5 163t-153.5 158q-89 -4 -144 -160t-186 -161q-247 26 -255 330.5t118 512.5q-244 -25 -246 -314v-184q-1 -334 -143 -337q-159 3 -104 265t53 370.5t-69.5 100t-70 -115.5t58.5 -187l-36 -14q-75 91 -78 232q0 288 137 288q130 -6 127 -217
t-50.5 -399.5t33.5 -194.5q77 7 89 295v185q1 333 310 336h113q-175 -261 -170.5 -499t233.5 -244q97 -3 143 116.5t136 131.5q95 -1 136 -124.5t215 -123.5q214 39 220.5 245.5t-138.5 295.5q-104 42 -195 7q68 242 356 180t283 -628v-301h-62v328q-7 468 -344 472
q160 -91 176.5 -422t-266.5 -386z" />
    <glyph glyph-name="uni1B17" unicode="&#x1b17;" horiz-adv-x="1858" 
d="M837 943q121 0 181 -52q80 -65 140 -197q59 132 139 197q60 52 181 52q286 -14 281 -546v-396h-62v394q-1 321 -225 340h-51q-163 -19 -262 -156q-2 1 -3 0v4q-99 133 -262 152h-51q-173 -15 -212 -206q-35 -336 170 -551q-403 47 -405 406q0 84 24 219t-63.5 126.5
t-90 -111t58.5 -183.5l-36 -13q-75 91 -78 233q0 289 167 289q160 -6 121 -218t-39 -289q3 -200 175 -287q-66 68 -80 268q7 512 282 525z" />
    <glyph glyph-name="uni1B18" unicode="&#x1b18;" horiz-adv-x="1661" 
d="M250 138q-11 -100 85 -84q89 20 150 254q-195 -39 -235 -170zM512 463q59 276 -78 304q-157 32 -240 -235l-40 7q29 402 290 402q204 -19 128 -479q150 -11 251 -131q172 -205 298.5 -179.5t133 264.5t-138.5 327q-104 42 -195 8q68 242 355.5 180t283.5 -629v-302h-62
v329q-6 469 -344 473q160 -92 158.5 -442.5t-254.5 -361.5q-164 -14 -309 169q-123 143 -203 144q-59 -305 -207 -326q-137 -14 -168 127q-14 139 73 236.5t253 113.5q8 1 15 1z" />
    <glyph glyph-name="uni1B19" unicode="&#x1b19;" horiz-adv-x="2110" 
d="M1772 388q-30 -391 -387 -396q-258 1 -363.5 371t-410.5 370q-212 0 -285.5 -113t-73.5 -277q5 -208 151 -230q237 0 142 364l47 7q122 -492 -172 -490q-242 8 -242 375q0 574 496 574q250 -19 352.5 -382t358.5 -359q300 0 324 330v416q292 -24 302 -362v-586h-62v424
q-6 250 -177 309v-345z" />
    <glyph glyph-name="uni1B1A" unicode="&#x1b1a;" horiz-adv-x="1661" 
d="M559 421l-3 1v83q24 432 449 439h121q174 -1 283 -58q125 -62 136 -216q11 -199 -176 -300q215 -144 193 -369h-63q13 325 -317 333h-174v71l174 1q248 10 250 207q0 121 -349 122h-70q-290 -4 -345 -123q-45 -80 -46 -205q9 -236 181 -429q-403 47 -405 404
q0 84 24 218.5t-63.5 126t-90 -110.5t58.5 -183l-36 -13q-75 90 -78 232q0 288 167 288q160 -6 121 -217t-39 -288q3 -200 175 -286q-67 69 -78 272z" />
    <glyph glyph-name="uni1B1B" unicode="&#x1b1b;" horiz-adv-x="2700" 
d="M2015 1031q-72 -12 -82 -86q0 -61 87 -98q101 -39 199 -6q-87 190 -204 190zM1596.5 -1426.5q-92.5 162.5 -251.5 162.5q-139 -4 -244 -171.5t-296 -172.5q-498 5 -496 564q-16 665 704 753q653 82 687 498q9 516 -225 534h-51q-163 -18 -262 -152q-2 1 -3 0v4
q-99 130 -262 148h-51q-173 -14 -212 -201q-35 -326 170 -535q-403 46 -405 395q0 81 24 212.5t-63.5 123.5t-90 -108t58.5 -178l-36 -13q-75 88 -78 227q0 280 167 280q160 -6 121 -212t-39 -280q3 -195 175 -280q-66 66 -80 261q7 498 282 510q121 0 181 -51
q80 -63 140 -191q59 128 139 191q60 51 181 51q287 -13 282 -734q9 -635 -740 -679q-633 -85 -662 -511q-25 -423 444 -423q232 1 303 153.5t236 150.5q159 6 237.5 -154t314.5 -150q400 0 404 524v1314q2 154 -25 208l-67 -3q-140 0 -238 77q-111 82 -111 226
q0 154 173 158q152 -4 250 -238q163 88 392 -115l-23 -42q-118 94 -304 -22q15 -68 15 -247v-1480q2 -559 -465 -564q-208 19 -300.5 181.5z" />
    <glyph glyph-name="uni1B1C" unicode="&#x1b1c;" horiz-adv-x="2902" 
d="M840 942q121 0 181 -52q80 -65 140 -197q59 132 139 197q60 52 181 52q287 -14 282 -546h-2q-6 -162 -42 -268q97 62 157.5 308.5t176.5 372t338 135.5q216 1 321 -76q140 -86 150 -386q0 -210 -135 -360q-135 -146 -332 -146q-57 0 -155 26l3 82q74 -26 158 -26
q171 0 294 116q82 94 92 219q30 181 -137 275q-124 81 -356 49.5t-327 -273.5q-148 -420 -407 -466q115 131 140 416q19 321 -225 340h-51q-163 -19 -262 -156q-2 1 -3 0v4q-99 133 -262 152h-51q-173 -15 -212 -206q-35 -336 170 -550q-403 47 -405 406q0 83 24 218
t-63.5 126.5t-90 -111t58.5 -182.5l-36 -14q-75 91 -78 233q0 289 167 289q160 -6 121 -218t-39 -288q3 -201 175 -287q-66 67 -80 267q7 512 282 525z" />
    <glyph glyph-name="uni1B1D" unicode="&#x1b1d;" horiz-adv-x="1963" 
d="M789 213q100 -5 194 19.5t89 92.5t-77 80q-167 0 -206 -192zM648 566q7 364 294 377q121 0 181 -52q80 -63 140 -193q59 130 139 193q60 52 181 52q286 -13 281 -538v-389h-62v387q-1 318 -225 335h-51q-163 -19 -262 -154q-2 1 -3 0v4q-99 131 -262 150h-51
q-225 -18 -261 -186zM728 213q38 258 250 262q173 -4 173 -160q0 -146 -111 -228q-97 -78 -256 -78q1 -127 69.5 -218.5t213.5 -91.5q241 0 329 200l49 -31q-79 -371 -378 -376q-348 5 -356 515q-308 32 -310 386q0 82 24 215t-63.5 124.5t-90 -109t58.5 -180.5l-36 -13
q-75 89 -78 230q0 284 167 284q160 -6 121 -215t-39 -284q3 -198 263 -232z" />
    <glyph glyph-name="uni1B1E" unicode="&#x1b1e;" horiz-adv-x="1965" 
d="M680 102q185 3 277 242l43 -4q-51 -439 -311 -448q-323 15 -288 494q0 84 24 218.5t-63.5 126t-90 -110.5t58.5 -183l-36 -13q-75 90 -78 232q0 288 167 288q160 -6 121 -217.5t-39 -287.5q-17 -311 215 -337zM648 561q7 368 294 382q121 0 181 -52q80 -65 140 -196
q59 131 139 196q60 52 181 52q286 -14 281 -544v-394h-62v392q-1 322 -225 338h-51q-163 -18 -262 -155q-2 1 -3 0v4q-99 133 -262 151h-51q-225 -17 -261 -187z" />
    <glyph glyph-name="uni1B1F" unicode="&#x1b1f;" horiz-adv-x="1858" 
d="M1258 -8q-182 5 -226.5 163t-153.5 158q-89 -4 -144 -160t-186 -161q-302 20 -267 332q10 111 59 260.5t-46 149t-114 -270.5l-40 11q16 466 183 466q118 -4 129 -135q7 -89 -45.5 -201.5t-56.5 -185.5q-35 -227 248 -216q97 -4 143 115.5t136 132.5q95 -1 136 -124.5
t215 -123.5q214 38 235 324v418q292 -24 302 -361v-583h-62v423q-6 248 -177 307v-289q-2 -397 -268 -449z" />
    <glyph glyph-name="uni1B20" unicode="&#x1b20;" horiz-adv-x="1602" 
d="M355 420q-35 -228 248 -217q97 -4 143 116t136 133q95 -1 136 -125t215 -124q214 38 220.5 246t-138.5 454l38 38q160 -228 176.5 -560.5t-266.5 -388.5q-182 5 -226.5 164t-153.5 159q-89 -5 -144 -161.5t-186 -161.5q-302 20 -267 333q10 112 59 262.5t-46 150
t-114 -272.5l-40 11q16 468 183 468q118 -4 129 -135q7 -90 -45.5 -202.5t-56.5 -186.5z" />
    <glyph glyph-name="uni1B21" unicode="&#x1b21;" horiz-adv-x="1914" 
d="M1353 613q-15 120 -114 120q-111 0 -125 -120q-14 -209 -175 -213q-162 4 -176 213q-15 120 -124 120q-111 0 -125 -120q-14 -209 -175 -213q-179 5 -188 304l37 9q41 -102 151 -102t124 120q14 209 175 213q162 -4 176 -213q15 -120 125 -120t124 120q14 209 175 213
q179 -5 177 -266v-253q2 -290 49 -296q47 6 49 296v523q292 -24 302 -362v-586h-62v424q-6 250 -177 309v-395q-1 -335 -113 -338q-109 3 -110 338v275z" />
    <glyph glyph-name="uni1B22" unicode="&#x1b22;" horiz-adv-x="2012" 
d="M1611 948q292 -24 302 -362v-586h-62v424q-6 250 -177 309v-395q-1 -335 -110 -338h-3q-109 3 -110 338v65q-15 298 -296.5 333t-293.5 -94q-10 -76 174 -122.5t188 -233.5q-4 -293 -430 -289.5t-423 386.5q0 84 24 219t-63.5 127t-90 -111t58.5 -183l-36 -14
q-75 91 -78 234q0 289 167 289q160 -6 121 -218.5t-39 -288.5q2 -247 356 -245.5t359 99.5q2 60 -194.5 89.5t-172.5 254.5q26 304 333 309h42q358 -5 356 -476v-43q2 -290 49 -296q47 6 49 296v523z" />
    <glyph glyph-name="uni1B23" unicode="&#x1b23;" horiz-adv-x="1714" 
d="M1315 232q-89 -239 -398 -240h-62q-458 5 -456 476q0 73 14 171.5t-58.5 90.5t-75 -111t18.5 -184l-36 -13q-35 91 -38 234q0 289 167 289q130 -6 101 -182t-29 -262q13 -298 392 -298h61q227 -3 319 109q-147 137 -246 163q-39 -53 -40 -113l-41 -5q-40 214 -25 292
q133 -4 311 -179q43 -45 80 -89q7 20 12 41q27 236 -118 325q-104 42 -195 7q68 243 355.5 181t283.5 -632v-303h-62v331q-6 470 -344 474q155 -89 143 -405q-4 -52 -13 -97q54 -71 91 -138l-21 -33q-47 54 -91 100z" />
    <glyph glyph-name="uni1B24" unicode="&#x1b24;" horiz-adv-x="1807" 
d="M871 295q-3 -93 80 -180q86 -65 156 -68q87 -8 67 77q-78 171 -303 171zM392 737q-119 -2 -169 -179l-37 16q56 377 253 374q178 -13 153.5 -206t-190.5 -368q-167 -175 -132 -212.5t200 110.5t328 179v76q24 416 455 421q459 -5 457 -476v-471h-62v406q-15 330 -394 330
q-381 0 -376 -276q179 22 290 -54q126 -78 135 -214q-3 -223 -190 -210q-107 -2 -213 89q-99 100 -104 214q-125 -25 -254 -151q-136 -139 -235 -137q-129 -9 -139.5 101.5t125.5 250.5q109 105 174.5 249t-75.5 138z" />
    <glyph glyph-name="uni1B25" unicode="&#x1b25;" horiz-adv-x="1918" 
d="M395 419q-35 -228 248 -217q97 -3 143 116.5t136 131.5q95 -1 136 -124.5t215 -123.5q214 38 220.5 245.5t-138.5 296.5q-104 41 -195 7q68 242 355.5 180t283.5 -629v-302h-62v329q-6 469 -344 473q160 -92 176.5 -423.5t-266.5 -386.5q-182 5 -226.5 163.5
t-153.5 158.5q-89 -5 -144 -161t-186 -161q-302 20 -267 332q10 112 59 261.5t-46 149t-114 -270.5l-40 10q16 467 183 467q118 -4 129 -135q7 -90 -45.5 -202t-56.5 -185z" />
    <glyph glyph-name="uni1B26" unicode="&#x1b26;" horiz-adv-x="1713" 
d="M1081 255q-189 64 -350 66q-1 -119 92 -206q86 -65 246 -68q110 0 110 94q-8 76 -98 114zM302 141q10 -99 95 -84q89 20 86 252q-166 -24 -181 -168zM543 482l10 3q61 13 107 11v31q24 416 434 421h82q438 -5 436 -476v-471h-62v406q-15 330 -374 330h-81
q-360 0 -357 -239q209 -2 420 -89q126 -67 135 -204q-13 -222 -228 -222q-187 -2 -283 89q-122 103 -124 254q-51 6 -103 -5q3 -312 -154 -333q-147 -13 -178 128q-21 163 107 274q82 64 159 78v76q-2 197 -109 197t-125 -86t18 -175l-36 -13q-50 94 -48 206q-5 275 182 275
q180 -6 172 -358v-108z" />
    <glyph glyph-name="uni1B27" unicode="&#x1b27;" horiz-adv-x="1664" 
d="M1324 386q-39 -389 -456 -394h-62q-458 5 -456 473q0 73 14 171t-58.5 90t-75 -110.5t18.5 -182.5l-36 -13q-35 90 -38 232q0 288 167 288q130 -6 101 -181t-29 -260q13 -297 392 -297h61q390 0 394 328v414q292 -24 302 -361v-583h-62v423q-6 248 -177 307v-344z" />
    <glyph glyph-name="uni1B28" unicode="&#x1b28;" horiz-adv-x="1418" 
d="M872 1044q-72 -13 -82 -89q0 -64 87 -103q101 -40 199 -6q-87 198 -204 198zM1156 519q-7 98 -18 126l-73 -9q-140 0 -238 81q-111 85 -111 235q0 160 173 164q152 -4 250 -248q163 92 224 280l12 8l25 -32q8 -62 8 -66q0 -229 -205 -373q29 -69 16 -238
q-7 -450 -396 -455q-469 5 -467 480q0 74 14 173.5t-58.5 91t-75 -112t18.5 -184.5l-36 -14q-35 92 -38 236q0 292 167 292q130 -6 101 -183.5t-29 -264.5q13 -301 403 -301q330 0 333 314z" />
    <glyph glyph-name="uni1B29" unicode="&#x1b29;" horiz-adv-x="2266" 
d="M1926 443q0 -418 -363 -465q125 131 140 418q9 323 -225 342h-51q-163 -19 -262 -157q-2 1 -3 0v4q-99 134 -262 153h-51q-173 -15 -212 -207q-35 -338 170 -553q-403 47 -405 408q0 84 24 219.5t-63.5 127t-90 -111.5t58.5 -184l-36 -14q-75 92 -78 235q0 290 167 290
q160 -7 121 -219.5t-39 -289.5q3 -201 175 -289q-66 69 -80 269q7 515 282 528q121 0 181 -53q80 -65 140 -197q59 132 139 197q60 53 181 53q287 -14 282 -549h-2q-6 -163 -42 -270q131 72 141 300v524q292 -24 302 -364v-587h-62v426q-6 250 -177 310v-294z" />
    <glyph glyph-name="uni1B2A" unicode="&#x1b2a;" horiz-adv-x="1809" 
d="M554 576q-94 143 -226 151q-57 -8 -82 -168l-45 10q-68 229 42 360l32 9q41 0 70 -22q143 -103 250 -318zM1119 243q-140 48 -248 19q-3 -61 80 -147q86 -65 156 -68q100 0 100 79q-8 69 -88 117zM321 270q-160 -256 115 -46q199 153 362 194v107q24 414 455 419
q459 -5 457 -474v-469h-62v404q-15 329 -394 329q-381 0 -376 -296q158 32 318 -41q116 -78 125 -216q-3 -198 -198 -198q-117 -2 -223 89q-85 86 -104 171q-92 -30 -232 -118q-145 -129 -240 -124q-225 3 -50 303z" />
    <glyph glyph-name="uni1B2B" unicode="&#x1b2b;" horiz-adv-x="1762" 
d="M1422 490q-4 -484 -459 -491h-121q-174 11 -273 66q-135 54 -146 208q-1 127 136 190q9 3 20 6q-11 4 -20 7q-137 63 -136 190q11 154 146 208q-169 -10 -253 -137q-59 -84 -59 -229q0 -98 25 -207l-28 -24q-66 85 -78 268q12 399 566 395h221v-210h-79q-348 9 -348 -123
q0 -94 250 -102h174v-71l-174 -1q-250 -7 -250 -102q0 -121 348 -123l71 1q400 3 404 331v404q292 -24 302 -361v-583h-62v422q-6 249 -177 308v-240z" />
    <glyph glyph-name="uni1B2C" unicode="&#x1b2c;" horiz-adv-x="1965" 
d="M1625 467q4 -470 -286 -475q-230 17 -350 380q-174 -377 -402 -380q-302 20 -267 333q10 112 59 262.5t-46 149.5t-114 -272l-40 11q16 468 183 468q118 -4 129 -135q7 -90 -45.5 -202.5t-56.5 -186.5q-33 -215 218 -218q195 -4 279.5 197t72.5 545h60q-8 -352 63.5 -551
t257.5 -191q210 0 222 291v455q292 -24 302 -362v-586h-62v424q-6 250 -177 309v-266z" />
    <glyph glyph-name="uni1B2D" unicode="&#x1b2d;" horiz-adv-x="1459" 
d="M456 125q143 -42 131.5 379.5t377.5 426.5q398 -5 396 -468v-462h-62v398q-15 325 -334 325q-311 0 -317 -386t-351 -363q171 187 137 521q-34 160 -169 238q-63 -11 -117 -97l-31 7q34 190 167 304q159 -86 209 -447q11 -199 -37 -376z" />
    <glyph glyph-name="uni1B2E" unicode="&#x1b2e;" horiz-adv-x="2112" 
d="M1772 493h-1q2 -496 -386 -501q-364 5 -386 412q-15 329 -214 329q-201 0 -213 -313v-81q-1 -335 -143 -339q-159 4 -104 267t53 372t-69.5 100.5t-70 -116t58.5 -188.5l-36 -14q-75 91 -78 234q0 289 137 289q130 -6 127 -218.5t-50.5 -402t33.5 -194.5q74 6 88 271v68
q-2 471 266 476q261 -5 276 -412q15 -330 325 -330t324 330v416q292 -24 302 -362v-586h-62v424q-6 250 -177 309v-240z" />
    <glyph glyph-name="uni1B2F" unicode="&#x1b2f;" horiz-adv-x="1664" 
d="M868 -8h-62q-458 5 -456 476q0 73 14 171.5t-58.5 90.5t-75 -111t18.5 -184l-36 -13q-35 91 -38 234q0 289 167 289q130 -6 101 -182t-29 -262q13 -298 392 -298h61q320 -4 370 219q27 236 -118 325q-104 42 -195 7q68 243 355.5 181t283.5 -632v-303h-62v331
q-6 470 -344 474q155 -89 143 -405q-28 -407 -432 -408z" />
    <glyph glyph-name="uni1B30" unicode="&#x1b30;" horiz-adv-x="2012" 
d="M1673 538q0 -513 -373 -560q125 129 147.5 295t-35 287t-217 167.5t-305 5t-211.5 -146.5t-56.5 -261t181.5 -347q-403 47 -405 400q0 83 24 215.5t-63.5 124.5t-90 -109t58.5 -180l-36 -14q-75 90 -78 230q0 284 167 284q160 -6 121 -214.5t-39 -283.5q3 -198 175 -284
q-69 70 -84 218.5t49.5 317.5t248 233.5t383 -5t253.5 -239t38 -299t-62 -208.5q141 64 146 357v412q292 -24 302 -357v-576h-62v417q-6 246 -177 304v-184zM1156 -36q-85 291 -197 403q-50 -35 -89 -75l-38 16q68 203 118 262q193 -113 240 -590z" />
    <glyph glyph-name="uni1B31" unicode="&#x1b31;" horiz-adv-x="1650" 
d="M1237 431q11 45 12 99v414q292 -24 302 -361v-583h-62v423q-6 248 -177 307v-344q-2 -19 -5 -36q80 -97 129 -186l-21 -32q-67 76 -127 135q-85 -271 -432 -275h-62q-458 5 -456 473q0 73 14 171t-58.5 90t-75 -110.5t18.5 -182.5l-36 -13q-35 90 -38 232q0 288 167 288
q130 -6 101 -181t-29 -260q13 -297 392 -297h61q259 0 348 145q-120 103 -205 126q-39 -53 -40 -113l-41 -5q-40 213 -25 291q133 -4 311 -179q18 -18 34 -36z" />
    <glyph glyph-name="uni1B32" unicode="&#x1b32;" horiz-adv-x="1664" 
d="M253 139q-11 -100 85 -84q89 20 150 254q-195 -38 -235 -170zM515 465q59 277 -78 305q-157 31 -240 -235l-40 6q29 403 290 403q204 -19 128 -480q150 -11 251 -131q172 -206 298.5 -180t136.5 340v455q292 -24 302 -362v-585h-62v424q-6 249 -177 308v-290
q-8 -442 -263 -444q-164 -14 -309 169q-123 144 -203 145q-59 -306 -207 -327q-137 -14 -168 128q-14 139 73 236.5t253 113.5q8 1 15 1z" />
    <glyph glyph-name="uni1B33" unicode="&#x1b33;" horiz-adv-x="2210" 
d="M1870 339q-1 -335 -110 -339h-3q-109 4 -110 339v65q-15 329 -214 329q-211 0 -225 -329q-21 -407 -375 -412q-489 5 -487 475q0 74 14 172.5t-58.5 90t-75 -111t18.5 -183.5l-36 -14q-35 91 -38 234q0 289 167 289q130 -6 101 -181.5t-29 -261.5q13 -299 423 -299
q210 0 275 121q45 95 49 209q15 407 275 412q279 -5 277 -476v-43q2 -290 49 -296q47 6 49 296v523q292 -24 302 -362v-586h-62v424q-6 250 -177 309v-394z" />
    <glyph glyph-name="uni1B34" unicode="&#x1b34;" 
d="M-475 1071q-30 0 -51.5 21.5t-21.5 51.5t21.5 51.5t51.5 21.5t51.5 -21.5t21.5 -51.5t-21.5 -51.5t-51.5 -21.5zM-714 1071q-29 0 -50.5 21.5t-21.5 51.5t21.5 51.5t50.5 21.5q31 0 52.5 -21.5t21.5 -51.5t-21.5 -51.5t-52.5 -21.5zM-594 1260q-30 0 -52 21.5t-22 51.5
t22 51.5t52 21.5q31 0 52.5 -21.5t21.5 -51.5t-21.5 -51.5t-52.5 -21.5z" />
    <glyph glyph-name="uni1B35" unicode="&#x1b35;" horiz-adv-x="1098" 
d="M645 734h-41q-370 0 -504 -121l-31 24q177 302 534 307h42q393 -59 393 -478q0 -295 -217 -436q-120 -60 -237 -60q-181 0 -181 111q0 210 127 210q29 0 103 -77q65 -77 123 -77q110 0 172 107q57 95 57 183q-6 283 -340 307z" />
    <glyph glyph-name="uni1B36" unicode="&#x1b36;" 
d="M-960 1132l-21 -49q-235 94 -434 346l43 45q126 -136 189 -181q-55 106 -49 251q27 287 246 372t437.5 0t246 -372t-202.5 -452l-26 24q142 135 117 344.5t-189 269.5t-333.5 0t-199.5 -269q-2 -124 40 -188.5t136 -140.5z" />
    <glyph glyph-name="uni1B37" unicode="&#x1b37;" 
d="M-664 1044q-85 282 -197 391q-50 -34 -89 -73l-38 16q68 197 118 254q193 -110 240 -572zM-960 1132l-21 -49q-235 94 -434 346l43 45q126 -136 189 -181q-55 106 -49 251q27 287 246 372t437.5 0t246 -372t-202.5 -452l-26 24q142 135 117 344.5t-189 269.5t-333.5 0
t-199.5 -269q-2 -124 40 -188.5t136 -140.5z" />
    <glyph glyph-name="uni1B38" unicode="&#x1b38;" 
d="M-103 -22q0 -1574 -556 -1585q-180 15 -180 222q-8 221 250 568q255 422 271 619l47 -4q18 -217 -249 -670q-201 -303 -171 -448q17 -101 153 -82q336 18 373 1386v18h62v-24z" />
    <glyph glyph-name="uni1B39" unicode="&#x1b39;" 
d="M-70 -1581q279 417 -57 762q-399 392 -10 853l37 -31q-286 -343 89 -685q380 -338 -18 -924z" />
    <glyph glyph-name="uni1B3A" unicode="&#x1b3a;" 
d="M-275 -1489q-202 -115 -522 -119h-1q-648 8 -811 469q-133 411 61 837l56 -20q-159 -360 -62 -699q155 -374 756 -386q258 5 434 77q-159 262 -279 317q-60 -56 -75 -129l-55 3q-3 270 32 361q169 -35 359 -287q62 -89 120 -214q153 95 221 258q127 419 -142 1029l56 20
q304 -676 141 -1167q-65 -185 -209 -297q59 -154 115 -347l-44 -15q-79 173 -151 309z" />
    <glyph glyph-name="uni1B3B" unicode="&#x1b3b;" horiz-adv-x="1098" 
d="M595 700h-41q-370 0 -504 -115l-31 23q177 288 534 293h42q393 -56 393 -457q0 -282 -217 -417q-120 -57 -237 -57q-181 0 -181 106q0 201 127 201q29 0 103 -74q65 -73 123 -73q110 0 172 102q57 91 57 175q-6 270 -340 293zM-375 -1489q-202 -115 -522 -119h-1
q-648 8 -811 469q-133 411 61 837l56 -20q-159 -360 -62 -699q155 -374 756 -386q258 5 434 77q-159 262 -279 317q-60 -56 -75 -129l-55 3q-3 270 32 361q169 -35 359 -287q62 -89 120 -214q153 95 221 258q127 419 -142 1029l56 20q304 -676 141 -1167q-65 -185 -209 -297
q59 -154 115 -347l-44 -15q-79 173 -151 309z" />
    </font>
</defs>
</svg>
